<svg xmlns="http://www.w3.org/2000/svg" width="16" height="16" viewBox="0 0 16 16"><defs><style>.a,.b{fill:#9E9E9E;}.a{opacity:0;}</style></defs><rect class="a" width="16" height="16"/><path class="b" d="M9.7,5.11a.6.6,0,0,1,.6.6V8.835a.267.267,0,0,0,.267.267H13.7a.6.6,0,0,1,.6.525l0,.075a.6.6,0,0,1-.6.6H10.571a.267.267,0,0,0-.267.267v3.125a.6.6,0,0,1-.525.6l-.075,0a.6.6,0,0,1-.6-.6V10.569a.267.267,0,0,0-.267-.267H5.712a.6.6,0,0,1-.6-.525l0-.075a.6.6,0,0,1,.6-.6H8.837A.267.267,0,0,0,9.1,8.835V5.71a.6.6,0,0,1,.525-.6Z" transform="translate(-1.779 -1.777)"/><style type="text/css" media="screen">path{vector-effect:non-scaling-stroke}</style></svg>