<svg width="375" height="220" viewBox="0 0 375 220" fill="none" xmlns="http://www.w3.org/2000/svg">
<g clip-path="url(#clip0_6587_23272)">
<rect width="375" height="220" fill="url(#paint0_linear_6587_23272)"/>
<path d="M15.333 9.65519L2.4881 2.627C2.1449 2.43736 1.7592 2.33789 1.36709 2.33789C0.974982 2.33789 0.589283 2.43736 0.246081 2.627L-12.5988 9.65811C-12.9656 9.85882 -13.2718 10.1543 -13.4855 10.5138C-13.6991 10.8733 -13.8123 11.2835 -13.8132 11.7016V25.6617C-13.8123 26.0798 -13.6991 26.49 -13.4855 26.8495C-13.2718 27.209 -12.9656 27.5045 -12.5988 27.7052L0.246081 34.7363C0.589283 34.9259 0.974982 35.0254 1.36709 35.0254C1.7592 35.0254 2.1449 34.9259 2.4881 34.7363L15.333 27.7052C15.6998 27.5045 16.006 27.209 16.2196 26.8495C16.4333 26.49 16.5465 26.0798 16.5474 25.6617V11.7031C16.5472 11.2842 16.4344 10.8731 16.2208 10.5128C16.0071 10.1525 15.7005 9.85626 15.333 9.65519ZM1.36709 4.6705L13.0954 11.0929L8.74852 13.4707L-2.97974 7.04826L1.36709 4.6705ZM1.36709 17.5154L-10.3612 11.0929L-5.41151 8.38238L6.31675 14.8048L1.36709 17.5154ZM14.212 25.6675L2.53481 32.0593V19.5341L7.20568 16.9782V22.1863C7.20568 22.496 7.3287 22.793 7.54769 23.012C7.76668 23.2309 8.06369 23.354 8.37339 23.354C8.68309 23.354 8.9801 23.2309 9.19909 23.012C9.41808 22.793 9.54111 22.496 9.54111 22.1863V15.6996L14.212 13.1437V25.6617V25.6675Z" fill="#F2F8FF"/>
<path d="M15.333 51.0224L2.4881 43.9942C2.1449 43.8045 1.7592 43.7051 1.36709 43.7051C0.974982 43.7051 0.589283 43.8045 0.246081 43.9942L-12.5988 51.0253C-12.9656 51.226 -13.2718 51.5215 -13.4855 51.881C-13.6991 52.2404 -13.8123 52.6507 -13.8132 53.0688V67.0289C-13.8123 67.447 -13.6991 67.8572 -13.4855 68.2167C-13.2718 68.5761 -12.9656 68.8717 -12.5988 69.0724L0.246081 76.1035C0.589283 76.2931 0.974982 76.3926 1.36709 76.3926C1.7592 76.3926 2.1449 76.2931 2.4881 76.1035L15.333 69.0724C15.6998 68.8717 16.006 68.5761 16.2196 68.2167C16.4333 67.8572 16.5465 67.447 16.5474 67.0289V53.0703C16.5472 52.6514 16.4344 52.2402 16.2208 51.8799C16.0071 51.5196 15.7005 51.2234 15.333 51.0224ZM1.36709 46.0377L13.0954 52.4601L8.74852 54.8379L-2.97974 48.4155L1.36709 46.0377ZM1.36709 58.8826L-10.3612 52.4601L-5.41151 49.7496L6.31675 56.172L1.36709 58.8826ZM14.212 67.0347L2.53481 73.4265V60.9013L7.20568 58.3454V63.5534C7.20568 63.8631 7.3287 64.1602 7.54769 64.3791C7.76668 64.5981 8.06369 64.7212 8.37339 64.7212C8.68309 64.7212 8.9801 64.5981 9.19909 64.3791C9.41808 64.1602 9.54111 63.8631 9.54111 63.5534V57.0668L14.212 54.5109V67.0289V67.0347Z" fill="#F2F8FF"/>
<path d="M15.333 92.3896L2.4881 85.3614C2.1449 85.1717 1.7592 85.0723 1.36709 85.0723C0.974982 85.0723 0.589283 85.1717 0.246081 85.3614L-12.5988 92.3925C-12.9656 92.5932 -13.2718 92.8887 -13.4855 93.2482C-13.6991 93.6076 -13.8123 94.0178 -13.8132 94.436V108.396C-13.8123 108.814 -13.6991 109.224 -13.4855 109.584C-13.2718 109.943 -12.9656 110.239 -12.5988 110.44L0.246081 117.471C0.589283 117.66 0.974982 117.76 1.36709 117.76C1.7592 117.76 2.1449 117.66 2.4881 117.471L15.333 110.44C15.6998 110.239 16.006 109.943 16.2196 109.584C16.4333 109.224 16.5465 108.814 16.5474 108.396V94.4375C16.5472 94.0186 16.4344 93.6074 16.2208 93.2471C16.0071 92.8868 15.7005 92.5906 15.333 92.3896ZM1.36709 87.4049L13.0954 93.8273L8.74852 96.2051L-2.97974 89.7826L1.36709 87.4049ZM1.36709 100.25L-10.3612 93.8273L-5.41151 91.1168L6.31675 97.5392L1.36709 100.25ZM14.212 108.402L2.53481 114.794V102.268L7.20568 99.7126V104.921C7.20568 105.23 7.3287 105.527 7.54769 105.746C7.76668 105.965 8.06369 106.088 8.37339 106.088C8.68309 106.088 8.9801 105.965 9.19909 105.746C9.41808 105.527 9.54111 105.23 9.54111 104.921V98.434L14.212 95.8781V108.396V108.402Z" fill="#F2F8FF"/>
<path d="M15.333 133.756L2.4881 126.728C2.1449 126.538 1.7592 126.438 1.36709 126.438C0.974982 126.438 0.589283 126.538 0.246081 126.728L-12.5988 133.759C-12.9656 133.959 -13.2718 134.255 -13.4855 134.614C-13.6991 134.974 -13.8123 135.384 -13.8132 135.802V149.762C-13.8123 150.18 -13.6991 150.591 -13.4855 150.95C-13.2718 151.31 -12.9656 151.605 -12.5988 151.806L0.246081 158.837C0.589283 159.027 0.974982 159.126 1.36709 159.126C1.7592 159.126 2.1449 159.027 2.4881 158.837L15.333 151.806C15.6998 151.605 16.006 151.31 16.2196 150.95C16.4333 150.591 16.5465 150.18 16.5474 149.762V135.804C16.5472 135.385 16.4344 134.974 16.2208 134.613C16.0071 134.253 15.7005 133.957 15.333 133.756ZM1.36709 128.771L13.0954 135.194L8.74852 137.571L-2.97974 131.149L1.36709 128.771ZM1.36709 141.616L-10.3612 135.194L-5.41151 132.483L6.31675 138.905L1.36709 141.616ZM14.212 149.768L2.53481 156.16V143.635L7.20568 141.079V146.287C7.20568 146.597 7.3287 146.894 7.54769 147.113C7.76668 147.332 8.06369 147.455 8.37339 147.455C8.68309 147.455 8.9801 147.332 9.19909 147.113C9.41808 146.894 9.54111 146.597 9.54111 146.287V139.8L14.212 137.244V149.762V149.768Z" fill="#F2F8FF"/>
<path d="M15.333 175.123L2.4881 168.095C2.1449 167.905 1.7592 167.806 1.36709 167.806C0.974982 167.806 0.589283 167.905 0.246081 168.095L-12.5988 175.126C-12.9656 175.327 -13.2718 175.622 -13.4855 175.982C-13.6991 176.341 -13.8123 176.751 -13.8132 177.169V191.129C-13.8123 191.548 -13.6991 191.958 -13.4855 192.317C-13.2718 192.677 -12.9656 192.972 -12.5988 193.173L0.246081 200.204C0.589283 200.394 0.974982 200.493 1.36709 200.493C1.7592 200.493 2.1449 200.394 2.4881 200.204L15.333 193.173C15.6998 192.972 16.006 192.677 16.2196 192.317C16.4333 191.958 16.5465 191.548 16.5474 191.129V177.171C16.5472 176.752 16.4344 176.341 16.2208 175.981C16.0071 175.62 15.7005 175.324 15.333 175.123ZM1.36709 170.138L13.0954 176.561L8.74852 178.938L-2.97974 172.516L1.36709 170.138ZM1.36709 182.983L-10.3612 176.561L-5.41151 173.85L6.31675 180.273L1.36709 182.983ZM14.212 191.135L2.53481 197.527V185.002L7.20568 182.446V187.654C7.20568 187.964 7.3287 188.261 7.54769 188.48C7.76668 188.699 8.06369 188.822 8.37339 188.822C8.68309 188.822 8.9801 188.699 9.19909 188.48C9.41808 188.261 9.54111 187.964 9.54111 187.654V181.167L14.212 178.612V191.129V191.135Z" fill="#F2F8FF"/>
<path d="M15.333 216.49L2.4881 209.462C2.1449 209.272 1.7592 209.173 1.36709 209.173C0.974982 209.173 0.589283 209.272 0.246081 209.462L-12.5988 216.493C-12.9656 216.694 -13.2718 216.989 -13.4855 217.349C-13.6991 217.708 -13.8123 218.118 -13.8132 218.537V232.497C-13.8123 232.915 -13.6991 233.325 -13.4855 233.684C-13.2718 234.044 -12.9656 234.339 -12.5988 234.54L0.246081 241.571C0.589283 241.761 0.974982 241.86 1.36709 241.86C1.7592 241.86 2.1449 241.761 2.4881 241.571L15.333 234.54C15.6998 234.339 16.006 234.044 16.2196 233.684C16.4333 233.325 16.5465 232.915 16.5474 232.497V218.538C16.5472 218.119 16.4344 217.708 16.2208 217.348C16.0071 216.987 15.7005 216.691 15.333 216.49ZM1.36709 211.505L13.0954 217.928L8.74852 220.306L-2.97974 213.883L1.36709 211.505ZM1.36709 224.35L-10.3612 217.928L-5.41151 215.217L6.31675 221.64L1.36709 224.35ZM14.212 232.502L2.53481 238.894V226.369L7.20568 223.813V229.021C7.20568 229.331 7.3287 229.628 7.54769 229.847C7.76668 230.066 8.06369 230.189 8.37339 230.189C8.68309 230.189 8.9801 230.066 9.19909 229.847C9.41808 229.628 9.54111 229.331 9.54111 229.021V222.535L14.212 219.979V232.497V232.502Z" fill="#F2F8FF"/>
<path d="M56.6999 30.3388L43.855 23.3106C43.5118 23.121 43.1261 23.0215 42.734 23.0215C42.3419 23.0215 41.9562 23.121 41.613 23.3106L28.7681 30.3417C28.4013 30.5424 28.0951 30.8379 27.8815 31.1974C27.6679 31.5568 27.5547 31.9671 27.5537 32.3852V46.3453C27.5547 46.7634 27.6679 47.1736 27.8815 47.5331C28.0951 47.8926 28.4013 48.1881 28.7681 48.3888L41.613 55.4199C41.9562 55.6095 42.3419 55.709 42.734 55.709C43.1261 55.709 43.5118 55.6095 43.855 55.4199L56.6999 48.3888C57.0668 48.1881 57.373 47.8926 57.5866 47.5331C57.8002 47.1736 57.9134 46.7634 57.9144 46.3453V32.3867C57.9142 31.9678 57.8014 31.5566 57.5877 31.1964C57.374 30.8361 57.0674 30.5399 56.6999 30.3388ZM42.734 25.3541L54.4623 31.7765L50.1155 34.1543L38.3872 27.7319L42.734 25.3541ZM42.734 38.199L31.0058 31.7765L35.9554 29.066L47.6837 35.4884L42.734 38.199ZM55.5789 46.3511L43.9018 52.7429V40.2177L48.5726 37.6618V42.8699C48.5726 43.1795 48.6956 43.4766 48.9146 43.6956C49.1336 43.9145 49.4306 44.0376 49.7403 44.0376C50.05 44.0376 50.347 43.9145 50.566 43.6956C50.785 43.4766 50.9081 43.1795 50.9081 42.8699V36.3832L55.5789 33.8273V46.3453V46.3511Z" fill="#F2F8FF"/>
<path d="M56.6999 71.706L43.855 64.6778C43.5118 64.4881 43.1261 64.3887 42.734 64.3887C42.3419 64.3887 41.9562 64.4881 41.613 64.6778L28.7681 71.7089C28.4013 71.9096 28.0951 72.2051 27.8815 72.5646C27.6679 72.924 27.5547 73.3343 27.5537 73.7524V87.7125C27.5547 88.1306 27.6679 88.5408 27.8815 88.9003C28.0951 89.2597 28.4013 89.5553 28.7681 89.756L41.613 96.7871C41.9562 96.9767 42.3419 97.0762 42.734 97.0762C43.1261 97.0762 43.5118 96.9767 43.855 96.7871L56.6999 89.756C57.0668 89.5553 57.373 89.2597 57.5866 88.9003C57.8002 88.5408 57.9134 88.1306 57.9144 87.7125V73.7539C57.9142 73.335 57.8014 72.9238 57.5877 72.5635C57.374 72.2032 57.0674 71.907 56.6999 71.706ZM42.734 66.7213L54.4623 73.1437L50.1155 75.5215L38.3872 69.099L42.734 66.7213ZM42.734 79.5662L31.0058 73.1437L35.9554 70.4332L47.6837 76.8556L42.734 79.5662ZM55.5789 87.7183L43.9018 94.1101V81.5849L48.5726 79.029V84.237C48.5726 84.5467 48.6956 84.8438 48.9146 85.0627C49.1336 85.2817 49.4306 85.4048 49.7403 85.4048C50.05 85.4048 50.347 85.2817 50.566 85.0627C50.785 84.8438 50.9081 84.5467 50.9081 84.237V77.7504L55.5789 75.1945V87.7125V87.7183Z" fill="#F2F8FF"/>
<path d="M56.6999 113.073L43.855 106.045C43.5118 105.855 43.1261 105.756 42.734 105.756C42.3419 105.756 41.9562 105.855 41.613 106.045L28.7681 113.076C28.4013 113.277 28.0951 113.572 27.8815 113.932C27.6679 114.291 27.5547 114.701 27.5537 115.12V129.08C27.5547 129.498 27.6679 129.908 27.8815 130.267C28.0951 130.627 28.4013 130.922 28.7681 131.123L41.613 138.154C41.9562 138.344 42.3419 138.443 42.734 138.443C43.1261 138.443 43.5118 138.344 43.855 138.154L56.6999 131.123C57.0668 130.922 57.373 130.627 57.5866 130.267C57.8002 129.908 57.9134 129.498 57.9144 129.08V115.121C57.9142 114.702 57.8014 114.291 57.5877 113.931C57.374 113.57 57.0674 113.274 56.6999 113.073ZM42.734 108.088L54.4623 114.511L50.1155 116.889L38.3872 110.466L42.734 108.088ZM42.734 120.933L31.0058 114.511L35.9554 111.8L47.6837 118.223L42.734 120.933ZM55.5789 129.085L43.9018 135.477V122.952L48.5726 120.396V125.604C48.5726 125.914 48.6956 126.211 48.9146 126.43C49.1336 126.649 49.4306 126.772 49.7403 126.772C50.05 126.772 50.347 126.649 50.566 126.43C50.785 126.211 50.9081 125.914 50.9081 125.604V119.118L55.5789 116.562V129.08V129.085Z" fill="#F2F8FF"/>
<path d="M56.6999 154.439L43.855 147.411C43.5118 147.222 43.1261 147.122 42.734 147.122C42.3419 147.122 41.9562 147.222 41.613 147.411L28.7681 154.442C28.4013 154.643 28.0951 154.939 27.8815 155.298C27.6679 155.657 27.5547 156.068 27.5537 156.486V170.446C27.5547 170.864 27.6679 171.274 27.8815 171.634C28.0951 171.993 28.4013 172.289 28.7681 172.489L41.613 179.52C41.9562 179.71 42.3419 179.81 42.734 179.81C43.1261 179.81 43.5118 179.71 43.855 179.52L56.6999 172.489C57.0668 172.289 57.373 171.993 57.5866 171.634C57.8002 171.274 57.9134 170.864 57.9144 170.446V156.487C57.9142 156.068 57.8014 155.657 57.5877 155.297C57.374 154.937 57.0674 154.64 56.6999 154.439ZM42.734 149.455L54.4623 155.877L50.1155 158.255L38.3872 151.832L42.734 149.455ZM42.734 162.3L31.0058 155.877L35.9554 153.167L47.6837 159.589L42.734 162.3ZM55.5789 170.452L43.9018 176.843V164.318L48.5726 161.762V166.97C48.5726 167.28 48.6956 167.577 48.9146 167.796C49.1336 168.015 49.4306 168.138 49.7403 168.138C50.05 168.138 50.347 168.015 50.566 167.796C50.785 167.577 50.9081 167.28 50.9081 166.97V160.484L55.5789 157.928V170.446V170.452Z" fill="#F2F8FF"/>
<path d="M56.6999 195.807L43.855 188.778C43.5118 188.589 43.1261 188.489 42.734 188.489C42.3419 188.489 41.9562 188.589 41.613 188.778L28.7681 195.809C28.4013 196.01 28.0951 196.306 27.8815 196.665C27.6679 197.025 27.5547 197.435 27.5537 197.853V211.813C27.5547 212.231 27.6679 212.641 27.8815 213.001C28.0951 213.36 28.4013 213.656 28.7681 213.857L41.613 220.888C41.9562 221.077 42.3419 221.177 42.734 221.177C43.1261 221.177 43.5118 221.077 43.855 220.888L56.6999 213.857C57.0668 213.656 57.373 213.36 57.5866 213.001C57.8002 212.641 57.9134 212.231 57.9144 211.813V197.854C57.9142 197.436 57.8014 197.024 57.5877 196.664C57.374 196.304 57.0674 196.008 56.6999 195.807ZM42.734 190.822L54.4623 197.244L50.1155 199.622L38.3872 193.2L42.734 190.822ZM42.734 203.667L31.0058 197.244L35.9554 194.534L47.6837 200.956L42.734 203.667ZM55.5789 211.819L43.9018 218.211V205.685L48.5726 203.13V208.338C48.5726 208.647 48.6956 208.944 48.9146 209.163C49.1336 209.382 49.4306 209.505 49.7403 209.505C50.05 209.505 50.347 209.382 50.566 209.163C50.785 208.944 50.9081 208.647 50.9081 208.338V201.851L55.5789 199.295V211.813V211.819Z" fill="#F2F8FF"/>
<path d="M98.0669 9.65519L85.222 2.627C84.8788 2.43736 84.4931 2.33789 84.101 2.33789C83.7089 2.33789 83.3232 2.43736 82.98 2.627L70.1351 9.65811C69.7683 9.85882 69.462 10.1543 69.2484 10.5138C69.0348 10.8733 68.9216 11.2835 68.9207 11.7016V25.6617C68.9216 26.0798 69.0348 26.49 69.2484 26.8495C69.462 27.209 69.7683 27.5045 70.1351 27.7052L82.98 34.7363C83.3232 34.9259 83.7089 35.0254 84.101 35.0254C84.4931 35.0254 84.8788 34.9259 85.222 34.7363L98.0669 27.7052C98.4337 27.5045 98.7399 27.209 98.9535 26.8495C99.1672 26.49 99.2803 26.0798 99.2813 25.6617V11.7031C99.2811 11.2842 99.1683 10.8731 98.9546 10.5128C98.741 10.1525 98.4343 9.85626 98.0669 9.65519ZM84.101 4.6705L95.8292 11.0929L91.4824 13.4707L79.7541 7.04826L84.101 4.6705ZM84.101 17.5154L72.3727 11.0929L77.3224 8.38238L89.0506 14.8048L84.101 17.5154ZM96.9459 25.6675L85.2687 32.0593V19.5341L89.9396 16.9782V22.1863C89.9396 22.496 90.0626 22.793 90.2816 23.012C90.5006 23.2309 90.7976 23.354 91.1073 23.354C91.417 23.354 91.714 23.2309 91.933 23.012C92.152 22.793 92.275 22.496 92.275 22.1863V15.6996L96.9459 13.1437V25.6617V25.6675Z" fill="#F2F8FF"/>
<path d="M98.0669 51.0224L85.222 43.9942C84.8788 43.8045 84.4931 43.7051 84.101 43.7051C83.7089 43.7051 83.3232 43.8045 82.98 43.9942L70.1351 51.0253C69.7683 51.226 69.462 51.5215 69.2484 51.881C69.0348 52.2404 68.9216 52.6507 68.9207 53.0688V67.0289C68.9216 67.447 69.0348 67.8572 69.2484 68.2167C69.462 68.5761 69.7683 68.8717 70.1351 69.0724L82.98 76.1035C83.3232 76.2931 83.7089 76.3926 84.101 76.3926C84.4931 76.3926 84.8788 76.2931 85.222 76.1035L98.0669 69.0724C98.4337 68.8717 98.7399 68.5761 98.9535 68.2167C99.1672 67.8572 99.2803 67.447 99.2813 67.0289V53.0703C99.2811 52.6514 99.1683 52.2402 98.9546 51.8799C98.741 51.5196 98.4343 51.2234 98.0669 51.0224ZM84.101 46.0377L95.8292 52.4601L91.4824 54.8379L79.7541 48.4155L84.101 46.0377ZM84.101 58.8826L72.3727 52.4601L77.3224 49.7496L89.0506 56.172L84.101 58.8826ZM96.9459 67.0347L85.2687 73.4265V60.9013L89.9396 58.3454V63.5534C89.9396 63.8631 90.0626 64.1602 90.2816 64.3791C90.5006 64.5981 90.7976 64.7212 91.1073 64.7212C91.417 64.7212 91.714 64.5981 91.933 64.3791C92.152 64.1602 92.275 63.8631 92.275 63.5534V57.0668L96.9459 54.5109V67.0289V67.0347Z" fill="#F2F8FF"/>
<path d="M98.0669 92.3896L85.222 85.3614C84.8788 85.1717 84.4931 85.0723 84.101 85.0723C83.7089 85.0723 83.3232 85.1717 82.98 85.3614L70.1351 92.3925C69.7683 92.5932 69.462 92.8887 69.2484 93.2482C69.0348 93.6076 68.9216 94.0178 68.9207 94.436V108.396C68.9216 108.814 69.0348 109.224 69.2484 109.584C69.462 109.943 69.7683 110.239 70.1351 110.44L82.98 117.471C83.3232 117.66 83.7089 117.76 84.101 117.76C84.4931 117.76 84.8788 117.66 85.222 117.471L98.0669 110.44C98.4337 110.239 98.7399 109.943 98.9535 109.584C99.1672 109.224 99.2803 108.814 99.2813 108.396V94.4375C99.2811 94.0186 99.1683 93.6074 98.9546 93.2471C98.741 92.8868 98.4343 92.5906 98.0669 92.3896ZM84.101 87.4049L95.8292 93.8273L91.4824 96.2051L79.7541 89.7826L84.101 87.4049ZM84.101 100.25L72.3727 93.8273L77.3224 91.1168L89.0506 97.5392L84.101 100.25ZM96.9459 108.402L85.2687 114.794V102.268L89.9396 99.7126V104.921C89.9396 105.23 90.0626 105.527 90.2816 105.746C90.5006 105.965 90.7976 106.088 91.1073 106.088C91.417 106.088 91.714 105.965 91.933 105.746C92.152 105.527 92.275 105.23 92.275 104.921V98.434L96.9459 95.8781V108.396V108.402Z" fill="#F2F8FF"/>
<path d="M98.0669 133.756L85.222 126.728C84.8788 126.538 84.4931 126.438 84.101 126.438C83.7089 126.438 83.3232 126.538 82.98 126.728L70.1351 133.759C69.7683 133.959 69.462 134.255 69.2484 134.614C69.0348 134.974 68.9216 135.384 68.9207 135.802V149.762C68.9216 150.18 69.0348 150.591 69.2484 150.95C69.462 151.31 69.7683 151.605 70.1351 151.806L82.98 158.837C83.3232 159.027 83.7089 159.126 84.101 159.126C84.4931 159.126 84.8788 159.027 85.222 158.837L98.0669 151.806C98.4337 151.605 98.7399 151.31 98.9535 150.95C99.1672 150.591 99.2803 150.18 99.2813 149.762V135.804C99.2811 135.385 99.1683 134.974 98.9546 134.613C98.741 134.253 98.4343 133.957 98.0669 133.756ZM84.101 128.771L95.8292 135.194L91.4824 137.571L79.7541 131.149L84.101 128.771ZM84.101 141.616L72.3727 135.194L77.3224 132.483L89.0506 138.905L84.101 141.616ZM96.9459 149.768L85.2687 156.16V143.635L89.9396 141.079V146.287C89.9396 146.597 90.0626 146.894 90.2816 147.113C90.5006 147.332 90.7976 147.455 91.1073 147.455C91.417 147.455 91.714 147.332 91.933 147.113C92.152 146.894 92.275 146.597 92.275 146.287V139.8L96.9459 137.244V149.762V149.768Z" fill="#F2F8FF"/>
<path d="M98.0669 175.123L85.222 168.095C84.8788 167.905 84.4931 167.806 84.101 167.806C83.7089 167.806 83.3232 167.905 82.98 168.095L70.1351 175.126C69.7683 175.327 69.462 175.622 69.2484 175.982C69.0348 176.341 68.9216 176.751 68.9207 177.169V191.129C68.9216 191.548 69.0348 191.958 69.2484 192.317C69.462 192.677 69.7683 192.972 70.1351 193.173L82.98 200.204C83.3232 200.394 83.7089 200.493 84.101 200.493C84.4931 200.493 84.8788 200.394 85.222 200.204L98.0669 193.173C98.4337 192.972 98.7399 192.677 98.9535 192.317C99.1672 191.958 99.2803 191.548 99.2813 191.129V177.171C99.2811 176.752 99.1683 176.341 98.9546 175.981C98.741 175.62 98.4343 175.324 98.0669 175.123ZM84.101 170.138L95.8292 176.561L91.4824 178.938L79.7541 172.516L84.101 170.138ZM84.101 182.983L72.3727 176.561L77.3224 173.85L89.0506 180.273L84.101 182.983ZM96.9459 191.135L85.2687 197.527V185.002L89.9396 182.446V187.654C89.9396 187.964 90.0626 188.261 90.2816 188.48C90.5006 188.699 90.7976 188.822 91.1073 188.822C91.417 188.822 91.714 188.699 91.933 188.48C92.152 188.261 92.275 187.964 92.275 187.654V181.167L96.9459 178.612V191.129V191.135Z" fill="#F2F8FF"/>
<path d="M98.0669 216.49L85.222 209.462C84.8788 209.272 84.4931 209.173 84.101 209.173C83.7089 209.173 83.3232 209.272 82.98 209.462L70.1351 216.493C69.7683 216.694 69.462 216.989 69.2484 217.349C69.0348 217.708 68.9216 218.118 68.9207 218.537V232.497C68.9216 232.915 69.0348 233.325 69.2484 233.684C69.462 234.044 69.7683 234.339 70.1351 234.54L82.98 241.571C83.3232 241.761 83.7089 241.86 84.101 241.86C84.4931 241.86 84.8788 241.761 85.222 241.571L98.0669 234.54C98.4337 234.339 98.7399 234.044 98.9535 233.684C99.1672 233.325 99.2803 232.915 99.2813 232.497V218.538C99.2811 218.119 99.1683 217.708 98.9546 217.348C98.741 216.987 98.4343 216.691 98.0669 216.49ZM84.101 211.505L95.8292 217.928L91.4824 220.306L79.7541 213.883L84.101 211.505ZM84.101 224.35L72.3727 217.928L77.3224 215.217L89.0506 221.64L84.101 224.35ZM96.9459 232.502L85.2687 238.894V226.369L89.9396 223.813V229.021C89.9396 229.331 90.0626 229.628 90.2816 229.847C90.5006 230.066 90.7976 230.189 91.1073 230.189C91.417 230.189 91.714 230.066 91.933 229.847C92.152 229.628 92.275 229.331 92.275 229.021V222.535L96.9459 219.979V232.497V232.502Z" fill="#F2F8FF"/>
<path d="M139.434 30.3388L126.589 23.3106C126.246 23.121 125.86 23.0215 125.468 23.0215C125.076 23.0215 124.69 23.121 124.347 23.3106L111.502 30.3417C111.135 30.5424 110.829 30.8379 110.615 31.1974C110.402 31.5568 110.289 31.9671 110.288 32.3852V46.3453C110.289 46.7634 110.402 47.1736 110.615 47.5331C110.829 47.8926 111.135 48.1881 111.502 48.3888L124.347 55.4199C124.69 55.6095 125.076 55.709 125.468 55.709C125.86 55.709 126.246 55.6095 126.589 55.4199L139.434 48.3888C139.801 48.1881 140.107 47.8926 140.32 47.5331C140.534 47.1736 140.647 46.7634 140.648 46.3453V32.3867C140.648 31.9678 140.535 31.5566 140.322 31.1964C140.108 30.8361 139.801 30.5399 139.434 30.3388ZM125.468 25.3541L137.196 31.7765L132.849 34.1543L121.121 27.7319L125.468 25.3541ZM125.468 38.199L113.74 31.7765L118.689 29.066L130.418 35.4884L125.468 38.199ZM138.313 46.3511L126.636 52.7429V40.2177L131.307 37.6618V42.8699C131.307 43.1795 131.43 43.4766 131.649 43.6956C131.868 43.9145 132.165 44.0376 132.474 44.0376C132.784 44.0376 133.081 43.9145 133.3 43.6956C133.519 43.4766 133.642 43.1795 133.642 42.8699V36.3832L138.313 33.8273V46.3453V46.3511Z" fill="#F2F8FF"/>
<path d="M139.434 71.706L126.589 64.6778C126.246 64.4881 125.86 64.3887 125.468 64.3887C125.076 64.3887 124.69 64.4881 124.347 64.6778L111.502 71.7089C111.135 71.9096 110.829 72.2051 110.615 72.5646C110.402 72.924 110.289 73.3343 110.288 73.7524V87.7125C110.289 88.1306 110.402 88.5408 110.615 88.9003C110.829 89.2597 111.135 89.5553 111.502 89.756L124.347 96.7871C124.69 96.9767 125.076 97.0762 125.468 97.0762C125.86 97.0762 126.246 96.9767 126.589 96.7871L139.434 89.756C139.801 89.5553 140.107 89.2597 140.32 88.9003C140.534 88.5408 140.647 88.1306 140.648 87.7125V73.7539C140.648 73.335 140.535 72.9238 140.322 72.5635C140.108 72.2032 139.801 71.907 139.434 71.706ZM125.468 66.7213L137.196 73.1437L132.849 75.5215L121.121 69.099L125.468 66.7213ZM125.468 79.5662L113.74 73.1437L118.689 70.4332L130.418 76.8556L125.468 79.5662ZM138.313 87.7183L126.636 94.1101V81.5849L131.307 79.029V84.237C131.307 84.5467 131.43 84.8438 131.649 85.0627C131.868 85.2817 132.165 85.4048 132.474 85.4048C132.784 85.4048 133.081 85.2817 133.3 85.0627C133.519 84.8438 133.642 84.5467 133.642 84.237V77.7504L138.313 75.1945V87.7125V87.7183Z" fill="#F2F8FF"/>
<path d="M139.434 113.073L126.589 106.045C126.246 105.855 125.86 105.756 125.468 105.756C125.076 105.756 124.69 105.855 124.347 106.045L111.502 113.076C111.135 113.277 110.829 113.572 110.615 113.932C110.402 114.291 110.289 114.701 110.288 115.12V129.08C110.289 129.498 110.402 129.908 110.615 130.267C110.829 130.627 111.135 130.922 111.502 131.123L124.347 138.154C124.69 138.344 125.076 138.443 125.468 138.443C125.86 138.443 126.246 138.344 126.589 138.154L139.434 131.123C139.801 130.922 140.107 130.627 140.32 130.267C140.534 129.908 140.647 129.498 140.648 129.08V115.121C140.648 114.702 140.535 114.291 140.322 113.931C140.108 113.57 139.801 113.274 139.434 113.073ZM125.468 108.088L137.196 114.511L132.849 116.889L121.121 110.466L125.468 108.088ZM125.468 120.933L113.74 114.511L118.689 111.8L130.418 118.223L125.468 120.933ZM138.313 129.085L126.636 135.477V122.952L131.307 120.396V125.604C131.307 125.914 131.43 126.211 131.649 126.43C131.868 126.649 132.165 126.772 132.474 126.772C132.784 126.772 133.081 126.649 133.3 126.43C133.519 126.211 133.642 125.914 133.642 125.604V119.118L138.313 116.562V129.08V129.085Z" fill="#F2F8FF"/>
<path d="M139.434 154.439L126.589 147.411C126.246 147.222 125.86 147.122 125.468 147.122C125.076 147.122 124.69 147.222 124.347 147.411L111.502 154.442C111.135 154.643 110.829 154.939 110.615 155.298C110.402 155.657 110.289 156.068 110.288 156.486V170.446C110.289 170.864 110.402 171.274 110.615 171.634C110.829 171.993 111.135 172.289 111.502 172.489L124.347 179.52C124.69 179.71 125.076 179.81 125.468 179.81C125.86 179.81 126.246 179.71 126.589 179.52L139.434 172.489C139.801 172.289 140.107 171.993 140.32 171.634C140.534 171.274 140.647 170.864 140.648 170.446V156.487C140.648 156.068 140.535 155.657 140.322 155.297C140.108 154.937 139.801 154.64 139.434 154.439ZM125.468 149.455L137.196 155.877L132.849 158.255L121.121 151.832L125.468 149.455ZM125.468 162.3L113.74 155.877L118.689 153.167L130.418 159.589L125.468 162.3ZM138.313 170.452L126.636 176.843V164.318L131.307 161.762V166.97C131.307 167.28 131.43 167.577 131.649 167.796C131.868 168.015 132.165 168.138 132.474 168.138C132.784 168.138 133.081 168.015 133.3 167.796C133.519 167.577 133.642 167.28 133.642 166.97V160.484L138.313 157.928V170.446V170.452Z" fill="#F2F8FF"/>
<path d="M139.434 195.807L126.589 188.778C126.246 188.589 125.86 188.489 125.468 188.489C125.076 188.489 124.69 188.589 124.347 188.778L111.502 195.809C111.135 196.01 110.829 196.306 110.615 196.665C110.402 197.025 110.289 197.435 110.288 197.853V211.813C110.289 212.231 110.402 212.641 110.615 213.001C110.829 213.36 111.135 213.656 111.502 213.857L124.347 220.888C124.69 221.077 125.076 221.177 125.468 221.177C125.86 221.177 126.246 221.077 126.589 220.888L139.434 213.857C139.801 213.656 140.107 213.36 140.32 213.001C140.534 212.641 140.647 212.231 140.648 211.813V197.854C140.648 197.436 140.535 197.024 140.322 196.664C140.108 196.304 139.801 196.008 139.434 195.807ZM125.468 190.822L137.196 197.244L132.849 199.622L121.121 193.2L125.468 190.822ZM125.468 203.667L113.74 197.244L118.689 194.534L130.418 200.956L125.468 203.667ZM138.313 211.819L126.636 218.211V205.685L131.307 203.13V208.338C131.307 208.647 131.43 208.944 131.649 209.163C131.868 209.382 132.165 209.505 132.474 209.505C132.784 209.505 133.081 209.382 133.3 209.163C133.519 208.944 133.642 208.647 133.642 208.338V201.851L138.313 199.295V211.813V211.819Z" fill="#F2F8FF"/>
<path d="M180.801 9.65519L167.956 2.627C167.613 2.43736 167.227 2.33789 166.835 2.33789C166.443 2.33789 166.057 2.43736 165.714 2.627L152.869 9.65811C152.502 9.85882 152.196 10.1543 151.982 10.5138C151.769 10.8733 151.655 11.2835 151.655 11.7016V25.6617C151.655 26.0798 151.769 26.49 151.982 26.8495C152.196 27.209 152.502 27.5045 152.869 27.7052L165.714 34.7363C166.057 34.9259 166.443 35.0254 166.835 35.0254C167.227 35.0254 167.613 34.9259 167.956 34.7363L180.801 27.7052C181.168 27.5045 181.474 27.209 181.687 26.8495C181.901 26.49 182.014 26.0798 182.015 25.6617V11.7031C182.015 11.2842 181.902 10.8731 181.689 10.5128C181.475 10.1525 181.168 9.85626 180.801 9.65519ZM166.835 4.6705L178.563 11.0929L174.216 13.4707L162.488 7.04826L166.835 4.6705ZM166.835 17.5154L155.107 11.0929L160.056 8.38238L171.785 14.8048L166.835 17.5154ZM179.68 25.6675L168.003 32.0593V19.5341L172.673 16.9782V22.1863C172.673 22.496 172.796 22.793 173.015 23.012C173.234 23.2309 173.531 23.354 173.841 23.354C174.151 23.354 174.448 23.2309 174.667 23.012C174.886 22.793 175.009 22.496 175.009 22.1863V15.6996L179.68 13.1437V25.6617V25.6675Z" fill="#F2F8FF"/>
<path d="M180.801 51.0224L167.956 43.9942C167.613 43.8045 167.227 43.7051 166.835 43.7051C166.443 43.7051 166.057 43.8045 165.714 43.9942L152.869 51.0253C152.502 51.226 152.196 51.5215 151.982 51.881C151.769 52.2404 151.655 52.6507 151.655 53.0688V67.0289C151.655 67.447 151.769 67.8572 151.982 68.2167C152.196 68.5761 152.502 68.8717 152.869 69.0724L165.714 76.1035C166.057 76.2931 166.443 76.3926 166.835 76.3926C167.227 76.3926 167.613 76.2931 167.956 76.1035L180.801 69.0724C181.168 68.8717 181.474 68.5761 181.687 68.2167C181.901 67.8572 182.014 67.447 182.015 67.0289V53.0703C182.015 52.6514 181.902 52.2402 181.689 51.8799C181.475 51.5196 181.168 51.2234 180.801 51.0224ZM166.835 46.0377L178.563 52.4601L174.216 54.8379L162.488 48.4155L166.835 46.0377ZM166.835 58.8826L155.107 52.4601L160.056 49.7496L171.785 56.172L166.835 58.8826ZM179.68 67.0347L168.003 73.4265V60.9013L172.673 58.3454V63.5534C172.673 63.8631 172.796 64.1602 173.015 64.3791C173.234 64.5981 173.531 64.7212 173.841 64.7212C174.151 64.7212 174.448 64.5981 174.667 64.3791C174.886 64.1602 175.009 63.8631 175.009 63.5534V57.0668L179.68 54.5109V67.0289V67.0347Z" fill="#F2F8FF"/>
<path d="M180.801 92.3896L167.956 85.3614C167.613 85.1717 167.227 85.0723 166.835 85.0723C166.443 85.0723 166.057 85.1717 165.714 85.3614L152.869 92.3925C152.502 92.5932 152.196 92.8887 151.982 93.2482C151.769 93.6076 151.655 94.0178 151.655 94.436V108.396C151.655 108.814 151.769 109.224 151.982 109.584C152.196 109.943 152.502 110.239 152.869 110.44L165.714 117.471C166.057 117.66 166.443 117.76 166.835 117.76C167.227 117.76 167.613 117.66 167.956 117.471L180.801 110.44C181.168 110.239 181.474 109.943 181.687 109.584C181.901 109.224 182.014 108.814 182.015 108.396V94.4375C182.015 94.0186 181.902 93.6074 181.689 93.2471C181.475 92.8868 181.168 92.5906 180.801 92.3896ZM166.835 87.4049L178.563 93.8273L174.216 96.2051L162.488 89.7826L166.835 87.4049ZM166.835 100.25L155.107 93.8273L160.056 91.1168L171.785 97.5392L166.835 100.25ZM179.68 108.402L168.003 114.794V102.268L172.673 99.7126V104.921C172.673 105.23 172.796 105.527 173.015 105.746C173.234 105.965 173.531 106.088 173.841 106.088C174.151 106.088 174.448 105.965 174.667 105.746C174.886 105.527 175.009 105.23 175.009 104.921V98.434L179.68 95.8781V108.396V108.402Z" fill="#F2F8FF"/>
<path d="M180.801 133.756L167.956 126.728C167.613 126.538 167.227 126.438 166.835 126.438C166.443 126.438 166.057 126.538 165.714 126.728L152.869 133.759C152.502 133.959 152.196 134.255 151.982 134.614C151.769 134.974 151.655 135.384 151.655 135.802V149.762C151.655 150.18 151.769 150.591 151.982 150.95C152.196 151.31 152.502 151.605 152.869 151.806L165.714 158.837C166.057 159.027 166.443 159.126 166.835 159.126C167.227 159.126 167.613 159.027 167.956 158.837L180.801 151.806C181.168 151.605 181.474 151.31 181.687 150.95C181.901 150.591 182.014 150.18 182.015 149.762V135.804C182.015 135.385 181.902 134.974 181.689 134.613C181.475 134.253 181.168 133.957 180.801 133.756ZM166.835 128.771L178.563 135.194L174.216 137.571L162.488 131.149L166.835 128.771ZM166.835 141.616L155.107 135.194L160.056 132.483L171.785 138.905L166.835 141.616ZM179.68 149.768L168.003 156.16V143.635L172.673 141.079V146.287C172.673 146.597 172.796 146.894 173.015 147.113C173.234 147.332 173.531 147.455 173.841 147.455C174.151 147.455 174.448 147.332 174.667 147.113C174.886 146.894 175.009 146.597 175.009 146.287V139.8L179.68 137.244V149.762V149.768Z" fill="#F2F8FF"/>
<path d="M180.801 175.123L167.956 168.095C167.613 167.905 167.227 167.806 166.835 167.806C166.443 167.806 166.057 167.905 165.714 168.095L152.869 175.126C152.502 175.327 152.196 175.622 151.982 175.982C151.769 176.341 151.655 176.751 151.655 177.169V191.129C151.655 191.548 151.769 191.958 151.982 192.317C152.196 192.677 152.502 192.972 152.869 193.173L165.714 200.204C166.057 200.394 166.443 200.493 166.835 200.493C167.227 200.493 167.613 200.394 167.956 200.204L180.801 193.173C181.168 192.972 181.474 192.677 181.687 192.317C181.901 191.958 182.014 191.548 182.015 191.129V177.171C182.015 176.752 181.902 176.341 181.689 175.981C181.475 175.62 181.168 175.324 180.801 175.123ZM166.835 170.138L178.563 176.561L174.216 178.938L162.488 172.516L166.835 170.138ZM166.835 182.983L155.107 176.561L160.056 173.85L171.785 180.273L166.835 182.983ZM179.68 191.135L168.003 197.527V185.002L172.673 182.446V187.654C172.673 187.964 172.796 188.261 173.015 188.48C173.234 188.699 173.531 188.822 173.841 188.822C174.151 188.822 174.448 188.699 174.667 188.48C174.886 188.261 175.009 187.964 175.009 187.654V181.167L179.68 178.612V191.129V191.135Z" fill="#F2F8FF"/>
<path d="M180.801 216.49L167.956 209.462C167.613 209.272 167.227 209.173 166.835 209.173C166.443 209.173 166.057 209.272 165.714 209.462L152.869 216.493C152.502 216.694 152.196 216.989 151.982 217.349C151.769 217.708 151.655 218.118 151.655 218.537V232.497C151.655 232.915 151.769 233.325 151.982 233.684C152.196 234.044 152.502 234.339 152.869 234.54L165.714 241.571C166.057 241.761 166.443 241.86 166.835 241.86C167.227 241.86 167.613 241.761 167.956 241.571L180.801 234.54C181.168 234.339 181.474 234.044 181.687 233.684C181.901 233.325 182.014 232.915 182.015 232.497V218.538C182.015 218.119 181.902 217.708 181.689 217.348C181.475 216.987 181.168 216.691 180.801 216.49ZM166.835 211.505L178.563 217.928L174.216 220.306L162.488 213.883L166.835 211.505ZM166.835 224.35L155.107 217.928L160.056 215.217L171.785 221.64L166.835 224.35ZM179.68 232.502L168.003 238.894V226.369L172.673 223.813V229.021C172.673 229.331 172.796 229.628 173.015 229.847C173.234 230.066 173.531 230.189 173.841 230.189C174.151 230.189 174.448 230.066 174.667 229.847C174.886 229.628 175.009 229.331 175.009 229.021V222.535L179.68 219.979V232.497V232.502Z" fill="#F2F8FF"/>
<path d="M222.168 30.3388L209.323 23.3106C208.98 23.121 208.594 23.0215 208.202 23.0215C207.81 23.0215 207.424 23.121 207.081 23.3106L194.236 30.3417C193.869 30.5424 193.563 30.8379 193.349 31.1974C193.136 31.5568 193.022 31.9671 193.021 32.3852V46.3453C193.022 46.7634 193.136 47.1736 193.349 47.5331C193.563 47.8926 193.869 48.1881 194.236 48.3888L207.081 55.4199C207.424 55.6095 207.81 55.709 208.202 55.709C208.594 55.709 208.98 55.6095 209.323 55.4199L222.168 48.3888C222.535 48.1881 222.841 47.8926 223.054 47.5331C223.268 47.1736 223.381 46.7634 223.382 46.3453V32.3867C223.382 31.9678 223.269 31.5566 223.055 31.1964C222.842 30.8361 222.535 30.5399 222.168 30.3388ZM208.202 25.3541L219.93 31.7765L215.583 34.1543L203.855 27.7319L208.202 25.3541ZM208.202 38.199L196.474 31.7765L201.423 29.066L213.151 35.4884L208.202 38.199ZM221.047 46.3511L209.37 52.7429V40.2177L214.04 37.6618V42.8699C214.04 43.1795 214.163 43.4766 214.382 43.6956C214.601 43.9145 214.898 44.0376 215.208 44.0376C215.518 44.0376 215.815 43.9145 216.034 43.6956C216.253 43.4766 216.376 43.1795 216.376 42.8699V36.3832L221.047 33.8273V46.3453V46.3511Z" fill="#F2F8FF"/>
<path d="M222.168 71.706L209.323 64.6778C208.98 64.4881 208.594 64.3887 208.202 64.3887C207.81 64.3887 207.424 64.4881 207.081 64.6778L194.236 71.7089C193.869 71.9096 193.563 72.2051 193.349 72.5646C193.136 72.924 193.022 73.3343 193.021 73.7524V87.7125C193.022 88.1306 193.136 88.5408 193.349 88.9003C193.563 89.2597 193.869 89.5553 194.236 89.756L207.081 96.7871C207.424 96.9767 207.81 97.0762 208.202 97.0762C208.594 97.0762 208.98 96.9767 209.323 96.7871L222.168 89.756C222.535 89.5553 222.841 89.2597 223.054 88.9003C223.268 88.5408 223.381 88.1306 223.382 87.7125V73.7539C223.382 73.335 223.269 72.9238 223.055 72.5635C222.842 72.2032 222.535 71.907 222.168 71.706ZM208.202 66.7213L219.93 73.1437L215.583 75.5215L203.855 69.099L208.202 66.7213ZM208.202 79.5662L196.474 73.1437L201.423 70.4332L213.151 76.8556L208.202 79.5662ZM221.047 87.7183L209.37 94.1101V81.5849L214.04 79.029V84.237C214.04 84.5467 214.163 84.8438 214.382 85.0627C214.601 85.2817 214.898 85.4048 215.208 85.4048C215.518 85.4048 215.815 85.2817 216.034 85.0627C216.253 84.8438 216.376 84.5467 216.376 84.237V77.7504L221.047 75.1945V87.7125V87.7183Z" fill="#F2F8FF"/>
<path d="M222.168 113.073L209.323 106.045C208.98 105.855 208.594 105.756 208.202 105.756C207.81 105.756 207.424 105.855 207.081 106.045L194.236 113.076C193.869 113.277 193.563 113.572 193.349 113.932C193.136 114.291 193.022 114.701 193.021 115.12V129.08C193.022 129.498 193.136 129.908 193.349 130.267C193.563 130.627 193.869 130.922 194.236 131.123L207.081 138.154C207.424 138.344 207.81 138.443 208.202 138.443C208.594 138.443 208.98 138.344 209.323 138.154L222.168 131.123C222.535 130.922 222.841 130.627 223.054 130.267C223.268 129.908 223.381 129.498 223.382 129.08V115.121C223.382 114.702 223.269 114.291 223.055 113.931C222.842 113.57 222.535 113.274 222.168 113.073ZM208.202 108.088L219.93 114.511L215.583 116.889L203.855 110.466L208.202 108.088ZM208.202 120.933L196.474 114.511L201.423 111.8L213.151 118.223L208.202 120.933ZM221.047 129.085L209.37 135.477V122.952L214.04 120.396V125.604C214.04 125.914 214.163 126.211 214.382 126.43C214.601 126.649 214.898 126.772 215.208 126.772C215.518 126.772 215.815 126.649 216.034 126.43C216.253 126.211 216.376 125.914 216.376 125.604V119.118L221.047 116.562V129.08V129.085Z" fill="#F2F8FF"/>
<path d="M222.168 154.439L209.323 147.411C208.98 147.222 208.594 147.122 208.202 147.122C207.81 147.122 207.424 147.222 207.081 147.411L194.236 154.442C193.869 154.643 193.563 154.939 193.349 155.298C193.136 155.657 193.022 156.068 193.021 156.486V170.446C193.022 170.864 193.136 171.274 193.349 171.634C193.563 171.993 193.869 172.289 194.236 172.489L207.081 179.52C207.424 179.71 207.81 179.81 208.202 179.81C208.594 179.81 208.98 179.71 209.323 179.52L222.168 172.489C222.535 172.289 222.841 171.993 223.054 171.634C223.268 171.274 223.381 170.864 223.382 170.446V156.487C223.382 156.068 223.269 155.657 223.055 155.297C222.842 154.937 222.535 154.64 222.168 154.439ZM208.202 149.455L219.93 155.877L215.583 158.255L203.855 151.832L208.202 149.455ZM208.202 162.3L196.474 155.877L201.423 153.167L213.151 159.589L208.202 162.3ZM221.047 170.452L209.37 176.843V164.318L214.04 161.762V166.97C214.04 167.28 214.163 167.577 214.382 167.796C214.601 168.015 214.898 168.138 215.208 168.138C215.518 168.138 215.815 168.015 216.034 167.796C216.253 167.577 216.376 167.28 216.376 166.97V160.484L221.047 157.928V170.446V170.452Z" fill="#F2F8FF"/>
<path d="M222.168 195.807L209.323 188.778C208.98 188.589 208.594 188.489 208.202 188.489C207.81 188.489 207.424 188.589 207.081 188.778L194.236 195.809C193.869 196.01 193.563 196.306 193.349 196.665C193.136 197.025 193.022 197.435 193.021 197.853V211.813C193.022 212.231 193.136 212.641 193.349 213.001C193.563 213.36 193.869 213.656 194.236 213.857L207.081 220.888C207.424 221.077 207.81 221.177 208.202 221.177C208.594 221.177 208.98 221.077 209.323 220.888L222.168 213.857C222.535 213.656 222.841 213.36 223.054 213.001C223.268 212.641 223.381 212.231 223.382 211.813V197.854C223.382 197.436 223.269 197.024 223.055 196.664C222.842 196.304 222.535 196.008 222.168 195.807ZM208.202 190.822L219.93 197.244L215.583 199.622L203.855 193.2L208.202 190.822ZM208.202 203.667L196.474 197.244L201.423 194.534L213.151 200.956L208.202 203.667ZM221.047 211.819L209.37 218.211V205.685L214.04 203.13V208.338C214.04 208.647 214.163 208.944 214.382 209.163C214.601 209.382 214.898 209.505 215.208 209.505C215.518 209.505 215.815 209.382 216.034 209.163C216.253 208.944 216.376 208.647 216.376 208.338V201.851L221.047 199.295V211.813V211.819Z" fill="#F2F8FF"/>
<path d="M263.535 9.65519L250.69 2.627C250.347 2.43736 249.961 2.33789 249.569 2.33789C249.177 2.33789 248.791 2.43736 248.448 2.627L235.603 9.65811C235.236 9.85882 234.93 10.1543 234.716 10.5138C234.503 10.8733 234.389 11.2835 234.388 11.7016V25.6617C234.389 26.0798 234.503 26.49 234.716 26.8495C234.93 27.209 235.236 27.5045 235.603 27.7052L248.448 34.7363C248.791 34.9259 249.177 35.0254 249.569 35.0254C249.961 35.0254 250.347 34.9259 250.69 34.7363L263.535 27.7052C263.901 27.5045 264.208 27.209 264.421 26.8495C264.635 26.49 264.748 26.0798 264.749 25.6617V11.7031C264.749 11.2842 264.636 10.8731 264.422 10.5128C264.209 10.1525 263.902 9.85626 263.535 9.65519ZM249.569 4.6705L261.297 11.0929L256.95 13.4707L245.222 7.04826L249.569 4.6705ZM249.569 17.5154L237.84 11.0929L242.79 8.38238L254.518 14.8048L249.569 17.5154ZM262.414 25.6675L250.736 32.0593V19.5341L255.407 16.9782V22.1863C255.407 22.496 255.53 22.793 255.749 23.012C255.968 23.2309 256.265 23.354 256.575 23.354C256.885 23.354 257.182 23.2309 257.401 23.012C257.62 22.793 257.743 22.496 257.743 22.1863V15.6996L262.414 13.1437V25.6617V25.6675Z" fill="#F2F8FF"/>
<path d="M263.535 51.0224L250.69 43.9942C250.347 43.8045 249.961 43.7051 249.569 43.7051C249.177 43.7051 248.791 43.8045 248.448 43.9942L235.603 51.0253C235.236 51.226 234.93 51.5215 234.716 51.881C234.503 52.2404 234.389 52.6507 234.388 53.0688V67.0289C234.389 67.447 234.503 67.8572 234.716 68.2167C234.93 68.5761 235.236 68.8717 235.603 69.0724L248.448 76.1035C248.791 76.2931 249.177 76.3926 249.569 76.3926C249.961 76.3926 250.347 76.2931 250.69 76.1035L263.535 69.0724C263.901 68.8717 264.208 68.5761 264.421 68.2167C264.635 67.8572 264.748 67.447 264.749 67.0289V53.0703C264.749 52.6514 264.636 52.2402 264.422 51.8799C264.209 51.5196 263.902 51.2234 263.535 51.0224ZM249.569 46.0377L261.297 52.4601L256.95 54.8379L245.222 48.4155L249.569 46.0377ZM249.569 58.8826L237.84 52.4601L242.79 49.7496L254.518 56.172L249.569 58.8826ZM262.414 67.0347L250.736 73.4265V60.9013L255.407 58.3454V63.5534C255.407 63.8631 255.53 64.1602 255.749 64.3791C255.968 64.5981 256.265 64.7212 256.575 64.7212C256.885 64.7212 257.182 64.5981 257.401 64.3791C257.62 64.1602 257.743 63.8631 257.743 63.5534V57.0668L262.414 54.5109V67.0289V67.0347Z" fill="#F2F8FF"/>
<path d="M263.535 92.3896L250.69 85.3614C250.347 85.1717 249.961 85.0723 249.569 85.0723C249.177 85.0723 248.791 85.1717 248.448 85.3614L235.603 92.3925C235.236 92.5932 234.93 92.8887 234.716 93.2482C234.503 93.6076 234.389 94.0178 234.388 94.436V108.396C234.389 108.814 234.503 109.224 234.716 109.584C234.93 109.943 235.236 110.239 235.603 110.44L248.448 117.471C248.791 117.66 249.177 117.76 249.569 117.76C249.961 117.76 250.347 117.66 250.69 117.471L263.535 110.44C263.901 110.239 264.208 109.943 264.421 109.584C264.635 109.224 264.748 108.814 264.749 108.396V94.4375C264.749 94.0186 264.636 93.6074 264.422 93.2471C264.209 92.8868 263.902 92.5906 263.535 92.3896ZM249.569 87.4049L261.297 93.8273L256.95 96.2051L245.222 89.7826L249.569 87.4049ZM249.569 100.25L237.84 93.8273L242.79 91.1168L254.518 97.5392L249.569 100.25ZM262.414 108.402L250.736 114.794V102.268L255.407 99.7126V104.921C255.407 105.23 255.53 105.527 255.749 105.746C255.968 105.965 256.265 106.088 256.575 106.088C256.885 106.088 257.182 105.965 257.401 105.746C257.62 105.527 257.743 105.23 257.743 104.921V98.434L262.414 95.8781V108.396V108.402Z" fill="#F2F8FF"/>
<path d="M263.535 133.756L250.69 126.728C250.347 126.538 249.961 126.438 249.569 126.438C249.177 126.438 248.791 126.538 248.448 126.728L235.603 133.759C235.236 133.959 234.93 134.255 234.716 134.614C234.503 134.974 234.389 135.384 234.388 135.802V149.762C234.389 150.18 234.503 150.591 234.716 150.95C234.93 151.31 235.236 151.605 235.603 151.806L248.448 158.837C248.791 159.027 249.177 159.126 249.569 159.126C249.961 159.126 250.347 159.027 250.69 158.837L263.535 151.806C263.901 151.605 264.208 151.31 264.421 150.95C264.635 150.591 264.748 150.18 264.749 149.762V135.804C264.749 135.385 264.636 134.974 264.422 134.613C264.209 134.253 263.902 133.957 263.535 133.756ZM249.569 128.771L261.297 135.194L256.95 137.571L245.222 131.149L249.569 128.771ZM249.569 141.616L237.84 135.194L242.79 132.483L254.518 138.905L249.569 141.616ZM262.414 149.768L250.736 156.16V143.635L255.407 141.079V146.287C255.407 146.597 255.53 146.894 255.749 147.113C255.968 147.332 256.265 147.455 256.575 147.455C256.885 147.455 257.182 147.332 257.401 147.113C257.62 146.894 257.743 146.597 257.743 146.287V139.8L262.414 137.244V149.762V149.768Z" fill="#F2F8FF"/>
<path d="M263.535 175.123L250.69 168.095C250.347 167.905 249.961 167.806 249.569 167.806C249.177 167.806 248.791 167.905 248.448 168.095L235.603 175.126C235.236 175.327 234.93 175.622 234.716 175.982C234.503 176.341 234.389 176.751 234.388 177.169V191.129C234.389 191.548 234.503 191.958 234.716 192.317C234.93 192.677 235.236 192.972 235.603 193.173L248.448 200.204C248.791 200.394 249.177 200.493 249.569 200.493C249.961 200.493 250.347 200.394 250.69 200.204L263.535 193.173C263.901 192.972 264.208 192.677 264.421 192.317C264.635 191.958 264.748 191.548 264.749 191.129V177.171C264.749 176.752 264.636 176.341 264.422 175.981C264.209 175.62 263.902 175.324 263.535 175.123ZM249.569 170.138L261.297 176.561L256.95 178.938L245.222 172.516L249.569 170.138ZM249.569 182.983L237.84 176.561L242.79 173.85L254.518 180.273L249.569 182.983ZM262.414 191.135L250.736 197.527V185.002L255.407 182.446V187.654C255.407 187.964 255.53 188.261 255.749 188.48C255.968 188.699 256.265 188.822 256.575 188.822C256.885 188.822 257.182 188.699 257.401 188.48C257.62 188.261 257.743 187.964 257.743 187.654V181.167L262.414 178.612V191.129V191.135Z" fill="#F2F8FF"/>
<path d="M263.535 216.49L250.69 209.462C250.347 209.272 249.961 209.173 249.569 209.173C249.177 209.173 248.791 209.272 248.448 209.462L235.603 216.493C235.236 216.694 234.93 216.989 234.716 217.349C234.503 217.708 234.389 218.118 234.388 218.537V232.497C234.389 232.915 234.503 233.325 234.716 233.684C234.93 234.044 235.236 234.339 235.603 234.54L248.448 241.571C248.791 241.761 249.177 241.86 249.569 241.86C249.961 241.86 250.347 241.761 250.69 241.571L263.535 234.54C263.901 234.339 264.208 234.044 264.421 233.684C264.635 233.325 264.748 232.915 264.749 232.497V218.538C264.749 218.119 264.636 217.708 264.422 217.348C264.209 216.987 263.902 216.691 263.535 216.49ZM249.569 211.505L261.297 217.928L256.95 220.306L245.222 213.883L249.569 211.505ZM249.569 224.35L237.84 217.928L242.79 215.217L254.518 221.64L249.569 224.35ZM262.414 232.502L250.736 238.894V226.369L255.407 223.813V229.021C255.407 229.331 255.53 229.628 255.749 229.847C255.968 230.066 256.265 230.189 256.575 230.189C256.885 230.189 257.182 230.066 257.401 229.847C257.62 229.628 257.743 229.331 257.743 229.021V222.535L262.414 219.979V232.497V232.502Z" fill="#F2F8FF"/>
<path d="M304.902 30.3388L292.057 23.3106C291.713 23.121 291.328 23.0215 290.936 23.0215C290.544 23.0215 290.158 23.121 289.815 23.3106L276.97 30.3417C276.603 30.5424 276.297 30.8379 276.083 31.1974C275.87 31.5568 275.756 31.9671 275.755 32.3852V46.3453C275.756 46.7634 275.87 47.1736 276.083 47.5331C276.297 47.8926 276.603 48.1881 276.97 48.3888L289.815 55.4199C290.158 55.6095 290.544 55.709 290.936 55.709C291.328 55.709 291.713 55.6095 292.057 55.4199L304.902 48.3888C305.268 48.1881 305.575 47.8926 305.788 47.5331C306.002 47.1736 306.115 46.7634 306.116 46.3453V32.3867C306.116 31.9678 306.003 31.5566 305.789 31.1964C305.576 30.8361 305.269 30.5399 304.902 30.3388ZM290.936 25.3541L302.664 31.7765L298.317 34.1543L286.589 27.7319L290.936 25.3541ZM290.936 38.199L279.207 31.7765L284.157 29.066L295.885 35.4884L290.936 38.199ZM303.781 46.3511L292.103 52.7429V40.2177L296.774 37.6618V42.8699C296.774 43.1795 296.897 43.4766 297.116 43.6956C297.335 43.9145 297.632 44.0376 297.942 44.0376C298.252 44.0376 298.549 43.9145 298.768 43.6956C298.987 43.4766 299.11 43.1795 299.11 42.8699V36.3832L303.781 33.8273V46.3453V46.3511Z" fill="#F2F8FF"/>
<path d="M304.902 71.706L292.057 64.6778C291.713 64.4881 291.328 64.3887 290.936 64.3887C290.544 64.3887 290.158 64.4881 289.815 64.6778L276.97 71.7089C276.603 71.9096 276.297 72.2051 276.083 72.5646C275.87 72.924 275.756 73.3343 275.755 73.7524V87.7125C275.756 88.1306 275.87 88.5408 276.083 88.9003C276.297 89.2597 276.603 89.5553 276.97 89.756L289.815 96.7871C290.158 96.9767 290.544 97.0762 290.936 97.0762C291.328 97.0762 291.713 96.9767 292.057 96.7871L304.902 89.756C305.268 89.5553 305.575 89.2597 305.788 88.9003C306.002 88.5408 306.115 88.1306 306.116 87.7125V73.7539C306.116 73.335 306.003 72.9238 305.789 72.5635C305.576 72.2032 305.269 71.907 304.902 71.706ZM290.936 66.7213L302.664 73.1437L298.317 75.5215L286.589 69.099L290.936 66.7213ZM290.936 79.5662L279.207 73.1437L284.157 70.4332L295.885 76.8556L290.936 79.5662ZM303.781 87.7183L292.103 94.1101V81.5849L296.774 79.029V84.237C296.774 84.5467 296.897 84.8438 297.116 85.0627C297.335 85.2817 297.632 85.4048 297.942 85.4048C298.252 85.4048 298.549 85.2817 298.768 85.0627C298.987 84.8438 299.11 84.5467 299.11 84.237V77.7504L303.781 75.1945V87.7125V87.7183Z" fill="#F2F8FF"/>
<path d="M304.902 113.073L292.057 106.045C291.713 105.855 291.328 105.756 290.936 105.756C290.544 105.756 290.158 105.855 289.815 106.045L276.97 113.076C276.603 113.277 276.297 113.572 276.083 113.932C275.87 114.291 275.756 114.701 275.755 115.12V129.08C275.756 129.498 275.87 129.908 276.083 130.267C276.297 130.627 276.603 130.922 276.97 131.123L289.815 138.154C290.158 138.344 290.544 138.443 290.936 138.443C291.328 138.443 291.713 138.344 292.057 138.154L304.902 131.123C305.268 130.922 305.575 130.627 305.788 130.267C306.002 129.908 306.115 129.498 306.116 129.08V115.121C306.116 114.702 306.003 114.291 305.789 113.931C305.576 113.57 305.269 113.274 304.902 113.073ZM290.936 108.088L302.664 114.511L298.317 116.889L286.589 110.466L290.936 108.088ZM290.936 120.933L279.207 114.511L284.157 111.8L295.885 118.223L290.936 120.933ZM303.781 129.085L292.103 135.477V122.952L296.774 120.396V125.604C296.774 125.914 296.897 126.211 297.116 126.43C297.335 126.649 297.632 126.772 297.942 126.772C298.252 126.772 298.549 126.649 298.768 126.43C298.987 126.211 299.11 125.914 299.11 125.604V119.118L303.781 116.562V129.08V129.085Z" fill="#F2F8FF"/>
<path d="M304.902 154.439L292.057 147.411C291.713 147.222 291.328 147.122 290.936 147.122C290.544 147.122 290.158 147.222 289.815 147.411L276.97 154.442C276.603 154.643 276.297 154.939 276.083 155.298C275.87 155.657 275.756 156.068 275.755 156.486V170.446C275.756 170.864 275.87 171.274 276.083 171.634C276.297 171.993 276.603 172.289 276.97 172.489L289.815 179.52C290.158 179.71 290.544 179.81 290.936 179.81C291.328 179.81 291.713 179.71 292.057 179.52L304.902 172.489C305.268 172.289 305.575 171.993 305.788 171.634C306.002 171.274 306.115 170.864 306.116 170.446V156.487C306.116 156.068 306.003 155.657 305.789 155.297C305.576 154.937 305.269 154.64 304.902 154.439ZM290.936 149.455L302.664 155.877L298.317 158.255L286.589 151.832L290.936 149.455ZM290.936 162.3L279.207 155.877L284.157 153.167L295.885 159.589L290.936 162.3ZM303.781 170.452L292.103 176.843V164.318L296.774 161.762V166.97C296.774 167.28 296.897 167.577 297.116 167.796C297.335 168.015 297.632 168.138 297.942 168.138C298.252 168.138 298.549 168.015 298.768 167.796C298.987 167.577 299.11 167.28 299.11 166.97V160.484L303.781 157.928V170.446V170.452Z" fill="#F2F8FF"/>
<path d="M304.902 195.807L292.057 188.778C291.713 188.589 291.328 188.489 290.936 188.489C290.544 188.489 290.158 188.589 289.815 188.778L276.97 195.809C276.603 196.01 276.297 196.306 276.083 196.665C275.87 197.025 275.756 197.435 275.755 197.853V211.813C275.756 212.231 275.87 212.641 276.083 213.001C276.297 213.36 276.603 213.656 276.97 213.857L289.815 220.888C290.158 221.077 290.544 221.177 290.936 221.177C291.328 221.177 291.713 221.077 292.057 220.888L304.902 213.857C305.268 213.656 305.575 213.36 305.788 213.001C306.002 212.641 306.115 212.231 306.116 211.813V197.854C306.116 197.436 306.003 197.024 305.789 196.664C305.576 196.304 305.269 196.008 304.902 195.807ZM290.936 190.822L302.664 197.244L298.317 199.622L286.589 193.2L290.936 190.822ZM290.936 203.667L279.207 197.244L284.157 194.534L295.885 200.956L290.936 203.667ZM303.781 211.819L292.103 218.211V205.685L296.774 203.13V208.338C296.774 208.647 296.897 208.944 297.116 209.163C297.335 209.382 297.632 209.505 297.942 209.505C298.252 209.505 298.549 209.382 298.768 209.163C298.987 208.944 299.11 208.647 299.11 208.338V201.851L303.781 199.295V211.813V211.819Z" fill="#F2F8FF"/>
<path d="M346.269 9.65519L333.424 2.627C333.08 2.43736 332.695 2.33789 332.303 2.33789C331.911 2.33789 331.525 2.43736 331.182 2.627L318.337 9.65811C317.97 9.85882 317.664 10.1543 317.45 10.5138C317.236 10.8733 317.123 11.2835 317.122 11.7016V25.6617C317.123 26.0798 317.236 26.49 317.45 26.8495C317.664 27.209 317.97 27.5045 318.337 27.7052L331.182 34.7363C331.525 34.9259 331.911 35.0254 332.303 35.0254C332.695 35.0254 333.08 34.9259 333.424 34.7363L346.269 27.7052C346.635 27.5045 346.942 27.209 347.155 26.8495C347.369 26.49 347.482 26.0798 347.483 25.6617V11.7031C347.483 11.2842 347.37 10.8731 347.156 10.5128C346.943 10.1525 346.636 9.85626 346.269 9.65519ZM332.303 4.6705L344.031 11.0929L339.684 13.4707L327.956 7.04826L332.303 4.6705ZM332.303 17.5154L320.574 11.0929L325.524 8.38238L337.252 14.8048L332.303 17.5154ZM345.148 25.6675L333.47 32.0593V19.5341L338.141 16.9782V22.1863C338.141 22.496 338.264 22.793 338.483 23.012C338.702 23.2309 338.999 23.354 339.309 23.354C339.619 23.354 339.916 23.2309 340.135 23.012C340.354 22.793 340.477 22.496 340.477 22.1863V15.6996L345.148 13.1437V25.6617V25.6675Z" fill="#F2F8FF"/>
<path d="M346.269 51.0224L333.424 43.9942C333.08 43.8045 332.695 43.7051 332.303 43.7051C331.911 43.7051 331.525 43.8045 331.182 43.9942L318.337 51.0253C317.97 51.226 317.664 51.5215 317.45 51.881C317.236 52.2404 317.123 52.6507 317.122 53.0688V67.0289C317.123 67.447 317.236 67.8572 317.45 68.2167C317.664 68.5761 317.97 68.8717 318.337 69.0724L331.182 76.1035C331.525 76.2931 331.911 76.3926 332.303 76.3926C332.695 76.3926 333.08 76.2931 333.424 76.1035L346.269 69.0724C346.635 68.8717 346.942 68.5761 347.155 68.2167C347.369 67.8572 347.482 67.447 347.483 67.0289V53.0703C347.483 52.6514 347.37 52.2402 347.156 51.8799C346.943 51.5196 346.636 51.2234 346.269 51.0224ZM332.303 46.0377L344.031 52.4601L339.684 54.8379L327.956 48.4155L332.303 46.0377ZM332.303 58.8826L320.574 52.4601L325.524 49.7496L337.252 56.172L332.303 58.8826ZM345.148 67.0347L333.47 73.4265V60.9013L338.141 58.3454V63.5534C338.141 63.8631 338.264 64.1602 338.483 64.3791C338.702 64.5981 338.999 64.7212 339.309 64.7212C339.619 64.7212 339.916 64.5981 340.135 64.3791C340.354 64.1602 340.477 63.8631 340.477 63.5534V57.0668L345.148 54.5109V67.0289V67.0347Z" fill="#F2F8FF"/>
<path d="M346.269 92.3896L333.424 85.3614C333.08 85.1717 332.695 85.0723 332.303 85.0723C331.911 85.0723 331.525 85.1717 331.182 85.3614L318.337 92.3925C317.97 92.5932 317.664 92.8887 317.45 93.2482C317.236 93.6076 317.123 94.0178 317.122 94.436V108.396C317.123 108.814 317.236 109.224 317.45 109.584C317.664 109.943 317.97 110.239 318.337 110.44L331.182 117.471C331.525 117.66 331.911 117.76 332.303 117.76C332.695 117.76 333.08 117.66 333.424 117.471L346.269 110.44C346.635 110.239 346.942 109.943 347.155 109.584C347.369 109.224 347.482 108.814 347.483 108.396V94.4375C347.483 94.0186 347.37 93.6074 347.156 93.2471C346.943 92.8868 346.636 92.5906 346.269 92.3896ZM332.303 87.4049L344.031 93.8273L339.684 96.2051L327.956 89.7826L332.303 87.4049ZM332.303 100.25L320.574 93.8273L325.524 91.1168L337.252 97.5392L332.303 100.25ZM345.148 108.402L333.47 114.794V102.268L338.141 99.7126V104.921C338.141 105.23 338.264 105.527 338.483 105.746C338.702 105.965 338.999 106.088 339.309 106.088C339.619 106.088 339.916 105.965 340.135 105.746C340.354 105.527 340.477 105.23 340.477 104.921V98.434L345.148 95.8781V108.396V108.402Z" fill="#F2F8FF"/>
<path d="M346.269 133.756L333.424 126.728C333.08 126.538 332.695 126.438 332.303 126.438C331.911 126.438 331.525 126.538 331.182 126.728L318.337 133.759C317.97 133.959 317.664 134.255 317.45 134.614C317.236 134.974 317.123 135.384 317.122 135.802V149.762C317.123 150.18 317.236 150.591 317.45 150.95C317.664 151.31 317.97 151.605 318.337 151.806L331.182 158.837C331.525 159.027 331.911 159.126 332.303 159.126C332.695 159.126 333.08 159.027 333.424 158.837L346.269 151.806C346.635 151.605 346.942 151.31 347.155 150.95C347.369 150.591 347.482 150.18 347.483 149.762V135.804C347.483 135.385 347.37 134.974 347.156 134.613C346.943 134.253 346.636 133.957 346.269 133.756ZM332.303 128.771L344.031 135.194L339.684 137.571L327.956 131.149L332.303 128.771ZM332.303 141.616L320.574 135.194L325.524 132.483L337.252 138.905L332.303 141.616ZM345.148 149.768L333.47 156.16V143.635L338.141 141.079V146.287C338.141 146.597 338.264 146.894 338.483 147.113C338.702 147.332 338.999 147.455 339.309 147.455C339.619 147.455 339.916 147.332 340.135 147.113C340.354 146.894 340.477 146.597 340.477 146.287V139.8L345.148 137.244V149.762V149.768Z" fill="#F2F8FF"/>
<path d="M346.269 175.123L333.424 168.095C333.08 167.905 332.695 167.806 332.303 167.806C331.911 167.806 331.525 167.905 331.182 168.095L318.337 175.126C317.97 175.327 317.664 175.622 317.45 175.982C317.236 176.341 317.123 176.751 317.122 177.169V191.129C317.123 191.548 317.236 191.958 317.45 192.317C317.664 192.677 317.97 192.972 318.337 193.173L331.182 200.204C331.525 200.394 331.911 200.493 332.303 200.493C332.695 200.493 333.08 200.394 333.424 200.204L346.269 193.173C346.635 192.972 346.942 192.677 347.155 192.317C347.369 191.958 347.482 191.548 347.483 191.129V177.171C347.483 176.752 347.37 176.341 347.156 175.981C346.943 175.62 346.636 175.324 346.269 175.123ZM332.303 170.138L344.031 176.561L339.684 178.938L327.956 172.516L332.303 170.138ZM332.303 182.983L320.574 176.561L325.524 173.85L337.252 180.273L332.303 182.983ZM345.148 191.135L333.47 197.527V185.002L338.141 182.446V187.654C338.141 187.964 338.264 188.261 338.483 188.48C338.702 188.699 338.999 188.822 339.309 188.822C339.619 188.822 339.916 188.699 340.135 188.48C340.354 188.261 340.477 187.964 340.477 187.654V181.167L345.148 178.612V191.129V191.135Z" fill="#F2F8FF"/>
<path d="M346.269 216.49L333.424 209.462C333.08 209.272 332.695 209.173 332.303 209.173C331.911 209.173 331.525 209.272 331.182 209.462L318.337 216.493C317.97 216.694 317.664 216.989 317.45 217.349C317.236 217.708 317.123 218.118 317.122 218.537V232.497C317.123 232.915 317.236 233.325 317.45 233.684C317.664 234.044 317.97 234.339 318.337 234.54L331.182 241.571C331.525 241.761 331.911 241.86 332.303 241.86C332.695 241.86 333.08 241.761 333.424 241.571L346.269 234.54C346.635 234.339 346.942 234.044 347.155 233.684C347.369 233.325 347.482 232.915 347.483 232.497V218.538C347.483 218.119 347.37 217.708 347.156 217.348C346.943 216.987 346.636 216.691 346.269 216.49ZM332.303 211.505L344.031 217.928L339.684 220.306L327.956 213.883L332.303 211.505ZM332.303 224.35L320.574 217.928L325.524 215.217L337.252 221.64L332.303 224.35ZM345.148 232.502L333.47 238.894V226.369L338.141 223.813V229.021C338.141 229.331 338.264 229.628 338.483 229.847C338.702 230.066 338.999 230.189 339.309 230.189C339.619 230.189 339.916 230.066 340.135 229.847C340.354 229.628 340.477 229.331 340.477 229.021V222.535L345.148 219.979V232.497V232.502Z" fill="#F2F8FF"/>
<path d="M387.635 30.3388L374.791 23.3106C374.447 23.121 374.062 23.0215 373.67 23.0215C373.277 23.0215 372.892 23.121 372.549 23.3106L359.704 30.3417C359.337 30.5424 359.031 30.8379 358.817 31.1974C358.603 31.5568 358.49 31.9671 358.489 32.3852V46.3453C358.49 46.7634 358.603 47.1736 358.817 47.5331C359.031 47.8926 359.337 48.1881 359.704 48.3888L372.549 55.4199C372.892 55.6095 373.277 55.709 373.67 55.709C374.062 55.709 374.447 55.6095 374.791 55.4199L387.635 48.3888C388.002 48.1881 388.309 47.8926 388.522 47.5331C388.736 47.1736 388.849 46.7634 388.85 46.3453V32.3867C388.85 31.9678 388.737 31.5566 388.523 31.1964C388.31 30.8361 388.003 30.5399 387.635 30.3388ZM373.67 25.3541L385.398 31.7765L381.051 34.1543L369.323 27.7319L373.67 25.3541ZM373.67 38.199L361.941 31.7765L366.891 29.066L378.619 35.4884L373.67 38.199ZM386.514 46.3511L374.837 52.7429V40.2177L379.508 37.6618V42.8699C379.508 43.1795 379.631 43.4766 379.85 43.6956C380.069 43.9145 380.366 44.0376 380.676 44.0376C380.986 44.0376 381.283 43.9145 381.502 43.6956C381.721 43.4766 381.844 43.1795 381.844 42.8699V36.3832L386.514 33.8273V46.3453V46.3511Z" fill="#F2F8FF"/>
<path d="M387.635 71.706L374.791 64.6778C374.447 64.4881 374.062 64.3887 373.67 64.3887C373.277 64.3887 372.892 64.4881 372.549 64.6778L359.704 71.7089C359.337 71.9096 359.031 72.2051 358.817 72.5646C358.603 72.924 358.49 73.3343 358.489 73.7524V87.7125C358.49 88.1306 358.603 88.5408 358.817 88.9003C359.031 89.2597 359.337 89.5553 359.704 89.756L372.549 96.7871C372.892 96.9767 373.277 97.0762 373.67 97.0762C374.062 97.0762 374.447 96.9767 374.791 96.7871L387.635 89.756C388.002 89.5553 388.309 89.2597 388.522 88.9003C388.736 88.5408 388.849 88.1306 388.85 87.7125V73.7539C388.85 73.335 388.737 72.9238 388.523 72.5635C388.31 72.2032 388.003 71.907 387.635 71.706ZM373.67 66.7213L385.398 73.1437L381.051 75.5215L369.323 69.099L373.67 66.7213ZM373.67 79.5662L361.941 73.1437L366.891 70.4332L378.619 76.8556L373.67 79.5662ZM386.514 87.7183L374.837 94.1101V81.5849L379.508 79.029V84.237C379.508 84.5467 379.631 84.8438 379.85 85.0627C380.069 85.2817 380.366 85.4048 380.676 85.4048C380.986 85.4048 381.283 85.2817 381.502 85.0627C381.721 84.8438 381.844 84.5467 381.844 84.237V77.7504L386.514 75.1945V87.7125V87.7183Z" fill="#F2F8FF"/>
<path d="M387.635 113.073L374.791 106.045C374.447 105.855 374.062 105.756 373.67 105.756C373.277 105.756 372.892 105.855 372.549 106.045L359.704 113.076C359.337 113.277 359.031 113.572 358.817 113.932C358.603 114.291 358.49 114.701 358.489 115.12V129.08C358.49 129.498 358.603 129.908 358.817 130.267C359.031 130.627 359.337 130.922 359.704 131.123L372.549 138.154C372.892 138.344 373.277 138.443 373.67 138.443C374.062 138.443 374.447 138.344 374.791 138.154L387.635 131.123C388.002 130.922 388.309 130.627 388.522 130.267C388.736 129.908 388.849 129.498 388.85 129.08V115.121C388.85 114.702 388.737 114.291 388.523 113.931C388.31 113.57 388.003 113.274 387.635 113.073ZM373.67 108.088L385.398 114.511L381.051 116.889L369.323 110.466L373.67 108.088ZM373.67 120.933L361.941 114.511L366.891 111.8L378.619 118.223L373.67 120.933ZM386.514 129.085L374.837 135.477V122.952L379.508 120.396V125.604C379.508 125.914 379.631 126.211 379.85 126.43C380.069 126.649 380.366 126.772 380.676 126.772C380.986 126.772 381.283 126.649 381.502 126.43C381.721 126.211 381.844 125.914 381.844 125.604V119.118L386.514 116.562V129.08V129.085Z" fill="#F2F8FF"/>
<path d="M387.635 154.439L374.791 147.411C374.447 147.222 374.062 147.122 373.67 147.122C373.277 147.122 372.892 147.222 372.549 147.411L359.704 154.442C359.337 154.643 359.031 154.939 358.817 155.298C358.603 155.657 358.49 156.068 358.489 156.486V170.446C358.49 170.864 358.603 171.274 358.817 171.634C359.031 171.993 359.337 172.289 359.704 172.489L372.549 179.52C372.892 179.71 373.277 179.81 373.67 179.81C374.062 179.81 374.447 179.71 374.791 179.52L387.635 172.489C388.002 172.289 388.309 171.993 388.522 171.634C388.736 171.274 388.849 170.864 388.85 170.446V156.487C388.85 156.068 388.737 155.657 388.523 155.297C388.31 154.937 388.003 154.64 387.635 154.439ZM373.67 149.455L385.398 155.877L381.051 158.255L369.323 151.832L373.67 149.455ZM373.67 162.3L361.941 155.877L366.891 153.167L378.619 159.589L373.67 162.3ZM386.514 170.452L374.837 176.843V164.318L379.508 161.762V166.97C379.508 167.28 379.631 167.577 379.85 167.796C380.069 168.015 380.366 168.138 380.676 168.138C380.986 168.138 381.283 168.015 381.502 167.796C381.721 167.577 381.844 167.28 381.844 166.97V160.484L386.514 157.928V170.446V170.452Z" fill="#F2F8FF"/>
<path d="M387.635 195.807L374.791 188.778C374.447 188.589 374.062 188.489 373.67 188.489C373.277 188.489 372.892 188.589 372.549 188.778L359.704 195.809C359.337 196.01 359.031 196.306 358.817 196.665C358.603 197.025 358.49 197.435 358.489 197.853V211.813C358.49 212.231 358.603 212.641 358.817 213.001C359.031 213.36 359.337 213.656 359.704 213.857L372.549 220.888C372.892 221.077 373.277 221.177 373.67 221.177C374.062 221.177 374.447 221.077 374.791 220.888L387.635 213.857C388.002 213.656 388.309 213.36 388.522 213.001C388.736 212.641 388.849 212.231 388.85 211.813V197.854C388.85 197.436 388.737 197.024 388.523 196.664C388.31 196.304 388.003 196.008 387.635 195.807ZM373.67 190.822L385.398 197.244L381.051 199.622L369.323 193.2L373.67 190.822ZM373.67 203.667L361.941 197.244L366.891 194.534L378.619 200.956L373.67 203.667ZM386.514 211.819L374.837 218.211V205.685L379.508 203.13V208.338C379.508 208.647 379.631 208.944 379.85 209.163C380.069 209.382 380.366 209.505 380.676 209.505C380.986 209.505 381.283 209.382 381.502 209.163C381.721 208.944 381.844 208.647 381.844 208.338V201.851L386.514 199.295V211.813V211.819Z" fill="#F2F8FF"/>
<rect x="1" y="120" width="374" height="100" fill="url(#paint1_linear_6587_23272)"/>
</g>
<defs>
<linearGradient id="paint0_linear_6587_23272" x1="187.5" y1="0" x2="187.5" y2="220" gradientUnits="userSpaceOnUse">
<stop stop-color="#F3F9FF"/>
<stop offset="1" stop-color="white"/>
</linearGradient>
<linearGradient id="paint1_linear_6587_23272" x1="188" y1="120" x2="188" y2="220" gradientUnits="userSpaceOnUse">
<stop stop-color="white" stop-opacity="0"/>
<stop offset="1" stop-color="white"/>
</linearGradient>
<clipPath id="clip0_6587_23272">
<rect width="375" height="220" fill="white"/>
</clipPath>
</defs>
</svg>
