<svg width="167" height="166" viewBox="0 0 167 166" fill="none" xmlns="http://www.w3.org/2000/svg">
<rect width="166" height="166" transform="translate(0.5)" fill="#F0F0F0"/>
<path d="M68.8375 86.6665V68.0765L64.45 70.774V65.899L68.8375 63.2665H73.355V86.6665H68.8375ZM83.4658 87.154C81.8841 87.154 80.4758 86.8344 79.2408 86.1953C78.0166 85.5453 77.0525 84.6569 76.3483 83.5303C75.655 82.3928 75.3083 81.0982 75.3083 79.6465C75.3083 78.4115 75.5846 77.2469 76.1371 76.1528C76.7004 75.0586 77.5075 74.1648 78.5583 73.4715L78.4608 74.8365C77.67 74.0673 77.0471 73.2548 76.5921 72.399C76.1479 71.5432 75.9258 70.579 75.9258 69.5065C75.9258 68.1523 76.2454 66.9715 76.8846 65.964C77.5346 64.9565 78.4229 64.1765 79.5496 63.624C80.6871 63.0607 81.9925 62.779 83.4658 62.779C84.9391 62.779 86.2391 63.0607 87.3658 63.624C88.5033 64.1765 89.3916 64.9565 90.0308 65.964C90.6808 66.9715 91.0058 68.1523 91.0058 69.5065C91.0058 70.579 90.7946 71.5432 90.3721 72.399C89.9496 73.244 89.305 74.0673 88.4383 74.869V73.504C89.4675 74.154 90.2583 75.0315 90.8108 76.1365C91.3741 77.2415 91.6558 78.4115 91.6558 79.6465C91.6558 81.0982 91.3037 82.3928 90.5996 83.5303C89.8954 84.6569 88.9258 85.5453 87.6908 86.1953C86.4558 86.8344 85.0475 87.154 83.4658 87.154ZM83.4658 82.994C84.5058 82.994 85.3508 82.7123 86.0008 82.149C86.6508 81.5857 86.9758 80.7515 86.9758 79.6465C86.9758 78.5523 86.6508 77.7182 86.0008 77.144C85.3508 76.559 84.5058 76.2665 83.4658 76.2665C82.4258 76.2665 81.5862 76.559 80.9471 77.144C80.3079 77.7182 79.9883 78.5523 79.9883 79.6465C79.9883 80.7515 80.3079 81.5857 80.9471 82.149C81.5862 82.7123 82.4258 82.994 83.4658 82.994ZM83.4658 72.074C84.3108 72.074 84.9987 71.8682 85.5296 71.4565C86.0604 71.034 86.3258 70.384 86.3258 69.5065C86.3258 68.629 86.0604 67.979 85.5296 67.5565C84.9987 67.1232 84.3108 66.9065 83.4658 66.9065C82.6208 66.9065 81.9329 67.1232 81.4021 67.5565C80.8712 67.979 80.6058 68.629 80.6058 69.5065C80.6058 70.384 80.8712 71.034 81.4021 71.4565C81.9329 71.8682 82.6208 72.074 83.4658 72.074ZM97.2798 82.279V76.6565H91.6573V73.244H97.2798V67.654H100.692V73.244H106.282V76.6565H100.692V82.279H97.2798Z" fill="#BDBDBD"/>
<path d="M72.8796 99.5098C72.0476 99.5098 71.3292 99.3287 70.7244 98.9666C70.1236 98.6046 69.6594 98.0981 69.332 97.4471C69.0084 96.7961 68.8467 96.0392 68.8467 95.1764C68.8467 94.3136 69.0084 93.5567 69.332 92.9058C69.6594 92.2548 70.1236 91.7483 70.7244 91.3862C71.3292 91.0241 72.0476 90.8431 72.8796 90.8431C73.7116 90.8431 74.428 91.0241 75.0289 91.3862C75.6336 91.7483 76.0978 92.2548 76.4213 92.9058C76.7487 93.5567 76.9124 94.3136 76.9124 95.1764C76.9124 96.0392 76.7487 96.7961 76.4213 97.4471C76.0978 98.0981 75.6336 98.6046 75.0289 98.9666C74.428 99.3287 73.7116 99.5098 72.8796 99.5098ZM72.8796 98.0306C73.4073 98.0384 73.8464 97.9247 74.1969 97.6898C74.5474 97.4548 74.8093 97.1216 74.9827 96.6902C75.1599 96.2588 75.2484 95.7542 75.2484 95.1764C75.2484 94.5986 75.1599 94.0979 74.9827 93.6742C74.8093 93.2505 74.5474 92.9212 74.1969 92.6862C73.8464 92.4512 73.4073 92.3299 72.8796 92.3222C72.3519 92.3145 71.9127 92.4281 71.5622 92.6631C71.2117 92.8981 70.9479 93.2312 70.7707 93.6626C70.5973 94.0941 70.5107 94.5986 70.5107 95.1764C70.5107 95.7542 70.5973 96.2549 70.7707 96.6786C70.9479 97.1024 71.2117 97.4317 71.5622 97.6666C71.9127 97.9016 72.3519 98.0229 72.8796 98.0306ZM78.0658 99.3364V91.0164H79.6605L83.2774 96.5631V91.0164H84.8721V99.3364H83.2774L79.6605 93.7898V99.3364H78.0658ZM86.5998 99.3364V91.0164H88.1713V97.8689H91.7536V99.3364H86.5998ZM93.6187 99.3364V95.9506L90.776 91.0164H92.6134L94.416 94.148L96.2187 91.0164H98.056L95.2134 95.9506V99.3364H93.6187Z" fill="#BDBDBD"/>
<circle cx="83.5" cy="81" r="35.0278" stroke="#DADADA" stroke-width="7.94444"/>
</svg>
