<svg width="37" height="36" viewBox="0 0 37 36" fill="none" xmlns="http://www.w3.org/2000/svg">
<path d="M15.7597 8.17582C16.3991 6.96204 18.1107 6.95177 19.1911 7.4908C20.2905 8.03936 20.449 9.47042 20.3978 10.6264C20.3808 11.0156 20.4626 11.1932 19.9761 11.1912C19.5671 11.1902 19.4356 11.2812 19.3624 10.7278C19.3178 10.3934 19.3256 9.96564 19.3101 9.80378C19.2538 9.2316 19.1744 8.57507 18.6774 8.2045C17.7133 7.485 16.5096 8.0731 16.3181 9.21245C16.2498 9.61755 16.2754 10.0504 16.2743 10.46C16.2727 11.0903 16.3397 11.1512 15.7385 11.149C14.7547 11.1455 15.4752 8.71544 15.7597 8.17582Z" fill="#E50019"/>
<path d="M21.015 10.5944C22.2203 10.9261 22.397 11.889 22.6378 13.0169C22.9949 14.6884 23.2592 16.3644 23.2783 18.0762C23.2953 19.6305 22.9386 20.8286 21.3682 21.3C20.2716 21.6294 19.0345 21.5997 17.9014 21.584C16.79 21.5683 15.6718 21.4675 14.5817 21.2491C14.0535 21.1431 13.6527 20.937 13.232 20.5945C12.5253 20.0188 12.624 18.8213 12.59 17.9886C12.5305 16.5334 12.6906 15.0824 12.9616 13.655C13.1872 12.4632 13.3756 11.0881 14.5859 10.6326C14.6163 11.1173 14.7652 11.5325 15.1321 11.7196C15.5147 11.9151 16.3053 11.8508 16.676 11.643C16.9353 11.4979 16.9632 10.9902 16.9636 10.4217C17.5409 10.4106 18.1184 10.411 18.6957 10.4227C18.6844 11.0678 18.7189 11.6591 19.3097 11.7873C19.7311 11.8786 20.2684 11.8966 20.6344 11.6716C21.0038 11.4452 20.9949 11.2153 21.0088 10.8453C21.0123 10.7617 21.0143 10.6781 21.015 10.5944Z" fill="#004A9C"/>
<g clip-path="url(#clip0_2584_15570)">
<path fill-rule="evenodd" clip-rule="evenodd" d="M18.6139 15.5102L18.1688 15.9511L18.1467 15.9727L17.9 16.2173L17.6751 16.4401L17.653 16.462L17.4445 16.6682L17.4228 16.6901C17.3603 16.752 17.2912 16.8029 17.2177 16.8429C17.1805 16.8632 17.1426 16.8804 17.1035 16.8954C17.0168 16.9285 16.9259 16.9479 16.8341 16.9535C16.778 16.9573 16.7209 16.9557 16.6651 16.9488C16.5443 16.9344 16.4253 16.8963 16.3171 16.8341C16.2708 16.8076 16.2231 16.7801 16.1837 16.741C16.1837 16.741 16.1835 16.741 16.1831 16.741L15.3301 15.8961C15.3159 15.8808 15.3033 15.8639 15.2926 15.8458C15.2655 15.8005 15.25 15.7477 15.25 15.6915C15.25 15.6827 15.25 15.6736 15.2513 15.6652C15.2525 15.6521 15.2544 15.6396 15.2569 15.6274L15.262 15.6071C15.2733 15.5693 15.2923 15.534 15.3181 15.5018C15.3251 15.4937 15.3323 15.4855 15.3399 15.4777L15.3544 15.4637L16.2175 14.6085H16.2178L16.7408 14.0904C16.8575 13.9748 17.0433 13.9698 17.1657 14.0754L18.6139 15.5099V15.5102Z" fill="white"/>
<path fill-rule="evenodd" clip-rule="evenodd" d="M16.1752 16.7336C16.178 16.7365 16.1805 16.739 16.1834 16.7415C16.2228 16.7802 16.2708 16.8083 16.3174 16.8346C16.4256 16.8967 16.5442 16.9349 16.6654 16.9492C16.7212 16.9561 16.7783 16.9574 16.8344 16.9536C16.9259 16.948 17.0171 16.9286 17.1038 16.8955C17.1426 16.8808 17.1808 16.8633 17.2177 16.843C17.2912 16.8027 17.3603 16.7521 17.4227 16.6902L17.4445 16.6686L17.653 16.4621L17.7584 16.3574L18.005 16.1131L18.1464 15.9728L18.1684 15.9512L19.0649 15.0632L19.4346 14.6664L19.4567 14.6448C19.5696 14.5329 19.7526 14.5329 19.8655 14.6448L20.068 14.8454L20.0747 14.852C19.9851 14.8479 19.8949 14.8798 19.827 14.9454L19.1419 15.6128L19.135 15.6213L17.9429 16.7833L17.941 16.7818L17.5019 17.2092L17.4726 17.2398C17.4379 17.2733 17.3656 17.3364 17.2688 17.3817C17.225 17.4023 17.1805 17.417 17.1363 17.4261C17.1101 17.4311 17.0833 17.4345 17.0571 17.4358H17.0373C16.9676 17.4358 16.8991 17.4204 16.8335 17.3908L16.6269 17.1867L16.5427 17.103L16.1562 16.7158L16.1739 16.7336H16.1752Z" fill="white"/>
<path fill-rule="evenodd" clip-rule="evenodd" d="M21.1653 16.3365L20.1723 17.3349L19.1525 18.3604C19.12 18.3926 19.0859 18.4216 19.05 18.4479C19.0487 18.4491 19.0475 18.4501 19.0459 18.4513C19.0408 18.4547 19.0361 18.4585 19.0311 18.4619C19.0304 18.4626 19.0298 18.4629 19.0295 18.4635C18.8755 18.5725 18.6869 18.6363 18.4838 18.6363C18.2327 18.6363 18.0046 18.5388 17.8358 18.3798L17.8125 18.3591L17.6371 18.1854L17.1444 17.697L16.957 17.5114C16.9838 17.5158 17.011 17.5177 17.0381 17.5177H17.0608C17.0924 17.5161 17.1236 17.5127 17.1545 17.5064C17.205 17.4961 17.2558 17.4789 17.3059 17.4558C17.4135 17.4052 17.4939 17.3355 17.5324 17.2983C17.5475 17.2836 17.5586 17.2714 17.5633 17.2661L17.9422 16.8974L17.9437 16.899L19.2468 15.6291L19.2538 15.6207L19.8868 15.0036C19.972 14.9211 20.1051 14.9101 20.202 14.9761L20.3521 15.1248L21.166 15.931C21.1732 15.9381 21.1802 15.9456 21.1865 15.9531C21.2786 16.0659 21.2716 16.2319 21.166 16.3362L21.1653 16.3365Z" fill="white"/>
<path d="M18.4798 15.6432L18.3963 15.726L18.2496 15.5801C18.2265 15.557 18.2269 15.5198 18.2496 15.4973C18.2729 15.4745 18.3101 15.4745 18.3332 15.4973L18.4795 15.6432H18.4798Z" fill="#004A9C"/>
<path d="M18.2323 15.8878L18.1487 15.9703L17.6879 15.5104C17.5169 15.3398 17.2671 15.2801 17.0358 15.3541C17.0049 15.3641 16.9715 15.3473 16.9614 15.317C16.9513 15.286 16.9683 15.2529 16.9993 15.2429C17.2727 15.1551 17.5689 15.226 17.7715 15.4282L18.232 15.8881L18.2323 15.8878Z" fill="#004A9C"/>
<path d="M17.7388 16.3772L17.6552 16.46L17.1924 15.9981C17.1694 15.9753 17.1697 15.9381 17.1924 15.9153C17.2158 15.8925 17.2533 15.8928 17.276 15.9156L17.7385 16.3772H17.7388Z" fill="#004A9C"/>
<path d="M17.9858 16.1328L17.9022 16.2156L17.4407 15.7547C17.3281 15.6423 17.1438 15.6413 17.0303 15.7532C16.9167 15.865 16.9161 16.0472 17.0287 16.1597L17.3262 16.4572C17.3492 16.48 17.3492 16.5172 17.3262 16.54C17.3031 16.5628 17.2656 16.5625 17.2426 16.54L16.9448 16.2428C16.7864 16.0844 16.7874 15.8279 16.947 15.6707C17.1069 15.5135 17.3659 15.5148 17.5243 15.6732L17.9858 16.1338V16.1328Z" fill="#004A9C"/>
<path d="M17.2199 16.8418C17.2199 16.8418 17.2183 16.8427 17.2174 16.8434C17.1811 16.863 17.1442 16.8802 17.1064 16.8946L16.6969 16.4856C16.4408 16.2297 16.4042 15.8288 16.6095 15.5323C16.6278 15.5057 16.6647 15.4988 16.6916 15.5173C16.7187 15.5354 16.7253 15.5719 16.7067 15.5988C16.5332 15.8491 16.5641 16.1872 16.7805 16.4034L17.2199 16.8421V16.8418Z" fill="#004A9C"/>
<path d="M18.0204 15.2679C17.9974 15.2904 17.9596 15.2898 17.9365 15.267C17.5523 14.8836 16.9252 14.8811 16.5382 15.2614C16.1515 15.6419 16.1489 16.2631 16.5331 16.6465L16.8338 16.9468C16.8356 16.9487 16.8379 16.9512 16.8388 16.9534C16.8372 16.9534 16.836 16.9534 16.8344 16.9534C16.7798 16.9571 16.7243 16.9555 16.67 16.9493L16.4492 16.7284C16.0193 16.2994 16.0218 15.6035 16.4549 15.1776C16.8883 14.7517 17.5905 14.7545 18.0204 15.1836L18.0214 15.1845C18.0444 15.2073 18.0438 15.2442 18.0204 15.267V15.2679Z" fill="#004A9C"/>
</g>
<path d="M28.6155 24.1034C28.6585 20.6599 28.6368 17.2144 28.5364 13.7722C28.4887 12.1273 28.4313 10.4813 28.3228 8.83896C28.2332 7.48059 28.2371 5.93341 27.7583 4.64873C26.7186 1.85696 23.0253 2.18009 20.5664 2.10333C17.4225 2.00508 14.1985 1.88604 11.065 2.22331C7.12094 2.64762 7.54485 9.1014 7.414 11.9781C7.25 15.5872 7.20564 19.2048 7.29615 22.8165C7.36031 25.3826 7.33222 28.085 7.88832 30.6046C8.57582 32.992 10.6175 32.8294 12.6746 32.9242C14.5724 33.012 16.4731 33.0417 18.3723 33.0359C20.1877 33.0299 22.0046 33.0083 23.8185 32.9246C24.8017 32.8791 26.7787 33.0797 27.4924 32.2515C29.04 30.4558 28.5876 26.3466 28.6155 24.1034ZM23.0653 30.3374C23.0541 30.6382 23.0177 30.9778 22.8358 31.2294C22.6137 31.5374 22.302 31.6035 21.9415 31.6163C19.2709 31.6873 16.5809 31.6967 13.9107 31.6144C13.6196 31.6016 13.3251 31.5417 13.1362 31.298C12.953 31.061 12.8983 30.7984 12.8633 30.5064C12.8032 29.9193 12.8346 29.3035 12.8551 28.7147C12.8685 28.4302 12.9092 28.1208 13.0707 27.8783C13.2742 27.5736 13.5878 27.4895 13.9361 27.4771C16.6058 27.3986 19.2954 27.4015 21.9652 27.4761C22.3191 27.4887 22.6409 27.567 22.8483 27.8783C23.0053 28.1146 23.0483 28.4144 23.0631 28.6918C23.0843 29.2393 23.0812 29.7898 23.0653 30.3374ZM26.8337 21.1399C26.6899 23.5489 26.8221 25.7002 24.1027 25.9305C21.0786 26.1865 17.9998 26.1677 14.9684 26.0704C12.9722 26.0064 11.8059 26.1826 10.6375 24.7015C10.0579 23.9664 9.96837 23.335 9.82764 22.4126C9.60122 20.9257 9.5456 19.4014 9.5121 17.9076C9.46402 15.7828 9.48283 13.6538 9.61214 11.5323C9.71059 9.91513 9.6629 7.99407 10.1678 6.43627C11.242 3.12388 13.1073 3.28535 16.0572 3.26867C18.6623 3.25354 21.7233 2.97075 24.2547 3.7426C26.5449 4.4409 26.6066 7.91174 26.75 10.4267C26.9531 13.9815 27.0469 17.5827 26.8337 21.1399Z" fill="#3392FF"/>
<path d="M18.3723 33.0359C20.1877 33.0299 22.0047 33.0083 23.8185 32.9246C24.8017 32.8791 26.7787 33.0797 27.4924 32.2515C28.4709 31.1158 28.6492 29.0548 28.6558 27.1256C28.5127 28.169 28.3061 29.2093 27.9421 30.1914C27.39 31.6824 26.4345 32.2404 24.9141 32.3204C21.3014 32.5102 17.7152 32.5217 14.1004 32.5341C12.7527 32.5389 11.1958 32.5639 9.90724 32.0743C8.81946 31.6606 8.40602 30.5492 8.17012 29.4996C7.75087 27.6303 7.78749 25.6644 7.72606 23.7575C7.66537 21.8859 7.62101 20.0137 7.58861 18.141C7.52832 14.6847 7.48396 11.2157 7.58534 7.755C7.43414 9.32794 7.46302 10.9029 7.414 11.978C7.25 15.5871 7.20564 19.2048 7.29615 22.8164C7.36031 25.3826 7.33222 28.085 7.88832 30.6045C8.57582 32.992 10.6175 32.8293 12.6746 32.9241C14.5724 33.012 16.4731 33.0417 18.3723 33.0359Z" fill="#0069E2"/>
<path d="M8.59515 11.8829C8.60175 11.7662 8.60502 11.6492 8.61222 11.5323C8.71067 9.91516 8.66298 7.99409 9.16792 6.43629C10.2421 3.12391 13.1074 3.28537 16.0573 3.2687C18.6624 3.25357 21.7234 2.97078 24.2548 3.74263C27.1309 4.61992 27.0506 7.91177 27.194 10.4267C27.3538 13.2231 27.4433 16.0474 27.372 18.8572C27.76 15.3855 27.7069 11.8238 27.3502 8.38138C27.2149 7.08097 27.094 5.6443 26.2578 4.58172C25.3592 3.43984 23.6508 3.25302 22.3187 3.10222C19.9924 2.83898 17.6268 2.86226 15.291 2.95043C13.5541 3.01593 11.735 2.97078 10.2865 4.06611C8.96473 5.06512 8.58403 6.72762 8.51332 8.29474C8.46008 9.4717 8.50911 10.6812 8.59515 11.8829Z" fill="#3392FF"/>
<path d="M26.7501 25.0001C26.937 24.6104 26.8113 23.6049 26.7501 22.5001C26.7501 23.5001 26.6612 25.7139 24.103 25.9304C21.0789 26.1864 18.0001 26.1676 14.9687 26.0703C12.9725 26.0064 11.8062 26.1826 10.6378 24.7015C10.0582 23.9663 9.96867 23.335 9.82794 22.4125C9.60152 20.9256 9.5459 19.4013 9.51241 17.9075C9.485 16.7122 9.72707 10.1955 9.75008 9.00006C9.69312 9.46818 9.279 12.5209 9.25012 13.0001C9.16716 14.3879 8.70572 18.6132 8.75013 20.0001C8.80675 21.7736 8.39029 23.9665 9.72231 25.3361C10.9494 26.5983 13.6598 26.4857 15.2501 26.5001C17.6988 26.5219 19.8055 26.6497 22.2501 26.5001C23.8329 26.4034 25.9612 26.6447 26.7501 25.0001Z" fill="#0069E2"/>
<path d="M19.191 7.4908C18.1106 6.95177 16.399 6.96204 15.7596 8.17582C15.5759 8.52416 15.2128 9.65824 15.2419 10.421C15.34 9.79683 15.4022 9.1855 15.723 8.5906C16.242 7.62766 17.217 7.42897 18.2218 7.48013C19.6317 7.55149 20.1838 8.75827 20.4021 10.0431C20.3714 9.02652 20.1109 7.94979 19.191 7.4908Z" fill="#BA0115"/>
<path d="M23.203 16.6129C23.1688 18.7262 22.6753 20.822 20.3955 21.0326C19.2054 21.1428 17.9978 21.1274 16.8061 21.0584C15.749 20.9976 14.5302 20.9447 13.6961 20.2106C12.7399 19.3686 12.8842 17.4048 12.8665 16.2514C12.8539 15.4183 12.9016 14.5971 12.9401 13.7725C12.6827 15.1623 12.5323 16.5734 12.5899 17.9887C12.6238 18.8214 12.5251 20.0189 13.2319 20.5946C13.6525 20.9371 14.0533 21.1431 14.5815 21.2491C15.6716 21.4676 16.7898 21.5684 17.9012 21.5841C19.0344 21.5998 20.2714 21.6294 21.3681 21.3001C22.9385 20.8287 23.2952 19.6306 23.2781 18.0763C23.2727 17.5857 23.2452 17.0983 23.203 16.6129Z" fill="#004A9C"/>
<path d="M21.6401 11.1159C21.8592 11.3039 22.229 11.5892 22.5364 12.5521C22.3267 11.631 22.0503 10.8794 21.0149 10.5944C21.0141 10.6781 21.0121 10.7617 21.0087 10.8453C20.9947 11.2153 21.0036 11.4452 20.6342 11.6716C20.2682 11.8966 19.7309 11.8786 19.3095 11.7873C18.7188 11.6592 18.6842 11.0678 18.6955 10.4227C18.1182 10.411 17.5407 10.4106 16.9634 10.4217C16.963 10.9902 16.9351 11.4979 16.6758 11.643C16.3052 11.8508 15.5145 11.9151 15.1319 11.7196C14.765 11.5325 14.6161 11.1173 14.5857 10.6326C13.853 10.9084 13.4958 11.5217 13.2773 12.2267C13.5871 11.594 13.834 11.2639 14.0244 11.1069C14.4958 10.7185 14.5516 11.1519 14.585 11.2833C14.6623 11.5898 14.8559 11.7658 15.0848 11.8646C15.3864 11.9945 15.7489 11.9908 15.9877 11.9751C16.3901 11.9486 16.7673 11.86 16.9728 11.5065C17.0441 11.3828 17.0662 11.2254 17.0821 11.0779C17.1204 10.7243 17.2201 10.6486 17.5635 10.6259C17.8768 10.6054 18.3288 10.6216 18.4206 10.6924C18.5556 10.7963 18.5195 11.0469 18.5648 11.253C18.6846 11.7953 18.9215 11.9542 19.3956 12.0131C19.6995 12.0508 20.276 12.0756 20.5694 11.9808C21.0292 11.8319 21.1191 11.4718 21.1529 11.2539C21.1959 10.9719 21.2203 10.7563 21.6401 11.1159Z" fill="#003D80"/>
<path d="M13.6942 30.4315C13.6435 29.8667 13.6729 29.2784 13.6925 28.7145C13.7082 28.3724 13.7799 28.3191 14.0325 28.3111C16.6705 28.2357 19.3272 28.2396 21.9652 28.3133C22.1819 28.3214 22.2133 28.4557 22.2257 28.6916C22.2471 29.2392 22.2439 29.7897 22.2281 30.3373C22.218 30.6175 22.2498 30.767 21.9416 30.7788C19.559 30.8422 14.9086 30.7478 13.9323 30.7241C13.7132 30.7185 13.708 30.5908 13.6942 30.4315Z" fill="#004A9C"/>
<path d="M21.1291 27.1037C20.049 27.0642 18.9714 27.0576 17.8909 27.0766C16.7438 27.0965 15.2079 27.1754 14.0596 27.1587C12.9608 27.1427 12.6567 27.6284 12.6472 28.3206C12.6404 28.7988 12.7937 29.4545 12.8529 30.3473C12.8122 29.8085 12.8366 29.2508 12.8552 28.7147C12.8686 28.4301 12.9093 28.1207 13.0708 27.8783C13.2743 27.5736 13.5879 27.4895 13.9362 27.4771C16.6058 27.3986 19.2954 27.4015 21.9653 27.4761C22.3192 27.4887 22.641 27.567 22.8484 27.8783C23.0054 28.1145 23.0484 28.4144 23.0631 28.6918C23.0845 29.2394 23.0814 29.7898 23.0655 30.3374C23.0639 30.3822 23.0597 30.4289 23.0565 30.4754C23.3248 29.292 23.3958 27.9387 22.9759 27.509C22.5154 27.038 21.7625 27.1274 21.1291 27.1037Z" fill="#3392FF"/>
<path d="M13.6675 29.6906C13.6669 29.9391 13.6722 30.1878 13.6941 30.4315C13.7078 30.5908 13.7131 30.7185 13.9321 30.7241C14.9084 30.7478 19.5589 30.8422 21.9414 30.7788C22.2496 30.767 22.2178 30.6175 22.2279 30.3373C22.2333 30.1485 22.2349 29.9595 22.2368 29.7703C22.1534 30.0727 21.6716 30.2535 21.0587 30.3597C20.3869 30.4766 17.693 30.5261 15.1647 30.4245C14.047 30.3797 13.755 29.9713 13.6675 29.6906Z" fill="#003D80"/>
<defs>
<clipPath id="clip0_2584_15570">
<rect width="6" height="4.63636" fill="white" transform="translate(15.25 13.9999)"/>
</clipPath>
</defs>
</svg>
