<svg width="37" height="36" viewBox="0 0 37 36" fill="none" xmlns="http://www.w3.org/2000/svg">
<path d="M28.2364 30.5663C27.7983 31.3574 26.9742 31.9135 26.1997 32.3387C25.6107 32.6622 25.0884 32.8414 24.3867 32.9969C22.5117 33.4129 20.5447 33.4625 18.6315 33.4447C16.5812 33.4256 14.5141 33.2957 12.4912 32.9497C11.7992 32.8317 11.0211 32.7327 10.383 32.4336C9.60112 32.0671 8.80437 31.5089 8.30514 30.7941C8.00757 30.3683 7.92646 29.9514 7.87096 29.4436C7.82572 29.0306 7.89181 28.9769 8.4555 29.1919C11.3867 30.3108 14.7604 30.4804 17.8259 30.5439C21.1602 30.6128 24.6994 30.4766 27.976 29.6515C28.6752 29.4761 28.5132 29.6816 28.4328 30.0325C28.3899 30.2198 28.3281 30.4002 28.2364 30.5663Z" fill="#E50019"/>
<path d="M12.9793 10.2085C13.0805 9.44321 13.2857 8.67188 13.6292 7.97831C14.6145 5.98912 16.7853 4.71155 18.9388 5.29257C20.0454 5.59122 21.0303 6.27543 21.732 7.17821C22.6915 8.41286 23.072 9.99067 23.0881 11.5312C23.0928 11.9668 23.0672 12.4018 23.0238 12.8351C22.9974 13.0993 23.0025 13.2171 22.696 13.2171C22.6244 13.2173 22.5527 13.2162 22.4807 13.2164C22.3259 13.2173 22.2178 13.2525 22.19 13.0355C22.1581 12.7778 22.1719 12.1892 22.161 11.9429C22.1372 11.4085 22.1193 11.1431 22.0304 10.6157C21.7684 9.05834 21.0729 7.31021 19.5522 6.59403C18.3838 6.04395 16.8335 6.12366 15.7752 6.89408C14.6084 7.74367 14.1356 9.19654 13.9357 10.5694C13.8654 11.0544 13.8182 11.5426 13.7943 12.0322C13.7826 12.2796 13.7757 12.5272 13.7735 12.7748C13.7723 12.8833 13.7804 12.9683 13.7753 13.0355C13.7692 13.1145 13.7583 13.1634 13.616 13.1804C13.4201 13.2042 13.0709 13.17 13.0089 13.0841C12.9051 12.9401 12.9398 12.575 12.9285 12.4052C12.9104 12.1395 12.9004 11.8734 12.8986 11.6072C12.8962 11.1408 12.9183 10.6715 12.9793 10.2085Z" fill="#3392FF"/>
<path d="M28.4068 22.2776C28.2416 20.8988 28.0016 19.5295 27.7323 18.1676C27.5665 17.3291 27.4131 16.4781 27.2335 15.6359C26.9474 14.2974 26.5729 13.3561 25.781 12.6535C25.3452 12.267 24.8347 11.9772 24.2685 11.8337C24.0496 11.7781 24.0374 11.8507 24.03 12.0567C24.0204 12.3402 24.0012 12.6233 23.9724 12.9055C23.9397 13.2195 23.9217 13.8678 23.1513 14.1092C22.7508 14.2341 22.1702 14.2332 21.7956 14.0346C21.349 13.798 21.2577 13.3829 21.2584 12.9132C21.2586 12.4579 21.2428 12.0002 21.199 11.5461C19.063 11.4568 16.9215 11.4533 14.7854 11.5441C14.7496 11.9963 14.7287 12.4498 14.7273 12.9033C14.7259 13.3631 14.6202 13.7704 14.1843 13.9989C13.8079 14.1958 13.2287 14.1922 12.8288 14.0645C12.4177 13.9334 12.128 13.6029 12.0504 13.1797C11.9884 12.8401 11.9613 12.4861 11.9509 12.1334C11.9433 11.8966 11.9338 11.7708 11.6102 11.8915C11.4183 11.9632 11.2333 12.0521 11.0575 12.1573C10.3904 12.5575 9.86223 13.1639 9.47577 13.8328C9.10999 14.4664 8.96084 15.2889 8.75429 16.1501C8.12803 18.7562 7.7285 21.4128 7.6474 24.0939C7.61541 25.1411 7.63025 26.1895 7.6882 27.2356C7.7338 28.0613 7.56149 28.2122 8.42737 28.5662C11.5215 29.8293 15.1991 29.971 18.4558 29.9784C21.5678 29.9858 24.8165 29.8519 27.8633 29.0862C28.2923 28.9782 28.5726 28.8489 28.6192 28.0366C28.6475 27.5428 28.6627 27.0484 28.665 26.5539C28.6731 25.1247 28.5768 23.6964 28.4068 22.2776Z" fill="#004A9C"/>
<path d="M13.5455 13.1859C13.5693 13.1851 13.5931 13.1832 13.6167 13.1803C13.759 13.1633 13.7699 13.1144 13.7759 13.0354C13.781 12.9683 13.773 12.8833 13.7742 12.7747C13.7765 12.527 13.7832 12.2791 13.795 12.032C13.8189 11.5425 13.866 11.0543 13.9364 10.5693C14.1362 9.19643 14.6091 7.74356 15.7759 6.89397C16.8342 6.12355 18.3845 6.04384 19.5528 6.59392C21.0736 7.3101 21.7691 9.05827 22.0311 10.6155C22.12 11.143 22.1378 11.4084 22.1617 11.9428C22.1725 12.1891 22.1587 12.7777 22.1907 13.0353C22.2155 13.2305 22.3058 13.2219 22.4362 13.2175C22.4554 12.8869 22.4581 12.5481 22.4503 12.2025C22.3855 9.28934 20.9409 5.4958 17.3958 5.9706C13.891 6.43984 13.431 10.2747 13.5455 13.1859Z" fill="#0556B2"/>
<path d="M8.14287 19.1483C7.87041 20.7835 7.69738 22.4339 7.6474 24.0941C7.61541 25.1413 7.63025 26.1897 7.6882 27.2358C7.7338 28.0615 7.56149 28.2124 8.42737 28.5664C11.5215 29.8295 15.1991 29.9712 18.4558 29.9786C21.5678 29.986 24.8165 29.8521 27.8633 29.0864C28.2923 28.9784 28.5726 28.8491 28.6192 28.0368C28.6474 27.543 28.6627 27.0486 28.665 26.554C28.6731 25.1248 28.5768 23.6965 28.4068 22.2778C28.2416 20.899 28.0016 19.5297 27.7323 18.1678C27.5666 17.3293 27.4132 16.4783 27.2335 15.6361C27.1908 15.437 27.1432 15.239 27.0909 15.0422C27.2756 16.4461 27.436 17.8541 27.5958 19.2598C27.8834 21.7902 28.2273 24.3678 28.1994 26.9195C28.1943 27.3842 28.2014 27.9327 27.9693 28.3444C27.6909 28.8385 26.4352 28.8528 25.9623 28.9521C23.8526 29.3957 21.6668 29.5068 19.5166 29.5498C17.2834 29.594 15.0398 29.4967 12.8264 29.1919C11.9061 29.0656 10.9937 28.8839 10.098 28.6388C8.89285 28.3093 8.2456 27.6473 8.0908 26.4152C7.84413 24.4555 7.91461 22.4443 8.04521 20.4786C8.07398 20.0396 8.10542 19.5946 8.14287 19.1483Z" fill="#003D80"/>
<path d="M9.47549 13.8328C9.4612 13.8576 9.44934 13.8848 9.43555 13.91C9.72303 13.5193 10.0622 13.1684 10.4688 12.8795C10.7119 12.7072 10.9969 12.5652 11.2957 12.5337C11.7286 12.4877 11.7134 13.5976 11.8453 13.9351C12.2087 14.8672 14.1559 14.5649 14.7279 14.0777C14.9334 13.9029 15.0049 13.6177 15.0433 13.3679C15.0801 13.132 15.0726 12.8825 15.109 12.6469C15.1833 12.1608 15.7554 12.0585 16.1249 12.021C16.7808 11.9544 17.4522 11.9754 18.1106 11.9747C18.6327 11.9742 19.1551 11.9807 19.6773 11.9837C20.8751 11.9903 20.7585 12.8407 21.0162 13.7144C21.345 14.8294 23.1983 14.6925 23.947 14.1781C24.1122 14.0644 24.2609 13.8277 24.3247 13.6471C24.4404 13.3209 24.3602 12.4197 24.9377 12.569C25.7839 12.7879 26.4271 13.6614 26.8894 14.3853C26.6365 13.6775 26.2986 13.1129 25.7807 12.6535C25.345 12.267 24.8345 11.9772 24.2683 11.8337C24.0493 11.7781 24.0372 11.8507 24.0298 12.0567C24.0201 12.3402 24.0009 12.6233 23.9722 12.9055C23.9395 13.2195 23.9215 13.8678 23.151 14.1092C22.7506 14.2341 22.1699 14.2332 21.7953 14.0346C21.3488 13.798 21.2574 13.3829 21.2581 12.9132C21.2583 12.4579 21.2426 12.0002 21.1988 11.5461C19.0627 11.4568 16.9212 11.4533 14.7852 11.5441C14.7493 11.9963 14.7285 12.4498 14.7271 12.9033C14.7257 13.3631 14.62 13.7704 14.184 13.9989C13.8077 14.1958 13.2284 14.1922 12.8285 14.0645C12.4175 13.9334 12.1277 13.6029 12.0501 13.1797C11.9881 12.8401 11.9611 12.4861 11.9507 12.1334C11.9431 11.8966 11.9335 11.7708 11.61 11.8915C11.4181 11.9632 11.2331 12.0521 11.0572 12.1573C10.3901 12.5575 9.86195 13.164 9.47549 13.8328Z" fill="#003D80"/>
<path d="M12.4911 32.9498C14.514 33.2957 16.5811 33.4257 18.6315 33.4447C20.5447 33.4626 22.5116 33.4129 24.3866 32.997C25.0883 32.8414 25.6107 32.6623 26.1996 32.3387C26.606 32.1153 27.025 31.8549 27.3957 31.5444C26.9895 31.766 26.5657 31.9618 26.1141 32.1222C24.8692 32.5647 23.5333 32.7294 22.2214 32.814C20.1216 32.9494 17.9964 32.8335 15.8946 32.7824C14.3262 32.7442 12.7542 32.6092 11.2232 32.2565C10.3687 32.0593 9.49432 31.7725 8.74561 31.3145C9.21457 31.7835 9.80265 32.1617 10.3829 32.4336C11.0211 32.7328 11.7992 32.8318 12.4911 32.9498Z" fill="#B50215"/>
<path d="M8.29199 29.1331C10.7568 30.9905 14.2935 30.8664 17.2496 30.971C20.7215 31.0937 24.8446 31.3379 28.0195 29.6412C28.0046 29.6447 27.9917 29.6475 27.976 29.6514C24.6993 30.4765 21.1601 30.6127 17.8258 30.5438C14.7603 30.4804 11.3867 30.3108 8.45548 29.1918C8.40138 29.1712 8.34687 29.1516 8.29199 29.1331Z" fill="#F4F4F4"/>
<path d="M35.4077 10.2744C34.8962 9.85609 34.3992 9.33225 34.0406 8.77652C33.6948 8.24069 33.7174 7.78373 33.8117 7.17534C33.9309 6.40679 34.4056 5.41059 33.6266 4.83423C32.879 4.28128 32.0947 4.53916 31.2289 4.58401C30.5148 4.62069 29.8914 4.44457 29.3671 3.9416C28.8742 3.46868 28.6614 2.79329 28.1685 2.33272C27.7417 1.93412 26.9259 1.87621 26.4694 2.25421C26.0519 2.60018 25.8198 3.1084 25.4632 3.51503C25.0501 3.98597 24.536 4.2398 23.941 4.42173C22.837 4.75953 20.1262 3.85062 20.231 5.85473C20.2938 7.05579 20.9752 8.05023 20.0031 9.06783C19.3969 9.70255 18.0748 10.2905 18.1106 11.3265C18.1418 12.2346 19.0047 12.803 19.5508 13.4572C19.9078 13.8849 20.194 14.3424 20.4425 14.8379C20.751 15.4534 20.444 16.309 20.3133 16.9499C19.8595 19.1773 22.3802 18.6886 23.7831 18.6596C25.5229 18.6236 25.5546 20.8675 27.0308 21.2157C27.5161 21.3305 27.9898 21.0709 28.3297 20.7534C29.1277 20.0074 29.2595 18.8324 30.5641 18.6768C31.7087 18.5404 32.9339 19.1635 33.8328 18.2004C34.2463 17.7575 34.0191 17.1285 33.9155 16.6185C33.7445 15.7777 33.6014 15.1024 34.1035 14.3629C34.4889 13.9054 34.8634 13.4474 35.297 13.0328C35.5645 12.777 36.0767 12.5493 36.1839 12.1374C36.4096 11.2705 36.0395 10.791 35.4077 10.2744Z" fill="white"/>
<path d="M35.6629 11.3938C35.5057 10.9885 34.9006 10.6667 34.6101 10.3675C34.2788 10.0263 33.9227 9.66721 33.6636 9.26601C33.1822 8.51982 33.1423 7.92342 33.2955 7.06225C33.4102 6.41808 33.7309 5.03029 32.6519 5.14456C32.1432 5.19839 31.6201 5.28737 31.1068 5.26933C30.048 5.23217 29.3222 4.85092 28.6537 4.01874C28.2905 3.56643 27.4851 1.81719 26.7075 3.05508C26.4461 3.47091 26.1636 3.8657 25.8097 4.20991C25.2643 4.74002 24.4964 5.08576 23.7368 5.1284C22.9116 5.17489 20.7212 4.75601 21.0102 6.17398C21.1818 7.01603 21.4843 7.96586 21.0898 8.78102C20.8915 9.19092 20.6486 9.47224 20.3171 9.78941C19.9892 10.1032 18.932 10.7605 18.8578 11.2215C18.7457 11.9154 19.8883 12.8183 20.2789 13.3095C20.543 13.6418 20.7852 13.9954 20.9757 14.3751C21.3575 15.1362 21.291 15.7544 21.128 16.583C21.0239 17.1119 20.8197 18.0114 21.5543 18.1649C21.864 18.2298 22.179 18.1816 22.4909 18.1604C22.9504 18.1292 23.4124 18.084 23.8733 18.0848C24.6422 18.0863 25.2381 18.3734 25.7498 18.9616C26.121 19.3886 26.8647 20.8966 27.5591 20.6287C28.173 20.3919 28.414 19.5651 28.8357 19.0996C29.4572 18.4138 30.1787 18.0655 31.1068 18.0755C31.6374 18.0814 32.4305 18.348 32.9231 18.1744C33.7988 17.8656 33.3612 16.7078 33.2568 16.0334C33.1402 15.2815 33.2234 14.7139 33.6635 14.0791C33.6726 14.0661 33.683 14.0557 33.6931 14.0445C33.6997 14.0349 33.705 14.0251 33.7129 14.0156C34.0362 13.6323 34.3399 13.2183 34.7032 12.8709C35.089 12.5022 35.9051 12.0181 35.6629 11.3938Z" fill="#3392FF"/>
<path d="M22.5244 8.75379C22.1476 9.79993 22.5584 10.8811 23.718 11.1661C24.7733 11.4255 25.7083 10.7773 26.006 9.82861C26.3318 8.78991 25.5634 8.05583 24.6179 7.7245C23.7394 7.41652 22.8922 7.91698 22.5469 8.70227C22.5434 8.71012 22.5443 8.71753 22.542 8.72511C22.5365 8.7352 22.5285 8.74237 22.5244 8.75379Z" fill="white"/>
<path d="M24.7278 15.0564C25.3147 15.1863 26.0027 14.2168 26.0749 14.1236C27.2708 12.5809 28.3328 10.9451 29.25 9.2327C29.4424 8.85757 29.651 8.1588 29.1383 7.92718C28.6193 7.69287 28.1226 8.27933 27.8556 8.63084C26.6677 10.2159 25.5883 11.891 24.716 13.6602C24.5939 13.9226 24.4711 14.1966 24.4387 14.4856C24.415 14.6974 24.4694 14.9993 24.7278 15.0564Z" fill="white"/>
<path d="M29.1658 14.9141C30.2211 15.1735 31.1559 14.525 31.4535 13.5763C31.7792 12.5379 31.0112 11.8037 30.0654 11.4724C29.1866 11.1644 28.3397 11.6652 27.9942 12.4505C27.9908 12.4584 27.9918 12.4655 27.9894 12.4732C27.9838 12.4833 27.9759 12.4902 27.9718 12.5019C27.5948 13.5482 28.0062 14.6292 29.1658 14.9141Z" fill="white"/>
<path d="M24.7414 9.42776C24.6933 9.60043 24.5129 9.69286 24.2488 9.6967C23.8804 9.70207 23.8075 9.4686 23.8967 9.28122C23.9665 9.18454 24.0663 9.10967 24.2423 9.10713C24.4967 9.10339 24.7908 9.25025 24.7414 9.42776Z" fill="#3392FF"/>
<path d="M30.0496 13.127C30.0017 13.3857 29.8207 13.524 29.5572 13.5298C29.1891 13.5378 29.1154 13.1881 29.2049 12.9069C29.2746 12.7619 29.3747 12.6494 29.5509 12.6454C29.8059 12.6399 30.0988 12.8607 30.0496 13.127Z" fill="#3392FF"/>
<path d="M20.9758 14.3753C21.3576 15.1363 21.2911 15.7545 21.1281 16.5831C21.024 17.112 20.8198 18.0115 21.5543 18.1651C21.8641 18.23 22.179 18.1817 22.491 18.1605C22.9505 18.1293 23.4125 18.0841 23.8734 18.0849C24.6423 18.0865 25.2381 18.3735 25.7498 18.9617C26.1211 19.3887 26.8647 20.8968 27.5592 20.6288C28.173 20.392 28.4141 19.5652 28.8357 19.0998C29.4573 18.4139 30.1788 18.0656 31.1068 18.0756C31.6374 18.0816 32.4306 18.3481 32.9232 18.1745C33.7989 17.8657 33.3612 16.708 33.2569 16.0335C33.1403 15.2816 33.2234 14.714 33.6635 14.0793C33.6726 14.0662 33.6831 14.0559 33.6931 14.0447C33.6998 14.035 33.7051 14.0252 33.7129 14.0158C34.0363 13.6324 34.3399 13.2184 34.7033 12.8711C35.089 12.5023 35.905 12.0182 35.6629 11.3939C35.6405 11.3362 35.6071 11.2802 35.5685 11.2256C35.4433 12.4224 33.6921 13.3087 33.0421 14.2345C32.6044 14.8574 32.748 15.4554 32.9321 16.1416C33.0464 16.5671 33.2113 17.0914 32.983 17.5054C32.6695 18.074 31.3864 17.8028 30.8568 17.793C29.4667 17.7671 28.8249 18.7302 27.9482 19.6361C27.8219 19.7665 27.6923 19.8801 27.5393 19.9795C27.1472 20.2348 26.8706 19.8011 26.7 19.5595C26.5476 19.3441 26.404 19.1226 26.2548 18.905C26.0128 18.5517 25.7421 18.2289 25.3828 17.9906C24.6159 17.4814 23.695 17.733 22.8547 17.8169C22.3549 17.8669 21.7066 17.8686 21.5263 17.2942C21.3142 16.6193 21.6038 15.8475 21.6401 15.1613C21.6995 14.0385 20.6868 13.2065 19.9569 12.4916C19.7234 12.2627 19.4981 12.0397 19.3344 11.7526C19.1081 11.356 19.3018 10.9349 19.5051 10.5866C19.5699 10.4752 19.6441 10.3698 19.7213 10.2664C19.3276 10.5746 18.9038 10.9357 18.8578 11.2216C18.7457 11.9155 19.8883 12.8185 20.2789 13.3097C20.543 13.6419 20.7853 13.9955 20.9758 14.3753Z" fill="#0556B2"/>
<path d="M33.6637 9.26601C33.1824 8.51983 33.1425 7.92343 33.2956 7.06226C33.4104 6.41808 33.7311 5.03029 32.6521 5.14456C32.1434 5.19839 31.6202 5.28737 31.107 5.26933C30.0482 5.23217 29.3223 4.85092 28.6538 4.01874C28.2906 3.56643 27.4852 1.81719 26.7076 3.05508C26.4462 3.47092 26.1638 3.8657 25.8099 4.20991C25.2645 4.74002 24.4965 5.08576 23.7369 5.1284C22.9118 5.17489 20.7214 4.75601 21.0104 6.17398C21.182 7.01603 21.4844 7.96586 21.0899 8.78102C21.0487 8.86599 21.0034 8.94891 20.9541 9.02948C21.1493 8.87468 21.3217 8.70206 21.4404 8.45476C21.6747 7.9667 21.5546 7.39278 21.4558 6.8884C21.3486 6.34243 21.1885 5.66626 21.8796 5.49316C22.4931 5.33917 23.1876 5.5013 23.8159 5.44983C24.7125 5.37632 25.4654 4.9685 26.0841 4.33066C26.4761 3.92668 26.7488 3.35289 27.2101 3.02928C27.5805 2.76988 28.0322 3.61053 28.1775 3.81265C28.3502 4.05309 28.5464 4.27546 28.752 4.48769C29.395 5.15187 30.2215 5.50076 31.1371 5.54421C31.5719 5.56493 32.0038 5.50529 32.4362 5.47503C33.2691 5.41667 33.2073 6.14365 33.0652 6.76534C32.8125 7.87065 32.9259 8.95663 33.6817 9.8475C34.0988 10.3393 34.6746 10.6034 35.2345 10.8819C35.0144 10.6977 34.7671 10.5291 34.6103 10.3676C34.279 10.0263 33.9229 9.66718 33.6637 9.26601Z" fill="#0556B2"/>
<g clip-path="url(#clip0_2584_15567)">
<path fill-rule="evenodd" clip-rule="evenodd" d="M19.2501 20.3069L18.4741 21.0756L18.4356 21.1132L18.0055 21.5398L17.6134 21.9282L17.5749 21.9663L17.2114 22.3259L17.1734 22.364C17.0645 22.4719 16.9441 22.5607 16.8159 22.6304C16.751 22.6658 16.685 22.6958 16.6168 22.7219C16.4656 22.7797 16.3072 22.8135 16.1472 22.8233C16.0493 22.8298 15.9497 22.8271 15.8524 22.8151C15.6418 22.79 15.4344 22.7236 15.2458 22.6152C15.1649 22.5688 15.0819 22.5209 15.0131 22.4528C15.0131 22.4528 15.0128 22.4528 15.012 22.4528L13.5249 20.9797C13.5002 20.953 13.4782 20.9236 13.4595 20.892C13.4122 20.813 13.3853 20.721 13.3853 20.6229C13.3853 20.6077 13.3853 20.5919 13.3875 20.5771C13.3897 20.5543 13.393 20.5325 13.3974 20.5112L13.4062 20.4758C13.426 20.4099 13.4589 20.3483 13.504 20.2922C13.5161 20.2781 13.5288 20.2639 13.542 20.2503L13.5673 20.2258L15.072 18.7347H15.0725L15.9844 17.8315C16.1879 17.6299 16.5118 17.6212 16.7252 17.8053L19.2501 20.3064V20.3069Z" fill="white"/>
<path fill-rule="evenodd" clip-rule="evenodd" d="M14.9983 22.4399C15.0033 22.4448 15.0077 22.4492 15.0126 22.4535C15.0814 22.5211 15.165 22.5701 15.2464 22.6159C15.435 22.7243 15.6418 22.7907 15.853 22.8158C15.9503 22.8278 16.0499 22.83 16.1478 22.8234C16.3072 22.8136 16.4662 22.7798 16.6174 22.7221C16.6851 22.6965 16.7516 22.666 16.816 22.6306C16.9441 22.5603 17.0645 22.472 17.1734 22.3642L17.2114 22.3266L17.5749 21.9665L17.7586 21.784L18.1887 21.358L18.4351 21.1134L18.4736 21.0758L20.0365 19.5275L20.6811 18.8357L20.7196 18.7981C20.9165 18.603 21.2355 18.603 21.4324 18.7981L21.7854 19.1478L21.797 19.1593C21.6408 19.1522 21.4835 19.2077 21.3653 19.3221L20.1707 20.4858L20.1586 20.5005L18.0803 22.5265L18.077 22.5238L17.3115 23.269L17.2603 23.3224C17.1998 23.3807 17.0739 23.4908 16.9051 23.5698C16.8286 23.6057 16.7511 23.6313 16.6741 23.6471C16.6284 23.6558 16.5817 23.6618 16.536 23.664H16.5014C16.3798 23.664 16.2605 23.6373 16.1461 23.5856L15.7859 23.2298L15.639 23.0838L14.9653 22.4088L14.9961 22.4399H14.9983Z" fill="white"/>
<path fill-rule="evenodd" clip-rule="evenodd" d="M23.6979 21.7476L21.9666 23.4881L20.1886 25.2761C20.1319 25.3322 20.0725 25.3828 20.0099 25.4286C20.0077 25.4308 20.0055 25.4324 20.0027 25.4346C19.9939 25.4406 19.9857 25.4471 19.9769 25.4531C19.9758 25.4542 19.9747 25.4548 19.9741 25.4558C19.7057 25.646 19.3768 25.7571 19.0227 25.7571C18.5849 25.7571 18.1873 25.5871 17.893 25.3098L17.8523 25.2739L17.5466 24.971L16.6875 24.1195L16.3608 23.7959C16.4076 23.8035 16.4549 23.8068 16.5022 23.8068H16.5418C16.5968 23.8041 16.6512 23.7981 16.7051 23.7872C16.7931 23.7692 16.8817 23.7393 16.9691 23.6989C17.1566 23.6107 17.2969 23.4892 17.364 23.4244C17.3904 23.3988 17.4096 23.3775 17.4179 23.3683L18.0784 22.7254L18.0811 22.7282L20.353 20.5142L20.3651 20.4995L21.4689 19.4235C21.6174 19.2797 21.8495 19.2606 22.0183 19.3756L22.2801 19.6349L23.699 21.0404C23.7117 21.053 23.7238 21.066 23.7348 21.0791C23.8953 21.2758 23.8832 21.5651 23.699 21.747L23.6979 21.7476Z" fill="white"/>
<path d="M19.0163 20.5386L18.8706 20.683L18.6149 20.4286C18.5747 20.3883 18.5753 20.3234 18.6149 20.2842C18.6556 20.2445 18.7205 20.2445 18.7606 20.2842L19.0158 20.5386H19.0163Z" fill="#004A9C"/>
<path d="M18.5851 20.9652L18.4394 21.109L17.6359 20.3071C17.3378 20.0096 16.9022 19.9056 16.4991 20.0347C16.4452 20.0521 16.3869 20.0227 16.3693 19.9699C16.3517 19.9159 16.3814 19.8582 16.4353 19.8407C16.9121 19.6877 17.4286 19.8113 17.7816 20.1638L18.5846 20.9657L18.5851 20.9652Z" fill="#004A9C"/>
<path d="M17.7241 21.8183L17.5784 21.9626L16.7716 21.1574C16.7315 21.1177 16.732 21.0528 16.7716 21.0131C16.8123 20.9733 16.8777 20.9739 16.9173 21.0136L17.7236 21.8183H17.7241Z" fill="#004A9C"/>
<path d="M18.1546 21.3924L18.0089 21.5368L17.2043 20.7332C17.008 20.5371 16.6868 20.5355 16.4888 20.7305C16.2908 20.9255 16.2897 21.2431 16.486 21.4392L17.0047 21.9579C17.0448 21.9976 17.0448 22.0625 17.0047 22.1022C16.9645 22.142 16.8991 22.1415 16.8589 22.1022L16.3398 21.5842C16.0637 21.308 16.0653 20.8607 16.3436 20.5867C16.6224 20.3126 17.074 20.3148 17.35 20.591L18.1546 21.394V21.3924Z" fill="#004A9C"/>
<path d="M16.8196 22.6283C16.8196 22.6283 16.8168 22.63 16.8152 22.6311C16.7519 22.6654 16.6876 22.6953 16.6216 22.7204L15.9077 22.0073C15.4612 21.5611 15.3974 20.8622 15.7554 20.3452C15.7873 20.2989 15.8516 20.2869 15.8984 20.319C15.9457 20.3506 15.9572 20.4144 15.9248 20.4612C15.6223 20.8976 15.6762 21.487 16.0535 21.864L16.8196 22.6289V22.6283Z" fill="#004A9C"/>
<path d="M18.2152 19.8844C18.1751 19.9237 18.1091 19.9226 18.0689 19.8828C17.3991 19.2144 16.3057 19.21 15.6309 19.873C14.9567 20.5365 14.9523 21.6196 15.6221 22.288L16.1462 22.8115C16.1495 22.8148 16.1534 22.8191 16.155 22.823C16.1523 22.823 16.1501 22.823 16.1473 22.823C16.0522 22.8295 15.9554 22.8268 15.8608 22.8159L15.4758 22.4307C14.7262 21.6827 14.7306 20.4695 15.4857 19.727C16.2414 18.9845 17.4656 18.9894 18.2152 19.7373L18.2169 19.739C18.257 19.7788 18.2559 19.843 18.2152 19.8828V19.8844Z" fill="#004A9C"/>
</g>
<defs>
<clipPath id="clip0_2584_15567">
<rect width="10.4609" height="8.0834" fill="white" transform="translate(13.3853 17.6736)"/>
</clipPath>
</defs>
</svg>
