<svg width="37" height="36" viewBox="0 0 37 36" fill="none" xmlns="http://www.w3.org/2000/svg">
<path d="M31.4576 11.5225C31.4966 11.3924 31.5328 11.2702 31.5652 11.1505C32.1735 12.1702 32.3373 13.3914 32.4654 14.5904C32.644 16.2659 32.7225 17.9526 32.7836 19.6358C32.8775 22.2156 32.8993 24.8028 32.8443 27.3838C32.8211 28.489 33.1662 30.5341 32.1288 31.265C30.9391 32.1029 28.5691 31.851 27.1879 31.8476C25.878 31.8442 24.5334 31.8114 23.2363 31.6117C21.7607 31.3847 21.6479 30.2114 21.4852 28.9635C21.3389 27.8405 21.2566 26.7097 21.1504 25.5822C23.2484 23.4878 25.3004 21.3478 27.2934 19.1531C28.3287 18.0129 29.361 16.9315 30.0266 15.5264C30.6346 14.2425 31.0498 12.8803 31.4576 11.5225ZM26.2617 10.0427C25.5796 10.4934 24.8699 10.3395 24.3166 9.76821C23.6798 9.11114 23.9966 8.3738 24.5754 7.91461C24.789 7.74547 24.9296 7.88933 25.0685 8.02791C25.355 8.31316 25.7687 8.47965 26.3432 8.47256C26.6764 8.46852 26.7235 8.55609 26.7552 8.81585C26.8127 9.28981 26.6673 9.77448 26.2617 10.0427Z" fill="#EC0000"/>
<path d="M17.2379 22.0773C17.0534 22.1667 16.9112 22.1665 16.7583 22.0367C16.4973 21.8152 16.5936 21.5301 16.8315 21.3954C16.9282 21.3407 17.2357 21.2386 17.3652 21.5748C17.4898 21.8985 17.3328 22.031 17.2379 22.0773Z" fill="#FE8212"/>
<path d="M16.2422 14.3719C16.0578 14.4614 15.9154 14.4609 15.7625 14.3313C15.5018 14.1098 15.598 13.8247 15.8359 13.6898C15.9326 13.6352 16.2401 13.5332 16.3696 13.8694C16.4942 14.1931 16.337 14.3256 16.2422 14.3719Z" fill="#FE8212"/>
<path d="M30.323 9.34964C30.0837 8.77734 29.741 8.27444 29.3156 7.78226C28.5696 6.91949 27.7403 6.11902 26.8664 5.38649C26.5225 5.0984 26.1819 4.84356 25.8194 4.63196C25.6545 5.22165 25.5109 5.92746 25.5736 6.47604C26.3312 6.49302 27.0613 6.8432 27.4337 7.56863C28.0553 8.78019 28.0577 10.3758 26.6862 11.0586C25.4619 11.6677 23.9271 11.4027 23.2243 10.1131C22.4793 8.74518 23.1161 7.28583 24.5111 6.67655C24.5184 6.67329 24.5253 6.67231 24.5324 6.66967C24.4707 5.91855 24.6218 5.03149 24.8629 4.20637C24.2443 3.98426 23.5875 4.21466 23.1024 4.3694C22.4736 4.57007 21.8455 4.77401 21.2255 5.00156C20.0556 5.43124 18.8377 5.94506 17.8951 6.78132C16.6587 7.87837 15.4676 9.03223 14.28 10.1816C11.9441 12.4422 9.67051 14.7672 7.45481 17.1452C6.89659 17.7445 6.34184 18.3471 5.79059 18.9528C4.41177 20.4674 3.82186 21.0996 4.98184 22.7515C6.14725 24.4099 7.60556 25.8915 9.07056 27.2839C9.81541 27.9919 10.5823 28.6807 11.3911 29.3153C12.5638 30.2357 13.1811 30.7447 14.2954 30.3784C14.9955 30.148 15.5134 29.5109 16.0351 29.0204C16.6121 28.478 17.1858 27.9328 17.7562 27.3838C18.9353 26.2505 20.1001 25.1024 21.2502 23.9398C23.5517 21.6124 25.8293 19.2413 27.9704 16.7648C28.8099 15.794 29.3124 14.5576 29.7305 13.359C29.9482 12.7358 30.1422 12.1046 30.3323 11.4722C30.6721 10.3445 30.6845 10.2148 30.323 9.34964ZM15.3444 11.9618C16.0933 11.6772 16.996 11.7816 17.5539 12.3947C18.197 13.1007 18.5119 14.3972 17.9617 15.2398C17.5049 15.9395 16.541 16.3574 15.7219 16.2235C14.7509 16.0647 13.893 15.2015 13.7803 14.2194C13.6598 13.1718 14.4272 12.3286 15.3444 11.9618ZM18.9657 22.9297C18.5087 23.6292 17.5446 24.047 16.7259 23.9132C15.7547 23.7548 14.897 22.8915 14.7839 21.9093C14.6635 20.8613 15.4308 20.0181 16.348 19.652C17.0973 19.3667 17.9995 19.4717 18.5577 20.0845C19.2005 20.7907 19.5159 22.0868 18.9657 22.9297ZM20.6607 18.0559C20.0236 18.3731 19.2651 18.4922 18.5783 18.6535C16.8066 19.0688 15.0068 19.3601 13.1955 19.5363C12.7094 19.5767 11.741 19.6323 11.4606 19.1108C11.1208 18.4776 12.0588 18.08 12.4957 17.9173C13.2728 17.6286 14.1007 17.4419 14.9059 17.2497C15.7878 17.0393 16.6767 16.859 17.5709 16.709C18.3724 16.5747 19.2104 16.4023 20.0238 16.3789C20.441 16.367 21.0143 16.4414 21.2548 16.8328C21.574 17.3521 21.1037 17.8354 20.6607 18.0559Z" fill="#FE8212"/>
<path d="M25.3772 9.07191C25.7958 9.14939 26.2159 9.34706 26.4795 9.68973C26.5024 9.71904 26.5149 9.75084 26.5331 9.78139C26.7293 9.51236 26.7973 9.16176 26.7552 8.81583C26.7235 8.55607 26.6764 8.46849 26.3432 8.47253C25.7686 8.47963 25.355 8.31313 25.0685 8.02789C24.9295 7.88931 24.789 7.7455 24.5754 7.91458C24.1602 8.24431 23.8819 8.71707 23.9919 9.20055C24.3896 8.99703 24.9518 8.99258 25.3772 9.07191ZM23.2362 31.6117C24.5333 31.8114 25.8779 31.8441 27.1878 31.8476C28.569 31.851 30.9391 32.1029 32.1287 31.265C32.7445 30.8311 32.8721 29.9339 32.8801 29.0453C32.7455 29.3267 32.6003 29.6014 32.4326 29.8569C31.7076 30.9622 30.5353 31.0595 29.3258 31.1431C28.1302 31.2254 26.9211 31.1973 25.727 31.1078C24.2298 30.9954 22.9 30.6331 22.5848 28.9318C21.9189 25.336 25.285 22.7311 27.3284 20.2564C28.6168 18.6963 29.7197 16.9758 30.2242 15.0701C30.158 15.222 30.0976 15.3763 30.0266 15.5265C29.361 16.9316 28.3287 18.0131 27.2934 19.1532C25.3004 21.3478 23.2484 23.4879 21.1504 25.5822C21.2566 26.7098 21.3389 27.8406 21.4852 28.9636C21.6478 30.2115 21.7606 31.3847 23.2362 31.6117Z" fill="#CE0000"/>
<path d="M25.8194 4.6319C25.6545 5.22159 25.5109 5.9274 25.5736 6.47598C26.3312 6.49296 27.0613 6.84314 27.4337 7.56857C27.8168 8.31482 27.9631 9.20633 27.6997 9.94088C28.0459 9.45211 28.1885 8.78298 28.0786 8.23191C27.9615 7.64568 27.7436 7.16096 27.3184 6.7376C27.0562 6.47665 26.7052 6.30953 26.4271 6.06598C26.0751 5.7579 26.0657 5.30777 26.1963 4.87954C26.0721 4.79394 25.948 4.70694 25.8194 4.6319Z" fill="#CA6000"/>
<path d="M9.07091 27.2839C9.81576 27.9919 10.5826 28.6808 11.3914 29.3153C12.5641 30.2358 13.1815 30.7448 14.2957 30.3784C14.9959 30.148 15.5138 29.5109 16.0355 29.0204C16.6124 28.478 17.1861 27.9328 17.7566 27.3838C18.9357 26.2506 20.1004 25.1025 21.2506 23.9398C23.552 21.6124 25.8297 19.2413 27.9707 16.7649C28.8102 15.7941 29.3127 14.5576 29.7309 13.359C29.9485 12.7358 30.1425 12.1046 30.3327 11.4722C30.6726 10.3445 30.6849 10.2148 30.3234 9.3496C30.1233 8.8714 29.848 8.44271 29.5158 8.02722C29.6382 8.30899 29.7547 8.59325 29.8482 8.88678C30.2204 10.053 29.9038 11.2259 29.5727 12.3593C28.9802 14.3855 27.6986 16.0931 26.3222 17.6552C25.038 19.1125 23.6264 20.4624 22.2899 21.8718C20.8336 23.407 19.3622 24.9195 17.8088 26.3574C16.6563 27.4245 15.6491 28.8446 14.0837 29.3218C12.4377 29.8236 10.5707 27.9246 9.46739 26.9458C8.22896 25.847 7.07712 24.627 6.06748 23.3141C5.20792 22.196 4.84541 20.961 5.08089 19.7535C4.24966 20.7531 4.04919 21.4226 4.98218 22.7515C6.14759 24.4099 7.60591 25.8915 9.07091 27.2839Z" fill="#CA6000"/>
<path d="M6.85742 17.7941C9.18964 15.8482 11.3554 13.6479 13.5296 11.574C14.6727 10.4836 15.8058 9.3824 16.9445 8.28778C17.9519 7.31983 19.0222 6.43397 20.2534 5.76478C21.2226 5.23821 22.4446 4.7685 23.6408 4.59248C24.1977 4.51014 24.3215 4.6222 24.2857 5.06622C24.2513 5.49548 24.3174 6.17296 23.9564 6.47011C23.2255 7.07213 22.4183 7.88638 22.5874 9.36127C22.7424 10.7134 24.1768 11.7789 25.535 11.5375C25.8627 11.479 26.2837 11.3118 26.6571 11.0714C25.4377 11.6623 23.9218 11.3922 23.2244 10.113C22.4794 8.74506 23.1162 7.2857 24.5112 6.67643C24.5185 6.67317 24.5254 6.67219 24.5325 6.66954C24.4708 5.91843 24.6219 5.03137 24.863 4.20625C24.2444 3.98414 23.5876 4.21454 23.1025 4.36928C22.4737 4.56995 21.8456 4.77389 21.2256 5.00144C20.0558 5.43111 18.8378 5.94494 17.8953 6.7812C16.6589 7.87825 15.4678 9.03211 14.2801 10.1815C11.9442 12.4421 9.67064 14.7671 7.45494 17.145C7.25447 17.3602 7.0569 17.5781 6.85742 17.7941Z" fill="#CA6000"/>
</svg>
