<svg width="20" height="20" viewBox="0 0 20 20" fill="none" xmlns="http://www.w3.org/2000/svg">
<path d="M18.6455 9.65312L14.247 3.05625C14.1329 2.88513 13.9782 2.74483 13.7968 2.64779C13.6154 2.55076 13.4129 2.49999 13.2072 2.5H6.79702C6.59131 2.49999 6.38877 2.55076 6.20738 2.64779C6.02599 2.74483 5.87135 2.88513 5.75718 3.05625L1.35874 9.65312C1.30924 9.72743 1.27624 9.81148 1.26196 9.89962C1.24767 9.98775 1.25244 10.0779 1.27593 10.1641L3.02515 16.5789C3.09772 16.8425 3.25448 17.0752 3.47154 17.2415C3.6886 17.4078 3.95406 17.4986 4.22749 17.5H6.25015C6.58167 17.5 6.89961 17.3683 7.13403 17.1339C7.36845 16.8995 7.50015 16.5815 7.50015 16.25V15H12.5001V16.25C12.5001 16.5815 12.6318 16.8995 12.8663 17.1339C13.1007 17.3683 13.4186 17.5 13.7501 17.5H15.7728C16.0469 17.4994 16.3133 17.409 16.5311 17.2427C16.749 17.0763 16.9063 16.8432 16.9791 16.5789L18.7283 10.1641C18.7518 10.0779 18.7565 9.98775 18.7422 9.89962C18.728 9.81148 18.695 9.72743 18.6455 9.65312ZM6.25015 13.75V5.45234L8.12515 6.52344V10.625C8.12515 10.7908 8.191 10.9497 8.30821 11.0669C8.42542 11.1842 8.58439 11.25 8.75015 11.25C8.91591 11.25 9.07488 11.1842 9.19209 11.0669C9.3093 10.9497 9.37515 10.7908 9.37515 10.625V7.2375L9.68765 7.42188C9.78266 7.47673 9.89044 7.50561 10.0001 7.50561C10.1099 7.50561 10.2176 7.47673 10.3126 7.42188L10.6251 7.24141V10C10.6251 10.1658 10.691 10.3247 10.8082 10.4419C10.9254 10.5592 11.0844 10.625 11.2501 10.625C11.4159 10.625 11.5749 10.5592 11.6921 10.4419C11.8093 10.3247 11.8751 10.1658 11.8751 10V6.52344L13.7501 5.45234V13.75H6.25015ZM13.2072 3.75L13.4837 4.16484L10.0001 6.15547L6.51655 4.16484L6.79702 3.75H13.2072ZM6.25015 16.25H4.22749L2.55327 10.1102L5.00015 6.43906V13.75C5.00015 14.0815 5.13184 14.3995 5.36626 14.6339C5.60069 14.8683 5.91863 15 6.25015 15V16.25ZM15.7728 16.25H13.7501V15C14.0817 15 14.3996 14.8683 14.634 14.6339C14.8685 14.3995 15.0001 14.0815 15.0001 13.75V6.43906L17.447 10.1109L15.7728 16.25Z" fill="#4F4F4F"/>
</svg>
