<svg width="20" height="20" viewBox="0 0 20 20" fill="none" xmlns="http://www.w3.org/2000/svg">
<g id="Lamp">
<path id="Vector" d="M19.3242 11.6289L15.5742 2.87891C15.526 2.7665 15.446 2.67069 15.3439 2.60334C15.2418 2.53599 15.1222 2.50006 15 2.5H4.99995C4.87767 2.50006 4.75808 2.53599 4.65602 2.60334C4.55395 2.67069 4.47388 2.7665 4.42573 2.87891L0.675733 11.6289C0.635023 11.7239 0.618526 11.8276 0.627721 11.9306C0.636916 12.0336 0.671516 12.1327 0.72842 12.219C0.785324 12.3053 0.862755 12.3762 0.953775 12.4252C1.04479 12.4743 1.14656 12.5 1.24995 12.5H9.37495V16.25H7.49995C7.33419 16.25 7.17522 16.3158 7.05801 16.4331C6.9408 16.5503 6.87495 16.7092 6.87495 16.875C6.87495 17.0408 6.9408 17.1997 7.05801 17.3169C7.17522 17.4342 7.33419 17.5 7.49995 17.5H12.5C12.6657 17.5 12.8247 17.4342 12.9419 17.3169C13.0591 17.1997 13.125 17.0408 13.125 16.875C13.125 16.7092 13.0591 16.5503 12.9419 16.4331C12.8247 16.3158 12.6657 16.25 12.5 16.25H10.625V12.5H15V15C15 15.1658 15.0658 15.3247 15.183 15.4419C15.3002 15.5592 15.4592 15.625 15.625 15.625C15.7907 15.625 15.9497 15.5592 16.0669 15.4419C16.1841 15.3247 16.25 15.1658 16.25 15V12.5H18.75C18.8533 12.5 18.9551 12.4743 19.0461 12.4252C19.1371 12.3762 19.2146 12.3053 19.2715 12.219C19.3284 12.1327 19.363 12.0336 19.3722 11.9306C19.3814 11.8276 19.3649 11.7239 19.3242 11.6289ZM2.19761 11.25L5.41245 3.75H14.5875L17.8023 11.25H2.19761Z" fill="#6F6F6F"/>
</g>
</svg>
