<svg width="20" height="20" viewBox="0 0 20 20" fill="none" xmlns="http://www.w3.org/2000/svg">
<g id="Icon h&#225;&#187;&#135; th&#225;&#187;&#145;ng/Star/Fill">
<path id="Vector" d="M18.3206 8.93603L14.7971 12.011L15.8526 16.5892C15.9085 16.8285 15.8925 17.079 15.8068 17.3093C15.7211 17.5396 15.5693 17.7396 15.3706 17.8841C15.1718 18.0287 14.9349 18.1114 14.6893 18.1221C14.4438 18.1327 14.2006 18.0707 13.9901 17.9438L9.99714 15.522L6.01276 17.9438C5.80227 18.0707 5.55905 18.1327 5.31352 18.1221C5.06799 18.1114 4.83104 18.0287 4.63229 17.8841C4.43354 17.7396 4.28181 17.5396 4.19608 17.3093C4.11035 17.079 4.09441 16.8285 4.15026 16.5892L5.20417 12.0157L1.67995 8.93603C1.49355 8.77526 1.35876 8.56304 1.29249 8.32598C1.22622 8.08892 1.23142 7.83757 1.30743 7.60345C1.38344 7.36933 1.52688 7.16287 1.71976 7.00994C1.91264 6.85702 2.14638 6.76445 2.39167 6.74384L7.03698 6.34149L8.85026 2.01649C8.94495 1.78955 9.10467 1.5957 9.30931 1.45935C9.51395 1.323 9.75436 1.25024 10.0003 1.25024C10.2462 1.25024 10.4866 1.323 10.6912 1.45935C10.8958 1.5957 11.0556 1.78955 11.1503 2.01649L12.969 6.34149L17.6128 6.74384C17.858 6.76445 18.0918 6.85702 18.2847 7.00994C18.4776 7.16287 18.621 7.36933 18.697 7.60345C18.773 7.83757 18.7782 8.08892 18.7119 8.32598C18.6457 8.56304 18.5109 8.77526 18.3245 8.93603H18.3206Z" fill="#004A9C"/>
</g>
</svg>
