<svg width="20" height="20" viewBox="0 0 20 20" fill="none" xmlns="http://www.w3.org/2000/svg">
<g id="Lamp">
<path id="Vector" d="M19.2718 12.2188C19.2149 12.3052 19.1374 12.3761 19.0464 12.4252C18.9553 12.4743 18.8534 12.5 18.75 12.5H16.25V15C16.25 15.1658 16.1841 15.3247 16.0669 15.4419C15.9497 15.5592 15.7907 15.625 15.625 15.625C15.4592 15.625 15.3002 15.5592 15.183 15.4419C15.0658 15.3247 15 15.1658 15 15V12.5H10.625V16.25H12.5C12.6657 16.25 12.8247 16.3158 12.9419 16.4331C13.0591 16.5503 13.125 16.7092 13.125 16.875C13.125 17.0408 13.0591 17.1997 12.9419 17.3169C12.8247 17.4342 12.6657 17.5 12.5 17.5H7.49995C7.33419 17.5 7.17522 17.4342 7.05801 17.3169C6.9408 17.1997 6.87495 17.0408 6.87495 16.875C6.87495 16.7092 6.9408 16.5503 7.05801 16.4331C7.17522 16.3158 7.33419 16.25 7.49995 16.25H9.37495V12.5H1.24995C1.14656 12.5 1.04479 12.4743 0.953775 12.4252C0.862755 12.3762 0.785324 12.3053 0.72842 12.219C0.671516 12.1327 0.636916 12.0336 0.627721 11.9306C0.618526 11.8276 0.635023 11.7239 0.675733 11.6289L4.42573 2.87891C4.47388 2.7665 4.55395 2.67069 4.65602 2.60334C4.75808 2.53599 4.87767 2.50006 4.99995 2.5H15C15.1222 2.50006 15.2418 2.53599 15.3439 2.60334C15.446 2.67069 15.526 2.7665 15.5742 2.87891L19.3242 11.6289C19.3649 11.7239 19.3814 11.8275 19.3723 11.9304C19.3632 12.0334 19.3286 12.1324 19.2718 12.2188Z" fill="#004A9C"/>
</g>
</svg>
