<svg width="20" height="20" viewBox="0 0 20 20" fill="none" xmlns="http://www.w3.org/2000/svg">
<g id="download (3) 3">
<g id="Group">
<g id="Group_2">
<path id="Vector" fill-rule="evenodd" clip-rule="evenodd" d="M8.2001 2.81259C8.2001 1.38099 6.6245 0.516092 5.4266 1.29039L3.9023 2.27559C3.56375 2.49495 3.28551 2.7956 3.09298 3.15011C2.90046 3.50461 2.79977 3.90168 2.8001 4.30509V8.88369C2.44498 9.02778 2.14102 9.27469 1.9272 9.59273C1.71339 9.91078 1.59948 10.2855 1.6001 10.6687V15.079C1.6001 17.2447 3.3461 19 5.5001 19C7.6541 19 9.4001 17.2447 9.4001 15.0793V10.6684C9.40066 10.2852 9.28672 9.91059 9.07291 9.59261C8.8591 9.27462 8.55517 9.02776 8.2001 8.88369V2.81259ZM6.0755 2.30499C6.4751 2.04699 7.0001 2.33529 7.0001 2.81259V8.74569H4.0001V4.30509C4.0001 3.89469 4.2077 3.51219 4.5512 3.29019L6.0755 2.30499ZM8.2001 11.7619V10.6684C8.20034 10.5746 8.18209 10.4817 8.14642 10.3949C8.11074 10.3082 8.05832 10.2293 7.99216 10.1628C7.926 10.0963 7.84739 10.0435 7.76081 10.0074C7.67424 9.97124 7.5814 9.95253 7.4876 9.95229H3.5126C3.4188 9.95253 3.32596 9.97124 3.23939 10.0074C3.15281 10.0435 3.0742 10.0963 3.00804 10.1628C2.94188 10.2293 2.88946 10.3082 2.85378 10.3949C2.8181 10.4817 2.79986 10.5746 2.8001 10.6684V11.7619H8.2001ZM13.0001 8.14269C11.6747 8.14269 10.6001 9.22269 10.6001 10.5553V18.397C10.6001 18.73 10.8686 19 11.2001 19H17.8001C18.1316 19 18.4001 18.73 18.4001 18.397V10.555C18.4001 9.22269 17.3255 8.14239 16.0001 8.14239L13.0001 8.14269ZM11.8001 10.5553C11.8001 9.88929 12.3371 9.34929 13.0001 9.34929H16.0001C16.6631 9.34929 17.2001 9.88929 17.2001 10.5553V17.794H11.8001V10.5553Z" fill="#004A9C"/>
</g>
</g>
</g>
</svg>
