<svg width="20" height="20" viewBox="0 0 20 20" fill="none" xmlns="http://www.w3.org/2000/svg">
<g clip-path="url(#clip0_13728_45186)">
<path d="M17.5099 2.59006C17.0399 2.12006 16.3699 1.91006 15.7199 2.04006C15.0899 2.16006 14.5699 2.57006 14.2999 3.14006C13.5299 2.73006 12.5799 2.88006 11.9699 3.49006L11.5699 3.89006L10.8899 3.21006C10.7199 3.04006 10.4899 2.94006 10.2499 2.94006C10.0099 2.94006 9.77994 3.03006 9.60994 3.21006L8.53994 4.28006C8.18994 4.64006 8.18994 5.21006 8.53994 5.57006L8.89994 5.93006C6.65994 7.05006 5.44994 8.28006 3.63994 10.1201C3.35994 10.4001 3.06994 10.6901 2.75994 11.0001C1.74994 12.0101 1.74994 13.6601 2.75994 14.6801L5.46994 17.3901C5.95994 17.8801 6.61994 18.1501 7.30994 18.1501C7.99994 18.1501 8.65994 17.8801 9.14994 17.3901C9.45994 17.0801 9.74994 16.7901 10.0299 16.5101C11.8699 14.6901 13.0999 13.4801 14.2199 11.2501L14.5199 11.5501C14.6899 11.7201 14.9199 11.8201 15.1599 11.8201C15.3999 11.8201 15.6299 11.7301 15.7999 11.5501L16.8699 10.4801C17.2199 10.1301 17.2199 9.55006 16.8699 9.19006L16.1899 8.51006L16.5799 8.11006C17.1999 7.49006 17.3399 6.54006 16.9299 5.78006C17.4999 5.51006 17.9099 4.99006 18.0299 4.37006C18.1599 3.72006 17.9599 3.06006 17.4899 2.59006H17.5099ZM15.6599 5.35006C15.5799 5.60006 15.6399 5.88006 15.8299 6.07006C15.9999 6.24006 16.0899 6.47006 16.0899 6.71006C16.0899 6.95006 15.9999 7.18006 15.8299 7.35006L15.4299 7.74006L12.3399 4.65006L12.7299 4.25006C12.8999 4.08006 13.1299 3.99006 13.3699 3.99006C13.6099 3.99006 13.8399 4.08006 14.0099 4.25006C14.1999 4.44006 14.4799 4.51006 14.7299 4.42006C14.9899 4.34006 15.1699 4.12006 15.2099 3.85006C15.2599 3.51006 15.4899 3.23006 15.8199 3.13006C16.1499 3.02006 16.4899 3.10006 16.7399 3.35006C16.9799 3.59006 17.0599 3.95006 16.9499 4.27006C16.8399 4.60006 16.5699 4.82006 16.2299 4.87006C15.9599 4.91006 15.7499 5.09006 15.6599 5.34006V5.35006ZM15.9899 9.83006L15.1699 10.6501L9.42994 4.92006L10.2499 4.10006L15.9799 9.83006H15.9899Z" fill="#004A9C"/>
<path d="M7.63996 11.51C7.42996 11.3 7.07996 11.3 6.86996 11.51C6.76996 11.61 6.70996 11.75 6.70996 11.89C6.70996 12.03 6.76996 12.17 6.86996 12.27L7.86996 13.27C7.91996 13.32 7.97996 13.36 8.04996 13.39C8.11996 13.42 8.18996 13.43 8.25996 13.43C8.47996 13.43 8.67996 13.3 8.75996 13.09C8.84996 12.88 8.79996 12.66 8.63996 12.5L7.63996 11.5V11.51Z" fill="white"/>
<path d="M8.42001 9.95998C8.32001 10.06 8.26001 10.2 8.26001 10.34C8.26001 10.48 8.32001 10.62 8.42001 10.72L9.42001 11.72C9.47001 11.77 9.53001 11.81 9.60001 11.84C9.67001 11.87 9.73001 11.88 9.81001 11.88C10.03 11.88 10.23 11.75 10.31 11.54C10.4 11.33 10.35 11.11 10.19 10.95L9.19001 9.94998C8.98001 9.73998 8.63001 9.73998 8.42001 9.94998V9.95998Z" fill="white"/>
</g>
<defs>
<clipPath id="clip0_13728_45186">
<rect width="16.09" height="16.15" fill="white" transform="translate(2 2)"/>
</clipPath>
</defs>
</svg>
