<svg width="20" height="20" viewBox="0 0 20 20" fill="none" xmlns="http://www.w3.org/2000/svg">
<g id="Tent">
<path id="Vector" d="M19.9461 14.7461L14.9461 3.49609C14.897 3.38564 14.8169 3.29179 14.7155 3.22592C14.6142 3.16006 14.4959 3.125 14.375 3.125H5.62499C5.50411 3.125 5.38582 3.16006 5.28446 3.22592C5.18309 3.29179 5.10301 3.38564 5.0539 3.49609V3.50547L0.0538989 14.7461C0.011593 14.8413 -0.00626539 14.9455 0.00194631 15.0493C0.010158 15.1531 0.0441795 15.2532 0.10092 15.3405C0.15766 15.4279 0.23532 15.4996 0.326844 15.5493C0.418368 15.599 0.520855 15.625 0.624993 15.625H19.375C19.4791 15.625 19.5816 15.599 19.6731 15.5493C19.7647 15.4996 19.8423 15.4279 19.8991 15.3405C19.9558 15.2532 19.9898 15.1531 19.998 15.0493C20.0062 14.9455 19.9884 14.8413 19.9461 14.7461ZM4.99999 14.375H1.58671L4.99999 6.69531V14.375ZM6.24999 14.375V6.69531L9.66327 14.375H6.24999Z" fill="#004A9C"/>
</g>
</svg>
