<svg width="20" height="20" viewBox="0 0 20 20" fill="none" xmlns="http://www.w3.org/2000/svg">
<g id="BabyCarriage">
<g id="Group">
<path id="Vector" d="M16.1974 4.87534L16.1868 4.80109C16.927 4.69559 17.2019 3.78777 16.6972 3.27848L16.7505 3.22568L16.6972 3.27848C16.1724 2.74895 15.2734 3.05536 15.1688 3.78178C15.1688 3.78179 15.1688 3.7818 15.1688 3.78181L16.1974 4.87534ZM16.1974 4.87534L16.1868 4.80109C15.6117 4.8831 15.3776 5.5865 15.788 5.99684M16.1974 4.87534L15.788 5.99684M15.788 5.99684C16.1395 6.34843 16.1395 6.92066 15.788 7.27225M15.788 5.99684L15.788 7.27225M15.788 7.27225L15.3922 7.66806M15.788 7.27225L15.3922 7.66806M15.3922 7.66806L12.3018 4.57762L15.3922 7.66806ZM8.49667 5.4876L8.85666 5.84758C6.61993 6.97362 5.40881 8.20042 3.59311 10.0396C3.31706 10.3192 3.02704 10.613 2.71732 10.9227C1.70066 11.9394 1.70056 13.585 2.71732 14.6017L5.4281 17.3125C6.44476 18.3292 8.09031 18.3293 9.10707 17.3125C9.41664 17.0029 9.71036 16.713 9.99003 16.4369C11.8259 14.6247 13.0558 13.4106 14.1822 11.1732L14.4822 11.4732L14.4822 11.4732C14.8372 11.8281 15.4146 11.8282 15.7696 11.4732L16.8398 10.403L16.7867 10.35L16.8398 10.403C17.1947 10.048 17.1947 9.47063 16.8397 9.11562L16.7867 9.16865L16.8397 9.11562L16.1611 8.43703L16.557 8.04122C17.1881 7.41003 17.3056 6.45705 16.9098 5.70604C18.1405 5.12398 18.4376 3.48964 17.4696 2.51298C16.493 1.52759 14.8433 1.82834 14.2628 3.05946C13.5119 2.66424 12.5595 2.78193 11.9286 3.41287L11.5328 3.80865L10.8542 3.13006C10.4992 2.77505 9.92173 2.77508 9.56679 3.13006L8.49667 4.20018C8.14094 4.55587 8.14084 5.13183 8.49667 5.4876ZM15.9455 9.75931L15.1259 10.5789L9.39089 4.8439L10.2105 4.02428L15.9455 9.75931Z" fill="#004A9C" stroke="#004A9C" stroke-width="0.15"/>
<path id="Vector_2" d="M10.1432 10.8864L10.1433 10.8864C10.4872 11.2304 10.2386 11.8145 9.75885 11.8146C9.75882 11.8146 9.75878 11.8146 9.75875 11.8146V11.7396C9.69718 11.7397 9.63621 11.7276 9.57933 11.704C9.52245 11.6805 9.47078 11.6459 9.42731 11.6023L10.1432 10.8864ZM10.1432 10.8864L9.14337 9.8865C8.93106 9.67418 8.58679 9.67414 8.37443 9.8865C8.16208 10.0988 8.16208 10.4431 8.37443 10.6555L10.1432 10.8864ZM7.59884 11.431C7.59884 11.431 7.59885 11.431 7.59885 11.431L8.59865 12.4309C8.94268 12.7749 8.69395 13.359 8.21429 13.3591C8.21425 13.3591 8.21422 13.3591 8.21418 13.3591V13.2841C8.15262 13.2842 8.09164 13.2721 8.03476 13.2485C7.97788 13.225 7.92622 13.1904 7.88275 13.1468L7.59884 11.431ZM7.59884 11.431C7.38652 11.2187 7.04222 11.2187 6.82987 11.431C6.61752 11.6434 6.61752 11.9877 6.82987 12.2L7.82964 13.1998C7.82966 13.1998 7.82967 13.1998 7.82969 13.1998L7.59884 11.431Z" fill="white" stroke="white" stroke-width="0.15"/>
</g>
</g>
</svg>
