<svg width="20" height="20" viewBox="0 0 20 20" fill="none" xmlns="http://www.w3.org/2000/svg">
<g id="Icon h&#225;&#187;&#135; th&#225;&#187;&#145;ng/Star/Outline">
<path id="Vector" d="M18.6878 7.60111C18.6121 7.36782 18.4694 7.16195 18.2776 7.00914C18.0857 6.85633 17.8532 6.76334 17.6089 6.74174L12.969 6.34174L11.1503 2.01674C11.0556 1.7898 10.8958 1.59595 10.6912 1.4596C10.4866 1.32324 10.2462 1.25049 10.0003 1.25049C9.75436 1.25049 9.51395 1.32324 9.30931 1.4596C9.10467 1.59595 8.94495 1.7898 8.85026 2.01674L7.03698 6.34174L2.39167 6.74408C2.14638 6.76469 1.91264 6.85727 1.71976 7.01019C1.52688 7.16311 1.38344 7.36958 1.30743 7.6037C1.23142 7.83782 1.22622 8.08917 1.29249 8.32623C1.35876 8.56329 1.49355 8.77551 1.67995 8.93627L5.20417 12.016L4.14792 16.5894C4.09207 16.8287 4.108 17.0792 4.19374 17.3095C4.27947 17.5399 4.4312 17.7398 4.62994 17.8844C4.82869 18.0289 5.06565 18.1117 5.31118 18.1223C5.55671 18.1329 5.79993 18.0709 6.01042 17.9441L9.99479 15.5222L13.9878 17.9441C14.1983 18.0709 14.4415 18.1329 14.687 18.1223C14.9325 18.1117 15.1695 18.0289 15.3682 17.8844C15.567 17.7398 15.7187 17.5399 15.8044 17.3095C15.8902 17.0792 15.9061 16.8287 15.8503 16.5894L14.7948 12.0113L18.3182 8.93627C18.5046 8.77495 18.6391 8.56213 18.7049 8.32457C18.7706 8.087 18.7647 7.8353 18.6878 7.60111ZM17.4987 7.99174L13.9753 11.0667C13.8038 11.2159 13.6762 11.409 13.6063 11.6253C13.5363 11.8415 13.5267 12.0728 13.5784 12.2941L14.637 16.8753L10.6471 14.4535C10.4525 14.3349 10.229 14.2722 10.001 14.2722C9.77313 14.2722 9.54961 14.3349 9.35495 14.4535L5.37057 16.8753L6.42214 12.2972C6.47382 12.0759 6.46417 11.8446 6.39424 11.6284C6.32431 11.4121 6.19674 11.219 6.02526 11.0699L2.50026 7.99643C2.49998 7.99409 2.49998 7.99173 2.50026 7.9894L7.14401 7.58783C7.37073 7.56785 7.58769 7.48634 7.77149 7.35211C7.95529 7.21787 8.09895 7.036 8.18698 6.82611L10.0003 2.50658L11.8128 6.82611C11.9008 7.036 12.0444 7.21787 12.2282 7.35211C12.412 7.48634 12.629 7.56785 12.8557 7.58783L17.5003 7.9894C17.5003 7.9894 17.5003 7.99408 17.5003 7.99486L17.4987 7.99174Z" fill="#6F6F6F"/>
</g>
</svg>
