<svg width="20" height="20" viewBox="0 0 20 20" fill="none" xmlns="http://www.w3.org/2000/svg">
<g id="Television">
<path id="Vector" d="M16.875 4.99986H11.5086L14.1922 2.31705C14.3095 2.19977 14.3753 2.04071 14.3753 1.87486C14.3753 1.70901 14.3095 1.54995 14.1922 1.43267C14.0749 1.3154 13.9159 1.24951 13.75 1.24951C13.5841 1.24951 13.4251 1.3154 13.3078 1.43267L10 4.74127L6.69219 1.43267C6.63412 1.3746 6.56518 1.32854 6.48931 1.29711C6.41344 1.26569 6.33212 1.24951 6.25 1.24951C6.16788 1.24951 6.08656 1.26569 6.01069 1.29711C5.93482 1.32854 5.86588 1.3746 5.80781 1.43267C5.69054 1.54995 5.62465 1.70901 5.62465 1.87486C5.62465 2.04071 5.69054 2.19977 5.80781 2.31705L8.49141 4.99986H3.125C2.79348 4.99986 2.47554 5.13156 2.24112 5.36598C2.0067 5.6004 1.875 5.91834 1.875 6.24986V15.6249C1.875 15.9564 2.0067 16.2743 2.24112 16.5087C2.47554 16.7432 2.79348 16.8749 3.125 16.8749H16.875C17.2065 16.8749 17.5245 16.7432 17.7589 16.5087C17.9933 16.2743 18.125 15.9564 18.125 15.6249V6.24986C18.125 5.91834 17.9933 5.6004 17.7589 5.36598C17.5245 5.13156 17.2065 4.99986 16.875 4.99986ZM3.125 6.24986H11.25V15.6249H3.125V6.24986ZM16.875 15.6249H12.5V6.24986H16.875V15.6249ZM15.625 9.06236C15.625 9.24778 15.57 9.42904 15.467 9.58321C15.364 9.73738 15.2176 9.85754 15.0463 9.9285C14.875 9.99945 14.6865 10.018 14.5046 9.98185C14.3227 9.94567 14.1557 9.85638 14.0246 9.72527C13.8935 9.59416 13.8042 9.42711 13.768 9.24526C13.7318 9.0634 13.7504 8.8749 13.8214 8.70359C13.8923 8.53229 14.0125 8.38587 14.1667 8.28286C14.3208 8.17984 14.5021 8.12486 14.6875 8.12486C14.9361 8.12486 15.1746 8.22363 15.3504 8.39945C15.5262 8.57526 15.625 8.81372 15.625 9.06236ZM15.625 12.8124C15.625 12.9978 15.57 13.179 15.467 13.3332C15.364 13.4874 15.2176 13.6075 15.0463 13.6785C14.875 13.7495 14.6865 13.768 14.5046 13.7318C14.3227 13.6957 14.1557 13.6064 14.0246 13.4753C13.8935 13.3442 13.8042 13.1771 13.768 12.9953C13.7318 12.8134 13.7504 12.6249 13.8214 12.4536C13.8923 12.2823 14.0125 12.1359 14.1667 12.0329C14.3208 11.9298 14.5021 11.8749 14.6875 11.8749C14.9361 11.8749 15.1746 11.9736 15.3504 12.1494C15.5262 12.3253 15.625 12.5637 15.625 12.8124Z" fill="#6F6F6F"/>
</g>
</svg>
