<svg width="20" height="20" viewBox="0 0 20 20" fill="none" xmlns="http://www.w3.org/2000/svg">
<g id="Hoodie">
<path id="Vector" d="M18.5401 9.41641L14.2971 3.05625C14.1832 2.88557 14.0291 2.74554 13.8483 2.64853C13.6675 2.55152 13.4656 2.50051 13.2604 2.5H6.74006C6.53488 2.50051 6.33297 2.55152 6.15217 2.64853C5.97137 2.74554 5.81722 2.88557 5.70335 3.05625L1.46038 9.41641C1.36114 9.56506 1.29493 9.73327 1.26623 9.90968C1.23752 10.0861 1.24698 10.2666 1.29397 10.4391L2.96897 16.5789C3.0411 16.8434 3.19817 17.0768 3.41599 17.2432C3.63381 17.4097 3.90031 17.4999 4.17444 17.5H6.25022C6.58174 17.5 6.89968 17.3683 7.1341 17.1339C7.36852 16.8995 7.50022 16.5815 7.50022 16.25V15H12.5002V16.25C12.5002 16.5815 12.6319 16.8995 12.8663 17.1339C13.1008 17.3683 13.4187 17.5 13.7502 17.5H15.826C16.1001 17.4999 16.3666 17.4097 16.5844 17.2432C16.8023 17.0768 16.9593 16.8434 17.0315 16.5789L18.7065 10.4391C18.7535 10.2666 18.7629 10.0861 18.7342 9.90968C18.7055 9.73327 18.6393 9.56506 18.5401 9.41641ZM6.25022 13.75V5.39062L8.12522 6.49609V10.625C8.12522 10.7908 8.19107 10.9497 8.30828 11.0669C8.42549 11.1842 8.58446 11.25 8.75022 11.25C8.91598 11.25 9.07495 11.1842 9.19216 11.0669C9.30937 10.9497 9.37522 10.7908 9.37522 10.625V7.23203L9.68303 7.41328C9.77915 7.46989 9.88867 7.49975 10.0002 7.49975C10.1118 7.49975 10.2213 7.46989 10.3174 7.41328L10.6252 7.23203V10C10.6252 10.1658 10.6911 10.3247 10.8083 10.4419C10.9255 10.5592 11.0845 10.625 11.2502 10.625C11.416 10.625 11.575 10.5592 11.6922 10.4419C11.8094 10.3247 11.8752 10.1658 11.8752 10V6.49531L13.7502 5.39062V13.75H6.25022ZM13.2604 3.75L13.4885 4.09297L10.0002 6.14922L6.51194 4.09297L6.74006 3.75H13.2604ZM6.25022 16.25H4.17444L2.50022 10.1102L5.00022 6.36016V13.75C5.00022 14.0815 5.13192 14.3995 5.36634 14.6339C5.60076 14.8683 5.9187 15 6.25022 15V16.25ZM15.826 16.25H13.7502V15C14.0817 15 14.3997 14.8683 14.6341 14.6339C14.8685 14.3995 15.0002 14.0815 15.0002 13.75V6.36016L17.5002 10.1102L15.826 16.25Z" fill="#6F6F6F"/>
</g>
</svg>
