<svg width="20" height="20" viewBox="0 0 20 20" fill="none" xmlns="http://www.w3.org/2000/svg">
<g id="Frame">
<g id="Group">
<path id="Vector" fill-rule="evenodd" clip-rule="evenodd" d="M4.375 3.125C4.375 2.62772 4.57254 2.15081 4.92417 1.79917C5.27581 1.44754 5.75272 1.25 6.25 1.25H13.75C14.2473 1.25 14.7242 1.44754 15.0758 1.79917C15.4275 2.15081 15.625 2.62772 15.625 3.125V4.15625L17.9875 7.10938C18.0764 7.22017 18.1249 7.35795 18.125 7.5V18.125C18.125 18.2908 18.0592 18.4497 17.9419 18.5669C17.8247 18.6842 17.6658 18.75 17.5 18.75H2.5C2.33424 18.75 2.17527 18.6842 2.05806 18.5669C1.94085 18.4497 1.875 18.2908 1.875 18.125V7.5C1.87511 7.35795 1.92361 7.22017 2.0125 7.10938L4.375 4.15625V3.125ZM5.3 5L3.8 6.875H12.2188L13.8863 5H5.3ZM15.1062 5.50875L13.8919 6.875H16.1994L15.1062 5.50875ZM16.875 8.125H13.125V17.5H16.875V8.125ZM11.875 17.5V8.125H3.125V17.5H11.875ZM14.375 3.75V3.125C14.375 2.95924 14.3092 2.80027 14.1919 2.68306C14.0747 2.56585 13.9158 2.5 13.75 2.5H6.25C6.08424 2.5 5.92527 2.56585 5.80806 2.68306C5.69085 2.80027 5.625 2.95924 5.625 3.125V3.75H14.375ZM5 15.625C5 15.4592 5.06585 15.3003 5.18306 15.1831C5.30027 15.0658 5.45924 15 5.625 15H9.375C9.54076 15 9.69973 15.0658 9.81694 15.1831C9.93415 15.3003 10 15.4592 10 15.625C10 15.7908 9.93415 15.9497 9.81694 16.0669C9.69973 16.1842 9.54076 16.25 9.375 16.25H5.625C5.45924 16.25 5.30027 16.1842 5.18306 16.0669C5.06585 15.9497 5 15.7908 5 15.625Z" fill="#6F6F6F"/>
</g>
</g>
</svg>
