<svg width="37" height="36" viewBox="0 0 37 36" fill="none" xmlns="http://www.w3.org/2000/svg">
<path d="M10.3642 23.9049C9.23522 23.8648 8.47979 24.4228 8.03038 25.4108C7.47311 27.0768 8.11359 29.1181 10.1941 29.0719C11.646 29.0398 12.7628 28.2248 12.995 26.7591C13.2482 25.1632 11.9508 23.961 10.3642 23.9049ZM11.6525 26.8055C11.4282 27.4964 10.7816 27.9729 10.0283 27.7819C9.57062 27.666 9.27195 27.3583 9.14911 26.9757C8.9294 26.2941 9.26929 25.5864 9.82439 25.2822C10.0957 25.1341 10.4144 25.0841 10.728 25.1925C11.4372 25.4372 11.8994 26.0432 11.6525 26.8055Z" fill="#3392FF"/>
<path d="M11.0864 26.4908C11.0273 26.8672 10.8099 27.1463 10.4139 27.1892C9.80855 27.2549 9.61104 26.7136 9.7708 26.2236C9.88611 25.9857 10.0713 25.7822 10.3525 25.7634C10.7578 25.7358 11.1504 26.0831 11.0864 26.4908Z" fill="#E5E5E5"/>
<path d="M28.8797 23.9049C27.7513 23.8648 26.9957 24.4224 26.5461 25.4102C25.9888 27.0764 26.6285 29.1181 28.7095 29.0719C30.1613 29.0397 31.2783 28.2248 31.5108 26.7591C31.764 25.1632 30.4662 23.961 28.8797 23.9049ZM30.1679 26.8055C29.9436 27.4964 29.297 27.9729 28.5437 27.7819C28.0804 27.6643 27.7802 27.3508 27.6599 26.9614C27.4829 26.3886 27.6951 25.6361 28.339 25.2829C28.6107 25.134 28.9297 25.084 29.2436 25.1924C29.953 25.4372 30.4148 26.0432 30.1679 26.8055Z" fill="#3392FF"/>
<path d="M29.6031 26.4911C29.544 26.8675 29.3266 27.1467 28.9301 27.1896C28.3245 27.2555 28.1266 26.7137 28.2874 26.2232C28.4025 25.9854 28.588 25.7823 28.8691 25.7634C29.2742 25.7358 29.667 26.0832 29.6031 26.4911ZM32.3098 14.3795C32.9872 15.6293 33.4243 17.0138 33.7425 18.4024C33.8913 19.0528 33.8501 19.0217 33.1195 19.0292C32.3955 19.0363 31.6719 19.0284 30.9471 18.9985C29.3545 18.9333 27.5456 19.1162 27.3338 17.1217C27.194 15.8048 26.9481 14.3202 28.5221 13.9341C29.2628 13.7522 30.0323 13.6855 30.7994 13.6495C31.6199 13.611 31.979 13.7693 32.3098 14.3795Z" fill="#E5E5E5"/>
<path d="M2.88902 7.79548C3.15476 5.18561 5.63603 5.4798 7.70964 5.27128C10.9819 4.94124 14.2784 4.92777 17.5532 5.23106C19.2918 5.39185 23.2456 5.2732 23.2005 7.70094C23.1693 9.37615 23.0619 15.8922 23.042 17.568C23.0391 17.8049 23.0363 18.0435 23.033 18.2809C20.9312 18.4297 18.8312 18.5763 16.7229 18.5994C15.6348 18.6111 14.4211 18.6949 13.4089 18.252C12.7402 17.9595 12.181 17.4812 11.6048 17.0477C10.3366 16.094 8.84454 16.0505 7.31278 16.0996C5.96335 16.1427 4.92528 20.7934 3.60508 20.9956C2.85837 21.11 2.56359 16.3486 2.59055 15.7273C2.63566 14.6953 2.78427 8.82356 2.88902 7.79548ZM13.7352 24.947C12.5649 22.6741 8.69414 21.9718 7.24883 24.6431C7.12944 24.8638 6.99926 25.0142 6.69526 25.0118C5.26652 25.0008 3.57011 25.0567 3.25256 23.4005C3.04612 22.3245 2.9462 21.2283 2.84993 20.1384C2.76637 19.1866 2.70821 18.2327 2.66872 17.2774C2.63678 16.5011 2.75114 16.2298 3.50268 16.114C4.94512 15.8914 6.38698 15.8129 7.85924 15.7657C8.88634 15.733 9.8628 15.8154 10.7816 16.3091C11.405 16.6441 11.9599 17.2189 12.5743 17.59C13.8679 18.3717 15.3327 18.2759 16.7945 18.2809C18.5957 18.287 20.3969 18.1619 22.194 18.0302C22.9552 17.9747 23.0734 18.0381 23.083 18.7602C23.1111 20.7233 23.202 22.6844 23.4313 24.6229C23.4855 25.075 23.4458 25.1072 22.9864 25.1205C20.0788 25.2052 17.1708 25.2653 14.2617 25.2454C13.8425 25.2423 13.9445 25.3531 13.7352 24.947Z" fill="#E50019"/>
<g clip-path="url(#clip0_2584_15568)">
<path fill-rule="evenodd" clip-rule="evenodd" d="M13.3219 12.9364L12.4327 13.7913L12.3886 13.8331L11.8958 14.3075L11.4464 14.7395L11.4023 14.782L10.9858 15.1818L10.9423 15.2242C10.8175 15.3442 10.6795 15.443 10.5327 15.5205C10.4583 15.5599 10.3827 15.5932 10.3045 15.6223C10.1312 15.6865 9.94975 15.7241 9.76636 15.735C9.65419 15.7423 9.54013 15.7392 9.42858 15.7259C9.18722 15.698 8.94964 15.6241 8.73349 15.5036C8.64085 15.4521 8.54569 15.3987 8.46692 15.323C8.46692 15.323 8.4665 15.323 8.46566 15.323L6.76163 13.6847C6.73327 13.655 6.70806 13.6223 6.68664 13.5872C6.63244 13.4993 6.60156 13.3969 6.60156 13.2878C6.60156 13.2709 6.60156 13.2533 6.60408 13.237C6.6066 13.2115 6.61039 13.1873 6.61543 13.1636L6.62551 13.1243C6.6482 13.0509 6.68601 12.9825 6.73768 12.9201C6.75155 12.9043 6.76604 12.8886 6.78117 12.8734L6.81015 12.8462L8.53435 11.1879H8.53498L9.57983 10.1833C9.813 9.95912 10.1842 9.94943 10.4287 10.1542L13.3219 12.9358V12.9364Z" fill="white"/>
<path fill-rule="evenodd" clip-rule="evenodd" d="M8.44992 15.3087C8.45559 15.3141 8.46063 15.319 8.46631 15.3238C8.54508 15.3989 8.64087 15.4535 8.73414 15.5044C8.95029 15.6249 9.18724 15.6988 9.42923 15.7267C9.54077 15.74 9.65484 15.7425 9.76701 15.7352C9.94977 15.7243 10.1319 15.6867 10.3052 15.6225C10.3827 15.594 10.459 15.5601 10.5327 15.5207C10.6795 15.4426 10.8175 15.3444 10.9423 15.2244L10.9858 15.1826L11.4023 14.7821L11.6128 14.5792L12.1056 14.1054L12.388 13.8333L12.4321 13.7915L14.2231 12.0696L14.9616 11.3001L15.0058 11.2583C15.2314 11.0414 15.5969 11.0414 15.8225 11.2583L16.2271 11.6473L16.2403 11.66C16.0613 11.6521 15.8811 11.7139 15.7456 11.8412L14.3768 13.1353L14.363 13.1517L11.9815 15.405L11.9777 15.402L11.1005 16.2308L11.0419 16.2902C10.9726 16.355 10.8282 16.4774 10.6348 16.5653C10.5472 16.6052 10.4583 16.6337 10.3701 16.6513C10.3178 16.661 10.2642 16.6676 10.2119 16.6701H10.1722C10.033 16.6701 9.8962 16.6404 9.76512 16.5828L9.35235 16.1872L9.18409 16.0248L8.41211 15.2741L8.4474 15.3087H8.44992Z" fill="white"/>
<path fill-rule="evenodd" clip-rule="evenodd" d="M18.419 14.5386L16.4352 16.4744L14.3978 18.4629C14.3329 18.5253 14.2649 18.5817 14.193 18.6325C14.1905 18.635 14.188 18.6368 14.1848 18.6392C14.1747 18.6459 14.1653 18.6531 14.1552 18.6598C14.1539 18.661 14.1527 18.6616 14.152 18.6628C13.8445 18.8743 13.4677 18.9979 13.0618 18.9979C12.5602 18.9979 12.1046 18.8089 11.7674 18.5005L11.7208 18.4605L11.3704 18.1236L10.386 17.1766L10.0117 16.8167C10.0653 16.8252 10.1195 16.8288 10.1737 16.8288H10.2191C10.2821 16.8258 10.3445 16.8191 10.4062 16.807C10.507 16.787 10.6085 16.7537 10.7087 16.7089C10.9236 16.6107 11.0843 16.4756 11.1612 16.4035C11.1914 16.375 11.2135 16.3514 11.2229 16.3411L11.9798 15.6262L11.9829 15.6292L14.5862 13.1669L14.6001 13.1505L15.8649 11.9539C16.0351 11.7939 16.301 11.7727 16.4945 11.9006L16.7944 12.189L18.4203 13.7522C18.4348 13.7661 18.4487 13.7806 18.4613 13.7952C18.6453 14.0139 18.6314 14.3356 18.4203 14.538L18.419 14.5386Z" fill="white"/>
<path d="M13.0537 13.194L12.8868 13.3545L12.5938 13.0716C12.5478 13.0268 12.5485 12.9547 12.5938 12.9111C12.6404 12.8669 12.7148 12.8669 12.7608 12.9111L13.0531 13.194H13.0537Z" fill="#E50019"/>
<path d="M12.5592 13.6681L12.3922 13.828L11.4718 12.9364C11.1304 12.6057 10.6314 12.49 10.1696 12.6335C10.1079 12.6529 10.0411 12.6202 10.0209 12.5615C10.0008 12.5015 10.0348 12.4373 10.0965 12.4179C10.6428 12.2477 11.2343 12.3852 11.6388 12.7771L12.5586 13.6687L12.5592 13.6681Z" fill="#E50019"/>
<path d="M11.5732 14.617L11.4062 14.7776L10.482 13.8823C10.436 13.8381 10.4367 13.766 10.482 13.7218C10.5286 13.6776 10.6036 13.6782 10.649 13.7224L11.5725 14.617H11.5732Z" fill="#E50019"/>
<path d="M12.0659 14.1432L11.8989 14.3037L10.9773 13.4103C10.7524 13.1923 10.3844 13.1904 10.1576 13.4073C9.93085 13.6241 9.92959 13.9772 10.1545 14.1953L10.7486 14.7719C10.7946 14.8161 10.7946 14.8882 10.7486 14.9324C10.7026 14.9766 10.6276 14.976 10.5816 14.9324L9.98692 14.3564C9.67066 14.0493 9.67255 13.552 9.99133 13.2474C10.3107 12.9427 10.828 12.9451 11.1442 13.2522L12.0659 14.145V14.1432Z" fill="#E50019"/>
<path d="M10.5369 15.5174C10.5369 15.5174 10.5337 15.5193 10.5318 15.5205C10.4594 15.5586 10.3857 15.5919 10.3101 15.6198L9.49233 14.827C8.98077 14.3309 8.90769 13.5538 9.31782 12.979C9.35436 12.9275 9.42807 12.9142 9.48162 12.9499C9.5358 12.985 9.54903 13.0559 9.51186 13.108C9.16536 13.5931 9.2271 14.2485 9.65928 14.6677L10.5369 15.5181V15.5174Z" fill="#E50019"/>
<path d="M12.1358 12.4664C12.0898 12.51 12.0142 12.5088 11.9682 12.4646C11.2006 11.7212 9.94783 11.7163 9.17459 12.4537C8.40198 13.1917 8.39693 14.3961 9.1645 15.1396L9.76507 15.7218C9.76885 15.7255 9.77326 15.7303 9.77515 15.7345C9.772 15.7345 9.76948 15.7345 9.76633 15.7345C9.65731 15.7418 9.5464 15.7388 9.438 15.7267L8.99687 15.2983C8.13793 14.4664 8.14297 13.1171 9.00822 12.2913C9.87409 11.4655 11.2769 11.4709 12.1358 12.3028L12.1377 12.3046C12.1837 12.3489 12.1825 12.4204 12.1358 12.4646V12.4664Z" fill="#E50019"/>
</g>
<path d="M31.9247 24.4347C30.4663 22.5648 27.0261 22.1761 25.7249 24.7193C25.5868 24.9891 25.5575 25.0426 25.256 25.0509C25.1023 25.0557 24.9487 25.0603 24.7946 25.0651C24.5461 25.0719 24.5122 24.9875 24.4781 24.7211C24.1727 22.3395 24.0743 19.9164 24.0648 17.4893C24.0801 17.4111 24.0795 17.3306 24.0631 17.2526C24.0606 15.6792 24.0939 14.1047 24.1324 12.5385C24.1532 11.7086 24.1188 11.6429 24.8703 11.6092C25.8624 11.5643 26.8557 11.5464 27.8488 11.5605C29.3051 11.5803 30.2102 11.7808 31.0431 12.5999C29.7807 12.649 28.478 12.7501 27.3229 13.2403C26.0726 13.7712 26.1918 15.5108 26.2463 16.5848C26.3203 18.0375 26.473 19.3289 28.0151 19.767C29.6306 20.2262 31.5751 20.1716 33.3399 20.0946C34.0294 20.0643 34.0735 20.0497 34.1411 20.7056C34.1983 21.2673 34.2295 21.832 34.2478 22.3968C34.2942 23.8365 33.7317 24.4234 32.477 24.6441C32.105 24.7089 32.1466 24.7201 31.9247 24.4347Z" fill="#FF7A0D"/>
<path d="M22.2162 24.5913C21.3185 24.8555 20.2496 24.7952 19.3236 24.8231C18.2594 24.8553 17.1939 24.8605 16.1291 24.8553C15.3412 24.8516 14.706 24.6862 14.1718 24.0831C13.7724 23.6325 13.3656 23.2384 12.8494 22.9264C11.2256 21.9452 8.89179 22.2922 7.48074 23.4768C7.16186 23.7446 6.89 24.0494 6.53548 24.2763C6.07335 24.5718 5.51568 24.429 5.04759 24.2697C4.31089 24.0194 3.83717 23.559 3.47575 22.8858C3.25353 22.4713 3.10703 22.0262 2.98877 21.571C3.05556 22.1843 3.13665 22.7957 3.25259 23.4005C3.57009 25.0567 5.2665 25.0008 6.69529 25.0118C6.99934 25.0141 7.12952 24.8637 7.24886 24.6431C8.69417 21.9718 12.5649 22.674 13.7353 24.947C13.9446 25.353 13.8425 25.2423 14.2617 25.2454C17.1709 25.2652 20.0788 25.2052 22.9864 25.1205C23.4459 25.1072 23.4855 25.075 23.4314 24.6229C23.3906 24.2772 23.359 23.9299 23.3265 23.5827C23.0604 24.0506 22.7196 24.4433 22.2162 24.5913Z" fill="#CE0000"/>
<path d="M26.4959 13.5003C25.8425 14.1038 26.0066 15.3388 26.0771 16.1097C26.1419 16.819 26.1566 17.6761 26.4992 18.3443C26.326 17.8277 26.2785 17.2219 26.2459 16.5849C26.1915 15.5108 26.0723 13.7713 27.3225 13.2404C28.3721 12.795 29.5429 12.6714 30.6951 12.6155C29.3747 12.3259 27.4274 12.6402 26.4959 13.5003Z" fill="#EF6200"/>
<path d="M34.0011 23.7494C33.7742 23.8676 33.5168 23.9519 33.2193 23.9984C32.7766 24.0673 32.3719 24.1393 31.9556 23.9314C31.6565 23.782 31.3954 23.461 31.1168 23.2617C30.1748 22.5885 28.9199 22.3973 27.7996 22.5952C27.3527 22.6742 26.8648 22.8735 26.5128 23.1619C26.2773 23.3552 25.0548 24.9211 24.8414 24.0844C24.7446 23.7053 24.7607 23.226 24.7357 22.8347C24.6099 20.8809 24.5235 18.9237 24.4174 16.9685C24.3348 15.4525 24.2993 13.9094 24.1359 12.3923C24.1349 12.4406 24.1336 12.4836 24.1324 12.5384C24.0939 14.1047 24.0606 15.6792 24.0631 17.2526C24.0795 17.3294 24.0801 17.4103 24.0648 17.4892C24.0743 19.9164 24.1727 22.3395 24.4781 24.721C24.5121 24.9875 24.5461 25.0718 24.7946 25.0651C24.9487 25.0603 25.1023 25.0557 25.256 25.0508C25.5575 25.0426 25.5868 24.989 25.7249 24.7192C27.0261 22.176 30.4664 22.5647 31.9247 24.4347C32.1466 24.72 32.105 24.7089 32.477 24.644C33.2274 24.5121 33.728 24.2472 34.0011 23.7494Z" fill="#EF6200"/>
<path d="M33.3392 20.0946C31.5744 20.1716 29.63 20.2263 28.0144 19.767C27.6869 19.6742 27.4252 19.5405 27.2105 19.3775C27.3239 19.5264 27.4487 19.6669 27.6016 19.7888C28.1531 20.2284 29.0619 20.3029 29.7268 20.4084C30.5378 20.5374 31.3668 20.5596 32.1859 20.5278C32.7985 20.5038 33.4528 20.2939 33.9707 20.741C34.0455 20.8055 34.1063 20.8877 34.1621 20.9759C34.1545 20.8858 34.1494 20.7955 34.1404 20.7056C34.0728 20.0497 34.0287 20.0643 33.3392 20.0946ZM30.7172 12.3149C29.9682 11.733 29.1176 11.5776 27.8481 11.5605C26.8551 11.5464 25.8617 11.5643 24.8697 11.6092C24.7358 11.6153 24.634 11.624 24.5454 11.6361C25.6355 11.7278 26.7344 11.6708 27.8269 11.7255C28.8114 11.7746 29.7804 12.0005 30.7172 12.3149Z" fill="#FFB85A"/>
<path d="M30.6835 24.5684C31.8047 26.0208 31.4766 28.1279 29.5146 28.7422C27.4031 29.403 26.204 27.4986 26.4682 25.6821C26.0635 27.2903 26.7403 29.1155 28.7094 29.0719C30.1612 29.0397 31.2782 28.2248 31.5107 26.7591C31.6538 25.8583 31.3017 25.083 30.6835 24.5684Z" fill="#0069E2"/>
<path d="M30.1254 26.908C30.1907 26.7946 30.2319 26.661 30.2618 26.5385C30.3785 26.0592 30.1601 25.6179 29.8198 25.294C29.2333 24.7358 28.3362 24.923 27.813 25.4523C27.2462 26.0261 27.311 26.9922 27.942 27.4753C27.9973 27.5178 28.0591 27.5486 28.1197 27.5806C27.8975 27.4251 27.7373 27.2125 27.6599 26.9615C27.483 26.3887 27.6952 25.6362 28.3391 25.283C28.6108 25.1342 28.9298 25.0841 29.2437 25.1925C29.9531 25.4373 30.4148 26.0432 30.168 26.8056C30.1562 26.8414 30.1389 26.8735 30.1254 26.908ZM12.1681 24.5687C13.2893 26.0213 12.9608 28.128 10.9993 28.7423C8.88751 29.4035 7.68808 27.4988 7.95265 25.6822C7.5477 27.2904 8.2249 29.1157 10.194 29.072C11.6459 29.0398 12.7627 28.2249 12.9949 26.7592C13.138 25.8584 12.7864 25.0833 12.1681 24.5687Z" fill="#0069E2"/>
<path d="M11.6085 26.9073C11.6742 26.7939 11.7154 26.6603 11.7452 26.5379C11.8618 26.0588 11.6435 25.6176 11.3034 25.2938C10.7171 24.7358 9.82019 24.9229 9.2972 25.452C8.73049 26.0257 8.79534 26.9914 9.42616 27.4744C9.48081 27.5164 9.54187 27.5472 9.60228 27.5787C9.38496 27.4261 9.22712 27.2193 9.14877 26.9751C8.92913 26.2936 9.26891 25.5862 9.82384 25.2821C10.0951 25.134 10.4137 25.084 10.7272 25.1924C11.4362 25.4371 11.8982 26.0429 11.6514 26.805C11.6397 26.8407 11.6224 26.8728 11.6085 26.9073Z" fill="#0069E2"/>
<path d="M29.6027 26.4911C29.6335 26.2955 29.5572 26.1148 29.4269 25.9818C29.4851 26.0669 29.5303 26.1603 29.5416 26.2941C29.5657 26.5725 29.3593 26.8111 29.1282 26.932C28.8007 27.1032 28.4491 26.8978 28.3403 26.5702C28.2893 26.417 28.3149 26.2415 28.3734 26.0763C28.3411 26.1231 28.3122 26.1722 28.287 26.2232C28.1262 26.7136 28.3241 27.2555 28.9297 27.1896C29.3262 27.1467 29.5436 26.8675 29.6027 26.4911ZM30.9467 18.9985C31.6715 19.0284 32.3951 19.0363 33.1191 19.0292C33.8496 19.0217 33.8909 19.0528 33.742 18.4024C33.7161 18.2892 33.6881 18.1765 33.6606 18.0635C33.5455 18.2258 33.4022 18.3614 33.1952 18.4276C32.8781 18.5293 32.5294 18.5439 32.1989 18.5593C31.3461 18.5986 30.4788 18.5235 29.6387 18.3774C28.5562 18.1889 27.9306 17.747 27.7869 16.5649C27.6995 15.8445 27.6899 14.808 28.0752 14.0988C27.0036 14.6422 27.2089 15.9475 27.3335 17.1218C27.5452 19.1162 29.3541 18.9333 30.9467 18.9985ZM11.0868 26.4911C11.1043 26.381 11.0862 26.2762 11.0456 26.1811C11.0589 26.2668 11.0608 26.3565 11.0323 26.4611C10.9732 26.6799 10.7719 26.8297 10.5663 26.8957C10.2942 26.9829 10.0271 26.857 9.87808 26.6243C9.75159 26.4268 9.79547 26.2502 9.86073 26.0711C9.8269 26.1197 9.79685 26.1707 9.77082 26.2238C9.61101 26.7139 9.80858 27.2554 10.4142 27.1897C10.8102 27.1467 11.0276 26.8675 11.0868 26.4911Z" fill="#C6C6C6"/>
<path d="M30.7804 14.2428C30.0364 14.2201 29.1508 14.3604 28.8044 14.8849C28.4792 15.3767 28.4859 16.7949 29.1526 17.0284C29.4803 17.1438 30.4822 17.3381 31.287 17.4126C32.6732 17.5409 32.8496 16.6791 31.97 15.0878C31.624 14.4612 31.4763 14.264 30.7804 14.2428ZM10.3976 25.9477C10.1583 25.9509 10.0148 26.1731 10.1167 26.3528C10.2255 26.545 10.5427 26.5556 10.6961 26.4013C10.8929 26.203 10.6551 25.9444 10.3976 25.9477ZM28.8964 25.9817C28.6569 25.985 28.5136 26.2072 28.6153 26.3871C28.7241 26.5791 29.0413 26.5898 29.1947 26.4354C29.3917 26.2373 29.1537 25.9785 28.8964 25.9817Z" fill="#F4F4F4"/>
<defs>
<clipPath id="clip0_2584_15568">
<rect width="11.9868" height="8.9901" fill="white" transform="translate(6.60156 10.0078)"/>
</clipPath>
</defs>
</svg>
