<svg width="37" height="36" viewBox="0 0 37 36" fill="none" xmlns="http://www.w3.org/2000/svg">
<path d="M15.2704 21.0647C15.206 21.4142 14.9644 21.6012 14.6108 21.609C14.1175 21.6199 14.0199 21.1473 14.1393 20.7681C14.2328 20.5724 14.3664 20.4209 14.6021 20.4157C14.9427 20.4082 15.3365 20.7054 15.2704 21.0647Z" fill="#1A85FF"/>
<path d="M23.4349 26.857C23.3694 27.213 23.1223 27.4034 22.7623 27.4114C22.2594 27.4225 22.1587 26.9411 22.281 26.5541C22.3762 26.3545 22.5129 26.1997 22.7537 26.1942C23.102 26.1865 23.5021 26.4905 23.4349 26.857Z" fill="#1A85FF"/>
<path d="M33.0545 22.0109C32.7452 21.5117 32.2948 21.1376 31.7751 20.8728C31.3166 20.6396 30.7759 20.606 30.3308 20.3607C29.6358 19.9782 29.6428 19.1656 29.5465 18.4754C29.4786 17.9877 29.405 17.499 29.3728 17.0071C29.3513 16.6753 29.3542 16.3285 29.0218 16.1488C28.7082 15.9794 28.2291 15.963 27.8831 15.916C27.3726 15.8461 26.8586 15.8003 26.3451 15.7612C25.069 15.6629 23.7884 15.6192 22.5088 15.5954C19.6321 15.5425 16.7517 15.5954 13.8781 15.7294C12.6427 15.7868 11.4077 15.8598 10.1754 15.9679C9.68814 16.0108 9.08145 15.9866 8.62675 16.1825C8.26699 16.3371 8.21391 16.5635 8.19627 16.921C8.17574 17.3427 8.13515 17.7627 8.09472 18.1825C8.01922 18.9685 8.03424 19.729 7.34653 20.251C6.91273 20.5799 6.32678 20.6074 5.84195 20.8461C4.54513 21.485 3.943 22.7806 3.9356 24.1948C3.92883 25.5103 4.55007 26.8717 5.84195 27.2372C7.36417 27.6679 7.35372 28.1886 7.42471 28.7448C7.45343 28.9692 7.44975 29.1983 7.45632 29.4395C7.4676 29.862 7.49407 30.2841 7.53344 30.7051C7.56731 31.0634 7.65074 31.335 7.87719 31.6229C7.92251 31.6805 7.97648 31.7265 8.02321 31.7822C8.03224 31.7929 8.08821 31.8307 8.11488 31.8518C8.17085 31.8554 8.33026 31.8809 8.38234 31.887C8.93139 31.9525 9.48227 32.0027 10.0334 32.046C11.3585 32.1491 12.6869 32.2096 14.0151 32.2511C17.0663 32.3463 20.1221 32.3427 23.1733 32.2494C24.5245 32.2078 25.8761 32.1487 27.2248 32.0507C27.7644 32.0117 28.3041 31.9662 28.8426 31.9088C29.3154 31.8587 29.8853 31.6241 30.0117 31.0941C30.0812 30.622 30.1174 30.1472 30.127 29.6703C30.1349 29.2864 30.0743 28.8846 30.2059 28.5177C30.544 27.5778 30.868 27.6633 31.6588 27.325C32.1763 27.1035 32.6456 26.7385 32.9809 26.2864C33.8694 25.0884 33.8275 23.2569 33.0545 22.0109ZM13.9467 23.6572C12.2113 23.2169 11.5964 21.5464 12.1604 19.93C12.1666 19.9123 12.1785 19.9013 12.1867 19.8857C12.1902 19.874 12.1887 19.8625 12.1941 19.8504C12.7107 18.6371 13.9787 17.8638 15.2933 18.3397C16.7083 18.8516 17.8583 19.9858 17.3708 21.5907C16.9253 23.0565 15.5259 24.058 13.9467 23.6572ZM17.4739 28.2268C17.3658 28.3707 16.3362 29.8688 15.4578 29.668C15.0712 29.5798 14.9898 29.1134 15.0253 28.786C15.0737 28.3395 15.2574 27.9163 15.4402 27.5108C16.7456 24.7772 18.3609 22.1891 20.1388 19.74C20.5383 19.1969 21.2816 18.2908 22.0583 18.6528C22.8255 19.0107 22.5134 20.0903 22.2255 20.6699C20.8528 23.3157 19.2635 25.8432 17.4739 28.2268ZM25.5231 27.3812C25.0777 28.847 23.6787 29.8489 22.0994 29.4481C20.3641 29.008 19.7484 27.3377 20.3127 25.7211C20.3188 25.7031 20.3305 25.6924 20.3389 25.6768C20.3426 25.6649 20.341 25.6538 20.3461 25.6417C20.8632 24.4284 22.1306 23.6545 23.4457 24.1304C24.8611 24.6423 26.0105 25.7767 25.5231 27.3812Z" fill="#3392FF"/>
<path d="M4.89349 17.999C5.07888 17.6723 5.3129 17.3889 5.58325 17.1288C5.85706 16.8659 6.18747 16.6702 6.38127 16.3349C6.90716 15.4251 6.34331 14.3998 6.02686 13.5121C5.90788 13.1782 5.58734 12.689 5.72312 12.3264C5.85664 11.9696 6.25147 11.793 6.55847 11.6143C9.31498 10.0102 12.2007 8.6113 15.093 7.27222C17.8522 5.99467 20.6792 4.66955 23.6175 3.85404C23.8404 3.79209 24.0709 3.7201 24.3 3.68524C24.7964 3.60916 24.9785 3.9769 25.1829 4.36245C25.4348 4.83809 25.7316 5.28806 26.0156 5.74438C26.2648 6.14494 26.4798 6.59265 26.91 6.82913C27.5292 7.16978 28.3515 6.81742 29.0254 6.8558C29.7984 6.89948 30.5118 7.2268 31.0608 7.77117C31.9298 8.63404 32.5119 9.9528 32.2721 11.1867C32.1804 11.6594 31.9883 12.1066 31.7052 12.4962C31.4495 12.8492 31.0165 13.0842 30.8219 13.4708C30.3079 14.4912 31.03 15.4119 31.3478 16.3645C31.5186 16.8773 31.5879 17.1552 31.3137 17.6591C31.2159 17.839 31.0578 17.9653 30.8791 18.0689C30.6732 18.1883 30.6058 18.1255 30.5756 17.9003C30.5485 17.6991 30.5242 17.4975 30.5043 17.2949C30.4635 16.8699 30.4885 16.4386 30.3205 16.0382C30.1578 15.6492 29.8619 15.3274 29.4816 15.1428C29.0663 14.9413 28.5564 14.8999 28.104 14.8375C27.1983 14.7126 26.286 14.639 25.3729 14.5888C25.157 13.9114 24.7028 13.3787 23.9627 13.1441C23.0022 12.8399 21.7082 12.9476 21.0167 13.7567C20.8366 13.9675 20.7051 14.2112 20.612 14.4694C20.3563 14.469 20.1005 14.4649 19.8452 14.4661C19.9627 13.5864 20.0642 12.7045 20.1333 11.8191C20.1902 11.0951 20.3401 10.2603 20.0476 9.56406C19.7773 8.92171 19.0549 8.78693 18.6002 9.33314C18.1252 9.90413 18.0423 10.7059 17.9061 11.406C17.7068 12.4317 17.5497 13.465 17.4172 14.5016C17.0849 14.5092 16.7531 14.5204 16.421 14.5303C16.502 14.3035 16.5508 14.0647 16.5508 13.8083C16.5504 13.5013 16.5196 13.1863 16.4407 12.8893C16.2569 12.1995 15.7901 11.67 15.1215 11.4163C14.3489 11.1236 13.34 11.1353 12.6054 11.533C12.0512 11.8326 11.6808 12.3862 11.5464 12.9941C11.416 13.5839 11.4763 14.1962 11.6978 14.7479C11.5243 14.7596 11.3506 14.7676 11.1773 14.7801C10.5958 14.8223 10.0144 14.8707 9.43458 14.9302C8.72823 15.003 8.01144 15.0832 7.50849 15.646C6.9459 16.2756 7.07533 17.2553 7.00088 18.0413C6.96927 18.3766 7.01196 18.8779 6.85444 19.1775C6.709 19.4543 6.43256 19.4593 6.16673 19.5399C5.69807 19.6825 5.26165 19.8872 4.86745 20.1464C4.68757 20.2652 4.59794 20.3378 4.56187 20.1037C4.45171 19.3847 4.51755 18.6617 4.89349 17.999Z" fill="#004A9C"/>
<path d="M13.9063 14.2818C13.5962 14.2042 13.4563 13.9147 13.5096 13.609C13.5603 13.3162 13.8042 13.2247 14.1133 13.26C14.3633 13.2885 14.5959 13.4718 14.5245 13.8162C14.4544 14.1548 14.1227 14.3361 13.9063 14.2818Z" fill="#003D80"/>
<path d="M33.5941 23.5276C33.5109 24.6427 33.0225 25.7199 32.1295 26.2439C31.4304 26.6539 30.5972 26.6789 30.1263 27.4327C29.694 28.1249 29.6196 28.8466 29.5832 29.6432C29.5559 30.2472 29.4852 30.8201 28.9343 31.1692C28.0866 31.7061 26.7909 31.6433 25.8343 31.6997C23.1688 31.857 20.4956 31.903 17.8258 31.8802C15.8952 31.8636 13.9657 31.7974 12.0361 31.7297C11.4737 31.7098 10.9113 31.6897 10.349 31.6836C8.98179 31.6684 8.12287 31.3251 8.03628 29.8395C7.98499 28.9599 8.14292 28.1233 7.63919 27.3466C7.50877 27.1456 7.21485 26.9752 7.0001 26.9011C6.25374 26.6448 5.54881 26.5789 5.05396 25.8843C4.55474 25.1845 4.34167 24.1528 4.36525 23.3038C4.37449 22.9637 4.41182 22.5133 4.5078 22.0693C4.12982 22.6846 3.93991 23.4199 3.9356 24.1951C3.92883 25.5106 4.55007 26.872 5.84195 27.2375C7.36417 27.6682 7.35372 28.1889 7.42471 28.7452C7.45343 28.9695 7.44975 29.1987 7.45632 29.4398C7.4676 29.8623 7.49407 30.2844 7.53344 30.7054C7.56731 31.0637 7.65074 31.3353 7.8772 31.6232C7.92251 31.6809 7.97648 31.7268 8.02321 31.7826C8.03224 31.7932 8.08821 31.831 8.11488 31.8521C8.17085 31.8558 8.33026 31.8812 8.38234 31.8874C8.93139 31.9528 9.48227 32.003 10.0334 32.0463C11.3585 32.1495 12.6869 32.21 14.0151 32.2514C17.0663 32.3466 20.1221 32.3431 23.1733 32.2498C24.5245 32.2081 25.8761 32.1491 27.2248 32.051C27.7644 32.0121 28.3041 31.9666 28.8427 31.9091C29.3154 31.8591 29.8853 31.6244 30.0117 31.0944C30.0812 30.6223 30.1174 30.1475 30.127 29.6707C30.135 29.2867 30.0743 28.8849 30.2059 28.518C30.544 27.5781 30.868 27.6636 31.6589 27.3254C32.1763 27.1039 32.6456 26.7388 32.9809 26.2868C33.5496 25.5197 33.7355 24.494 33.5941 23.5276Z" fill="#0069E2"/>
<path d="M26.3454 15.7612C25.0693 15.6629 23.7887 15.6192 22.5091 15.5954C19.6324 15.5425 16.752 15.5954 13.8784 15.7294C12.6431 15.7868 11.408 15.8598 10.1758 15.9679C9.68848 16.0108 9.08178 15.9866 8.62709 16.1825C8.26733 16.3371 8.21425 16.5635 8.19661 16.921C8.17608 17.3427 8.13549 17.7627 8.09506 18.1825C8.03048 18.8575 8.02901 19.5126 7.59521 20.015C7.85097 19.8266 8.06225 19.572 8.22406 19.2431C8.39964 18.8872 8.41235 18.4376 8.44637 18.0517C8.53946 17.0005 9.11292 16.6328 10.0794 16.406C11.3875 16.0987 12.8626 16.1486 14.2014 16.0778C15.5255 16.0083 16.8511 15.9624 18.1764 15.9267C20.4444 15.8662 22.7138 15.8501 24.9824 15.8754C25.8955 15.8854 26.8293 15.8762 27.762 15.9018C27.2913 15.8408 26.8183 15.7973 26.3454 15.7612Z" fill="#0069E2"/>
<path d="M20.8931 13.9355C20.3777 13.3263 20.4456 12.4797 20.3528 11.5391C20.3202 11.2078 20.3087 10.837 20.2199 10.5027C20.2277 10.9468 20.1666 11.4013 20.1336 11.8193C20.0645 12.7046 19.9629 13.5866 19.8454 14.4662C20.1008 14.465 20.3565 14.4691 20.6123 14.4695C20.6808 14.2794 20.7788 14.1026 20.8931 13.9355ZM17.6023 13.1955C17.3182 13.5101 16.9232 13.8108 16.5505 13.8161C16.5495 14.0694 16.5017 14.306 16.4213 14.5304C16.7534 14.5205 17.0852 14.5093 17.4175 14.5017C17.4733 14.0655 17.5364 13.6301 17.6023 13.1955ZM29.8546 14.866C29.0727 14.2452 27.8912 14.3383 26.9623 14.2913C26.186 14.2518 25.5457 14.0383 24.8826 13.722C25.1058 13.9657 25.2684 14.2593 25.3732 14.5889C26.2864 14.6392 27.1986 14.7128 28.1043 14.8377C28.5568 14.9001 29.0666 14.9415 29.482 15.1429C29.8622 15.3275 30.1582 15.6493 30.3208 16.0384C30.4888 16.4387 30.4638 16.8701 30.5046 17.295C30.5245 17.4977 30.5489 17.6993 30.576 17.9005C30.6061 18.1257 30.6736 18.1884 30.8795 18.0691L30.8947 18.0592C31.1655 16.9369 30.732 15.5631 29.8546 14.866ZM6.85473 19.1778C7.01224 18.8781 6.96961 18.3769 7.00117 18.0415C7.07562 17.2556 6.94619 16.2758 7.50878 15.6462C8.01167 15.0834 8.72847 15.0032 9.43487 14.9304C10.0147 14.8709 10.5961 14.8225 11.1776 14.7803C11.3509 14.7678 11.5246 14.7597 11.6981 14.7481C11.6025 14.5104 11.5437 14.2604 11.5104 14.0067C10.5124 14.9772 8.6998 14.2099 7.46877 15.2192C6.68656 15.8608 6.80385 17.2386 6.57929 18.1222C6.37604 18.921 5.92623 19.1388 5.36448 19.6097C5.18192 19.7627 5.05255 19.901 4.97705 20.0804C5.34852 19.8494 5.74856 19.6678 6.16702 19.5402C6.43285 19.4596 6.70929 19.4544 6.85473 19.1778Z" fill="#003D80"/>
<path d="M29.0252 6.85594C28.3513 6.81761 27.5291 7.16991 26.9099 6.82926C26.4796 6.59278 26.2646 6.14507 26.0155 5.74451C25.7314 5.28819 25.4346 4.83817 25.1828 4.36258C24.9783 3.97699 24.7962 3.60924 24.2999 3.68537C24.0708 3.72024 23.8402 3.79222 23.6173 3.85418C20.6791 4.66963 17.852 5.9948 15.0928 7.27235C12.2795 8.57516 9.47417 9.93761 6.78613 11.4875C7.95662 10.9136 9.13777 10.3617 10.3183 9.80897C12.7145 8.68752 15.1199 7.58549 17.5367 6.50998C18.9257 5.892 20.3279 5.31387 21.7847 4.87393C22.5329 4.6481 23.8367 4.10972 24.5896 4.49348C25.0468 4.72649 25.1346 5.4121 25.3233 5.8291C25.4953 6.20871 25.6912 6.55393 25.9484 6.88061C26.2842 7.30743 26.8084 7.56071 27.3511 7.48216C28.3302 7.34024 29.3204 7.30249 30.2452 7.70841C31.2817 8.16352 31.7709 9.22879 32.1083 10.2364C32.2076 10.533 32.2604 10.8396 32.2765 11.1476C32.4965 9.92485 31.9206 8.62535 31.0607 7.77131C30.5116 7.22694 29.7982 6.89962 29.0252 6.85594Z" fill="#003D80"/>
</svg>
