<svg width="161" height="160" viewBox="0 0 161 160" fill="none" xmlns="http://www.w3.org/2000/svg">
<rect width="160" height="160" transform="translate(0.5)" fill="white"/>
<ellipse cx="75.054" cy="137.114" rx="38.203" ry="5.8214" fill="#F7F7F7"/>
<path d="M36.4883 107.304L77.1214 100.627L84.2052 50.6447L43.5854 57.2278L36.4883 107.304Z" fill="#B5B5B5"/>
<path opacity="0.4" d="M114.316 118.332L77.1379 100.627L84.2217 50.645L121.413 68.2559L114.316 118.332Z" fill="#6F6F6F"/>
<path d="M84.2116 50.644L67.86 34.3604L26.4175 42.0704L43.5918 57.227L84.2116 50.644Z" fill="#F4F4F4"/>
<path d="M84.2207 50.6452L104.453 39.5466L142.121 58.4686L121.412 68.2561L84.2207 50.6452Z" fill="#F4F4F4"/>
<path d="M70.9009 83.0016C70.3104 83.5433 69.6855 84.1959 69.0845 84.977C67.3086 87.2916 66.5529 89.6582 66.2028 91.2716C67.511 91.7952 68.8244 92.3149 70.1326 92.8384L71.8152 90.3577L72.6205 88.5309C72.6205 88.5309 73.1673 87.441 73.5281 87.103C73.8889 86.765 74.4485 86.1448 74.4485 86.1448L75.6968 85.0803L75.8912 83.7089L70.9009 83.0016Z" fill="#EAEAEA"/>
<path d="M64.7915 90.7598C64.0196 90.9006 63.086 91.1944 62.8299 91.8808C62.605 92.4789 63.0534 92.9733 62.7912 93.2743C62.4123 93.707 61.3557 92.8253 59.7192 92.8389C58.186 92.8486 57.0371 93.64 56.5866 93.9514C55.971 94.3737 55.1635 94.931 54.7246 96.0176C54.2558 97.1834 54.5079 98.2382 54.597 98.5659C54.9357 99.7673 55.7435 100.461 56.1614 100.807C56.7129 101.265 57.4442 101.707 61.1001 102.438C62.6759 102.754 64.1816 103.005 66.0172 103.135C68.6433 103.322 69.4 103.091 69.8539 102.59C70.075 102.348 70.1973 101.782 70.4412 100.654C70.7822 99.0716 70.9351 97.8611 71.005 97.2364C71.1203 96.1919 71.18 95.6722 71.1628 95.0027C71.1553 94.594 71.124 94.3534 71.1583 93.9135C71.2372 92.9287 71.4941 92.5992 71.4627 92.3261C71.3988 91.7889 70.1681 91.1466 64.7915 90.7598Z" fill="#D6D6D6"/>
<path d="M89.271 86.3372C88.6693 87.7157 90.4753 88.6156 91.0036 91.2475C91.6681 94.5334 89.6013 96.8253 90.7102 97.733C91.2172 98.143 92.0748 98.0236 93.5186 97.8206C94.5958 97.6675 95.1337 97.5955 95.556 97.2524C95.9717 96.9222 96.4573 96.2313 96.0267 91.7232C95.6724 87.9949 95.2209 87.2267 94.851 86.7389C94.4693 86.2354 93.4818 84.9327 91.8955 84.921C90.9298 84.9139 89.6814 85.3855 89.2664 86.3365L89.271 86.3372Z" fill="#EAEAEA"/>
<path d="M88.8599 97.6225C88.3557 98.1486 88.1131 99.0036 87.637 100.715C87.0183 102.939 86.7187 104.064 87.1986 104.929C87.6417 105.723 88.4376 106.072 89.1104 106.367C90.3552 106.909 91.1977 106.797 92.7959 106.889C94.8387 107.007 94.5424 107.253 98.3264 107.673C100.607 107.927 101.37 107.91 102.12 107.432C103.018 106.86 103.401 105.937 103.565 105.539C104.149 104.121 103.847 102.827 103.712 102.294C103.584 101.785 103.416 101.122 102.874 100.466C101.837 99.2161 100.264 99.0072 100.182 98.9955C99.1114 98.8716 98.3617 99.2517 98.0862 98.856C97.9353 98.6354 98.1088 98.433 98.0599 97.9211C97.9955 97.2218 97.5845 96.7281 97.3963 96.5069C96.4982 95.4299 95.091 95.3741 94.817 95.3631C94.3619 95.3449 94.0071 95.4104 92.3739 96.0267C90.3069 96.8038 89.265 97.2028 88.8547 97.6264L88.8599 97.6225Z" fill="#D6D6D6"/>
<path d="M103.422 38.7668C91.3481 35.8745 77.4794 34.2471 77.4794 34.2471C77.4794 34.2471 64.5148 32.8312 61.4419 40.1456C58.3691 47.4601 53.5359 67.7551 56.827 77.4863C59.7093 86.0154 77.9142 87.6597 86.0762 88.066C87.231 88.1232 88.1837 88.1563 88.8624 88.1784C94.3556 88.3686 101.586 88.2954 107.586 80.1312C113.586 71.967 115.5 41.6553 103.426 38.7675L103.422 38.7668Z" fill="#D6D6D6"/>
<path d="M103.428 38.7654C91.3547 35.873 77.486 34.2456 77.486 34.2456C77.486 34.2456 78.3712 37.9843 93.1777 40.6062C107.98 43.2275 106.473 57.0547 106.151 60.942C105.829 64.8292 103.846 87.1866 86.0827 88.0646C87.2375 88.1217 88.1902 88.1548 88.8689 88.1769C94.3621 88.3671 101.593 88.294 107.593 80.1298C113.593 71.9655 115.507 41.6539 103.433 38.766L103.428 38.7654Z" fill="#DBDBDB"/>
<path d="M106.147 60.9468C106.474 57.0602 107.981 43.2331 93.174 40.6111C78.372 37.9898 77.4822 34.2505 77.4822 34.2505C77.4822 34.2505 64.5176 32.8346 61.4447 40.1491C58.3719 47.4635 53.5387 67.7586 56.8298 77.4897C59.7121 86.0188 77.917 87.6632 86.079 88.0695C103.843 87.1915 105.821 64.8334 106.147 60.9468Z" fill="#D6D6D6"/>
<path d="M65.1534 48.2917C66.4923 45.0071 69.6181 42.3604 73.0094 41.9933C74.6265 41.8194 75.9128 42.2009 78.3153 42.912C81.5735 43.8787 81.8145 44.6494 84.0977 45.2463C85.1785 45.5292 85.7853 45.5318 92.2786 45.0577C97.7764 44.6557 98.8478 44.5435 100.413 45.2007C100.831 45.3758 102.991 46.3211 104.369 48.4574C107.172 52.8015 105.301 59.837 101.141 62.8282C99.1028 64.295 96.0127 64.2508 89.9207 64.1008C84.1262 63.9605 79.789 63.8183 74.4325 61.9057C70.1517 60.3772 66.4847 59.0653 64.9755 55.5115C63.5603 52.1841 64.8985 48.9041 65.1489 48.291L65.1534 48.2917Z" fill="#FAFAFA"/>
<path d="M75.2393 48.0311C75.2393 48.0311 73.4315 47.4738 72.6381 48.5241C71.8448 49.5744 70.8647 52.7662 73.4302 53.3151C75.9958 53.8639 77.2217 52.1338 77.2239 51.064C77.2261 49.9943 76.781 48.3237 75.2393 48.0311Z" fill="#C1C1C1"/>
<path d="M75.059 49.0527C75.059 49.0527 74.1078 48.8438 73.9887 49.948C73.8696 51.0521 74.246 51.8559 74.9797 51.8858C75.7134 51.9157 76.3652 51.0399 76.2669 50.6461C76.1686 50.2523 75.9112 49.1689 75.0596 49.0482L75.059 49.0527Z" fill="white"/>
<path d="M89.2206 52.7681C89.2206 52.7681 89.6196 50.2166 92.0701 50.2257C94.5207 50.2349 94.7724 51.6556 94.861 52.3816C94.9495 53.1075 94.5034 56.4861 90.5942 55.3345C89.0163 54.6708 89.2206 52.7681 89.2206 52.7681Z" fill="#C1C1C1"/>
<path d="M91.2671 51.3509C91.2671 51.3509 90.5409 51.4008 90.3742 52.3129C90.2076 53.225 90.3437 53.5825 90.9183 53.8122C91.4929 54.0418 92.2847 53.7603 92.3613 53.2199C92.4379 52.6795 92.8346 51.1654 91.2671 51.3509Z" fill="white"/>
<path opacity="0.4" d="M69.2679 58.3202C71.0327 58.5703 72.6646 57.354 72.9127 55.6034C73.1608 53.8528 71.9312 52.2309 70.1663 51.9807C68.4014 51.7306 66.7696 52.947 66.5215 54.6976C66.2734 56.4482 67.503 58.0701 69.2679 58.3202Z" fill="#ECECEC"/>
<path d="M67.4957 71.9969L66.3328 67.7139C66.3051 67.6127 66.2728 67.5109 66.2445 67.4142C66.1997 67.2689 66.1602 67.1521 66.1253 67.0684C66.0734 66.9406 65.9855 66.8031 65.8629 66.6467L65.8654 66.6286L68.2668 66.8531L68.261 66.894L68.2383 66.9556C68.2491 67.1424 68.2817 67.374 68.3359 67.6504L69.4501 72.0469L71.055 68.4341L71.1357 68.2603L71.2215 68.0501C71.2371 68.006 71.2462 67.9748 71.2488 67.9567C71.2513 67.9385 71.2558 67.9067 71.2616 67.8659C71.2884 67.5778 71.1512 67.3268 70.8493 67.1172L70.8519 67.099L72.7419 67.2742L72.738 67.3015L69.6645 74.0275L68.8693 73.674C68.7338 73.6084 68.6114 73.5494 68.4988 73.4871C68.3908 73.4255 68.2919 73.3651 68.2081 73.2977C68.0568 73.179 67.9204 73.0207 67.8082 72.8241C67.6914 72.6269 67.59 72.3531 67.4938 72.0106L67.4957 71.9969Z" fill="white"/>
<path d="M72.374 72.9258L72.6306 70.1272C72.6478 69.9397 72.6318 69.7892 72.5779 69.675C72.5332 69.5621 72.4518 69.4441 72.3299 69.3156L72.3357 69.2747L73.5756 69.3902C73.783 69.4104 73.9503 69.4156 74.072 69.4143C74.1988 69.4091 74.3471 69.3838 74.5177 69.3338L74.536 69.3364L74.4837 69.9034C74.6468 69.7412 74.8459 69.6212 75.0759 69.5473C75.3059 69.4733 75.566 69.45 75.861 69.4779C76.2206 69.5103 76.5295 69.6051 76.7966 69.7634C77.0637 69.9216 77.259 70.1254 77.391 70.3803C77.523 70.6353 77.5733 70.9064 77.5465 71.1945L77.3326 73.4943L77.3122 73.7045C77.3038 73.7635 77.3072 73.8381 77.3127 73.9315C77.3181 74.0249 77.3432 74.1119 77.3911 74.202C77.4345 74.2916 77.5138 74.3908 77.6245 74.4992L77.6187 74.54L75.0284 74.298L75.0342 74.2571C75.2177 74.1488 75.3325 74.0307 75.3878 73.9042C75.4431 73.7777 75.4825 73.5656 75.5112 73.2639L75.6912 71.3021C75.7045 71.1419 75.6872 71.0005 75.6353 70.8727C75.5833 70.7449 75.5079 70.6508 75.411 70.5768C75.3134 70.5074 75.2074 70.4646 75.0923 70.4529C74.9033 70.4354 74.7419 70.4866 74.6042 70.6015C74.4665 70.7163 74.3898 70.8953 74.3661 71.1282L74.1734 73.2133C74.1536 73.4514 74.1553 73.6369 74.1877 73.7712C74.2142 73.9139 74.3067 74.0521 74.4547 74.1935L74.449 74.2344L71.8861 73.9963L71.8919 73.9554C72.0681 73.8321 72.1842 73.705 72.2389 73.583C72.2935 73.4611 72.3348 73.2353 72.3616 72.9148L72.374 72.9258Z" fill="white"/>
<path d="M77.9698 74.337L77.7598 72.8202C78.0134 73.0739 78.346 73.297 78.7577 73.4897C78.9724 73.5896 79.1759 73.6694 79.3591 73.7278C79.5469 73.7869 79.7327 73.8271 79.9171 73.844C80.59 73.9069 80.9819 73.7123 81.092 73.2647C81.1175 72.9857 81.0242 72.7548 80.8119 72.5718C80.599 72.3934 80.2612 72.1741 79.7983 71.914C79.196 71.5831 78.765 71.2302 78.5007 70.8545C78.2364 70.4789 78.134 70.0151 78.1857 69.4526C78.258 69.0737 78.4247 68.7546 78.6889 68.5048C78.9486 68.2544 79.2823 68.0747 79.6855 67.9651C79.8933 67.9158 80.1037 67.8808 80.326 67.8613C80.5482 67.8418 80.781 67.847 81.0249 67.8724C81.6194 67.9288 82.1951 68.0845 82.7429 68.3382L82.6319 69.55C82.1289 69.1776 81.6453 68.9655 81.1888 68.924C80.6774 68.8746 80.3411 69.0725 80.1898 69.5143C80.1751 69.6836 80.2382 69.8315 80.3778 69.9671C80.4479 70.0326 80.5187 70.0936 80.5953 70.1462C80.6719 70.1987 80.7622 70.2532 80.8748 70.3155L81.5275 70.6535C81.6695 70.7385 81.8064 70.8274 81.9465 70.926C82.0821 71.024 82.2164 71.131 82.3415 71.2367C82.5878 71.4431 82.7812 71.6928 82.9277 71.9776C83.0741 72.2624 83.1317 72.581 83.1011 72.9287L83.0696 73.1512C82.9726 73.6377 82.7649 74.016 82.4458 74.2904C82.1273 74.5602 81.7557 74.7438 81.3276 74.8314C80.9042 74.9196 80.4524 74.9436 79.9822 74.9001C79.7886 74.8819 79.6147 74.8573 79.4649 74.8268C79.3105 74.7957 79.1123 74.7444 78.8748 74.6737C78.5032 74.5608 78.2021 74.444 77.9757 74.3285L77.9698 74.337Z" fill="white"/>
<path d="M83.3147 74.1391L83.7756 69.1736C83.7909 68.9998 83.7847 68.846 83.7523 68.7117C83.7259 68.569 83.6379 68.4315 83.4931 68.2998L83.4957 68.2816L84.8187 68.4042L84.8965 68.4153L84.9567 68.4192C85.0253 68.4289 85.0907 68.4289 85.1463 68.4321C85.2065 68.436 85.2581 68.4341 85.3013 68.4263C85.4242 68.4159 85.5463 68.3777 85.6672 68.316L85.7084 68.3219L85.4773 70.8091C85.6352 70.6833 85.8344 70.5957 86.0704 70.5458C86.3109 70.4965 86.5508 70.4841 86.7954 70.5049C87.344 70.5549 87.7727 70.7268 88.0859 71.0213C88.3991 71.3159 88.5333 71.687 88.4918 72.1443L88.2672 74.5862C88.2263 75.039 88.331 75.3549 88.5864 75.5301L88.5806 75.571L85.9674 75.3257L85.9731 75.2848C86.1266 75.1907 86.2349 75.0856 86.3026 74.9702C86.3704 74.8547 86.4106 74.7029 86.4271 74.52L86.6339 72.2701C86.6518 72.0781 86.6102 71.9101 86.5144 71.7622C86.4186 71.6142 86.2576 71.5312 86.032 71.5085C85.8384 71.4903 85.6823 71.5377 85.5629 71.6551C85.4435 71.7725 85.3745 71.9295 85.3554 72.1306L85.1588 74.2753C85.139 74.481 85.1414 74.662 85.1666 74.8138C85.193 74.9565 85.2803 75.0986 85.4245 75.2348L85.4187 75.2757L82.8695 75.0395L82.8753 74.9986C83.0346 74.8961 83.1449 74.7774 83.2014 74.6418C83.258 74.5062 83.2956 74.3402 83.3134 74.1481L83.3147 74.1391Z" fill="white"/>
<path d="M88.7969 73.0575C88.8173 72.8473 88.8692 72.6462 88.9518 72.4587C89.0344 72.2712 89.1451 72.0831 89.284 71.8943C89.5461 71.5609 89.8855 71.3079 90.3107 71.1412C90.736 70.9744 91.221 70.9135 91.7599 70.9667C92.387 71.0231 92.8941 71.2016 93.2825 71.4928C93.6709 71.7841 93.9385 72.1371 94.0891 72.5568C94.2404 72.972 94.2924 73.3963 94.2548 73.8264C94.2318 74.0872 94.1657 74.3233 94.0655 74.5361C93.9653 74.7489 93.8297 74.9474 93.6647 75.1232C93.3509 75.4586 92.9775 75.6882 92.543 75.8212C92.1085 75.9542 91.6725 75.999 91.2396 75.9561C90.7236 75.9062 90.2682 75.7582 89.874 75.5078C89.4798 75.2574 89.1908 74.9246 89.0028 74.5042C88.8149 74.0838 88.7432 73.6011 88.7969 73.0575ZM90.5693 73.3041C90.5285 73.7569 90.5758 74.1481 90.7171 74.4692C90.8584 74.7903 91.1131 74.97 91.4819 75.0038C91.7814 74.9999 92.0048 74.9065 92.1567 74.7242C92.3086 74.5419 92.4008 74.2539 92.4379 73.8607C92.5496 72.6443 92.2846 72.0092 91.6346 71.9495C91.2337 71.9112 90.9646 72.0306 90.8325 72.3037C90.6958 72.5762 90.6109 72.9116 90.5739 73.3047L90.5693 73.3041Z" fill="white"/>
<path d="M94.4653 77.3494L94.9 72.635C94.9127 72.4793 94.9241 72.3327 94.9245 72.1984C94.9248 72.0641 94.922 71.9525 94.9152 71.8682C94.8972 71.6989 94.8118 71.5432 94.6631 71.4063L94.6689 71.3654L96.0102 71.4907C96.2267 71.5121 96.3895 71.5166 96.4941 71.5037C96.598 71.4952 96.7097 71.4647 96.8286 71.4167L96.8698 71.4226L96.8111 72.0674C96.9474 71.8968 97.1387 71.7664 97.3908 71.6678C97.643 71.5692 97.9273 71.54 98.2458 71.5666C98.6885 71.6062 99.0661 71.7431 99.3831 71.978C99.7 72.2128 99.9328 72.5145 100.081 72.8875C100.229 73.2605 100.283 73.6712 100.242 74.1195C100.196 74.6086 100.071 75.0355 99.8589 75.4085C99.6473 75.7815 99.3785 76.0631 99.0573 76.2538C98.6302 76.499 98.1355 76.5957 97.5639 76.5424C97.4815 76.5308 97.303 76.5055 97.0302 76.4529L96.7259 75.4694L96.9032 75.5038L97.0707 75.5414C97.2551 75.5583 97.4211 75.5401 97.559 75.4902C97.6968 75.4402 97.8123 75.3501 97.9042 75.2288C98.0868 74.9952 98.1965 74.6494 98.238 74.1921C98.2789 73.7717 98.2473 73.4013 98.1531 73.0775C98.0536 72.7577 97.8545 72.5812 97.5412 72.5507C97.0298 72.5014 96.7481 72.8089 96.6829 73.4667L96.3357 77.2346C96.3133 77.4909 96.3013 77.6745 96.3042 77.786C96.2965 77.8405 96.3025 77.897 96.3144 77.945C96.3262 77.993 96.346 78.0514 96.369 78.1195C96.4111 78.2181 96.4904 78.3174 96.6012 78.4257L96.5986 78.4439L94.0331 78.2239L94.0389 78.183C94.1839 78.0831 94.2836 77.9722 94.3481 77.847C94.408 77.7211 94.4507 77.5512 94.4718 77.3364L94.4653 77.3494Z" fill="white"/>
<path d="M91.1007 96.5052C91.1007 96.5052 89.9274 99.2481 91.2519 101.205C92.5764 103.163 90.9621 103.777 93.6737 103.823C96.3852 103.869 100.821 103.743 101.843 104.309C102.865 104.876 103.902 103.591 103.902 103.591C103.902 103.591 103.996 108.163 100.484 107.836C96.9714 107.51 87.0404 106.339 87.1935 104.929C87.3465 103.519 88.8541 97.6275 88.8541 97.6275L91.1001 96.5098L91.1007 96.5052Z" fill="#D1D1D1"/>
<path d="M71.1502 93.9188C71.1502 93.9188 69.0471 93.7643 68.6697 95.1422C68.2923 96.5202 69.1517 95.4653 68.4291 98.059C67.7066 100.653 66.3225 100.961 62.2522 100.551C58.1818 100.141 56.2848 99.423 56.1539 100.808C56.1539 100.808 62.1466 103.01 65.3354 103.082C68.5243 103.154 69.5485 103.276 69.8464 102.591C70.1443 101.906 71.1548 93.9194 71.1548 93.9194L71.1502 93.9188Z" fill="#D1D1D1"/>
<path opacity="0.4" d="M96.6325 61.3976C98.7008 61.6907 100.613 60.2653 100.904 58.2137C101.195 56.1621 99.7537 54.2614 97.6854 53.9683C95.6171 53.6751 93.7047 55.1006 93.414 57.1522C93.1232 59.2037 94.5642 61.1045 96.6325 61.3976Z" fill="#ECECEC"/>
<path opacity="0.3" d="M95.6956 36.657C95.6956 36.657 91.5432 41.0112 90.4082 41.9019C89.2732 42.7926 87.9626 44.1309 86.3618 43.728C84.7656 43.3258 83.1753 40.9371 83.1753 40.9371L84.9235 38.2572L87.6397 36.8864L90.402 36.2449C91.1341 36.1865 91.8708 36.1288 92.603 36.0705C93.6306 36.267 94.6634 36.4597 95.691 36.6563L95.6956 36.657Z" fill="#B2B2B2"/>
<path d="M87.7502 34.4408L82.1538 28.8161L76.5608 33.6795L79.7767 37.6142L84.1876 40.5972L86.6267 40.16L87.4933 38.5596L87.7502 34.4408Z" fill="#CACACA"/>
<path d="M86.8477 34.735C86.5015 34.2783 86.1187 33.8488 85.7189 33.4401C84.9771 32.6772 84.1535 31.9305 83.1822 31.4685C82.7358 31.257 82.2464 31.1182 81.747 31.1493C81.2475 31.1805 80.7937 31.4497 80.4067 31.7747C80.0198 32.0997 79.6826 32.5012 79.4987 32.9755C79.3147 33.4497 79.2845 33.9596 79.3784 34.4501C79.4968 35.0644 79.7812 35.6282 80.1178 36.153C80.5784 36.8576 81.1578 37.4817 81.7665 38.0636C81.9434 38.2323 82.1249 38.4016 82.3122 38.5625C82.5533 38.7727 82.8604 38.3854 82.6193 38.1752C81.9806 37.6075 81.3659 37.0016 80.8505 36.3217C80.476 35.8332 80.1492 35.3051 79.957 34.7173C79.8879 34.513 79.8383 34.2697 79.822 34.0219C79.8139 33.8818 79.8119 33.863 79.8279 33.717C79.8388 33.6073 79.8588 33.499 79.8828 33.3959C79.884 33.3868 79.9028 33.32 79.8951 33.342C79.8873 33.3641 79.9054 33.3018 79.9113 33.2934C79.9282 33.2402 79.9503 33.1831 79.9717 33.1305C80.014 33.03 80.0609 32.9301 80.1156 32.8405C80.0908 32.8834 80.1338 32.8107 80.1397 32.8023C80.152 32.7809 80.169 32.7601 80.1814 32.7387C80.2113 32.692 80.2459 32.6459 80.2804 32.5999C80.3548 32.5039 80.4376 32.4137 80.5244 32.3287C80.5355 32.3164 80.5465 32.3041 80.5616 32.2969C80.5837 32.2723 80.6098 32.2528 80.636 32.2333C80.6836 32.1938 80.7319 32.1497 80.7789 32.1146C80.884 32.0322 80.9936 31.9505 81.1066 31.8785C81.132 31.8636 81.1575 31.8487 81.1784 31.8331C81.1888 31.8253 81.1986 31.8221 81.2039 31.8182C81.1634 31.8402 81.1986 31.8221 81.2039 31.8182C81.2541 31.7929 81.3044 31.7676 81.3541 31.7468C81.3985 31.7299 81.4429 31.7131 81.4919 31.6969C81.5063 31.6943 81.5161 31.691 81.5311 31.6839C81.4828 31.6956 81.522 31.6826 81.5311 31.6839C81.5599 31.6787 81.584 31.6729 81.6128 31.6677C81.7135 31.6495 81.8174 31.6411 81.9161 31.6365C81.9534 31.6372 81.8841 31.632 81.9527 31.6417C81.9756 31.645 82.0031 31.6489 82.0266 31.6476C82.0816 31.6553 82.1365 31.6631 82.196 31.6716C82.2464 31.6787 82.2967 31.6858 82.3458 31.7021C82.3733 31.706 82.3962 31.7092 82.4178 31.7215C82.4315 31.7235 82.4453 31.7254 82.4583 31.7319C82.4217 31.7267 82.4492 31.7306 82.4675 31.7332C82.5748 31.7669 82.686 31.8059 82.7875 31.848C82.902 31.8967 83.012 31.9447 83.1206 32.0018C83.173 32.0278 83.2208 32.0531 83.2725 32.0835C83.3419 32.1212 83.3674 32.1387 83.4106 32.1633C83.63 32.2963 83.8382 32.4417 84.0406 32.5954C84.4493 32.9081 84.8299 33.2539 85.1943 33.6159C85.2146 33.6373 85.2356 33.6542 85.2513 33.675C85.288 33.7126 85.2513 33.675 85.2795 33.7067C85.3201 33.7496 85.3653 33.793 85.4053 33.8404C85.4826 33.9208 85.5554 34.0006 85.6282 34.0804C85.7573 34.2238 85.8864 34.3672 86.0103 34.5144C86.1545 34.6831 86.2896 34.8505 86.424 35.0224C86.4319 35.0328 86.4358 35.038 86.4437 35.0484C86.6365 35.3027 87.0334 35.0069 86.8406 34.7526L86.8477 34.735Z" fill="white"/>
<path d="M82.3753 33.1688C82.4414 33.1967 82.5069 33.2292 82.5724 33.2616C82.6463 33.2999 82.7203 33.3382 82.7982 33.3816C82.8414 33.4063 82.8892 33.4316 82.9324 33.4562C83.0011 33.4984 82.9887 33.4874 83.066 33.5354C83.646 33.8909 84.189 34.3106 84.6778 34.7829C85.0356 35.1255 85.3601 35.505 85.6539 35.9033C85.8415 36.1615 86.2383 35.8657 86.0508 35.6075C85.2133 34.4651 84.0983 33.501 82.8369 32.8451C82.7498 32.8003 82.6628 32.7556 82.5751 32.7154C82.2799 32.5901 82.0854 33.0397 82.3753 33.1688Z" fill="white"/>
<path d="M80.6423 33.7243C80.4747 33.9183 80.4002 34.2135 80.3883 34.462C80.3599 35.1898 80.7602 35.8581 81.2263 36.392C81.7324 36.9733 82.3402 37.4624 82.9735 37.9042C83.2328 38.0846 83.5438 37.7025 83.2805 37.5169C82.7409 37.1394 82.2111 36.7261 81.7562 36.2447C81.6022 36.0793 81.4547 35.9009 81.3222 35.7153C81.1976 35.5402 81.1411 35.4442 81.0551 35.2606C81.0229 35.1912 80.9953 35.1224 80.9683 35.0491C80.959 35.0153 80.9452 34.981 80.936 34.9472C80.9182 34.8752 80.9334 34.933 80.936 34.9472C80.9294 34.9278 80.9235 34.9038 80.9215 34.8849C80.8951 34.7747 80.8831 34.6618 80.8808 34.5457C80.8761 34.4801 80.8725 34.6047 80.8834 34.5275C80.8866 34.5048 80.8899 34.4821 80.8885 34.4587C80.8949 34.4133 80.9014 34.3679 80.9078 34.3225C80.9104 34.3043 80.9129 34.2862 80.9207 34.2641C80.8974 34.3303 80.9285 34.2096 80.9207 34.2641C80.9298 34.233 80.9435 34.2025 80.9526 34.1713C80.9617 34.1402 80.9793 34.1149 80.9929 34.0844C80.9948 34.0708 81.0053 34.063 81.0118 34.05C81.0131 34.0409 80.9649 34.1175 80.9994 34.0714C81.0112 34.0546 81.0229 34.0377 81.0346 34.0208C81.2413 33.7815 80.8549 33.4765 80.6436 33.7153L80.6423 33.7243Z" fill="white"/>
<path d="M85.4121 36.1063C85.1183 35.7079 84.7788 35.3355 84.4256 34.9936C84.155 34.7283 83.8674 34.4837 83.5453 34.2852C83.2232 34.0867 82.8979 33.9433 82.5311 33.9608C82.2441 33.9757 81.9535 34.1152 81.8443 34.3915C81.7429 34.6458 81.805 34.9326 81.8912 35.1811C82.1064 35.8045 82.5202 36.3774 82.9176 36.9015C83.2009 37.2752 83.4992 37.6418 83.8139 37.9921C83.9024 38.0927 84.0469 38.127 84.1618 38.0414C84.261 37.9675 84.2992 37.7968 84.2107 37.6963C83.9721 37.4355 83.7492 37.163 83.5315 36.8866C83.3296 36.631 83.1374 36.3722 82.9557 36.1055C82.7622 35.8233 82.6251 35.6047 82.4878 35.3212C82.4306 35.1973 82.3735 35.0734 82.3359 34.943C82.3332 34.9287 82.326 34.9138 82.3234 34.8995C82.3141 34.8658 82.3385 34.9573 82.3234 34.8995C82.3181 34.871 82.3121 34.847 82.3068 34.8184C82.2956 34.7659 82.2942 34.7101 82.2882 34.6536C82.2955 34.7334 82.2869 34.6627 82.2901 34.64C82.2933 34.6173 82.2959 34.5992 82.2991 34.5764C82.3055 34.531 82.2783 34.6245 82.2959 34.5992C82.2972 34.5901 82.2991 34.5764 82.3043 34.5726C82.305 34.568 82.3167 34.5511 82.3173 34.5466C82.3329 34.5025 82.2847 34.579 82.3115 34.555C82.3219 34.5473 82.3395 34.522 82.3506 34.5096C82.3154 34.5602 82.3337 34.5304 82.3604 34.5064C82.3656 34.5025 82.3754 34.4992 82.3813 34.4908C82.4133 34.4629 82.3277 34.5064 82.3715 34.4941C82.4055 34.485 82.4407 34.4668 82.4701 34.4571C82.4113 34.4765 82.4989 34.4519 82.5178 34.4499C82.5512 34.4454 82.5793 34.4448 82.612 34.4448C82.5466 34.4448 82.644 34.4493 82.6623 34.4519C82.7036 34.4577 82.7402 34.4629 82.7814 34.4688C82.7951 34.4707 82.8089 34.4727 82.8226 34.4746C82.7637 34.4616 82.8317 34.4759 82.8409 34.4772C82.8769 34.4869 82.9076 34.5006 82.943 34.5148C83.0228 34.5447 83.0968 34.583 83.1708 34.6212C83.2532 34.6653 83.2572 34.6705 83.3429 34.7244C83.4196 34.7769 83.4962 34.8295 83.5721 34.8866C83.7149 34.9995 83.8571 35.1169 83.9888 35.2421C84.3478 35.5756 84.7077 35.9693 85.0166 36.393C85.2094 36.6473 85.6017 36.3508 85.4134 36.0972L85.4121 36.1063Z" fill="white"/>
<path d="M82.911 35.5158C83.3561 36.0329 83.8006 36.5545 84.2457 37.0715C84.31 37.1455 84.3696 37.2188 84.4345 37.2882C84.523 37.3887 84.6728 37.4192 84.7825 37.3375C84.8869 37.2597 84.9199 37.0929 84.8314 36.9924C84.3863 36.4753 83.9418 35.9537 83.4967 35.4367L83.3079 35.22C83.2194 35.1194 83.0696 35.0889 82.9599 35.1707C82.8555 35.2485 82.8225 35.4152 82.911 35.5158Z" fill="white"/>
<path d="M84.9967 42.8097C86.6052 44.0476 88.2311 43.3515 95.0297 36.1435L90.3094 31.0923C90.3094 31.0923 83.7669 37.3175 82.2371 37.6982C82.2371 37.6982 80.4186 38.4689 79.7694 37.6126L84.9967 42.8097Z" fill="#D2D2D2"/>
<path d="M90.9353 32.2148C90.7331 32.4224 90.5309 32.6299 90.3247 32.8323C90.221 32.9381 90.1127 33.0432 90.0044 33.1483C89.945 33.2047 89.8857 33.2612 89.8256 33.3221C89.8093 33.3383 89.7982 33.3507 89.7819 33.3669C89.7709 33.3792 89.7382 33.4117 89.7656 33.3831C89.7278 33.4194 89.6952 33.4519 89.6573 33.4882C89.3657 33.7665 89.0741 34.0448 88.7785 34.3179C88.0751 34.964 87.3554 35.594 86.616 36.1979C85.8765 36.8019 85.0769 37.4019 84.251 37.9241C83.8717 38.1622 83.5504 38.3529 83.1494 38.5463C82.8137 38.7071 82.4662 38.8524 82.1068 38.9497C82.0924 38.9523 82.1408 38.9407 82.0924 38.9523C82.0728 38.9588 82.0539 38.9608 82.0343 38.9673C81.9957 38.9757 81.9526 38.9835 81.914 38.9919C81.784 39.0198 81.6796 39.1301 81.7022 39.2676C81.7175 39.3902 81.8505 39.5064 81.9805 39.4785C82.7733 39.3221 83.5093 38.9401 84.1981 38.5281C85.0345 38.0306 85.8218 37.4519 86.5841 36.8512C87.3464 36.2505 88.0968 35.6018 88.8211 34.9401C89.4057 34.4068 89.9831 33.8586 90.5474 33.304C90.8025 33.0529 91.0851 32.8058 91.3159 32.5281C91.3159 32.5281 91.3218 32.5197 91.327 32.5158C91.4202 32.4178 91.3839 32.2459 91.287 32.172C91.1737 32.0818 91.0286 32.1168 90.9405 32.2109L90.9353 32.2148Z" fill="white"/>
<path d="M73.6652 125.103L36.4876 107.398L43.5713 57.416L80.7489 75.1206L73.6652 125.103Z" fill="#F8F8F8"/>
<path d="M73.6709 125.103L114.304 118.427L121.388 68.4446L80.7547 75.1214L73.6709 125.103Z" fill="#EBEBEB"/>
<path opacity="0.2" d="M84.9844 108.723L114.304 118.427L121.388 68.4446L80.7547 75.1214L84.9844 108.723Z" fill="url(#paint0_linear_6206_20263)"/>
<path d="M43.5787 57.416L80.7563 75.1206L59.5957 84.7485L22.9621 66.5471L43.5787 57.416Z" fill="#F3F3F3"/>
<path d="M121.388 68.4446L80.7547 75.1214L98.4066 90.25L138.655 82.9447L121.388 68.4446Z" fill="#F8F8F8"/>
<path d="M86.972 55.7714L78.8867 54.9629C78.8867 56.5799 79.6952 59.8141 82.9294 59.8141C85.3549 59.8141 87.2415 57.119 86.972 55.7714Z" fill="#D9D9D9"/>
<path d="M51.9528 67.1785C50.916 65.9677 49.6524 63.1807 52.2184 60.7505C54.1841 58.888 56.0348 59.2983 58.1159 60.2898C58.7504 60.5896 59.4088 60.9419 60.0985 61.3059C63.0403 62.8465 61.9595 65.9394 61.9595 65.9394L60.1865 65.0795C58.6844 69.3519 56.1644 69.5097 54.268 68.7539C53.1984 68.3317 52.3269 67.613 51.9528 67.1785Z" fill="#D6D6D6"/>
<path d="M51.955 67.1764C50.9183 65.9656 49.6546 63.1786 52.2206 60.7484C54.1863 58.8859 56.037 59.2962 58.1181 60.2876C58.1181 60.2876 56.0293 59.6826 54.687 60.9082C53.3474 62.1302 52.5196 64.1775 53.3444 65.8186C54.1627 67.4607 55.4844 67.8286 54.2702 68.7518C53.2006 68.3296 52.3291 67.6109 51.955 67.1764Z" fill="#D1D1D1"/>
<path d="M109.174 67.936L111.279 67.2956C113.384 66.6551 114.949 68.5389 115.647 71.6139C116.115 73.6906 114.803 75.3074 112.74 75.9388C111.745 76.2385 110.578 76.312 109.351 76.1041C105.578 75.4596 106.121 70.6547 106.121 70.6547L103.933 71.2905C104.079 67.355 109.174 67.936 109.174 67.936Z" fill="#D6D6D6"/>
<path d="M109.174 67.9373L111.279 67.2969C113.384 66.6564 114.949 68.5402 115.647 71.6152C116.116 73.6919 114.803 75.3087 112.74 75.9401L112.738 75.9361C112.738 75.9361 114.347 73.4071 112.943 71.2453C111.539 69.0836 109.174 67.9373 109.174 67.9373Z" fill="#D1D1D1"/>
<defs>
<linearGradient id="paint0_linear_6206_20263" x1="97.6091" y1="107.325" x2="103.092" y2="73.9298" gradientUnits="userSpaceOnUse">
<stop offset="0.00289017" stop-color="#929292" stop-opacity="0"/>
<stop offset="1" stop-color="#666666"/>
</linearGradient>
</defs>
</svg>
