<svg width="20" height="20" viewBox="0 0 20 20" fill="none" xmlns="http://www.w3.org/2000/svg">
<path d="M15.8589 7.73404L10.4422 13.1507C10.3842 13.2088 10.3153 13.2549 10.2394 13.2864C10.1635 13.3179 10.0822 13.334 10.0001 13.334C9.91792 13.334 9.83659 13.3179 9.76071 13.2864C9.68484 13.2549 9.61591 13.2088 9.55786 13.1507L4.14117 7.73404C4.02389 7.61677 3.95801 7.45771 3.95801 7.29185C3.95801 7.126 4.02389 6.96694 4.14117 6.84966C4.25844 6.73239 4.41751 6.6665 4.58336 6.6665C4.74921 6.6665 4.90827 6.73239 5.02555 6.84966L10.0001 11.8249L14.9746 6.84966C15.0326 6.7916 15.1016 6.74553 15.1774 6.71411C15.2533 6.68268 15.3346 6.6665 15.4167 6.6665C15.4989 6.6665 15.5802 6.68268 15.6561 6.71411C15.7319 6.74553 15.8009 6.7916 15.8589 6.84966C15.917 6.90773 15.9631 6.97667 15.9945 7.05254C16.0259 7.12841 16.0421 7.20973 16.0421 7.29185C16.0421 7.37398 16.0259 7.45529 15.9945 7.53117C15.9631 7.60704 15.917 7.67598 15.8589 7.73404Z" fill="#BDBDBD"/>
</svg>
