<svg width="32" height="32" viewBox="0 0 32 32" fill="none" xmlns="http://www.w3.org/2000/svg">
<circle opacity="0.9" cx="16" cy="16" r="12.8" fill="#333333"/>
<path d="M21.8243 20.9753C21.8801 21.0311 21.9243 21.0973 21.9545 21.1701C21.9847 21.2429 22.0002 21.321 22.0002 21.3998C22.0002 21.4787 21.9847 21.5567 21.9545 21.6296C21.9243 21.7024 21.8801 21.7686 21.8243 21.8243C21.7686 21.8801 21.7024 21.9243 21.6296 21.9545C21.5567 21.9847 21.4787 22.0002 21.3998 22.0002C21.321 22.0002 21.2429 21.9847 21.1701 21.9545C21.0973 21.9243 21.0311 21.8801 20.9753 21.8243L15.9998 16.8481L11.0243 21.8243C10.9118 21.9369 10.7591 22.0002 10.5998 22.0002C10.4406 22.0002 10.2879 21.9369 10.1753 21.8243C10.0628 21.7118 9.99951 21.5591 9.99951 21.3998C9.99951 21.2406 10.0628 21.0879 10.1753 20.9753L15.1516 15.9998L10.1753 11.0243C10.0628 10.9118 9.99951 10.7591 9.99951 10.5998C9.99951 10.4406 10.0628 10.2879 10.1753 10.1753C10.2879 10.0628 10.4406 9.99951 10.5998 9.99951C10.7591 9.99951 10.9118 10.0628 11.0243 10.1753L15.9998 15.1516L20.9753 10.1753C21.0879 10.0628 21.2406 9.99951 21.3998 9.99951C21.5591 9.99951 21.7118 10.0628 21.8243 10.1753C21.9369 10.2879 22.0002 10.4406 22.0002 10.5998C22.0002 10.7591 21.9369 10.9118 21.8243 11.0243L16.8481 15.9998L21.8243 20.9753Z" fill="white"/>
</svg>
