<svg width="24" height="24" viewBox="0 0 24 24" fill="none" xmlns="http://www.w3.org/2000/svg">
<path d="M19 12C19 12.1989 18.921 12.3897 18.7803 12.5303C18.6397 12.671 18.4489 12.75 18.25 12.75H12.75V18.25C12.75 18.4489 12.671 18.6397 12.5303 18.7803C12.3897 18.921 12.1989 19 12 19C11.8011 19 11.6103 18.921 11.4697 18.7803C11.329 18.6397 11.25 18.4489 11.25 18.25V12.75H5.75C5.55109 12.75 5.36032 12.671 5.21967 12.5303C5.07902 12.3897 5 12.1989 5 12C5 11.8011 5.07902 11.6103 5.21967 11.4697C5.36032 11.329 5.55109 11.25 5.75 11.25H11.25V5.75C11.25 5.55109 11.329 5.36032 11.4697 5.21967C11.6103 5.07902 11.8011 5 12 5C12.1989 5 12.3897 5.07902 12.5303 5.21967C12.671 5.36032 12.75 5.55109 12.75 5.75V11.25H18.25C18.4489 11.25 18.6397 11.329 18.7803 11.4697C18.921 11.6103 19 11.8011 19 12Z" fill="#333333"/>
</svg>
