<svg width="21" height="20" viewBox="0 0 21 20" fill="none" xmlns="http://www.w3.org/2000/svg">
<path d="M17.9997 3.75V16.25C17.9997 16.5815 17.868 16.8995 17.6336 17.1339C17.3992 17.3683 17.0813 17.5 16.7497 17.5H11.1247C10.959 17.5 10.8 17.4342 10.6828 17.3169C10.5656 17.1997 10.4997 17.0408 10.4997 16.875C10.4997 16.7092 10.5656 16.5503 10.6828 16.4331C10.8 16.3158 10.959 16.25 11.1247 16.25H16.7497V3.75H4.24974V11.25C4.24974 11.4158 4.18389 11.5747 4.06668 11.6919C3.94947 11.8092 3.7905 11.875 3.62474 11.875C3.45898 11.875 3.30001 11.8092 3.1828 11.6919C3.06559 11.5747 2.99974 11.4158 2.99974 11.25V3.75C2.99974 3.41848 3.13143 3.10054 3.36585 2.86612C3.60027 2.6317 3.91822 2.5 4.24974 2.5H16.7497C17.0813 2.5 17.3992 2.6317 17.6336 2.86612C17.868 3.10054 17.9997 3.41848 17.9997 3.75ZM10.3169 12.0578C10.2589 11.9997 10.1899 11.9536 10.1141 11.9221C10.0382 11.8907 9.95687 11.8745 9.87474 11.8745C9.7926 11.8745 9.71127 11.8907 9.6354 11.9221C9.55953 11.9536 9.49059 11.9997 9.43255 12.0578L5.49974 15.9914L4.06692 14.5578C4.00886 14.4997 3.93992 14.4537 3.86405 14.4223C3.78818 14.3908 3.70686 14.3747 3.62474 14.3747C3.54262 14.3747 3.4613 14.3908 3.38543 14.4223C3.30956 14.4537 3.24062 14.4997 3.18255 14.5578C3.12448 14.6159 3.07842 14.6848 3.04699 14.7607C3.01556 14.8366 2.99939 14.9179 2.99939 15C2.99939 15.0821 3.01556 15.1634 3.04699 15.2393C3.07842 15.3152 3.12448 15.3841 3.18255 15.4422L5.05755 17.3172C5.1156 17.3753 5.18453 17.4214 5.2604 17.4529C5.33627 17.4843 5.4176 17.5005 5.49974 17.5005C5.58187 17.5005 5.6632 17.4843 5.73907 17.4529C5.81495 17.4214 5.88388 17.3753 5.94193 17.3172L10.3169 12.9422C10.375 12.8841 10.4211 12.8152 10.4526 12.7393C10.484 12.6635 10.5002 12.5821 10.5002 12.5C10.5002 12.4179 10.484 12.3365 10.4526 12.2607C10.4211 12.1848 10.375 12.1159 10.3169 12.0578Z" fill="#6F6F6F"/>
</svg>
