<svg width="20" height="20" viewBox="0 0 20 20" fill="none" xmlns="http://www.w3.org/2000/svg">
<path d="M17.0329 5.41833C17.2622 5.16037 17.6571 5.13701 17.9151 5.36624C18.173 5.59554 18.1964 5.99041 17.9672 6.2484L12.3519 12.5659C12.1145 12.8331 11.8961 13.0802 11.6919 13.2569C11.5014 13.4217 11.2739 13.5696 10.9864 13.6239L10.8594 13.6418C10.5107 13.6714 10.2204 13.5516 9.97399 13.4025C9.85851 13.3327 9.73643 13.2465 9.6086 13.1494L9.20739 12.8329L7.44144 11.4201C7.15148 11.1881 6.97941 11.0522 6.8433 10.9693C6.7813 10.9315 6.74567 10.9169 6.72855 10.9115L6.71716 10.909C6.71716 10.909 6.71188 10.9104 6.70576 10.9131C6.68935 10.9204 6.65578 10.9387 6.59834 10.9831C6.47225 11.0806 6.31637 11.2342 6.05391 11.4966L2.1086 15.4419C1.86452 15.686 1.46888 15.686 1.22481 15.4419C0.980729 15.1978 0.980729 14.8022 1.22481 14.5581L5.17012 10.6128C5.4092 10.3737 5.62999 10.1513 5.83418 9.99352C6.05245 9.8249 6.31428 9.67916 6.64798 9.66068L6.77005 9.65986C7.04987 9.67158 7.28733 9.77595 7.49352 9.90156C7.71387 10.0358 7.95789 10.2324 8.22188 10.4436L9.98783 11.8571L10.3654 12.1542C10.4671 12.2316 10.5489 12.2896 10.621 12.3332C10.6867 12.373 10.7242 12.388 10.7422 12.3934L10.7536 12.3959L10.765 12.391C10.7819 12.3825 10.8161 12.3614 10.8741 12.3112C11.0016 12.2009 11.1575 12.0286 11.4177 11.7359L17.0329 5.41833ZM9.1667 6.0417C9.51188 6.0417 9.7917 6.32152 9.7917 6.6667C9.7917 7.01188 9.51188 7.2917 9.1667 7.2917L4.1667 7.2917C3.82152 7.2917 3.5417 7.01188 3.5417 6.6667C3.5417 6.32152 3.82152 6.0417 4.1667 6.0417L9.1667 6.0417Z" fill="#E11E1E"/>
<path d="M18.1577 5.83243L18.3539 9.57729C18.3626 9.74282 18.3052 9.90502 18.1943 10.0282C18.0833 10.1514 17.928 10.2255 17.7625 10.2341C17.597 10.2428 17.4348 10.1854 17.3116 10.0745C17.1884 9.96355 17.1143 9.80824 17.1056 9.64271L16.9883 7.40437L13.2668 11.5384C13.1558 11.6617 13.0004 11.7358 12.8348 11.7445C12.6692 11.7531 12.5069 11.6957 12.3836 11.5847C12.2604 11.4737 12.1862 11.3183 12.1776 11.1527C12.1689 10.9871 12.2264 10.8248 12.3373 10.7015L16.0597 6.56823L13.8214 6.68554C13.6558 6.69421 13.4936 6.63678 13.3705 6.52586C13.2473 6.41495 13.1732 6.25964 13.1645 6.09411C13.1558 5.92857 13.2133 5.76637 13.3242 5.64319C13.4351 5.52001 13.5904 5.44593 13.756 5.43725L17.5008 5.24099C17.6664 5.23232 17.8286 5.28976 17.9517 5.40067C18.0749 5.51159 18.149 5.66689 18.1577 5.83243Z" fill="#E11E1E"/>
</svg>
