<svg width="20" height="20" viewBox="0 0 20 20" fill="none" xmlns="http://www.w3.org/2000/svg">
<path d="M8.125 3.79834H4.375C4.04348 3.79834 3.72554 3.93004 3.49112 4.16446C3.2567 4.39888 3.125 4.71682 3.125 5.04834V8.79834C3.125 9.12986 3.2567 9.4478 3.49112 9.68222C3.72554 9.91664 4.04348 10.0483 4.375 10.0483H8.125C8.45652 10.0483 8.77446 9.91664 9.00888 9.68222C9.2433 9.4478 9.375 9.12986 9.375 8.79834V5.04834C9.375 4.71682 9.2433 4.39888 9.00888 4.16446C8.77446 3.93004 8.45652 3.79834 8.125 3.79834ZM8.125 8.79834H4.375V5.04834H8.125V8.79834ZM15.625 3.79834H11.875C11.5435 3.79834 11.2255 3.93004 10.9911 4.16446C10.7567 4.39888 10.625 4.71682 10.625 5.04834V8.79834C10.625 9.12986 10.7567 9.4478 10.9911 9.68222C11.2255 9.91664 11.5435 10.0483 11.875 10.0483H15.625C15.9565 10.0483 16.2745 9.91664 16.5089 9.68222C16.7433 9.4478 16.875 9.12986 16.875 8.79834V5.04834C16.875 4.71682 16.7433 4.39888 16.5089 4.16446C16.2745 3.93004 15.9565 3.79834 15.625 3.79834ZM15.625 8.79834H11.875V5.04834H15.625V8.79834Z" fill="#4F4F4F"/>
<rect x="3.125" y="11.8801" width="6.24837" height="1.24471" rx="0.622355" fill="#4F4F4F"/>
<rect x="10.627" y="11.8804" width="6.24837" height="1.24471" rx="0.622355" fill="#4F4F4F"/>
<rect x="3.125" y="14.9575" width="4.875" height="1.24471" rx="0.622355" fill="#4F4F4F"/>
<rect x="10.627" y="14.9575" width="4.875" height="1.24471" rx="0.622355" fill="#4F4F4F"/>
</svg>
