<svg width="161" height="160" viewBox="0 0 161 160" fill="none" xmlns="http://www.w3.org/2000/svg">
<rect width="160" height="160" transform="translate(0.5)" fill="white"/>
<ellipse cx="77.3696" cy="135.781" rx="38.203" ry="5.8214" fill="#F7F7F7"/>
<path d="M127.603 69.7848L119.007 121.496C118.65 123.648 116.643 125.067 114.531 124.716L36.6406 111.769C34.5287 111.418 33.0661 109.394 33.4192 107.269L42.0145 55.5585C42.3676 53.4342 44.3785 51.9875 46.5182 52.3432L124.409 65.2901C126.521 65.6411 127.956 67.6605 127.603 69.7848Z" fill="#F8F8F8"/>
<path d="M127.603 69.7848L126.641 75.5708L41.0527 61.3445L42.0145 55.5585C42.3676 53.4342 44.3785 51.9875 46.5182 52.3432L124.409 65.2901C126.521 65.6411 127.956 67.6605 127.603 69.7848Z" fill="#EBEBEB"/>
<path d="M47.0056 58.8591C47.8037 58.9917 48.5588 58.4485 48.6922 57.6458C48.8256 56.843 48.2869 56.0847 47.4888 55.9521C46.6908 55.8194 45.9357 56.3627 45.8022 57.1654C45.6688 57.9681 46.2076 58.7264 47.0056 58.8591Z" fill="#B5B5B5"/>
<path d="M51.7316 59.6442C52.5296 59.7769 53.2847 59.2337 53.4182 58.4309C53.5516 57.6282 53.0128 56.8699 52.2148 56.7373C51.4167 56.6046 50.6616 57.1478 50.5282 57.9506C50.3947 58.7533 50.9335 59.5116 51.7316 59.6442Z" fill="#B5B5B5"/>
<path d="M56.4299 60.4235C57.228 60.5562 57.9831 60.013 58.1165 59.2102C58.25 58.4075 57.7112 57.6492 56.9131 57.5166C56.1151 57.3839 55.36 57.9271 55.2265 58.7299C55.0931 59.5326 55.6319 60.2909 56.4299 60.4235Z" fill="#B5B5B5"/>
<path d="M53.0668 99.5332L102.919 107.82" stroke="#B5B5B5" stroke-width="2.66667" stroke-miterlimit="10" stroke-linecap="round" stroke-linejoin="round"/>
<path d="M60.0405 106.181L94.1646 111.853" stroke="#B5B5B5" stroke-width="2.66667" stroke-miterlimit="10" stroke-linecap="round" stroke-linejoin="round"/>
<path d="M72.1564 87.2528L71.6778 90.1318L69.9272 89.8408L69.4672 92.608L66.1882 92.063L66.6482 89.2958L59.4232 88.0949L59.9714 84.7966L68.2249 76.5459L72.0597 77.1833L70.4289 86.9944L72.1518 87.2807L72.1564 87.2528ZM68.1163 80.463L62.9584 85.7239L67.1267 86.4168L68.1163 80.463Z" fill="#B5B5B5"/>
<path d="M79.3921 94.5737C75.8908 93.9917 73.3174 90.4043 74.1444 85.4289C74.9714 80.4535 78.5392 77.8869 82.0683 78.4735C85.5974 79.0601 88.1431 82.6429 87.3161 87.6183C86.489 92.5937 82.9213 95.1603 79.3921 94.5737ZM79.8846 91.6108C81.5241 91.8833 83.4378 90.5067 84.0046 87.0966C84.5714 83.6865 83.206 81.7648 81.5665 81.4923C79.927 81.2198 78.0134 82.5964 77.4465 86.0065C76.8797 89.4166 78.2451 91.3383 79.8846 91.6108Z" fill="#B5B5B5"/>
<path d="M101.112 92.0657L100.633 94.9447L98.8827 94.6537L98.4227 97.421L95.1437 96.8759L95.6036 94.1087L88.3787 92.9078L88.9269 89.6095L97.1803 81.3588L101.015 81.9962L99.3844 91.8073L101.107 92.0937L101.112 92.0657ZM97.044 85.2713L91.8861 90.5322L96.0544 91.2251L97.044 85.2713Z" fill="#B5B5B5"/>
<path d="M78.1411 40.8808C78.2294 40.8476 78.3207 40.8247 78.412 40.8017C78.5238 40.7726 78.2908 40.8292 78.3364 40.8177C78.3569 40.8116 78.3813 40.8109 78.4017 40.8048C78.4568 40.7949 78.5072 40.7843 78.5614 40.7791C78.6755 40.765 78.7895 40.7508 78.9058 40.7516C78.9639 40.752 79.0676 40.77 78.8485 40.7465C78.8767 40.7514 78.9058 40.7516 78.9302 40.751C78.9914 40.7616 79.0534 40.7675 79.1138 40.7829C79.1232 40.7845 79.1939 40.7968 79.1931 40.8015C79.1914 40.8109 79.0284 40.7438 79.1013 40.771C79.1155 40.7734 79.1296 40.7759 79.1421 40.7878C79.1742 40.7982 79.2981 40.8391 79.312 40.8706C79.3151 40.8809 79.1697 40.7683 79.233 40.8229C79.2416 40.8293 79.2541 40.8412 79.2674 40.8483C79.2885 40.8665 79.3096 40.8848 79.3307 40.903C79.4228 40.9869 79.2512 40.8019 79.3026 40.869C79.326 40.9022 79.3501 40.9306 79.3688 40.9629C79.3766 40.974 79.3835 40.9898 79.396 41.0016C79.4419 41.0727 79.354 40.9361 79.3596 40.9322C79.3596 40.9322 79.3975 41.0213 79.4014 41.0268C79.4145 41.0631 79.4268 41.104 79.4391 41.1449C79.4444 41.1701 79.462 41.2363 79.4399 41.1402C79.4147 41.034 79.4368 41.13 79.4374 41.1544C79.4737 41.3644 79.481 41.5743 79.5023 41.7866C79.5309 42.0972 79.8379 42.3688 80.1565 42.3222C80.475 42.2756 80.7259 42.0038 80.6921 41.6681C80.6713 41.4801 80.6608 41.2891 80.6354 41.1003C80.5802 40.6638 80.3937 40.2288 80.0498 39.946C79.5481 39.5387 78.8483 39.49 78.2384 39.6218C78.0621 39.6592 77.8859 39.6965 77.7149 39.759C77.4242 39.8686 77.2403 40.2296 77.3632 40.5275C77.4861 40.8253 77.8205 40.995 78.1317 40.8792L78.1411 40.8808Z" fill="#D6D6D6"/>
<path d="M96.1636 43.9758C96.2033 43.9147 96.0652 44.1236 96.0913 44.0845C96.104 44.0673 96.112 44.0493 96.1239 44.0368C96.1636 43.9758 96.2072 43.9203 96.2508 43.8648C96.3126 43.7882 96.3736 43.7163 96.444 43.646C96.4622 43.625 96.4796 43.6086 96.5025 43.5883C96.5254 43.568 96.6069 43.49 96.5144 43.5758C96.4274 43.6577 96.5025 43.5883 96.5199 43.5719C96.5484 43.5477 96.576 43.5283 96.6045 43.5041C96.6487 43.473 96.6929 43.4418 96.7371 43.4107C96.7639 43.396 96.7907 43.3812 96.8128 43.3656C96.8626 43.3306 96.7103 43.4255 96.7277 43.4091C96.7396 43.3966 96.7703 43.3874 96.786 43.3804C96.838 43.3603 96.8853 43.3394 96.942 43.3201C96.957 43.3179 96.9727 43.3109 96.983 43.3078C97.0444 43.2894 96.8327 43.3351 96.8972 43.3269C96.9318 43.3232 96.9625 43.314 96.9963 43.315C97.001 43.3158 97.0843 43.3109 97.0843 43.3109C97.0835 43.3156 96.9123 43.2956 96.9924 43.3095C97.0065 43.3119 97.0206 43.3144 97.0395 43.3177C97.0677 43.3226 97.0913 43.3267 97.1195 43.3316C97.2686 43.3671 97.0153 43.2892 97.0968 43.3228C97.1603 43.3483 97.2213 43.388 97.2887 43.4191C97.2887 43.4191 97.1588 43.3287 97.2315 43.385C97.2487 43.3976 97.266 43.4103 97.2784 43.4222C97.3167 43.4531 97.3503 43.4832 97.3886 43.5141C97.5385 43.6566 97.6758 43.8162 97.8146 43.9664C97.9129 44.0708 98.1232 44.117 98.2561 44.1061C98.389 44.0953 98.5632 44.0139 98.6559 43.899C98.7502 43.7747 98.8165 43.6164 98.7956 43.4576C98.7747 43.2987 98.6985 43.1787 98.5885 43.0578C98.4574 42.9186 98.3318 42.7755 98.1952 42.6402C97.8729 42.3174 97.4474 42.1417 96.9971 42.1363C96.363 42.1281 95.7958 42.573 95.4053 43.034C95.2889 43.1739 95.1857 43.3209 95.0904 43.479C95.0157 43.6019 95.0229 43.8117 95.0731 43.9417C95.1233 44.0717 95.2434 44.2187 95.3797 44.2715C95.7057 44.4057 96.0005 44.2725 96.1761 43.9876L96.1636 43.9758Z" fill="#D6D6D6"/>
<mask id="mask0_11160_43169" style="mask-type:luminance" maskUnits="userSpaceOnUse" x="59" y="19" width="63" height="46">
<path d="M121.599 28.8619L66.1371 19.2344L59.9373 54.9499L115.399 64.5774L121.599 28.8619Z" fill="white"/>
</mask>
<g mask="url(#mask0_11160_43169)">
<path d="M106.42 34.1279C94.9667 30.9949 81.7532 29.0311 81.7532 29.0311C81.7532 29.0311 69.4026 27.2947 66.2346 34.2544C63.0666 41.2142 57.8188 60.6299 60.6665 70.1039C63.1598 78.4054 80.5111 80.5102 88.3005 81.1347C89.4008 81.2238 90.3128 81.2802 90.96 81.3247C96.2085 81.6633 103.122 81.8009 109.11 74.1081C115.097 66.4153 117.872 37.2657 106.414 34.1318L106.42 34.1279Z" fill="#D6D6D6"/>
<path d="M106.418 34.1299C94.9643 30.9968 81.7509 29.033 81.7509 29.033C81.7509 29.033 82.4793 32.6621 96.5552 35.61C110.626 38.5618 108.757 51.8404 108.327 55.574C107.898 59.3076 105.308 80.7906 88.299 81.1319C89.3993 81.2211 90.3112 81.2775 90.9585 81.3219C96.2069 81.6605 103.12 81.7982 109.108 74.1054C115.096 66.4125 117.871 37.2629 106.413 34.1291L106.418 34.1299Z" fill="#DBDBDB"/>
<path d="M107.904 54.912C108.334 51.1784 110.203 37.8952 96.1319 34.9481C82.0615 31.9962 81.3275 28.3711 81.3275 28.3711C81.3275 28.3711 68.9769 26.6347 65.8089 33.5945C62.6409 40.5542 57.3931 59.9699 60.2408 69.4439C62.7341 77.7454 80.0854 79.8502 87.8748 80.4747C104.883 80.138 107.473 58.6504 107.903 54.9167L107.904 54.912Z" fill="#D6D6D6"/>
<path d="M69.7344 42.4363C71.1164 39.3095 74.1874 36.8493 77.4439 36.5899C78.9936 36.466 80.2136 36.8718 82.4881 37.6305C85.5749 38.6563 85.7797 39.405 87.9434 40.0474C88.9676 40.3513 89.5458 40.3741 95.7688 40.1008C101.038 39.8706 102.066 39.7919 103.54 40.4698C103.935 40.65 105.969 41.6239 107.22 43.7187C109.764 47.9831 107.758 54.7078 103.688 57.4701C101.698 58.8224 98.7414 58.6925 92.9215 58.376C87.3852 58.0747 83.2434 57.8166 78.1813 55.8172C74.1357 54.2224 70.6717 52.8545 69.3387 49.3825C68.0931 46.1343 69.4688 43.016 69.7305 42.4308L69.7344 42.4363Z" fill="#FAFAFA"/>
<path opacity="0.4" d="M73.1578 51.9905C74.838 52.2821 76.4365 51.1565 76.7281 49.4763C77.0198 47.7962 75.8942 46.1977 74.214 45.906C72.5338 45.6144 70.9353 46.74 70.6437 48.4202C70.352 50.1003 71.4776 51.6988 73.1578 51.9905Z" fill="#ECECEC"/>
<path d="M71.039 65.118L70.058 60.96C70.0311 60.8631 70.009 60.7671 69.983 60.6656C69.9446 60.5231 69.9108 60.4105 69.8815 60.3278C69.8352 60.2033 69.7567 60.0684 69.6431 59.9128L69.6463 59.894L71.935 60.1797L71.9285 60.2174L71.9037 60.2762C71.9064 60.4561 71.9309 60.6787 71.9762 60.9485L72.9085 65.2193L74.5528 61.7839L74.6348 61.6186L74.7226 61.4204C74.7393 61.3796 74.749 61.3522 74.753 61.3287C74.7571 61.3051 74.7612 61.2816 74.7678 61.2439C74.8011 60.9683 74.6794 60.7192 74.4002 60.5106L74.4035 60.4918L76.203 60.7168L76.199 60.7404L73.052 67.1314L72.3001 66.768C72.1709 66.7019 72.0558 66.6383 71.9549 66.5771C71.8539 66.5159 71.7632 66.4516 71.6827 66.3843C71.5381 66.267 71.4197 66.1106 71.3126 65.9174C71.2101 65.725 71.1161 65.4564 71.0382 65.1227L71.039 65.118Z" fill="white"/>
<path d="M75.6774 66.1534L76.0129 63.4659C76.0345 63.2853 76.0253 63.143 75.9765 63.0327C75.9372 62.9239 75.861 62.804 75.7518 62.6783L75.7584 62.6406L76.9408 62.7877C77.1355 62.8118 77.2981 62.8254 77.4144 62.8262C77.5354 62.8278 77.6754 62.8036 77.8431 62.76L77.8619 62.7632L77.797 63.305C77.9591 63.1536 78.1523 63.0465 78.372 62.9828C78.5917 62.919 78.8416 62.9042 79.122 62.9383C79.4635 62.983 79.7567 63.0824 80.0055 63.2421C80.2543 63.4017 80.4376 63.6033 80.5546 63.8516C80.6716 64.0999 80.713 64.3642 80.6789 64.6445L80.4024 66.8524L80.3775 67.0518C80.3677 67.1083 80.3696 67.1814 80.369 67.2686C80.3731 67.3566 80.3913 67.4471 80.4348 67.5323C80.4774 67.6222 80.5483 67.7169 80.6505 67.8269L80.6439 67.8645L78.1746 67.5572L78.1812 67.5195C78.3587 67.4193 78.4741 67.3132 78.5291 67.1918C78.5842 67.0704 78.6296 66.8648 78.6645 66.5798L78.8987 64.6994C78.9155 64.547 78.9054 64.4094 78.8591 64.285C78.8128 64.1605 78.7466 64.0665 78.6567 63.9976C78.5676 63.9239 78.4681 63.8824 78.359 63.8683C78.1784 63.8466 78.0209 63.8872 77.885 63.9995C77.7499 64.107 77.6718 64.2778 77.6428 64.5007L77.392 66.5044C77.3622 66.7321 77.3649 66.9121 77.3907 67.0427C77.4157 67.178 77.4934 67.3176 77.6339 67.4585L77.6273 67.4961L75.1863 67.1937L75.1928 67.156C75.3634 67.0401 75.4804 66.9245 75.5355 66.8031C75.5905 66.6817 75.6367 66.4714 75.6757 66.1628L75.6774 66.1534Z" fill="white"/>
<path d="M80.983 67.6642L80.8302 66.1968C81.0674 66.4515 81.3779 66.6751 81.7608 66.8726C81.966 66.9761 82.1556 67.0576 82.3288 67.1216C82.502 67.1856 82.6794 67.2261 82.86 67.2478C83.5061 67.326 83.8853 67.1541 83.999 66.7226C84.0314 66.4518 83.9489 66.2288 83.7521 66.0491C83.5552 65.8694 83.2393 65.6496 82.8049 65.385C82.2375 65.0488 81.8383 64.6933 81.5964 64.3263C81.3545 63.9592 81.2679 63.5076 81.3376 62.9667C81.4202 62.6026 81.5888 62.302 81.8481 62.0656C82.1075 61.8293 82.4268 61.6664 82.8164 61.574C83.0131 61.5305 83.2216 61.5036 83.4314 61.4964C83.6413 61.4891 83.8628 61.4985 84.096 61.5244C84.666 61.5943 85.2048 61.7605 85.7272 62.021L85.5834 63.1846C85.1144 62.8121 84.6569 62.5969 84.2251 62.5413C83.736 62.4807 83.4134 62.6624 83.2534 63.0809C83.235 63.2427 83.2875 63.3876 83.4194 63.5221C83.4857 63.587 83.5529 63.6471 83.6209 63.7026C83.6897 63.7534 83.7812 63.8129 83.8869 63.8749L84.5014 64.2193C84.6321 64.3051 84.7666 64.3963 84.8901 64.4954C85.0183 64.5953 85.141 64.699 85.2582 64.8067C85.4838 65.0156 85.6645 65.2605 85.7954 65.5403C85.9263 65.8201 85.9746 66.1293 85.9315 66.4614L85.8939 66.678C85.7886 67.1449 85.5755 67.5057 85.2603 67.7566C84.9451 68.0075 84.5864 68.1733 84.1757 68.2475C83.7651 68.3218 83.3367 68.3299 82.8861 68.271C82.7008 68.2486 82.536 68.22 82.3916 68.1852C82.2472 68.1504 82.0574 68.0981 81.8324 68.0251C81.4796 67.9056 81.1943 67.7882 80.983 67.6642Z" fill="white"/>
<path d="M86.0974 67.6308L86.6882 62.8579C86.7074 62.6914 86.7045 62.5405 86.6786 62.4099C86.6536 62.2746 86.5752 62.1397 86.4433 62.0052L86.4465 61.9864L87.7051 62.1418L87.7805 62.1549L87.8378 62.16C87.9037 62.1714 87.9666 62.1726 88.0192 62.1769C88.0765 62.182 88.1253 62.1808 88.1701 62.174C88.2872 62.1701 88.4045 62.1371 88.522 62.075L88.5597 62.0815L88.2607 64.4746C88.4171 64.3563 88.6054 64.2774 88.8399 64.2404C89.0696 64.2027 89.3038 64.1949 89.5362 64.2255C90.0583 64.2919 90.4642 64.469 90.7529 64.7617C91.0417 65.0544 91.1579 65.419 91.1063 65.8564L90.8154 68.2024C90.7591 68.6389 90.8513 68.946 91.0921 69.1237L91.0856 69.1613L88.5928 68.8499L88.5993 68.8122C88.75 68.7268 88.8591 68.6293 88.9219 68.5189C88.9847 68.4085 89.0336 68.2666 89.0552 68.0861L89.3236 65.9253C89.346 65.74 89.311 65.5787 89.2247 65.4327C89.1385 65.2868 88.9835 65.2017 88.7699 65.1743C88.5846 65.1518 88.4366 65.1941 88.3165 65.2993C88.1963 65.4046 88.1261 65.5574 88.1029 65.7474L87.847 67.8084C87.822 68.0078 87.8209 68.1823 87.8395 68.3262C87.8638 68.4662 87.9414 68.6058 88.0733 68.7403L88.0668 68.778L85.6351 68.4772L85.6417 68.4395C85.7987 68.3455 85.9055 68.233 85.9669 68.103C86.0283 67.973 86.0655 67.8145 86.0927 67.63L86.0974 67.6308Z" fill="white"/>
<path d="M91.371 66.7427C91.3967 66.5385 91.4538 66.3495 91.5383 66.1702C91.6228 65.9908 91.7364 65.8116 91.8735 65.6365C92.1318 65.3223 92.4681 65.0896 92.8824 64.9384C93.2968 64.7872 93.7599 64.7463 94.2726 64.811C94.8709 64.8858 95.3482 65.0705 95.7101 65.3613C96.0719 65.6522 96.3171 66.0003 96.4503 66.4067C96.5788 66.8123 96.6193 67.2219 96.567 67.6349C96.5378 67.887 96.4695 68.1128 96.3668 68.3133C96.2641 68.5138 96.13 68.6991 95.9646 68.8693C95.6576 69.1847 95.2908 69.3975 94.8688 69.5087C94.4469 69.6198 94.0286 69.6539 93.6157 69.6016C93.1218 69.5401 92.693 69.3832 92.3246 69.1301C91.9562 68.8769 91.6881 68.549 91.5219 68.1369C91.3549 67.7295 91.3054 67.2601 91.3671 66.7371L91.371 66.7427ZM93.0577 67.0306C93.0014 67.4671 93.0381 67.8422 93.1633 68.155C93.2885 68.4678 93.5238 68.6494 93.8756 68.691C94.1608 68.6969 94.379 68.6135 94.5303 68.4408C94.6815 68.2682 94.7777 67.9938 94.8234 67.6185C94.968 66.4502 94.7309 65.8317 94.1138 65.7537C93.7338 65.7072 93.473 65.8123 93.3361 66.0699C93.1992 66.3275 93.1043 66.6506 93.0586 67.0259L93.0577 67.0306Z" fill="white"/>
<path opacity="0.4" d="M99.2229 55.7439C101.192 56.0856 103.065 54.7666 103.407 52.7977C103.748 50.8289 102.429 48.9557 100.461 48.614C98.4917 48.2722 96.6186 49.5912 96.2768 51.5601C95.935 53.529 97.254 55.4021 99.2229 55.7439Z" fill="#ECECEC"/>
<path opacity="0.3" d="M99.0934 31.8764C99.0934 31.8764 94.99 35.9522 93.8764 36.7777C92.7629 37.6032 91.4689 38.8533 89.9529 38.4204C88.4368 37.9874 86.991 35.6407 86.991 35.6407L88.7446 33.112L91.3862 31.8678L94.0459 31.3301C94.751 31.2924 95.4506 31.2586 96.1549 31.2256C97.1357 31.4444 98.1118 31.6623 99.0934 31.8764Z" fill="#B2B2B2"/>
<path d="M91.5699 29.5096L86.392 23.9294L80.8916 28.4516L83.8452 32.3408L87.967 35.3412L90.3135 34.9869L91.1975 33.4715L91.5699 29.5096Z" fill="#CACACA"/>
<path d="M90.6934 29.7664C90.3782 29.3187 90.0204 28.8928 89.6546 28.4848C88.9713 27.7259 88.207 26.9868 87.29 26.5123C86.871 26.2989 86.4029 26.1448 85.9289 26.1644C85.455 26.184 85.0054 26.4262 84.6278 26.7293C84.2501 27.0325 83.9128 27.4105 83.7181 27.8618C83.5233 28.3131 83.4823 28.8008 83.5592 29.2799C83.655 29.8738 83.9083 30.4272 84.2168 30.9416C84.6349 31.6351 85.1682 32.2517 85.7325 32.8299C85.8971 32.9991 86.0673 33.1645 86.2383 33.3252C86.4585 33.5381 86.7643 33.1739 86.5441 32.9611C85.9483 32.3968 85.3835 31.7942 84.9078 31.1246C84.5645 30.643 84.2671 30.1208 84.1035 29.5539C84.0459 29.3547 84.0043 29.1195 83.9972 28.8805C83.9911 28.7485 83.9943 28.7296 84.0094 28.5867C84.0227 28.4823 84.0454 28.3795 84.0681 28.2767C84.0697 28.2673 84.0906 28.203 84.0818 28.2257C84.073 28.2485 84.0931 28.1889 84.1002 28.1756C84.1186 28.1254 84.1379 28.0705 84.161 28.0212C84.2017 27.9264 84.2518 27.8332 84.3106 27.7464C84.2844 27.7855 84.3304 27.7159 84.3367 27.7073C84.3503 27.6853 84.3629 27.6681 84.3812 27.647C84.4129 27.604 84.4446 27.561 84.481 27.5188C84.5547 27.4298 84.637 27.347 84.7193 27.2643C84.7311 27.2518 84.7422 27.244 84.7541 27.2315C84.777 27.2112 84.7999 27.191 84.8275 27.1715C84.8734 27.1309 84.9231 27.0959 84.9682 27.0601C85.074 26.9814 85.179 26.9075 85.2926 26.8399C85.3147 26.8243 85.3415 26.8096 85.3628 26.7987C85.3731 26.7956 85.3794 26.787 85.3896 26.7839C85.3518 26.8065 85.3849 26.7831 85.3896 26.7839C85.4378 26.7583 85.485 26.7374 85.537 26.7174C85.5788 26.7003 85.6245 26.6889 85.6701 26.6774C85.6803 26.6743 85.6953 26.6721 85.7055 26.669C85.6599 26.6805 85.6961 26.6673 85.7055 26.669C85.7307 26.6637 85.7559 26.6583 85.7811 26.653C85.8763 26.6356 85.9737 26.6331 86.0751 26.6361C86.1089 26.6371 86.0468 26.6312 86.108 26.6418C86.1316 26.6459 86.1551 26.65 86.1795 26.6494C86.2313 26.6584 86.2878 26.6682 86.3396 26.6772C86.3867 26.6854 86.4338 26.6935 86.4801 26.7064C86.5036 26.7105 86.5272 26.7146 86.5499 26.7234C86.564 26.7258 86.5782 26.7283 86.5915 26.7355C86.5585 26.7297 86.5821 26.7338 86.6009 26.7371C86.7059 26.7747 86.8063 26.8115 86.905 26.8578C87.0131 26.9057 87.1157 26.9574 87.2175 27.0139C87.266 27.0417 87.3098 27.0687 87.3583 27.0966C87.4194 27.1363 87.446 27.1506 87.4851 27.1768C87.6901 27.3094 87.8824 27.4592 88.0739 27.6137C88.456 27.9275 88.8089 28.2701 89.1444 28.6291C89.1608 28.6465 89.181 28.6694 89.1974 28.6868C89.2302 28.7216 89.1974 28.6868 89.2263 28.7161C89.2669 28.762 89.3035 28.8023 89.3441 28.8481C89.4127 28.928 89.4821 29.0031 89.5507 29.0829C89.6716 29.2252 89.7877 29.3666 89.903 29.5128C90.0347 29.6763 90.1554 29.8476 90.2863 30.0159C90.2902 30.0214 90.2979 30.0325 90.3018 30.038C90.477 30.2867 90.8638 30.0143 90.6887 29.7656L90.6934 29.7664Z" fill="white"/>
<path d="M86.4746 28.1314C86.5373 28.1616 86.5991 28.1966 86.6618 28.2269C86.7322 28.2682 86.8035 28.3049 86.8739 28.3462C86.9178 28.3732 86.9577 28.3947 87.0015 28.4217C87.0673 28.4622 87.0539 28.4551 87.1283 28.5019C87.672 28.8631 88.1768 29.2806 88.6286 29.752C88.9618 30.0961 89.2564 30.4674 89.528 30.859C89.7023 31.1124 90.0892 30.84 89.9149 30.5866C89.1492 29.464 88.1129 28.5031 86.9293 27.8319C86.8502 27.7842 86.7656 27.7404 86.6803 27.7013C86.4022 27.5706 86.2013 28.0014 86.4793 28.1322L86.4746 28.1314Z" fill="white"/>
<path d="M84.7957 28.6138C84.6278 28.7981 84.545 29.0797 84.5277 29.3192C84.4742 30.0182 84.8407 30.6737 85.2678 31.2038C85.7354 31.7798 86.3002 32.2708 86.8882 32.7125C87.1329 32.8957 87.4387 32.5315 87.194 32.3484C86.6873 31.9693 86.1958 31.559 85.7794 31.0792C85.6336 30.9132 85.4988 30.7394 85.3806 30.554C85.2655 30.3787 85.2182 30.288 85.1423 30.1099C85.1153 30.0422 85.0883 29.9744 85.0667 29.9028C85.0575 29.8721 85.0491 29.8366 85.0399 29.8059C85.0223 29.7398 85.0368 29.7957 85.0399 29.8059C85.0337 29.7855 85.0323 29.7658 85.0261 29.7453C85.0065 29.6352 84.9962 29.5267 84.9953 29.4198C84.9965 29.3569 84.9855 29.4763 84.9986 29.401C85.0027 29.3774 85.006 29.3586 85.01 29.335C85.0174 29.2927 85.0256 29.2456 85.0329 29.2032C85.0362 29.1843 85.0395 29.1655 85.0475 29.1475C85.0219 29.211 85.0564 29.0957 85.0475 29.1475C85.0571 29.12 85.0675 29.0879 85.0818 29.0613C85.0961 29.0347 85.1105 29.008 85.1248 28.9814C85.1264 28.972 85.1383 28.9595 85.1446 28.9509C85.1463 28.9415 85.1002 29.0111 85.1311 28.9728C85.1438 28.9556 85.151 28.9423 85.1684 28.9259C85.3774 28.7002 85.0132 28.3945 84.8043 28.6201L84.7957 28.6138Z" fill="white"/>
<path d="M89.2838 31.0484C89.0122 30.6568 88.7027 30.2877 88.3742 29.9445C88.1237 29.6827 87.8566 29.4326 87.5562 29.2349C87.2558 29.0372 86.9472 28.8866 86.5967 28.8937C86.324 28.8997 86.0394 29.0298 85.9261 29.2915C85.8207 29.5352 85.8747 29.8114 85.9445 30.0515C86.1298 30.661 86.508 31.2214 86.8699 31.7354C87.1307 32.1057 87.4025 32.4682 87.6925 32.8096C87.7775 32.9069 87.9116 32.9447 88.0221 32.8669C88.1216 32.7968 88.1644 32.6344 88.0794 32.5372C87.8618 32.2812 87.6562 32.0126 87.4561 31.7401C87.2715 31.4898 87.0972 31.2364 86.9292 30.9744C86.7543 30.6966 86.6269 30.4804 86.5054 30.2022C86.4535 30.0816 86.4064 29.9619 86.3703 29.8343C86.3681 29.8194 86.365 29.8092 86.358 29.7934C86.3496 29.758 86.3679 29.8485 86.358 29.7934C86.3527 29.7682 86.3474 29.743 86.3421 29.7178C86.3322 29.6628 86.331 29.614 86.3305 29.5606C86.3363 29.6392 86.3289 29.57 86.333 29.5465C86.3363 29.5276 86.3403 29.5041 86.3436 29.4853C86.351 29.4429 86.326 29.5307 86.3395 29.5088C86.3412 29.4994 86.3428 29.49 86.3491 29.4814C86.35 29.4767 86.3571 29.4633 86.3635 29.4547C86.3763 29.4085 86.3295 29.4828 86.3618 29.4642C86.3729 29.4564 86.3919 29.4306 86.3983 29.422C86.3649 29.4744 86.3809 29.4384 86.4085 29.4189C86.414 29.415 86.4243 29.4119 86.4298 29.408C86.4638 29.38 86.3786 29.4234 86.4243 29.4119C86.455 29.4027 86.4912 29.3896 86.5219 29.3804C86.4613 29.3941 86.5518 29.3759 86.5667 29.3736C86.5966 29.3691 86.6257 29.3693 86.6548 29.3695C86.5919 29.3683 86.683 29.3744 86.7019 29.3777C86.7396 29.3842 86.7772 29.3907 86.8149 29.3973C86.829 29.3997 86.8384 29.4014 86.8526 29.4038C86.7969 29.3893 86.862 29.4055 86.8667 29.4063C86.8989 29.4167 86.9302 29.4318 86.9623 29.4423C87.0344 29.4742 87.1057 29.5108 87.1761 29.5522C87.2513 29.5943 87.2552 29.5998 87.3373 29.6577C87.4108 29.7093 87.4788 29.7648 87.5515 29.8211C87.6875 29.932 87.8171 30.0515 87.9412 30.1749C88.2761 30.5096 88.6067 30.8969 88.8891 31.3097C89.0635 31.5631 89.4511 31.286 89.276 31.0373L89.2838 31.0484Z" fill="white"/>
<path d="M86.9115 30.4094C87.3222 30.9222 87.7328 31.4349 88.1388 31.9469C88.1941 32.0195 88.2549 32.0883 88.3102 32.161C88.3897 32.2621 88.5293 32.296 88.6399 32.2182C88.7394 32.1481 88.7766 31.9897 88.6971 31.8886C88.2864 31.3758 87.8758 30.8631 87.4698 30.3511L87.2984 30.137C87.2189 30.0359 87.0792 30.002 86.9687 30.0798C86.8692 30.1498 86.832 30.3083 86.9115 30.4094Z" fill="white"/>
<path d="M88.6919 37.4991C90.1892 38.739 91.7673 38.1155 98.4889 31.365L94.1323 26.3639C94.1323 26.3639 87.6849 32.1772 86.2125 32.4989C86.2125 32.4989 84.4524 33.1927 83.853 32.3416L88.6919 37.4991Z" fill="#D2D2D2"/>
<path d="M94.6868 27.4527C94.4874 27.651 94.285 27.839 94.0817 28.0317C93.9773 28.13 93.873 28.2283 93.7686 28.3266C93.7109 28.3797 93.6531 28.4327 93.5954 28.4858C93.5788 28.4975 93.5661 28.5147 93.5496 28.5263C93.5377 28.5388 93.5037 28.5669 93.533 28.538C93.4982 28.5708 93.4634 28.6035 93.4286 28.6363C93.1408 28.8968 92.8538 29.1527 92.5622 29.4076C91.8705 30.0104 91.1617 30.6005 90.4342 31.1583C89.7067 31.716 88.9258 32.2742 88.1195 32.7552C87.751 32.9774 87.4356 33.1458 87.0454 33.3255C86.7191 33.4726 86.3866 33.5992 86.0371 33.6841C86.0222 33.6864 86.067 33.6796 86.0222 33.6864C86.0025 33.6878 85.9868 33.6948 85.9671 33.6962C85.927 33.7038 85.8916 33.7122 85.8515 33.7198C85.7264 33.7417 85.6259 33.8456 85.6368 33.9784C85.6493 34.1019 85.7703 34.2151 85.8954 34.1931C86.6601 34.0639 87.3751 33.7175 88.0464 33.344C88.8627 32.889 89.6293 32.3575 90.3765 31.7983C91.1236 31.2391 91.8584 30.639 92.5722 30.0206C93.1484 29.524 93.7176 29.0115 94.2735 28.4919C94.5281 28.2547 94.8008 28.0255 95.0343 27.7702C95.0343 27.7702 95.0407 27.7616 95.0462 27.7577C95.1395 27.6671 95.11 27.5019 95.017 27.4227C94.9115 27.3316 94.7754 27.3614 94.6821 27.4519L94.6868 27.4527Z" fill="white"/>
<path d="M78.3895 40.4892C78.4778 40.456 78.5691 40.4331 78.6604 40.4101C78.7722 40.381 78.5392 40.4376 78.5848 40.4261C78.6053 40.42 78.6297 40.4193 78.6502 40.4132C78.7052 40.4033 78.7556 40.3927 78.8098 40.3875C78.9239 40.3734 79.0379 40.3592 79.1542 40.36C79.2124 40.3604 79.316 40.3784 79.0969 40.3549C79.1251 40.3598 79.1542 40.36 79.1786 40.3594C79.2398 40.37 79.3018 40.3759 79.3622 40.3913C79.3717 40.3929 79.4423 40.4052 79.4415 40.4099C79.4398 40.4193 79.2769 40.3522 79.3497 40.3794C79.3639 40.3818 79.378 40.3843 79.3905 40.3962C79.4226 40.4066 79.5465 40.4475 79.5605 40.479C79.5635 40.4893 79.4181 40.3767 79.4814 40.4313C79.49 40.4377 79.5025 40.4496 79.5158 40.4567C79.5369 40.4749 79.558 40.4932 79.5791 40.5114C79.6713 40.5953 79.4996 40.4103 79.551 40.4774C79.5744 40.5106 79.5986 40.539 79.6172 40.5713C79.625 40.5824 79.632 40.5982 79.6444 40.61C79.6903 40.6811 79.6025 40.5445 79.608 40.5406C79.608 40.5406 79.6459 40.6297 79.6498 40.6352C79.6629 40.6715 79.6752 40.7124 79.6875 40.7533C79.6928 40.7785 79.7104 40.8446 79.6883 40.7486C79.6631 40.6424 79.6852 40.7384 79.6859 40.7628C79.7222 40.9728 79.7294 41.1827 79.7507 41.395C79.7793 41.7056 80.0863 41.9772 80.4049 41.9306C80.7234 41.884 80.9744 41.6122 80.9405 41.2765C80.9197 41.0885 80.9092 40.8975 80.8838 40.7087C80.8286 40.2722 80.6421 39.8372 80.2983 39.5544C79.7965 39.1471 79.0967 39.0984 78.4868 39.2302C78.3105 39.2676 78.1343 39.3049 77.9633 39.3674C77.6726 39.477 77.4887 39.838 77.6116 40.1359C77.7346 40.4337 78.069 40.6034 78.3801 40.4876L78.3895 40.4892Z" fill="#C1C1C1"/>
<path d="M96.3955 43.5812C96.4352 43.5202 96.2971 43.7291 96.3233 43.69C96.336 43.6728 96.344 43.6548 96.3558 43.6423C96.3955 43.5812 96.4391 43.5257 96.4827 43.4702C96.5445 43.3936 96.6055 43.3218 96.6759 43.2515C96.6941 43.2304 96.7115 43.214 96.7345 43.1938C96.7574 43.1735 96.8388 43.0955 96.7463 43.1813C96.6593 43.2632 96.7345 43.1938 96.7519 43.1774C96.7803 43.1532 96.8079 43.1337 96.8364 43.1096C96.8806 43.0784 96.9248 43.0473 96.969 43.0162C96.9959 43.0014 97.0227 42.9867 97.0448 42.9711C97.0945 42.9361 96.9422 43.0309 96.9596 43.0145C96.9715 43.002 97.0022 42.9928 97.018 42.9859C97.07 42.9658 97.1172 42.9449 97.174 42.9256C97.1889 42.9234 97.2047 42.9164 97.2149 42.9133C97.2763 42.8949 97.0646 42.9406 97.1291 42.9324C97.1637 42.9287 97.1944 42.9195 97.2282 42.9205C97.2329 42.9213 97.3162 42.9164 97.3162 42.9164C97.3154 42.9211 97.1443 42.9011 97.2243 42.915C97.2384 42.9174 97.2526 42.9199 97.2714 42.9231C97.2997 42.928 97.3232 42.9321 97.3515 42.937C97.5005 42.9726 97.2472 42.8947 97.3287 42.9282C97.3922 42.9538 97.4532 42.9935 97.5206 43.0246C97.5206 43.0246 97.3908 42.9341 97.4635 42.9904C97.4807 43.0031 97.4979 43.0158 97.5104 43.0277C97.5487 43.0586 97.5823 43.0887 97.6206 43.1196C97.7705 43.262 97.9077 43.4217 98.0466 43.5719C98.1449 43.6763 98.3552 43.7225 98.488 43.7116C98.6209 43.7007 98.7951 43.6194 98.8878 43.5045C98.9822 43.3802 99.0485 43.2219 99.0275 43.063C99.0066 42.9042 98.9304 42.7842 98.8204 42.6632C98.6893 42.524 98.5638 42.381 98.4272 42.2457C98.1048 41.9229 97.6793 41.7472 97.2291 41.7418C96.595 41.7336 96.0278 42.1785 95.6373 42.6395C95.5208 42.7793 95.4177 42.9264 95.3223 43.0845C95.2476 43.2073 95.2549 43.4172 95.3051 43.5472C95.3553 43.6772 95.4753 43.8241 95.6117 43.8769C95.9377 44.0111 96.2324 43.878 96.408 43.5931L96.3955 43.5812Z" fill="#C1C1C1"/>
<path d="M79.7609 44.0061C79.384 43.4944 78.7126 43.3099 78.1565 43.3832C77.3567 43.4918 76.9359 44.127 76.8358 44.2843C76.4468 44.8765 76.2033 45.9161 76.8051 46.6415C77.1659 47.0777 77.7966 47.3569 78.4151 47.2314C79.11 47.0852 79.4542 46.4998 79.6211 46.2086C79.7308 46.0239 80.3971 44.8685 79.7656 44.0069L79.7609 44.0061Z" fill="#C1C1C1"/>
<path d="M78.6376 44.1856C78.3362 44.1333 78.0759 44.6266 78.0346 44.6971C77.971 44.8121 77.725 45.2788 77.9567 45.5373C78.115 45.7152 78.4207 45.7149 78.6264 45.6196C78.9851 45.4539 79.014 45.0077 79.0168 44.9355C79.0298 44.637 78.8927 44.2251 78.6329 44.1848L78.6376 44.1856Z" fill="white"/>
<path d="M77.4562 45.3827C77.3055 45.3565 77.1758 45.6008 77.1543 45.6408C77.1249 45.6987 76.9968 45.9336 77.1154 46.0609C77.1926 46.1471 77.3474 46.1497 77.453 46.1001C77.6327 46.0149 77.6468 45.7942 77.6486 45.7557C77.6551 45.6064 77.5842 45.4001 77.4571 45.378L77.4562 45.3827Z" fill="white"/>
<path d="M77.8837 46.1552C77.733 46.129 77.6033 46.3733 77.5818 46.4132C77.5524 46.4712 77.4243 46.7061 77.5428 46.8334C77.6201 46.9195 77.7748 46.9222 77.8805 46.8726C78.0602 46.7873 78.0743 46.5666 78.0761 46.5281C78.0826 46.3789 78.0117 46.1725 77.8845 46.1504L77.8837 46.1552Z" fill="white"/>
<path d="M96.1476 46.2682C95.6445 46.2876 95.3121 46.6374 95.0383 46.9294C94.8 47.184 94.4676 47.5338 94.4246 48.0891C94.3653 48.8501 94.8922 49.3636 94.9469 49.412C95.6138 50.0419 96.5008 49.8224 96.5921 49.7994C96.7393 49.7619 97.1613 49.6508 97.4374 49.2621C97.6301 48.9899 97.6579 48.7182 97.6801 48.4504C97.7083 48.1206 97.7619 47.5041 97.357 46.9584C97.2822 46.8581 96.8267 46.2405 96.1428 46.2673L96.1476 46.2682Z" fill="#C1C1C1"/>
<path d="M96.3239 47.2547C96.078 47.246 95.883 47.7264 95.8241 47.9539C95.7797 48.1257 95.708 48.3994 95.8579 48.5419C95.9953 48.6725 96.2369 48.6222 96.3685 48.5626C96.6262 48.4473 96.7003 48.1885 96.7132 48.1422C96.8242 47.7539 96.5651 47.2626 96.3192 47.2539L96.3239 47.2547Z" fill="white"/>
<path d="M95.2773 48.1901C95.1956 48.1857 95.134 48.3448 95.1115 48.4185C95.097 48.4742 95.0713 48.5667 95.122 48.6095C95.1681 48.6515 95.2492 48.6316 95.291 48.6146C95.3753 48.5758 95.3994 48.4927 95.4066 48.4794C95.4436 48.35 95.3598 48.1899 95.2781 48.1854L95.2773 48.1901Z" fill="white"/>
<path d="M95.7269 48.8044C95.6452 48.7999 95.5836 48.959 95.5611 49.0327C95.5466 49.0884 95.5208 49.181 95.5716 49.2238C95.6177 49.2657 95.6988 49.2458 95.7405 49.2288C95.8249 49.1901 95.849 49.107 95.8562 49.0936C95.8932 48.9642 95.8094 48.8042 95.7277 48.7997L95.7269 48.8044Z" fill="white"/>
<path d="M72.4044 49.8566C72.3748 49.3567 72.3459 48.852 72.3163 48.352C72.3136 48.2836 72.3071 48.2097 72.3044 48.1414C72.2976 47.9849 72.1319 47.8494 71.9777 47.8712C71.8133 47.896 71.6977 48.0312 71.7076 48.1978C71.7372 48.6978 71.766 49.2025 71.7957 49.7025C71.7983 49.7708 71.8049 49.8448 71.8076 49.9131C71.8144 50.0696 71.9801 50.2051 72.1343 50.1833C72.2987 50.1585 72.4143 50.0233 72.4044 49.8566Z" fill="white"/>
<path d="M98.4651 52.8023C98.7968 52.4282 99.1333 52.0548 99.4659 51.6759C99.5142 51.6212 99.5617 51.5713 99.61 51.5166C99.7129 51.3986 99.7002 51.1927 99.5767 51.0936C99.4532 50.9945 99.2669 51.0059 99.1537 51.1269C98.8219 51.5011 98.4855 51.8744 98.1529 52.2533C98.1046 52.308 98.0571 52.358 98.0088 52.4126C97.9058 52.5306 97.9186 52.7366 98.0421 52.8356C98.1656 52.9347 98.3519 52.9234 98.4651 52.8023Z" fill="white"/>
<path d="M99.3368 53.1138C99.6685 52.7397 100.005 52.3663 100.338 51.9875C100.386 51.9328 100.433 51.8828 100.482 51.8281C100.585 51.7102 100.572 51.5042 100.448 51.4051C100.325 51.3061 100.139 51.3174 100.025 51.4384C99.6936 51.8126 99.3572 52.1859 99.0246 52.5648C98.9763 52.6195 98.9288 52.6695 98.8805 52.7242C98.7775 52.8421 98.7903 53.0481 98.9138 53.1472C99.0373 53.2462 99.2236 53.2349 99.3368 53.1138Z" fill="white"/>
<path d="M100.132 53.8355C100.463 53.4614 100.8 53.088 101.133 52.7091C101.181 52.6544 101.228 52.6045 101.277 52.5498C101.38 52.4318 101.367 52.2259 101.243 52.1268C101.12 52.0278 100.934 52.0391 100.82 52.1601C100.489 52.5343 100.152 52.9076 99.8195 53.2865C99.7712 53.3412 99.7237 53.3912 99.6754 53.4458C99.5725 53.5638 99.5852 53.7698 99.7087 53.8688C99.8322 53.9679 100.019 53.9566 100.132 53.8355Z" fill="white"/>
<path d="M73.4077 49.6154C73.3781 49.1155 73.3492 48.6108 73.3196 48.1108C73.3169 48.0424 73.3103 47.9685 73.3077 47.9001C73.3009 47.7437 73.1352 47.6082 72.981 47.63C72.8166 47.6548 72.701 47.79 72.7109 47.9566C72.7405 48.4566 72.7693 48.9613 72.799 49.4613C72.8016 49.5296 72.8082 49.6035 72.8109 49.6719C72.8177 49.8284 72.9834 49.9638 73.1376 49.9421C73.302 49.9173 73.4176 49.7821 73.4077 49.6154Z" fill="white"/>
<path d="M74.4493 49.3625C74.4197 48.8625 74.3909 48.3579 74.3612 47.8579C74.3585 47.7895 74.352 47.7156 74.3493 47.6472C74.3425 47.4908 74.1768 47.3553 74.0226 47.3771C73.8582 47.4019 73.7426 47.537 73.7525 47.7037C73.7821 48.2037 73.8109 48.7084 73.8406 49.2083C73.8433 49.2767 73.8498 49.3506 73.8525 49.419C73.8593 49.5754 74.025 49.7109 74.1792 49.6892C74.3436 49.6643 74.4592 49.5292 74.4493 49.3625Z" fill="white"/>
</g>
<path d="M56.7441 53.901C56.7441 53.901 58.2632 52.2485 59.3705 52.5765C60.4779 52.9046 60.6934 54.0384 60.6011 54.5706C60.5087 55.1027 60.3176 56.9858 59.4013 56.7588C58.485 56.5318 57.688 55.9811 57.9035 55.1308C58.1191 54.2804 56.7488 53.9018 56.7488 53.9018L56.7441 53.901Z" fill="#FAFAFA"/>
<path d="M60.2468 53.1843C60.2468 53.1843 61.7596 52.3505 62.4128 52.5561C63.066 52.7616 63.3026 53.215 63.3079 53.7156C63.3132 54.2162 63.1579 57.2067 61.6717 57.3563C60.1856 57.5058 61.0189 54.8852 60.5561 54.868C60.0934 54.8507 60.2468 53.1843 60.2468 53.1843Z" fill="#FAFAFA"/>
<path d="M62.7585 53.9912C62.7585 53.9912 64.5422 53.1899 65.2907 53.6012C66.0391 54.0125 66.5839 54.5631 66.3326 55.48C66.0812 56.3969 65.7033 57.7915 63.6684 57.1618C62.2893 56.6944 63.6707 54.2417 62.7585 53.9912Z" fill="#FAFAFA"/>
<path d="M68.3337 56.0447C68.3337 56.0447 68.4373 53.967 66.3908 55.0525C64.3443 56.1381 65.3421 56.1755 65.3421 56.1755L68.2242 56.6758L68.3337 56.0447Z" fill="#FAFAFA"/>
<path d="M117.468 64.1596C117.468 64.1596 116.595 62.0917 115.442 62.0274C114.289 61.9631 113.704 62.9579 113.611 63.49C113.519 64.0222 113.064 65.8595 114.003 65.9546C114.943 66.0497 115.879 65.7998 115.962 64.9266C116.046 64.0533 117.464 64.1587 117.464 64.1587L117.468 64.1596Z" fill="#FAFAFA"/>
<path d="M114.413 62.3041C114.413 62.3041 113.27 61.0093 112.585 60.9827C111.901 60.9561 111.525 61.3032 111.352 61.7728C111.178 62.2423 110.316 65.1102 111.665 65.7518C113.014 66.3935 113.113 63.6454 113.554 63.7851C113.996 63.9248 114.413 62.3041 114.413 62.3041Z" fill="#FAFAFA"/>
<path d="M111.786 62.2118C111.786 62.2118 110.377 60.8562 109.533 60.9912C108.69 61.1262 107.992 61.4609 107.919 62.4089C107.847 63.3569 107.733 64.7973 109.861 64.8902C111.317 64.9149 110.843 62.1402 111.786 62.2118Z" fill="#FAFAFA"/>
<path d="M105.832 62.2654C105.832 62.2654 106.435 60.2743 107.996 61.986C109.557 63.6978 108.605 63.3967 108.605 63.3967L105.723 62.8964L105.832 62.2654Z" fill="#FAFAFA"/>
<path d="M89.2107 50.4042L84.457 49.579C82.6028 49.2572 80.9336 50.7981 81.9598 52.3756C82.722 53.5474 83.9643 54.5873 85.9133 54.9256C87.7705 55.248 89.3075 54.7663 90.4939 54.0024C92.1697 52.9234 91.1744 50.7451 89.2107 50.4042Z" fill="#D6D6D6"/>
</svg>
