<svg xmlns="http://www.w3.org/2000/svg" xmlns:xlink="http://www.w3.org/1999/xlink" width="24" height="24" viewBox="0 0 24 24"><defs><clipPath id="a"><rect width="24" height="24" transform="translate(4929 872)" fill="#fff"/></clipPath></defs><g transform="translate(-4929 -872)" clip-path="url(#a)"><path d="M18.75,21H14.113a24.983,24.983,0,0,0,2.2-2.227c2.574-2.96,3.938-6.08,3.938-9.023a8.25,8.25,0,1,0-16.5,0c0,2.944,1.36,6.064,3.938,9.023A24.991,24.991,0,0,0,9.887,21H5.25a.75.75,0,0,0,0,1.5h13.5a.75.75,0,1,0,0-1.5ZM5.25,9.75a6.75,6.75,0,1,1,13.5,0c0,5.365-5.2,9.844-6.75,11.063C10.45,19.594,5.25,15.115,5.25,9.75Zm10.5,0a3.75,3.75,0,1,0-1.1,2.652A3.75,3.75,0,0,0,15.75,9.75Zm-6,0a2.25,2.25,0,1,1,.659,1.591A2.25,2.25,0,0,1,9.75,9.75Z" transform="translate(4929.25 872.5)" fill="#fff"/></g></svg>