<svg width="17" height="16" viewBox="0 0 17 16" fill="none" xmlns="http://www.w3.org/2000/svg">
<path d="M11.3473 9.99993C11.0138 9.99982 10.6836 10.0666 10.3764 10.1964C10.0691 10.3262 9.79102 10.5164 9.55857 10.7556L6.67732 8.90368C6.90396 8.32249 6.90396 7.67736 6.67732 7.09618L9.55857 5.2443C9.99135 5.68763 10.5733 5.95446 11.1917 5.99307C11.81 6.03168 12.4207 5.83931 12.9052 5.45327C13.3898 5.06722 13.7138 4.515 13.8143 3.90367C13.9149 3.29234 13.7848 2.66544 13.4495 2.14453C13.1141 1.62362 12.5972 1.24581 11.999 1.08433C11.4009 0.922859 10.7641 0.989233 10.2122 1.27059C9.66017 1.55194 9.23233 2.02823 9.01157 2.60711C8.79081 3.18599 8.79285 3.82622 9.01732 4.40368L6.13607 6.25555C5.78911 5.89935 5.34381 5.65471 4.85709 5.55289C4.37037 5.45108 3.86435 5.49672 3.40371 5.68399C2.94307 5.87126 2.54873 6.19164 2.27112 6.60418C1.9935 7.01672 1.84521 7.50268 1.84521 7.99993C1.84521 8.49718 1.9935 8.98314 2.27112 9.39568C2.54873 9.80822 2.94307 10.1286 3.40371 10.3159C3.86435 10.5031 4.37037 10.5488 4.85709 10.447C5.34381 10.3452 5.78911 10.1005 6.13607 9.7443L9.01732 11.5962C8.8243 12.094 8.79573 12.6406 8.93581 13.1558C9.07589 13.671 9.37725 14.1279 9.79576 14.4595C10.2143 14.791 10.7279 14.9799 11.2616 14.9984C11.7952 15.0169 12.3207 14.8641 12.7612 14.5624C13.2017 14.2606 13.534 13.8257 13.7094 13.3214C13.8849 12.8171 13.8943 12.2699 13.7362 11.7599C13.5782 11.2499 13.261 10.8039 12.8311 10.4872C12.4012 10.1705 11.8813 9.99973 11.3473 9.99993ZM11.3473 1.99993C11.644 1.99993 11.934 2.0879 12.1807 2.25272C12.4273 2.41754 12.6196 2.65181 12.7331 2.9259C12.8467 3.19999 12.8764 3.50159 12.8185 3.79256C12.7606 4.08353 12.6178 4.35081 12.408 4.56059C12.1982 4.77037 11.9309 4.91323 11.64 4.97111C11.349 5.02898 11.0474 4.99928 10.7733 4.88575C10.4992 4.77222 10.2649 4.57996 10.1001 4.33328C9.93529 4.08661 9.84732 3.7966 9.84732 3.49993C9.84732 3.1021 10.0054 2.72057 10.2867 2.43927C10.568 2.15796 10.9495 1.99993 11.3473 1.99993ZM4.34732 9.49993C4.05065 9.49993 3.76064 9.41196 3.51396 9.24713C3.26729 9.08231 3.07503 8.84804 2.9615 8.57395C2.84797 8.29986 2.81826 7.99826 2.87614 7.70729C2.93402 7.41632 3.07688 7.14905 3.28666 6.93927C3.49644 6.72949 3.76371 6.58663 4.05468 6.52875C4.34565 6.47087 4.64725 6.50058 4.92134 6.61411C5.19543 6.72764 5.4297 6.9199 5.59452 7.16657C5.75934 7.41325 5.84732 7.70326 5.84732 7.99993C5.84732 8.39775 5.68928 8.77928 5.40798 9.06059C5.12667 9.34189 4.74514 9.49993 4.34732 9.49993ZM11.3473 13.9999C11.0506 13.9999 10.7606 13.912 10.514 13.7471C10.2673 13.5823 10.075 13.348 9.9615 13.074C9.84797 12.7999 9.81826 12.4983 9.87614 12.2073C9.93402 11.9163 10.0769 11.649 10.2867 11.4393C10.4964 11.2295 10.7637 11.0866 11.0547 11.0288C11.3457 10.9709 11.6473 11.0006 11.9213 11.1141C12.1954 11.2276 12.4297 11.4199 12.5945 11.6666C12.7593 11.9132 12.8473 12.2033 12.8473 12.4999C12.8473 12.8978 12.6893 13.2793 12.408 13.5606C12.1267 13.8419 11.7451 13.9999 11.3473 13.9999Z" fill="white"/>
</svg>
