<svg width="16" height="16" viewBox="0 0 16 16" fill="none" xmlns="http://www.w3.org/2000/svg">
<path d="M7.35342 10.6463C7.39991 10.6927 7.43679 10.7479 7.46195 10.8086C7.48711 10.8693 7.50006 10.9343 7.50006 11C7.50006 11.0657 7.48711 11.1308 7.46195 11.1915C7.43679 11.2522 7.39991 11.3073 7.35342 11.3538L5.35342 13.3538C5.30698 13.4003 5.25184 13.4371 5.19114 13.4623C5.13044 13.4875 5.06538 13.5004 4.99967 13.5004C4.93396 13.5004 4.8689 13.4875 4.8082 13.4623C4.7475 13.4371 4.69235 13.4003 4.64592 13.3538L2.64592 11.3538C2.59946 11.3073 2.56261 11.2522 2.53747 11.1915C2.51233 11.1308 2.49939 11.0657 2.49939 11C2.49939 10.9343 2.51233 10.8693 2.53747 10.8086C2.56261 10.7479 2.59946 10.6927 2.64592 10.6463C2.73974 10.5525 2.86699 10.4997 2.99967 10.4997C3.06537 10.4997 3.13042 10.5127 3.19112 10.5378C3.25181 10.563 3.30696 10.5998 3.35342 10.6463L4.49967 11.7932V3.00003C4.49967 2.86742 4.55235 2.74024 4.64611 2.64647C4.73988 2.55271 4.86706 2.50003 4.99967 2.50003C5.13228 2.50003 5.25945 2.55271 5.35322 2.64647C5.44699 2.74024 5.49967 2.86742 5.49967 3.00003V11.7932L6.64592 10.6463C6.69235 10.5998 6.7475 10.5629 6.8082 10.5377C6.8689 10.5126 6.93396 10.4996 6.99967 10.4996C7.06538 10.4996 7.13044 10.5126 7.19114 10.5377C7.25184 10.5629 7.30698 10.5998 7.35342 10.6463ZM13.3534 4.64628L11.3534 2.64628C11.307 2.59979 11.2518 2.56291 11.1911 2.53775C11.1304 2.51259 11.0654 2.49963 10.9997 2.49963C10.934 2.49963 10.8689 2.51259 10.8082 2.53775C10.7475 2.56291 10.6924 2.59979 10.6459 2.64628L8.64592 4.64628C8.5521 4.7401 8.49939 4.86735 8.49939 5.00003C8.49939 5.13271 8.5521 5.25996 8.64592 5.35378C8.73974 5.4476 8.86699 5.50031 8.99967 5.50031C9.13235 5.50031 9.2596 5.4476 9.35342 5.35378L10.4997 4.2069V13C10.4997 13.1326 10.5523 13.2598 10.6461 13.3536C10.7399 13.4473 10.8671 13.5 10.9997 13.5C11.1323 13.5 11.2595 13.4473 11.3532 13.3536C11.447 13.2598 11.4997 13.1326 11.4997 13V4.2069L12.6459 5.35378C12.7397 5.4476 12.867 5.50031 12.9997 5.50031C13.1323 5.50031 13.2596 5.4476 13.3534 5.35378C13.4472 5.25996 13.4999 5.13271 13.4999 5.00003C13.4999 4.86735 13.4472 4.7401 13.3534 4.64628Z" fill="#BDBDBD"/>
</svg>
