<svg width="21" height="20" viewBox="0 0 21 20" fill="none" xmlns="http://www.w3.org/2000/svg">
<path d="M19.8305 9.14062L18.7367 6.40625C18.6439 6.17478 18.4836 5.97653 18.2768 5.83723C18.0699 5.69792 17.826 5.62399 17.5766 5.625H14.875V5C14.875 4.83424 14.8092 4.67527 14.6919 4.55806C14.5747 4.44085 14.4158 4.375 14.25 4.375H2.375C2.04348 4.375 1.72554 4.5067 1.49112 4.74112C1.2567 4.97554 1.125 5.29348 1.125 5.625V14.375C1.125 14.7065 1.2567 15.0245 1.49112 15.2589C1.72554 15.4933 2.04348 15.625 2.375 15.625H3.70312C3.84081 16.1628 4.15356 16.6394 4.59207 16.9798C5.03057 17.3202 5.56989 17.5049 6.125 17.5049C6.68011 17.5049 7.21943 17.3202 7.65793 16.9798C8.09644 16.6394 8.40919 16.1628 8.54688 15.625H12.4531C12.5908 16.1628 12.9036 16.6394 13.3421 16.9798C13.7806 17.3202 14.3199 17.5049 14.875 17.5049C15.4301 17.5049 15.9694 17.3202 16.4079 16.9798C16.8464 16.6394 17.1592 16.1628 17.2969 15.625H18.625C18.9565 15.625 19.2745 15.4933 19.5089 15.2589C19.7433 15.0245 19.875 14.7065 19.875 14.375V9.375C19.8751 9.29476 19.86 9.21524 19.8305 9.14062ZM6.125 16.25C5.87777 16.25 5.6361 16.1767 5.43054 16.0393C5.22498 15.902 5.06476 15.7068 4.97015 15.4784C4.87554 15.2499 4.85079 14.9986 4.89902 14.7561C4.94725 14.5137 5.0663 14.2909 5.24112 14.1161C5.41593 13.9413 5.63866 13.8222 5.88114 13.774C6.12361 13.7258 6.37495 13.7505 6.60335 13.8451C6.83176 13.9398 7.02699 14.1 7.16434 14.3055C7.30169 14.5111 7.375 14.7528 7.375 15C7.375 15.3315 7.2433 15.6495 7.00888 15.8839C6.77446 16.1183 6.45652 16.25 6.125 16.25ZM2.375 10.625V5.625H13.625V10.625H2.375ZM14.875 16.25C14.6278 16.25 14.3861 16.1767 14.1805 16.0393C13.975 15.902 13.8148 15.7068 13.7201 15.4784C13.6255 15.2499 13.6008 14.9986 13.649 14.7561C13.6972 14.5137 13.8163 14.2909 13.9911 14.1161C14.1659 13.9413 14.3887 13.8222 14.6311 13.774C14.8736 13.7258 15.1249 13.7505 15.3534 13.8451C15.5818 13.9398 15.777 14.1 15.9143 14.3055C16.0517 14.5111 16.125 14.7528 16.125 15C16.125 15.3315 15.9933 15.6495 15.7589 15.8839C15.5245 16.1183 15.2065 16.25 14.875 16.25ZM14.875 8.75V6.875H17.5766L18.3266 8.75H14.875Z" fill="#004A9C"/>
</svg>
