<svg width="21" height="20" viewBox="0 0 21 20" fill="none" xmlns="http://www.w3.org/2000/svg">
<path d="M15.943 14.5602C16.0596 14.6773 16.1251 14.8359 16.1251 15.0012C16.1251 15.1665 16.0596 15.3251 15.943 15.4422C15.8578 15.5258 13.8453 17.5 10.5 17.5C7.57891 17.5 5.45859 15.75 4.25 14.3867V16.25C4.25 16.4158 4.18415 16.5747 4.06694 16.6919C3.94973 16.8092 3.79076 16.875 3.625 16.875C3.45924 16.875 3.30027 16.8092 3.18306 16.6919C3.06585 16.5747 3 16.4158 3 16.25V12.5C3 12.3342 3.06585 12.1753 3.18306 12.0581C3.30027 11.9408 3.45924 11.875 3.625 11.875H6.75C6.91576 11.875 7.07473 11.9408 7.19194 12.0581C7.30915 12.1753 7.375 12.3342 7.375 12.5C7.375 12.6658 7.30915 12.8247 7.19194 12.9419C7.07473 13.0592 6.91576 13.125 6.75 13.125H4.83125C5.79375 14.3242 7.76562 16.25 10.5 16.25C13.3125 16.25 15.0422 14.5734 15.0594 14.5563C15.1771 14.4396 15.3363 14.3746 15.502 14.3753C15.6677 14.376 15.8263 14.4425 15.943 14.5602ZM17.375 3.125C17.2092 3.125 17.0503 3.19085 16.9331 3.30806C16.8158 3.42527 16.75 3.58424 16.75 3.75V5.61328C15.5414 4.25 13.4211 2.5 10.5 2.5C7.15469 2.5 5.14219 4.47422 5.05781 4.55781C4.94033 4.67488 4.87416 4.83382 4.87387 4.99968C4.87358 5.16553 4.93918 5.32471 5.05625 5.44219C5.17332 5.55967 5.33226 5.62584 5.49811 5.62613C5.66397 5.62642 5.82314 5.56082 5.94062 5.44375C5.95781 5.42656 7.6875 3.75 10.5 3.75C13.2344 3.75 15.2063 5.67578 16.1687 6.875H14.25C14.0842 6.875 13.9253 6.94085 13.8081 7.05806C13.6908 7.17527 13.625 7.33424 13.625 7.5C13.625 7.66576 13.6908 7.82473 13.8081 7.94194C13.9253 8.05915 14.0842 8.125 14.25 8.125H17.375C17.5408 8.125 17.6997 8.05915 17.8169 7.94194C17.9342 7.82473 18 7.66576 18 7.5V3.75C18 3.58424 17.9342 3.42527 17.8169 3.30806C17.6997 3.19085 17.5408 3.125 17.375 3.125Z" fill="#6F6F6F"/>
</svg>
