<svg xmlns="http://www.w3.org/2000/svg" xmlns:xlink="http://www.w3.org/1999/xlink" width="24" height="24" viewBox="0 0 24 24"><defs><clipPath id="a"><rect width="24" height="24" transform="translate(5029 847)" fill="#fff"/></clipPath></defs><g transform="translate(-5029 -847)" clip-path="url(#a)"><path d="M8,4.25a3.75,3.75,0,1,0,2.652,1.1A3.75,3.75,0,0,0,8,4.25Zm0,6a2.25,2.25,0,1,1,1.591-.659A2.25,2.25,0,0,1,8,10.25Zm9,1.5a3.75,3.75,0,1,0-2.652-1.1A3.75,3.75,0,0,0,17,11.75Zm0-6a2.25,2.25,0,1,1-1.591.659A2.25,2.25,0,0,1,17,5.75Zm-9,7.5a3.75,3.75,0,1,0,2.652,1.1A3.75,3.75,0,0,0,8,13.25Zm0,6a2.25,2.25,0,1,1,1.591-.659A2.25,2.25,0,0,1,8,19.25Zm9-6a3.75,3.75,0,1,0,2.652,1.1A3.75,3.75,0,0,0,17,13.25Zm0,6a2.25,2.25,0,1,1,1.591-.659A2.25,2.25,0,0,1,17,19.25Z" transform="translate(5028.75 846.75)" fill="#4f4f4f"/></g></svg>