<svg width="24" height="24" viewBox="0 0 24 24" fill="none" xmlns="http://www.w3.org/2000/svg">
<path d="M11.9998 2.25C10.0714 2.25 8.18633 2.82183 6.58295 3.89317C4.97957 4.96451 3.72989 6.48726 2.99193 8.26884C2.25398 10.0504 2.0609 12.0108 2.4371 13.9021C2.81331 15.7934 3.74191 17.5307 5.10547 18.8943C6.46903 20.2579 8.20632 21.1865 10.0976 21.5627C11.9889 21.9389 13.9493 21.7458 15.7309 21.0078C17.5125 20.2699 19.0352 19.0202 20.1066 17.4168C21.1779 15.8134 21.7498 13.9284 21.7498 12C21.747 9.41498 20.7189 6.93661 18.891 5.10872C17.0631 3.28084 14.5848 2.25273 11.9998 2.25ZM16.2804 11.0306L12.5304 14.7806C12.4607 14.8504 12.378 14.9057 12.287 14.9434C12.1959 14.9812 12.0983 15.0006 11.9998 15.0006C11.9012 15.0006 11.8036 14.9812 11.7126 14.9434C11.6215 14.9057 11.5388 14.8504 11.4691 14.7806L7.71913 11.0306C7.5784 10.8899 7.49934 10.699 7.49934 10.5C7.49934 10.301 7.5784 10.1101 7.71913 9.96937C7.85987 9.82864 8.05074 9.74958 8.24976 9.74958C8.44878 9.74958 8.63966 9.82864 8.78039 9.96937L11.9998 13.1897L15.2191 9.96937C15.2888 9.89969 15.3715 9.84442 15.4626 9.8067C15.5536 9.76899 15.6512 9.74958 15.7498 9.74958C15.8483 9.74958 15.9459 9.76899 16.0369 9.8067C16.128 9.84442 16.2107 9.89969 16.2804 9.96937C16.3501 10.0391 16.4053 10.1218 16.4431 10.2128C16.4808 10.3039 16.5002 10.4015 16.5002 10.5C16.5002 10.5985 16.4808 10.6961 16.4431 10.7872C16.4053 10.8782 16.3501 10.9609 16.2804 11.0306Z" fill="#004A9C"/>
</svg>
