<svg width="21" height="20" viewBox="0 0 21 20" fill="none" xmlns="http://www.w3.org/2000/svg">
<g clip-path="url(#clip0_11923_42549)">
<path d="M10.507 4.48301C10.5421 3.99798 10.7022 3.53031 10.9719 3.12567C11.2417 2.72102 11.6117 2.39322 12.0459 2.17426C12.4801 1.95531 12.9637 1.85268 13.4494 1.87639C13.9351 1.90011 14.4064 2.04936 14.8172 2.30957C14.8642 2.3403 14.902 2.38312 14.9267 2.43352C14.9514 2.48392 14.9621 2.54004 14.9576 2.59599C14.9531 2.65194 14.9337 2.70566 14.9013 2.75149C14.8688 2.79732 14.8247 2.83357 14.7734 2.85645C14.0593 3.17775 13.4531 3.6984 13.0276 4.35585C12.6022 5.0133 12.3755 5.77959 12.375 6.5627C12.375 6.6541 12.375 6.74551 12.3844 6.83535C12.3887 6.89214 12.3774 6.94903 12.3517 6.99986C12.326 7.0507 12.287 7.09355 12.2387 7.12379C12.1905 7.15403 12.1349 7.17051 12.0779 7.17145C12.021 7.17238 11.9649 7.15774 11.9156 7.1291C11.4552 6.86575 11.0787 6.47757 10.8294 6.00936C10.5802 5.54116 10.4684 5.01201 10.507 4.48301ZM19.25 12.5479C19.2511 12.905 19.1522 13.2553 18.9644 13.5591C18.7766 13.8629 18.5075 14.108 18.1875 14.2666L18.1531 14.2822L15.1195 15.5744C15.0896 15.5876 15.0584 15.5981 15.0266 15.6057L10.0266 16.8557C9.97704 16.8684 9.92613 16.875 9.875 16.8752H1.75C1.41848 16.8752 1.10054 16.7435 0.866117 16.5091C0.631696 16.2747 0.5 15.9567 0.5 15.6252V12.5002C0.5 12.1687 0.631696 11.8507 0.866117 11.6163C1.10054 11.3819 1.41848 11.2502 1.75 11.2502H3.99141L5.75859 9.48223C5.99032 9.24947 6.26587 9.06494 6.56932 8.93929C6.87278 8.81364 7.19812 8.74937 7.52656 8.7502H11.4375C11.7676 8.75016 12.0935 8.82485 12.3907 8.96866C12.6878 9.11248 12.9486 9.32169 13.1534 9.58061C13.3582 9.83954 13.5017 10.1415 13.5733 10.4638C13.6448 10.786 13.6425 11.1203 13.5664 11.4416L16.8352 10.69C17.1197 10.6147 17.4178 10.6057 17.7064 10.6637C17.995 10.7217 18.2664 10.8453 18.4997 11.0248C18.733 11.2043 18.922 11.4349 19.0521 11.699C19.1822 11.9631 19.2499 12.2535 19.25 12.5479ZM18 12.5479C17.9999 12.4445 17.976 12.3426 17.9301 12.25C17.8843 12.1574 17.8177 12.0766 17.7356 12.0139C17.6534 11.9511 17.558 11.9082 17.4565 11.8884C17.3551 11.8685 17.2505 11.8723 17.1508 11.8994L17.1266 11.9057L11.8922 13.1096C11.8463 13.1198 11.7994 13.1251 11.7523 13.1252H9.25C9.08424 13.1252 8.92527 13.0594 8.80806 12.9421C8.69085 12.8249 8.625 12.666 8.625 12.5002C8.625 12.3344 8.69085 12.1755 8.80806 12.0583C8.92527 11.941 9.08424 11.8752 9.25 11.8752H11.4375C11.6861 11.8752 11.9246 11.7764 12.1004 11.6006C12.2762 11.4248 12.375 11.1863 12.375 10.9377C12.375 10.6891 12.2762 10.4506 12.1004 10.2748C11.9246 10.099 11.6861 10.0002 11.4375 10.0002H7.52656C7.36235 9.99967 7.19967 10.0318 7.04798 10.0947C6.89629 10.1576 6.75862 10.25 6.64297 10.3666L4.875 12.1338V15.6252H9.79688L14.6742 14.4057L17.643 13.1416C17.751 13.0847 17.8414 12.9992 17.9044 12.8946C17.9673 12.7899 18.0004 12.67 18 12.5479ZM13.625 6.5627C13.625 7.11896 13.79 7.66273 14.099 8.12524C14.408 8.58775 14.8473 8.94824 15.3612 9.16111C15.8751 9.37398 16.4406 9.42968 16.9862 9.32116C17.5318 9.21264 18.0329 8.94477 18.4262 8.55143C18.8196 8.1581 19.0874 7.65696 19.196 7.11139C19.3045 6.56582 19.2488 6.00032 19.0359 5.4864C18.823 4.97248 18.4626 4.53323 18 4.22419C17.5375 3.91515 16.9938 3.7502 16.4375 3.7502C15.6916 3.7502 14.9762 4.04651 14.4488 4.57396C13.9213 5.10141 13.625 5.81678 13.625 6.5627Z" fill="#004A9C"/>
</g>
<defs>
<clipPath id="clip0_11923_42549">
<rect width="20" height="20" fill="white" transform="translate(0.5)"/>
</clipPath>
</defs>
</svg>
