<svg width="24" height="24" viewBox="0 0 24 24" fill="none" xmlns="http://www.w3.org/2000/svg">
<path fill-rule="evenodd" clip-rule="evenodd" d="M6.65116 9.2093C6.65116 7.79648 7.79648 6.65116 9.2093 6.65116H14.7907C16.2035 6.65116 17.3488 7.79648 17.3488 9.2093V14.7907C17.3488 16.2035 16.2035 17.3488 14.7907 17.3488H9.2093C7.79648 17.3488 6.65116 16.2035 6.65116 14.7907V9.2093ZM10.3721 10.1395C10.3721 9.75422 10.6845 9.44186 11.0698 9.44186H12.9302C13.3155 9.44186 13.6279 9.75422 13.6279 10.1395C13.6279 10.5248 13.3155 10.8372 12.9302 10.8372H11.0698C10.6845 10.8372 10.3721 10.5248 10.3721 10.1395Z" fill="#004A9C"/>
<path fill-rule="evenodd" clip-rule="evenodd" d="M12 3.39535C7.24778 3.39535 3.39535 7.24778 3.39535 12C3.39535 12.3853 3.08299 12.6977 2.69767 12.6977C2.31236 12.6977 2 12.3853 2 12C2 6.47715 6.47715 2 12 2C14.8124 2 17.3537 3.16157 19.17 5.02927L19.7102 3.40743C19.8319 3.04186 20.227 2.84422 20.5926 2.96599C20.9581 3.08775 21.1558 3.48282 21.034 3.84839L19.6839 7.90163L18.8847 6.83761C17.3137 4.74606 14.8147 3.39535 12 3.39535ZM21.3023 11.3023C21.6876 11.3023 22 11.6147 22 12C22 17.5228 17.5228 22 12 22C9.18756 22 6.64628 20.8384 4.83004 18.9707L4.28983 20.5926C4.16806 20.9581 3.773 21.1558 3.40743 21.034C3.04186 20.9122 2.84422 20.5172 2.96599 20.1516L4.31608 16.0984L5.1153 17.1624C6.68632 19.2539 9.18532 20.6047 12 20.6047C16.7522 20.6047 20.6047 16.7522 20.6047 12C20.6047 11.6147 20.917 11.3023 21.3023 11.3023Z" fill="#004A9C"/>
</svg>
