<svg width="20" height="20" viewBox="0 0 20 20" fill="none" xmlns="http://www.w3.org/2000/svg">
<path d="M9.37207 8.125L9.37207 4.375C9.37207 4.04348 9.24037 3.72554 9.00595 3.49112C8.77153 3.2567 8.45359 3.125 8.12207 3.125L4.37207 3.125C4.04055 3.125 3.72261 3.2567 3.48819 3.49112C3.25377 3.72554 3.12207 4.04348 3.12207 4.375L3.12207 8.125C3.12207 8.45652 3.25377 8.77446 3.48819 9.00888C3.72261 9.2433 4.04055 9.375 4.37207 9.375L8.12207 9.375C8.45359 9.375 8.77153 9.2433 9.00595 9.00888C9.24037 8.77446 9.37207 8.45652 9.37207 8.125ZM4.37207 8.125L4.37207 4.375L8.12207 4.375L8.12207 8.125L4.37207 8.125ZM9.37207 15.625L9.37207 11.875C9.37207 11.5435 9.24037 11.2255 9.00595 10.9911C8.77153 10.7567 8.45359 10.625 8.12207 10.625L4.37207 10.625C4.04055 10.625 3.72261 10.7567 3.48819 10.9911C3.25377 11.2255 3.12207 11.5435 3.12207 11.875L3.12207 15.625C3.12207 15.9565 3.25377 16.2745 3.48819 16.5089C3.72261 16.7433 4.04055 16.875 4.37207 16.875L8.12207 16.875C8.45359 16.875 8.77153 16.7433 9.00595 16.5089C9.24037 16.2745 9.37207 15.9565 9.37207 15.625ZM4.37207 15.625L4.37207 11.875L8.12207 11.875L8.12207 15.625L4.37207 15.625Z" fill="#333333"/>
<rect x="10.6261" y="11.8802" width="6.24837" height="1.24471" rx="0.622355" fill="#333333"/>
<rect x="10.6261" y="4.09338" width="6.24837" height="1.24471" rx="0.622355" fill="#333333"/>
<rect x="10.6261" y="14.9573" width="4.875" height="1.24471" rx="0.622355" fill="#333333"/>
<rect x="10.6261" y="7.17078" width="4.875" height="1.24471" rx="0.622355" fill="#333333"/>
</svg>
