<svg width="36" height="37" viewBox="0 0 36 37" fill="none" xmlns="http://www.w3.org/2000/svg">
<path d="M17.9973 28.605C24.6739 28.605 30.0864 23.192 30.0864 16.5147C30.0864 9.83738 24.6739 4.42435 17.9973 4.42435C11.3207 4.42435 5.9082 9.83738 5.9082 16.5147C5.9082 23.192 11.3207 28.605 17.9973 28.605Z" fill="url(#paint0_linear_3239_1602)"/>
<path d="M25.9973 24.5138C30.4151 20.0956 30.4151 12.9322 25.9973 8.51394C21.5795 4.0957 14.4169 4.0957 9.99911 8.51394C5.58132 12.9322 5.58132 20.0956 9.99911 24.5138C14.4169 28.9321 21.5795 28.9321 25.9973 24.5138Z" fill="url(#paint1_linear_3239_1602)"/>
<path d="M25.6816 24.1982C29.9251 19.9543 29.9251 13.0735 25.6816 8.82958C21.4381 4.58566 14.5581 4.58566 10.3146 8.82959C6.07112 13.0735 6.07112 19.9543 10.3146 24.1982C14.5581 28.4421 21.4381 28.4421 25.6816 24.1982Z" fill="url(#paint2_linear_3239_1602)"/>
<path d="M24.5297 31.3015C24.5966 31.981 23.912 32.4847 23.2832 32.2184L20.1699 30.8994L17.956 29.9619L15.7422 30.8994L12.5947 32.2328C11.9741 32.4957 11.2952 32.0079 11.3462 31.3357L12.132 20.9996H23.5176L24.5297 31.3015Z" fill="url(#paint3_linear_3239_1602)"/>
<path d="M20.1526 23.2611V30.9002L17.9387 29.9626L15.7249 30.9002V23.2611H20.1526Z" fill="#DBFDEC"/>
<path d="M19.4358 9.42268C20.6246 8.10617 22.8076 9.01049 22.7176 10.782C22.6608 11.8978 23.5809 12.818 24.696 12.7607C26.4674 12.6701 27.3716 14.8539 26.0552 16.0428C25.2261 16.7916 25.2261 18.0927 26.0552 18.8415C27.3716 20.0304 26.4674 22.2137 24.696 22.1236C23.5804 22.0668 22.6603 22.987 22.7176 24.1022C22.8081 25.8738 20.6246 26.7781 19.4358 25.4616C18.6871 24.6324 17.3861 24.6324 16.6374 25.4616C15.4486 26.7781 13.2656 25.8738 13.3556 24.1022C13.4124 22.9865 12.4923 22.0663 11.3772 22.1236C9.60583 22.2141 8.70161 20.0304 10.018 18.8415C10.8471 18.0927 10.8471 16.7916 10.018 16.0428C8.70161 14.8539 9.60583 12.6706 11.3772 12.7607C12.4928 12.8175 13.4129 11.8973 13.3556 10.782C13.2651 9.01049 15.4486 8.10617 16.6374 9.42268C17.3861 10.2519 18.6871 10.2519 19.4358 9.42268Z" fill="url(#paint4_linear_3239_1602)"/>
<path d="M19.3977 8.49504C20.5865 7.17853 22.7695 8.08285 22.6795 9.85441C22.6227 10.9701 23.5428 11.8903 24.6579 11.833C26.4293 11.7425 27.3335 13.9263 26.0171 15.1152C25.188 15.8639 25.188 17.165 26.0171 17.9138C27.3335 19.1027 26.4293 21.286 24.6579 21.196C23.5423 21.1391 22.6222 22.0594 22.6795 23.1746C22.77 24.9461 20.5865 25.8505 19.3977 24.534C18.649 23.7048 17.348 23.7048 16.5993 24.534C15.4105 25.8505 13.2275 24.9461 13.3175 23.1746C13.3744 22.0589 12.4542 21.1387 11.3391 21.196C9.56775 21.2865 8.66352 19.1027 9.9799 17.9138C10.809 17.165 10.809 15.8639 9.9799 15.1152C8.66352 13.9263 9.56775 11.743 11.3391 11.833C12.4547 11.8898 13.3748 10.9696 13.3175 9.85441C13.227 8.08285 15.4105 7.17853 16.5993 8.49504C17.348 9.32424 18.649 9.32424 19.3977 8.49504Z" fill="url(#paint5_linear_3239_1602)"/>
<path d="M17.9987 22.2783C21.1817 22.2783 23.7621 19.6977 23.7621 16.5144C23.7621 13.331 21.1817 10.7504 17.9987 10.7504C14.8157 10.7504 12.2354 13.331 12.2354 16.5144C12.2354 19.6977 14.8157 22.2783 17.9987 22.2783Z" fill="url(#paint6_linear_3239_1602)"/>
<path d="M18.7336 16.114C18.9512 16.1872 19.113 16.3076 19.2194 16.4742C19.3258 16.6408 19.3788 17.0318 19.3788 17.6468C19.3788 18.1033 19.3268 18.4572 19.2228 18.7091C19.1188 18.9609 18.9392 19.1526 18.684 19.2836C18.4288 19.415 18.1013 19.4805 17.7017 19.4805C17.2476 19.4805 16.8913 19.4045 16.6327 19.2518C16.3737 19.0991 16.2037 18.9128 16.1223 18.6918C16.0409 18.4707 16 18.0874 16 17.5413V17.0877H17.4325V18.0205C17.4325 18.2685 17.4474 18.4264 17.4768 18.4938C17.5062 18.5613 17.5717 18.595 17.6738 18.595C17.785 18.595 17.8582 18.5526 17.8938 18.4673C17.9294 18.3821 17.9468 18.1601 17.9468 17.8009V17.4036C17.9468 17.184 17.9217 17.0232 17.8721 16.9216C17.8225 16.82 17.7494 16.753 17.6521 16.7212C17.5553 16.6894 17.367 16.6711 17.0882 16.6663V15.8332C17.4287 15.8332 17.6391 15.8202 17.7195 15.7942C17.7999 15.7682 17.8577 15.7114 17.8933 15.6242C17.929 15.5366 17.9463 15.3998 17.9463 15.213V14.8937C17.9463 14.6929 17.9256 14.5605 17.8842 14.4964C17.8428 14.4324 17.7782 14.4006 17.6911 14.4006C17.5919 14.4006 17.524 14.4343 17.4874 14.5017C17.4508 14.5692 17.4325 14.7127 17.4325 14.9327V15.4042H16V14.9149C16 14.3664 16.1252 13.9961 16.3756 13.8035C16.626 13.6109 17.0242 13.5146 17.5702 13.5146C18.2535 13.5146 18.7167 13.6479 18.9599 13.9147C19.2035 14.1815 19.3249 14.5523 19.3249 15.0271C19.3249 15.3483 19.2811 15.5804 19.1939 15.7234C19.1063 15.8665 18.9527 15.997 18.7331 16.115L18.7336 16.114Z" fill="white"/>
<defs>
<linearGradient id="paint0_linear_3239_1602" x1="17.9973" y1="28.6045" x2="17.9973" y2="4.42435" gradientUnits="userSpaceOnUse">
<stop stop-color="#15E38D"/>
<stop offset="1" stop-color="#98F9C7"/>
</linearGradient>
<linearGradient id="paint1_linear_3239_1602" x1="17.9981" y1="27.8274" x2="17.9981" y2="5.20017" gradientUnits="userSpaceOnUse">
<stop stop-color="#08C88C"/>
<stop offset="1" stop-color="#06986E"/>
</linearGradient>
<linearGradient id="paint2_linear_3239_1602" x1="17.998" y1="27.381" x2="17.998" y2="5.64656" gradientUnits="userSpaceOnUse">
<stop stop-color="#40D9D8"/>
<stop offset="1" stop-color="#05C78A"/>
</linearGradient>
<linearGradient id="paint3_linear_3239_1602" x1="17.9392" y1="32.305" x2="17.9392" y2="20.9996" gradientUnits="userSpaceOnUse">
<stop stop-color="#34D5C7"/>
<stop offset="1" stop-color="#0C8C69"/>
</linearGradient>
<linearGradient id="paint4_linear_3239_1602" x1="18.0371" y1="26.0881" x2="18.0371" y2="8.79621" gradientUnits="userSpaceOnUse">
<stop/>
<stop offset="1"/>
</linearGradient>
<linearGradient id="paint5_linear_3239_1602" x1="9.35397" y1="16.5145" x2="26.644" y2="16.5145" gradientUnits="userSpaceOnUse">
<stop stop-color="white"/>
<stop offset="1" stop-color="#84F6BE"/>
</linearGradient>
<linearGradient id="paint6_linear_3239_1602" x1="17.9987" y1="22.2783" x2="17.9987" y2="10.7504" gradientUnits="userSpaceOnUse">
<stop stop-color="#15E28C"/>
<stop offset="1" stop-color="#0B8767"/>
</linearGradient>
</defs>
</svg>
