<svg xmlns="http://www.w3.org/2000/svg" xmlns:xlink="http://www.w3.org/1999/xlink" width="24" height="24" viewBox="0 0 24 24"><defs><clipPath id="a"><rect width="24" height="24" transform="translate(5146 918)" fill="#fff"/></clipPath></defs><g transform="translate(-5146 -918)" clip-path="url(#a)"><path d="M16.625,11.75a4.13,4.13,0,1,1-1.21-2.915A4.125,4.125,0,0,1,16.625,11.75Zm5.625.75a9.76,9.76,0,1,1-2.859-6.891A9.75,9.75,0,0,1,22.25,12.5Zm-1.5,0A8.25,8.25,0,1,0,6.335,17.976a7.475,7.475,0,0,1,2.04-2,.375.375,0,0,1,.453.03,5.609,5.609,0,0,0,7.339,0,.375.375,0,0,1,.453-.03,7.474,7.474,0,0,1,2.043,2A8.214,8.214,0,0,0,20.75,12.5Z" transform="translate(5145.25 918.25)" fill="#004a9c"/></g></svg>