<svg width="21" height="20" viewBox="0 0 21 20" fill="none" xmlns="http://www.w3.org/2000/svg">
<path d="M16.75 2.5H4.25C3.91848 2.5 3.60054 2.6317 3.36612 2.86612C3.1317 3.10054 3 3.41848 3 3.75V16.25C3 16.5815 3.1317 16.8995 3.36612 17.1339C3.60054 17.3683 3.91848 17.5 4.25 17.5H16.75C17.0815 17.5 17.3995 17.3683 17.6339 17.1339C17.8683 16.8995 18 16.5815 18 16.25V3.75C18 3.41848 17.8683 3.10054 17.6339 2.86612C17.3995 2.6317 17.0815 2.5 16.75 2.5ZM14.0672 8.56719L9.69219 12.9422C9.63414 13.0003 9.56521 13.0464 9.48934 13.0779C9.41346 13.1093 9.33213 13.1255 9.25 13.1255C9.16787 13.1255 9.08654 13.1093 9.01066 13.0779C8.93479 13.0464 8.86586 13.0003 8.80781 12.9422L6.93281 11.0672C6.81554 10.9499 6.74965 10.7909 6.74965 10.625C6.74965 10.4591 6.81554 10.3001 6.93281 10.1828C7.05009 10.0655 7.20915 9.99965 7.375 9.99965C7.54085 9.99965 7.69991 10.0655 7.81719 10.1828L9.25 11.6164L13.1828 7.68281C13.2409 7.62474 13.3098 7.57868 13.3857 7.54725C13.4616 7.51583 13.5429 7.49965 13.625 7.49965C13.7071 7.49965 13.7884 7.51583 13.8643 7.54725C13.9402 7.57868 14.0091 7.62474 14.0672 7.68281C14.1253 7.74088 14.1713 7.80982 14.2027 7.88569C14.2342 7.96156 14.2503 8.04288 14.2503 8.125C14.2503 8.20712 14.2342 8.28844 14.2027 8.36431C14.1713 8.44018 14.1253 8.50912 14.0672 8.56719Z" fill="#004A9C"/>
</svg>
