<svg xmlns="http://www.w3.org/2000/svg" xmlns:xlink="http://www.w3.org/1999/xlink" width="24" height="24" viewBox="0 0 24 24"><defs><clipPath id="a"><rect width="24" height="24" transform="translate(5110 848)" fill="#fff"/></clipPath></defs><g transform="translate(-5110 -848)" clip-path="url(#a)"><path d="M21.293,16.994A15.47,15.47,0,0,1,20,10.25a7.5,7.5,0,0,0-15,0A15.465,15.465,0,0,1,3.7,16.994,1.5,1.5,0,0,0,5,19.25H8.825a3.75,3.75,0,0,0,7.348,0H20a1.5,1.5,0,0,0,1.294-2.256ZM12.5,20.75a2.25,2.25,0,0,1-2.121-1.5H14.62a2.25,2.25,0,0,1-2.121,1.5Zm-7.5-3a16.881,16.881,0,0,0,1.5-7.5,6,6,0,0,1,12,0,16.874,16.874,0,0,0,1.5,7.5Z" transform="translate(5109.5 848.25)" fill="#4f4f4f"/></g></svg>