<svg width="20" height="20" viewBox="0 0 20 20" fill="none" xmlns="http://www.w3.org/2000/svg">
<path d="M17.9417 17.058L14.0299 13.1471C15.1637 11.7859 15.7291 10.04 15.6084 8.27263C15.4877 6.50524 14.6903 4.85241 13.3821 3.65797C12.0738 2.46353 10.3554 1.81944 8.58438 1.85969C6.81333 1.89994 5.12598 2.62143 3.87334 3.87407C2.6207 5.12671 1.89921 6.81407 1.85896 8.58511C1.81871 10.3562 2.4628 12.0745 3.65724 13.3828C4.85168 14.6911 6.50451 15.4885 8.2719 15.6091C10.0393 15.7298 11.7852 15.1644 13.1463 14.0307L17.0573 17.9424C17.1153 18.0005 17.1843 18.0465 17.2602 18.0779C17.336 18.1094 17.4173 18.1255 17.4995 18.1255C17.5816 18.1255 17.6629 18.1094 17.7388 18.0779C17.8146 18.0465 17.8836 18.0005 17.9417 17.9424C17.9997 17.8843 18.0458 17.8154 18.0772 17.7395C18.1086 17.6636 18.1248 17.5823 18.1248 17.5002C18.1248 17.4181 18.1086 17.3368 18.0772 17.2609C18.0458 17.185 17.9997 17.1161 17.9417 17.058ZM3.12445 8.75019C3.12445 7.63766 3.45435 6.55013 4.07243 5.6251C4.69052 4.70007 5.56902 3.9791 6.59686 3.55336C7.62469 3.12761 8.75569 3.01622 9.84684 3.23326C10.938 3.4503 11.9403 3.98603 12.7269 4.77271C13.5136 5.55938 14.0493 6.56166 14.2664 7.6528C14.4834 8.74395 14.372 9.87495 13.9463 10.9028C13.5205 11.9306 12.7996 12.8091 11.8745 13.4272C10.9495 14.0453 9.86197 14.3752 8.74945 14.3752C7.25812 14.3735 5.82834 13.7804 4.7738 12.7258C3.71927 11.6713 3.1261 10.2415 3.12445 8.75019Z" fill="#333333"/>
</svg>
