<svg xmlns="http://www.w3.org/2000/svg" xmlns:xlink="http://www.w3.org/1999/xlink" width="24" height="24" viewBox="0 0 24 24"><defs><clipPath id="a"><rect width="24" height="24" transform="translate(5146 848)" fill="#fff"/></clipPath></defs><g transform="translate(-5146 -848)" clip-path="url(#a)"><path d="M12.5,2.75a9.76,9.76,0,1,0,6.891,2.859A9.75,9.75,0,0,0,12.5,2.75ZM7.445,19.016a6,6,0,0,1,10.11,0,8.234,8.234,0,0,1-10.11,0ZM9.5,11.75a3,3,0,1,1,.879,2.121A3,3,0,0,1,9.5,11.75Zm9.165,6.226a7.468,7.468,0,0,0-3.381-2.7,4.5,4.5,0,1,0-5.569,0,7.468,7.468,0,0,0-3.381,2.7,8.25,8.25,0,1,1,12.33,0Z" transform="translate(5145.25 848.25)" fill="#4f4f4f"/></g></svg>