<svg width="37" height="36" viewBox="0 0 37 36" fill="none" xmlns="http://www.w3.org/2000/svg">
<path d="M18.7953 28.0877C25.4724 28.0877 30.8852 22.6746 30.8852 15.9972C30.8852 9.31987 25.4724 3.9068 18.7953 3.9068C12.1182 3.9068 6.70532 9.31987 6.70532 15.9972C6.70532 22.6746 12.1182 28.0877 18.7953 28.0877Z" fill="url(#paint0_linear_3239_1536)"/>
<path d="M26.7949 24C31.213 19.5817 31.213 12.4183 26.7949 8C22.3768 3.58173 15.2137 3.58172 10.7956 8C6.37747 12.4183 6.37748 19.5817 10.7956 24C15.2137 28.4183 22.3768 28.4183 26.7949 24Z" fill="url(#paint1_linear_3239_1536)"/>
<path d="M26.4791 23.6844C30.7229 19.4404 30.7229 12.5596 26.4791 8.31565C22.2354 4.07169 15.3548 4.07169 11.111 8.31564C6.86726 12.5596 6.86727 19.4404 11.111 23.6844C15.3548 27.9283 22.2354 27.9283 26.4791 23.6844Z" fill="url(#paint2_linear_3239_1536)"/>
<path d="M25.3261 30.8553C25.393 31.5348 24.7083 32.0385 24.0794 31.7722L20.9659 30.4532L18.7519 29.5157L16.5379 30.4532L13.3902 31.7866C12.7695 32.0495 12.0906 31.5617 12.1416 30.8895L12.9275 20.5533H24.3139L25.3261 30.8553Z" fill="url(#paint3_linear_3239_1536)"/>
<path d="M20.9488 22.8151V30.4542L18.7348 29.5166L16.5208 30.4542V22.8151H20.9488Z" fill="#FFF3D5"/>
<path d="M20.1941 8.97746C21.3829 7.66094 23.5661 8.56527 23.4761 10.3368C23.4193 11.4526 24.3395 12.3728 25.4547 12.3155C27.2262 12.2249 28.1305 14.4087 26.814 15.5976C25.9848 16.3464 25.9848 17.6475 26.814 18.3963C28.1305 19.5852 27.2262 21.7685 25.4547 21.6785C24.339 21.6217 23.4188 22.5419 23.4761 23.6571C23.5666 25.4287 21.3829 26.333 20.1941 25.0165C19.4453 24.1873 18.1443 24.1873 17.3955 25.0165C16.2066 26.333 14.0234 25.4287 14.1135 23.6571C14.1703 22.5414 13.2501 21.6212 12.1349 21.6785C10.3634 21.769 9.45913 19.5852 10.7756 18.3963C11.6048 17.6475 11.6048 16.3464 10.7756 15.5976C9.45913 14.4087 10.3634 12.2254 12.1349 12.3155C13.2506 12.3723 14.1708 11.4521 14.1135 10.3368C14.023 8.56527 16.2066 7.66094 17.3955 8.97746C18.1443 9.80667 19.4453 9.80667 20.1941 8.97746Z" fill="url(#paint4_linear_3239_1536)"/>
<path d="M20.1948 7.97899C21.3837 6.66247 23.5669 7.5668 23.4768 9.33837C23.42 10.4541 24.3402 11.3743 25.4554 11.317C27.2269 11.2265 28.1312 13.4102 26.8147 14.5992C25.9855 15.3479 25.9855 16.6491 26.8147 17.3978C28.1312 18.5868 27.2269 20.77 25.4554 20.68C24.3397 20.6232 23.4195 21.5434 23.4768 22.6586C23.5674 24.4302 21.3837 25.3345 20.1948 24.018C19.4461 23.1888 18.145 23.1888 17.3962 24.018C16.2074 25.3345 14.0242 24.4302 14.1142 22.6586C14.171 21.5429 13.2508 20.6227 12.1357 20.68C10.3641 20.7705 9.45986 18.5868 10.7763 17.3978C11.6055 16.6491 11.6055 15.3479 10.7763 14.5992C9.45986 13.4102 10.3641 11.227 12.1357 11.317C13.2513 11.3738 14.1715 10.4536 14.1142 9.33837C14.0237 7.5668 16.2074 6.66247 17.3962 7.97899C18.145 8.8082 19.4461 8.8082 20.1948 7.97899Z" fill="url(#paint5_linear_3239_1536)"/>
<path d="M18.7945 21.7639C21.9778 21.7639 24.5583 19.1833 24.5583 15.9999C24.5583 12.8165 21.9778 10.2359 18.7945 10.2359C15.6113 10.2359 13.0308 12.8165 13.0308 15.9999C13.0308 19.1833 15.6113 21.7639 18.7945 21.7639Z" fill="url(#paint6_linear_3239_1536)"/>
<path d="M19.3118 13.1133V18.8537H17.8792V15.7762C17.8792 15.3317 17.8686 15.065 17.8474 14.9749C17.8262 14.8849 17.7675 14.817 17.6722 14.7712C17.5763 14.725 17.363 14.7019 17.0322 14.7019H16.8901V14.0325C17.5826 13.8837 18.1084 13.577 18.4681 13.1133H19.3118Z" fill="white"/>
<defs>
<linearGradient id="paint0_linear_3239_1536" x1="18.7953" y1="28.0872" x2="18.7953" y2="3.9068" gradientUnits="userSpaceOnUse">
<stop stop-color="#F6AE17"/>
<stop offset="1" stop-color="#FEDE86"/>
</linearGradient>
<linearGradient id="paint1_linear_3239_1536" x1="18.7952" y1="27.3137" x2="18.7952" y2="4.68582" gradientUnits="userSpaceOnUse">
<stop stop-color="#FE9746"/>
<stop offset="1" stop-color="#FE8212"/>
</linearGradient>
<linearGradient id="paint2_linear_3239_1536" x1="18.7951" y1="26.8668" x2="18.7951" y2="5.13269" gradientUnits="userSpaceOnUse">
<stop stop-color="#E47000"/>
<stop offset="1" stop-color="#FFC92F"/>
</linearGradient>
<linearGradient id="paint3_linear_3239_1536" x1="18.735" y1="31.8588" x2="18.735" y2="20.5533" gradientUnits="userSpaceOnUse">
<stop stop-color="#FBC01C"/>
<stop offset="1" stop-color="#EB9A2B"/>
</linearGradient>
<linearGradient id="paint4_linear_3239_1536" x1="18.7948" y1="25.6425" x2="18.7948" y2="8.35099" gradientUnits="userSpaceOnUse">
<stop/>
<stop offset="1"/>
</linearGradient>
<linearGradient id="paint5_linear_3239_1536" x1="10.1499" y1="15.9985" x2="27.4412" y2="15.9985" gradientUnits="userSpaceOnUse">
<stop stop-color="white"/>
<stop offset="1" stop-color="#FDD674"/>
</linearGradient>
<linearGradient id="paint6_linear_3239_1536" x1="18.7945" y1="21.7634" x2="18.7945" y2="10.2359" gradientUnits="userSpaceOnUse">
<stop stop-color="#FED464"/>
<stop offset="1" stop-color="#D2574B"/>
</linearGradient>
</defs>
</svg>
