<svg width="21" height="20" viewBox="0 0 21 20" fill="none" xmlns="http://www.w3.org/2000/svg">
<path d="M17.1922 6.43281L12.8172 2.05781C12.7591 1.99979 12.6902 1.95378 12.6143 1.92241C12.5384 1.89105 12.4571 1.87494 12.375 1.875H4.875C4.54348 1.875 4.22554 2.0067 3.99112 2.24112C3.7567 2.47554 3.625 2.79348 3.625 3.125V16.875C3.625 17.2065 3.7567 17.5245 3.99112 17.7589C4.22554 17.9933 4.54348 18.125 4.875 18.125H16.125C16.4565 18.125 16.7745 17.9933 17.0089 17.7589C17.2433 17.5245 17.375 17.2065 17.375 16.875V6.875C17.3751 6.7929 17.359 6.71159 17.3276 6.63572C17.2962 6.55985 17.2502 6.4909 17.1922 6.43281ZM13 13.75H8C7.83424 13.75 7.67527 13.6842 7.55806 13.5669C7.44085 13.4497 7.375 13.2908 7.375 13.125C7.375 12.9592 7.44085 12.8003 7.55806 12.6831C7.67527 12.5658 7.83424 12.5 8 12.5H13C13.1658 12.5 13.3247 12.5658 13.4419 12.6831C13.5592 12.8003 13.625 12.9592 13.625 13.125C13.625 13.2908 13.5592 13.4497 13.4419 13.5669C13.3247 13.6842 13.1658 13.75 13 13.75ZM13 11.25H8C7.83424 11.25 7.67527 11.1842 7.55806 11.0669C7.44085 10.9497 7.375 10.7908 7.375 10.625C7.375 10.4592 7.44085 10.3003 7.55806 10.1831C7.67527 10.0658 7.83424 10 8 10H13C13.1658 10 13.3247 10.0658 13.4419 10.1831C13.5592 10.3003 13.625 10.4592 13.625 10.625C13.625 10.7908 13.5592 10.9497 13.4419 11.0669C13.3247 11.1842 13.1658 11.25 13 11.25ZM12.375 6.875V3.4375L15.8125 6.875H12.375Z" fill="#004A9C"/>
</svg>
