<svg xmlns="http://www.w3.org/2000/svg" xmlns:xlink="http://www.w3.org/1999/xlink" width="24" height="24" viewBox="0 0 24 24"><defs><clipPath id="a"><rect width="24" height="24" transform="translate(4994 797)" fill="#fff"/></clipPath></defs><g transform="translate(-4994 -797)" clip-path="url(#a)"><g transform="translate(4996.125 799.125)"><circle cx="7.5" cy="7.5" r="7.5" transform="translate(2.5 2.5)" fill="#fff"/><path d="M10,1.875a8.134,8.134,0,1,0,5.743,2.382A8.125,8.125,0,0,0,10,1.875Zm2.942,10.183a.625.625,0,0,1-.884.884L10,10.884,7.942,12.942a.625.625,0,0,1-.884-.884L9.116,10,7.058,7.942a.625.625,0,0,1,.884-.884L10,9.116l2.058-2.059a.625.625,0,1,1,.884.884L10.884,10Z" fill="#bdbdbd"/></g></g></svg>