<svg width="16" height="17" viewBox="0 0 16 17" fill="none" xmlns="http://www.w3.org/2000/svg">
<path d="M14.0003 8.5C14.0003 8.63261 13.9476 8.75979 13.8539 8.85355C13.7601 8.94732 13.6329 9 13.5003 9H8.50031V14C8.50031 14.1326 8.44763 14.2598 8.35386 14.3536C8.26009 14.4473 8.13291 14.5 8.00031 14.5C7.8677 14.5 7.74052 14.4473 7.64675 14.3536C7.55298 14.2598 7.50031 14.1326 7.50031 14V9H2.50031C2.3677 9 2.24052 8.94732 2.14675 8.85355C2.05298 8.75979 2.00031 8.63261 2.00031 8.5C2.00031 8.36739 2.05298 8.24021 2.14675 8.14645C2.24052 8.05268 2.3677 8 2.50031 8H7.50031V3C7.50031 2.86739 7.55298 2.74021 7.64675 2.64645C7.74052 2.55268 7.8677 2.5 8.00031 2.5C8.13291 2.5 8.26009 2.55268 8.35386 2.64645C8.44763 2.74021 8.50031 2.86739 8.50031 3V8H13.5003C13.6329 8 13.7601 8.05268 13.8539 8.14645C13.9476 8.24021 14.0003 8.36739 14.0003 8.5Z" fill="#333333"/>
</svg>
