<svg width="21" height="20" viewBox="0 0 21 20" fill="none" xmlns="http://www.w3.org/2000/svg">
<path d="M18.625 7.50033C18.6259 8.43581 18.3936 9.35676 17.9489 10.1798C17.5042 11.0028 16.8613 11.702 16.0783 12.2139C15.2953 12.7259 14.3971 13.0344 13.4648 13.1117C12.5325 13.189 11.5956 13.0326 10.7391 12.6566L6.67188 17.3613C6.6625 17.3722 6.65156 17.3839 6.64141 17.3941C6.17251 17.863 5.53656 18.1264 4.87344 18.1264C4.21032 18.1264 3.57436 17.863 3.10547 17.3941C2.63658 16.9252 2.37315 16.2892 2.37315 15.6261C2.37315 14.963 2.63658 14.327 3.10547 13.8581C3.11641 13.848 3.12735 13.8371 3.13906 13.8277L7.84375 9.76127C7.42224 8.79706 7.27938 7.73402 7.43137 6.69273C7.58336 5.65144 8.02412 4.67359 8.70365 3.87009C9.38318 3.06659 10.2743 2.46961 11.2759 2.14685C12.2775 1.8241 13.3495 1.7885 14.3703 2.04408C14.4755 2.07046 14.5721 2.12377 14.6505 2.19877C14.7289 2.27378 14.7864 2.36789 14.8173 2.47186C14.8483 2.57583 14.8517 2.68607 14.8272 2.79175C14.8026 2.89742 14.751 2.99488 14.6773 3.07455L11.75 6.25033L12.1922 8.30893L14.25 8.75033L17.4258 5.81908C17.5055 5.74545 17.6029 5.69382 17.7086 5.66927C17.8143 5.64472 17.9245 5.64811 18.0285 5.67908C18.1324 5.71006 18.2266 5.76757 18.3016 5.84595C18.3766 5.92433 18.4299 6.02088 18.4563 6.12611C18.5684 6.57558 18.6251 7.03709 18.625 7.50033Z" fill="#004A9C"/>
</svg>
