<svg width="21" height="20" viewBox="0 0 21 20" fill="none" xmlns="http://www.w3.org/2000/svg">
<path d="M17.375 5.62499H14.6344C14.6648 5.59921 14.6961 5.57421 14.7258 5.54687C14.9631 5.33607 15.1543 5.07858 15.2875 4.7905C15.4207 4.50243 15.4931 4.18996 15.5 3.87265C15.5103 3.52552 15.4495 3.17995 15.3213 2.85717C15.1932 2.53438 15.0005 2.24119 14.755 1.99559C14.5094 1.74999 14.2163 1.55716 13.8936 1.42895C13.5708 1.30073 13.2253 1.23983 12.8781 1.24999C12.5607 1.25683 12.2481 1.32912 11.9598 1.46234C11.6716 1.59556 11.414 1.78684 11.2031 2.02421C10.9113 2.36241 10.6741 2.74409 10.5 3.15546C10.3259 2.74409 10.0887 2.36241 9.79688 2.02421C9.58599 1.78684 9.32837 1.59556 9.04015 1.46234C8.75193 1.32912 8.43932 1.25683 8.12187 1.24999C7.77474 1.23983 7.4292 1.30073 7.10645 1.42895C6.7837 1.55716 6.49057 1.74999 6.24504 1.99559C5.99951 2.24119 5.80677 2.53438 5.67865 2.85717C5.55053 3.17995 5.48974 3.52552 5.5 3.87265C5.50694 4.18996 5.57929 4.50243 5.7125 4.7905C5.84572 5.07858 6.03695 5.33607 6.27422 5.54687C6.30391 5.57265 6.33516 5.59765 6.36563 5.62499H3.625C3.29348 5.62499 2.97554 5.75669 2.74112 5.99111C2.5067 6.22553 2.375 6.54347 2.375 6.87499V9.37499C2.375 9.70651 2.5067 10.0245 2.74112 10.2589C2.97554 10.4933 3.29348 10.625 3.625 10.625V15.625C3.625 15.9565 3.7567 16.2745 3.99112 16.5089C4.22554 16.7433 4.54348 16.875 4.875 16.875H9.5625C9.64538 16.875 9.72487 16.8421 9.78347 16.7835C9.84208 16.7249 9.875 16.6454 9.875 16.5625V9.37499H3.625V6.87499H9.875V9.37499H11.125V6.87499H17.375V9.37499H11.125V16.5625C11.125 16.6454 11.1579 16.7249 11.2165 16.7835C11.2751 16.8421 11.3546 16.875 11.4375 16.875H16.125C16.4565 16.875 16.7745 16.7433 17.0089 16.5089C17.2433 16.2745 17.375 15.9565 17.375 15.625V10.625C17.7065 10.625 18.0245 10.4933 18.2589 10.2589C18.4933 10.0245 18.625 9.70651 18.625 9.37499V6.87499C18.625 6.54347 18.4933 6.22553 18.2589 5.99111C18.0245 5.75669 17.7065 5.62499 17.375 5.62499ZM7.10234 4.60937C6.99306 4.51041 6.90542 4.38992 6.84492 4.25548C6.78442 4.12104 6.75237 3.97554 6.75078 3.82812C6.74683 3.65538 6.77739 3.4836 6.84068 3.32283C6.90396 3.16206 6.9987 3.01554 7.11933 2.89185C7.23997 2.76816 7.38408 2.66979 7.54321 2.6025C7.70235 2.53521 7.87332 2.50036 8.04609 2.49999H8.08438C8.2318 2.50158 8.37729 2.53363 8.51174 2.59413C8.64618 2.65463 8.76667 2.74227 8.86563 2.85155C9.52109 3.59218 9.75234 4.8203 9.83359 5.57968C9.07109 5.49921 7.84375 5.26796 7.10234 4.60937ZM13.8992 4.60937C13.1578 5.26562 11.9273 5.49687 11.1648 5.57812C11.2578 4.75702 11.5156 3.55468 12.1406 2.85234C12.2396 2.74305 12.3601 2.65541 12.4945 2.59491C12.629 2.53441 12.7745 2.50236 12.9219 2.50077H12.9602C13.1329 2.50185 13.3038 2.53741 13.4626 2.60536C13.6215 2.67331 13.7652 2.77229 13.8854 2.89649C14.0055 3.02069 14.0996 3.16762 14.1622 3.32867C14.2248 3.48971 14.2547 3.66164 14.25 3.83437C14.2475 3.98079 14.2149 4.12512 14.1543 4.25844C14.0937 4.39175 14.0063 4.51119 13.8977 4.60937H13.8992Z" fill="#004A9C"/>
</svg>
