<svg width="20" height="20" viewBox="0 0 20 20" fill="none" xmlns="http://www.w3.org/2000/svg">
<path d="M16.2499 2.50001H14.3749V1.875C14.3749 1.70924 14.3091 1.55027 14.1919 1.43306C14.0747 1.31585 13.9157 1.25 13.7499 1.25C13.5842 1.25 13.4252 1.31585 13.308 1.43306C13.1908 1.55027 13.1249 1.70924 13.1249 1.875V2.50001H6.8749V1.875C6.8749 1.70924 6.80905 1.55027 6.69184 1.43306C6.57463 1.31585 6.41566 1.25 6.2499 1.25C6.08413 1.25 5.92516 1.31585 5.80795 1.43306C5.69074 1.55027 5.62489 1.70924 5.62489 1.875V2.50001H3.74988C3.41836 2.50001 3.10042 2.6317 2.866 2.86612C2.63157 3.10055 2.49988 3.41849 2.49988 3.75001V16.2501C2.49988 16.5816 2.63157 16.8995 2.866 17.134C3.10042 17.3684 3.41836 17.5001 3.74988 17.5001H16.2499C16.5815 17.5001 16.8994 17.3684 17.1338 17.134C17.3683 16.8995 17.5 16.5816 17.5 16.2501V3.75001C17.5 3.41849 17.3683 3.10055 17.1338 2.86612C16.8994 2.6317 16.5815 2.50001 16.2499 2.50001ZM3.74988 6.25002V3.75001H5.62489V4.37502C5.62489 4.54078 5.69074 4.69975 5.80795 4.81696C5.92516 4.93417 6.08413 5.00002 6.2499 5.00002C6.41566 5.00002 6.57463 4.93417 6.69184 4.81696C6.80905 4.69975 6.8749 4.54078 6.8749 4.37502V3.75001H13.1249V4.37502C13.1249 4.54078 13.1908 4.69975 13.308 4.81696C13.4252 4.93417 13.5842 5.00002 13.7499 5.00002C13.9157 5.00002 14.0747 4.93417 14.1919 4.81696C14.3091 4.69975 14.3749 4.54078 14.3749 4.37502V3.75001H16.2499V6.25002H3.74988Z" fill="#BDBDBD"/>
</svg>
