<svg width="36" height="37" viewBox="0 0 36 37" fill="none" xmlns="http://www.w3.org/2000/svg">
<path d="M17.9996 28.6042C24.677 28.6042 30.09 23.1911 30.09 16.5137C30.09 9.83635 24.677 4.42328 17.9996 4.42328C11.3223 4.42328 5.90918 9.83635 5.90918 16.5137C5.90918 23.1911 11.3223 28.6042 17.9996 28.6042Z" fill="url(#paint0_linear_3239_1573)"/>
<path d="M26 24.5141C30.4183 20.0958 30.4183 12.9323 26 8.51406C21.5817 4.09578 14.4183 4.09578 10 8.51406C5.58172 12.9323 5.58172 20.0958 10 24.5141C14.4183 28.9324 21.5817 28.9324 26 24.5141Z" fill="url(#paint1_linear_3239_1573)"/>
<path d="M25.6842 24.1984C29.9281 19.9545 29.9281 13.0737 25.6842 8.8297C21.4402 4.58574 14.5594 4.58574 10.3155 8.8297C6.07151 13.0737 6.07151 19.9545 10.3155 24.1984C14.5594 28.4424 21.4402 28.4424 25.6842 24.1984Z" fill="url(#paint2_linear_3239_1573)"/>
<path d="M24.5304 31.2619C24.5974 31.9413 23.9126 32.445 23.2837 32.1787L20.1701 30.8598L17.956 29.9222L15.7419 30.8598L12.5941 32.1932C11.9734 32.4561 11.2944 31.9683 11.3455 31.2961L12.1314 20.9599H23.5183L24.5304 31.2619Z" fill="url(#paint3_linear_3239_1573)"/>
<path d="M20.1528 23.2208V30.8599L17.9387 29.9224L15.7246 30.8599V23.2208H20.1528Z" fill="#E9EDF6"/>
<path d="M19.3988 9.38195C20.5877 8.06542 22.771 8.96975 22.681 10.7413C22.6242 11.857 23.5444 12.7773 24.6596 12.72C26.4312 12.6294 27.3355 14.8132 26.019 16.0021C25.1898 16.7509 25.1898 18.052 26.019 18.8008C27.3355 19.9897 26.4312 22.173 24.6596 22.083C23.5439 22.0262 22.6237 22.9464 22.681 24.0616C22.7715 25.8332 20.5877 26.7375 19.3988 25.421C18.65 24.5918 17.3489 24.5918 16.6001 25.421C15.4112 26.7375 13.2279 25.8332 13.318 24.0616C13.3748 22.9459 12.4546 22.0257 11.3393 22.083C9.56777 22.1735 8.66344 19.9897 9.97997 18.8008C10.8092 18.052 10.8092 16.7509 9.97997 16.0021C8.66344 14.8132 9.56777 12.6299 11.3393 12.72C12.4551 12.7768 13.3753 11.8566 13.318 10.7413C13.2275 8.96975 15.4112 8.06542 16.6001 9.38195C17.3489 10.2112 18.65 10.2112 19.3988 9.38195Z" fill="url(#paint4_linear_3239_1573)"/>
<path d="M19.3988 8.49401C20.5877 7.17748 22.771 8.08181 22.681 9.85339C22.6242 10.9691 23.5444 11.8893 24.6596 11.832C26.4312 11.7415 27.3355 13.9253 26.019 15.1142C25.1898 15.863 25.1898 17.1641 26.019 17.9129C27.3355 19.1018 26.4312 21.2851 24.6596 21.195C23.5439 21.1382 22.6237 22.0584 22.681 23.1737C22.7715 24.9452 20.5877 25.8496 19.3988 24.533C18.65 23.7038 17.3489 23.7038 16.6001 24.533C15.4112 25.8496 13.2279 24.9452 13.318 23.1737C13.3748 22.0579 12.4546 21.1377 11.3393 21.195C9.56777 21.2856 8.66344 19.1018 9.97997 17.9129C10.8092 17.1641 10.8092 15.863 9.97997 15.1142C8.66344 13.9253 9.56777 11.742 11.3393 11.832C12.4551 11.8888 13.3753 10.9686 13.318 9.85339C13.2275 8.08181 15.4112 7.17748 16.6001 8.49401C17.3489 9.32321 18.65 9.32321 19.3988 8.49401Z" fill="url(#paint5_linear_3239_1573)"/>
<path d="M23.7641 16.5136C23.7641 16.6812 23.7573 16.8473 23.7424 17.0116C23.4906 19.9619 21.016 22.2781 18.0006 22.2781C14.9852 22.2781 12.5101 19.9624 12.2582 17.0116C12.2433 16.8473 12.2366 16.6812 12.2366 16.5136C12.2366 13.3307 14.8171 10.7501 18.0011 10.7501C21.185 10.7501 23.7646 13.3307 23.7646 16.5136H23.7641Z" fill="url(#paint6_linear_3239_1573)"/>
<path d="M19.1987 18.2307V19.2092H16.0469L16.0478 18.3901C16.9814 16.8632 17.5361 15.9185 17.7123 15.5554C17.8885 15.1924 17.9767 14.9097 17.9767 14.7061C17.9767 14.55 17.9502 14.4335 17.8967 14.357C17.8433 14.2804 17.7624 14.2419 17.6536 14.2419C17.5448 14.2419 17.4634 14.2842 17.4104 14.3695C17.357 14.4547 17.3305 14.6237 17.3305 14.8765V15.4225H16.0474V15.2136C16.0474 14.8919 16.0637 14.6386 16.097 14.4533C16.1302 14.2679 16.2115 14.0849 16.3415 13.9053C16.4715 13.7257 16.6405 13.5899 16.8485 13.4974C17.0565 13.4055 17.306 13.3593 17.5968 13.3593C18.1664 13.3593 18.5973 13.5003 18.8891 13.783C19.1809 14.0656 19.3267 14.4229 19.3267 14.8553C19.3267 15.1837 19.2444 15.5314 19.0802 15.8978C18.916 16.2642 18.4321 17.0419 17.6285 18.2307H19.1991H19.1987Z" fill="white"/>
<defs>
<linearGradient id="paint0_linear_3239_1573" x1="17.9996" y1="28.6042" x2="17.9996" y2="4.42328" gradientUnits="userSpaceOnUse">
<stop stop-color="#808ABB"/>
<stop offset="1" stop-color="#BDCAE5"/>
</linearGradient>
<linearGradient id="paint1_linear_3239_1573" x1="18.0003" y1="27.8277" x2="18.0003" y2="5.20025" gradientUnits="userSpaceOnUse">
<stop stop-color="#5F678F"/>
<stop offset="1" stop-color="#51587C"/>
</linearGradient>
<linearGradient id="paint2_linear_3239_1573" x1="18.0001" y1="27.3813" x2="18.0001" y2="5.64663" gradientUnits="userSpaceOnUse">
<stop stop-color="#AEBBDA"/>
<stop offset="1" stop-color="#828DBF"/>
</linearGradient>
<linearGradient id="paint3_linear_3239_1573" x1="17.9387" y1="32.2654" x2="17.9387" y2="20.9599" gradientUnits="userSpaceOnUse">
<stop stop-color="#9DA9D0"/>
<stop offset="1" stop-color="#52577B"/>
</linearGradient>
<linearGradient id="paint4_linear_3239_1573" x1="17.9995" y1="26.0475" x2="17.9995" y2="8.75547" gradientUnits="userSpaceOnUse">
<stop/>
<stop offset="1"/>
</linearGradient>
<linearGradient id="paint5_linear_3239_1573" x1="9.35349" y1="16.5135" x2="26.6455" y2="16.5135" gradientUnits="userSpaceOnUse">
<stop stop-color="white"/>
<stop offset="1" stop-color="#AEBBDB"/>
</linearGradient>
<linearGradient id="paint6_linear_3239_1573" x1="18.0001" y1="22.2776" x2="18.0001" y2="10.7496" gradientUnits="userSpaceOnUse">
<stop stop-color="#C2CEE7"/>
<stop offset="1" stop-color="#4B5075"/>
</linearGradient>
</defs>
</svg>
