<svg xmlns="http://www.w3.org/2000/svg" xmlns:xlink="http://www.w3.org/1999/xlink" width="24" height="24" viewBox="0 0 24 24"><defs><clipPath id="a"><rect width="24" height="24" transform="translate(5068 849)" fill="#fff"/></clipPath></defs><g transform="translate(-5068 -849)" clip-path="url(#a)"><path d="M21.326,6.019a.75.75,0,0,0-.576-.269H5.627L5.168,3.232A1.5,1.5,0,0,0,3.693,2H2A.75.75,0,0,0,2,3.5H3.688l2.4,13.152a2.251,2.251,0,0,0,.5,1.057,2.625,2.625,0,1,0,4.162.791H15A2.624,2.624,0,1,0,17.375,17H8.3a.75.75,0,0,1-.738-.616l-.3-1.634H18.138A2.25,2.25,0,0,0,20.351,12.9l1.14-6.268a.75.75,0,0,0-.165-.615ZM9.5,19.625a1.125,1.125,0,1,1-.33-.8A1.125,1.125,0,0,1,9.5,19.625Zm9,0a1.125,1.125,0,1,1-.33-.8A1.125,1.125,0,0,1,18.5,19.625Zm.375-6.991a.75.75,0,0,1-.741.616H6.99l-1.09-6H19.851Z" transform="translate(5068.75 849)" fill="#4f4f4f"/></g></svg>