<svg width="16" height="16" viewBox="0 0 16 16" fill="none" xmlns="http://www.w3.org/2000/svg">
<path d="M14.1994 6.53008C14.4253 6.48413 14.6283 6.36154 14.7742 6.18308C14.9201 6.00461 14.9999 5.78122 15 5.55071V4.00008C15 3.73487 14.8946 3.48051 14.7071 3.29298C14.5196 3.10544 14.2652 3.00008 14 3.00008H2C1.73479 3.00008 1.48043 3.10544 1.2929 3.29298C1.10536 3.48051 1 3.73487 1 4.00008V5.55071C1.00013 5.78122 1.07989 6.00461 1.22578 6.18308C1.37167 6.36154 1.57474 6.48413 1.80063 6.53008C2.13838 6.60013 2.44167 6.78444 2.65941 7.05197C2.87716 7.31949 2.99604 7.65389 2.99604 7.99883C2.99604 8.34377 2.87716 8.67817 2.65941 8.9457C2.44167 9.21323 2.13838 9.39754 1.80063 9.46758C1.57432 9.51363 1.37093 9.63658 1.22499 9.81556C1.07905 9.99454 0.999551 10.2185 1 10.4495V12.0001C1 12.2653 1.10536 12.5197 1.2929 12.7072C1.48043 12.8947 1.73479 13.0001 2 13.0001H14C14.2652 13.0001 14.5196 12.8947 14.7071 12.7072C14.8946 12.5197 15 12.2653 15 12.0001V10.4495C14.9999 10.2189 14.9201 9.99556 14.7742 9.81709C14.6283 9.63863 14.4253 9.51604 14.1994 9.47008C13.8616 9.40004 13.5583 9.21573 13.3406 8.9482C13.1228 8.68067 13.004 8.34627 13.004 8.00133C13.004 7.65639 13.1228 7.32199 13.3406 7.05447C13.5583 6.78694 13.8616 6.60263 14.1994 6.53258V6.53008ZM2 10.4501C2.56481 10.335 3.07251 10.0283 3.43715 9.58192C3.80179 9.13551 4.00097 8.57681 4.00097 8.0004C4.00097 7.42399 3.80179 6.86529 3.43715 6.41887C3.07251 5.97246 2.56481 5.66577 2 5.55071V4.00008H5V12.0001H2V10.4501ZM14 10.4501V12.0001H5V4.00008H14V5.55008C13.4352 5.66514 12.9275 5.97184 12.5629 6.41825C12.1982 6.86466 11.999 7.42336 11.999 7.99977C11.999 8.57618 12.1982 9.13488 12.5629 9.58129C12.9275 10.0277 13.4352 10.3344 14 10.4495V10.4501Z" fill="#004A9C"/>
<path d="M10.0005 6.10791L5.90965 10.1986C5.867 10.2413 5.80917 10.2652 5.74886 10.2652C5.68855 10.2652 5.63071 10.2413 5.58806 10.1986C5.54542 10.156 5.52146 10.0981 5.52146 10.0378C5.52146 9.97751 5.54542 9.91968 5.58806 9.87703L9.67891 5.78634C9.72152 5.74369 9.77932 5.71972 9.83961 5.71969C9.89989 5.71967 9.95771 5.74359 10.0004 5.78619C10.043 5.8288 10.067 5.8866 10.067 5.94688C10.067 6.00716 10.0431 6.06527 10.0005 6.10791ZM5.59374 7.23853C5.40196 7.04671 5.29422 6.78656 5.29425 6.51532C5.29428 6.24407 5.40206 5.98394 5.59389 5.79216C5.78571 5.60038 6.04587 5.49265 6.31713 5.49268C6.58839 5.4927 6.84853 5.60048 7.04031 5.7923C7.2321 5.98412 7.33984 6.24427 7.33981 6.51552C7.33978 6.78676 7.232 7.04689 7.04017 7.23867C6.84835 7.43046 6.58819 7.53818 6.31693 7.53816C6.04567 7.53813 5.78553 7.43035 5.59374 7.23853ZM5.74886 6.51584C5.74893 6.60926 5.77204 6.70122 5.81613 6.78358C5.86023 6.86593 5.92396 6.93614 6.00167 6.988C6.07938 7.03985 6.16867 7.07174 6.26165 7.08084C6.35463 7.08995 6.44841 7.07599 6.53471 7.0402C6.621 7.00441 6.69714 6.94789 6.75637 6.87566C6.81561 6.80342 6.85612 6.71769 6.87432 6.62606C6.89252 6.53444 6.88784 6.43973 6.8607 6.35034C6.83356 6.26096 6.7848 6.17964 6.71873 6.11359C6.63923 6.03412 6.53795 5.98002 6.4277 5.95813C6.31745 5.93623 6.20318 5.94753 6.09935 5.99059C5.99552 6.03366 5.9068 6.10655 5.84441 6.20004C5.78202 6.29354 5.74877 6.40344 5.74886 6.51584ZM10.2942 9.47024C10.2942 9.70683 10.2121 9.93609 10.062 10.119C9.91181 10.3018 9.70291 10.427 9.47084 10.4731C9.23877 10.5192 8.99789 10.4834 8.78924 10.3718C8.5806 10.2602 8.4171 10.0798 8.32659 9.86117C8.23609 9.64257 8.22419 9.39935 8.29291 9.17295C8.36164 8.94655 8.50674 8.75099 8.7035 8.61957C8.90025 8.48816 9.13649 8.42904 9.37195 8.45227C9.60742 8.4755 9.82754 8.57965 9.99482 8.74698C10.0901 8.84174 10.1656 8.95446 10.217 9.07861C10.2684 9.20276 10.2947 9.33587 10.2942 9.47024ZM9.83971 9.47024C9.83974 9.33879 9.79418 9.2114 9.71081 9.10977C9.62744 9.00815 9.51141 8.93857 9.38249 8.9129C9.25357 8.88723 9.11974 8.90706 9.00379 8.969C8.88785 9.03094 8.79697 9.13116 8.74665 9.2526C8.69632 9.37403 8.68966 9.50915 8.7278 9.63495C8.76593 9.76074 8.84651 9.86942 8.95579 9.94246C9.06508 10.0155 9.19631 10.0484 9.32713 10.0355C9.45795 10.0227 9.58027 9.96485 9.67323 9.87192C9.72616 9.8193 9.76813 9.7567 9.7967 9.68775C9.82528 9.6188 9.83989 9.54487 9.83971 9.47024Z" fill="#004A9C" stroke="#004A9C" stroke-width="0.5"/>
</svg>
