<svg xmlns="http://www.w3.org/2000/svg" xmlns:xlink="http://www.w3.org/1999/xlink" width="24" height="24" viewBox="0 0 24 24"><defs><clipPath id="a"><rect width="24" height="24" transform="translate(5029 918)" fill="#fff"/></clipPath></defs><g transform="translate(-5029 -918)" clip-path="url(#a)"><path d="M11.75,8a3.75,3.75,0,1,1-1.1-2.652A3.75,3.75,0,0,1,11.75,8ZM17,11.75a3.75,3.75,0,1,0-2.652-1.1A3.75,3.75,0,0,0,17,11.75Zm-9,1.5a3.75,3.75,0,1,0,2.652,1.1A3.75,3.75,0,0,0,8,13.25Zm9,0a3.75,3.75,0,1,0,2.652,1.1A3.75,3.75,0,0,0,17,13.25Z" transform="translate(5028.75 917.75)" fill="#004a9c"/></g></svg>