<svg width="21" height="20" viewBox="0 0 21 20" fill="none" xmlns="http://www.w3.org/2000/svg">
<path d="M16.75 2.5H14.875V1.875C14.875 1.70924 14.8092 1.55027 14.6919 1.43306C14.5747 1.31585 14.4158 1.25 14.25 1.25C14.0842 1.25 13.9253 1.31585 13.8081 1.43306C13.6908 1.55027 13.625 1.70924 13.625 1.875V2.5H7.375V1.875C7.375 1.70924 7.30915 1.55027 7.19194 1.43306C7.07473 1.31585 6.91576 1.25 6.75 1.25C6.58424 1.25 6.42527 1.31585 6.30806 1.43306C6.19085 1.55027 6.125 1.70924 6.125 1.875V2.5H4.25C3.91848 2.5 3.60054 2.6317 3.36612 2.86612C3.1317 3.10054 3 3.41848 3 3.75V16.25C3 16.5815 3.1317 16.8995 3.36612 17.1339C3.60054 17.3683 3.91848 17.5 4.25 17.5H16.75C17.0815 17.5 17.3995 17.3683 17.6339 17.1339C17.8683 16.8995 18 16.5815 18 16.25V3.75C18 3.41848 17.8683 3.10054 17.6339 2.86612C17.3995 2.6317 17.0815 2.5 16.75 2.5ZM4.25 6.25V3.75H6.125V4.375C6.125 4.54076 6.19085 4.69973 6.30806 4.81694C6.42527 4.93415 6.58424 5 6.75 5C6.91576 5 7.07473 4.93415 7.19194 4.81694C7.30915 4.69973 7.375 4.54076 7.375 4.375V3.75H13.625V4.375C13.625 4.54076 13.6908 4.69973 13.8081 4.81694C13.9253 4.93415 14.0842 5 14.25 5C14.4158 5 14.5747 4.93415 14.6919 4.81694C14.8092 4.69973 14.875 4.54076 14.875 4.375V3.75H16.75V6.25H4.25Z" fill="#004A9C"/>
<path d="M10.8629 15.6127V15.6127L10.8128 15.6127C10.8127 15.6127 10.8127 15.6127 10.8126 15.6127H10.8125V15.4877L10.8629 15.6127ZM10.8629 15.6127L10.8646 15.6127M10.8629 15.6127L10.8646 15.6127M10.8646 15.6127C11.8832 15.599 12.8555 15.1847 13.571 14.4595C14.2865 13.7343 14.6876 12.7565 14.6875 11.7377L10.8646 15.6127ZM8.7538 13.9191C8.71206 13.8797 8.66295 13.8488 8.60929 13.8283C8.5556 13.8078 8.4984 13.7981 8.44095 13.7997C8.38349 13.8013 8.32692 13.8142 8.27445 13.8376C8.22199 13.8611 8.17466 13.8946 8.13516 13.9364C8.09567 13.9782 8.06479 14.0273 8.04428 14.081C8.02377 14.1347 8.01404 14.1919 8.01564 14.2493C8.01724 14.3068 8.03014 14.3633 8.0536 14.4158C8.07703 14.4682 8.11055 14.5155 8.15223 14.555L8.66797 14.01M8.7538 13.9191C8.75382 13.9191 8.75384 13.9192 8.75386 13.9192L8.66797 14.01M8.7538 13.9191C8.75378 13.9191 8.75375 13.9191 8.75373 13.9191L8.66797 14.01M8.7538 13.9191C9.18271 14.3236 9.72129 14.5927 10.3023 14.6929C10.8833 14.7931 11.4809 14.7198 12.0205 14.4823C12.5602 14.2448 13.0178 13.8536 13.3364 13.3575C13.655 12.8614 13.8203 12.2824 13.8117 11.6929C13.8031 11.1034 13.621 10.5294 13.2882 10.0428C12.9553 9.55619 12.4865 9.17842 11.9401 8.95672C11.3938 8.73501 10.7943 8.67919 10.2165 8.79623C9.63928 8.91314 9.10928 9.19734 8.69252 9.61339M8.66797 14.01C9.11476 14.4314 9.67581 14.7117 10.281 14.8161C10.8862 14.9204 11.5088 14.8441 12.0709 14.5967C12.633 14.3493 13.1098 13.9418 13.4416 13.425C13.7734 12.9082 13.9456 12.3051 13.9367 11.6911C13.9278 11.077 13.7381 10.4791 13.3914 9.97224C13.0446 9.46534 12.5562 9.07183 11.9872 8.84089C11.4181 8.60995 10.7936 8.5518 10.1917 8.67372C9.58974 8.79564 9.03708 9.09221 8.60273 9.5264M8.69252 9.61339C8.69319 9.61268 8.69386 9.61197 8.69452 9.61126L8.60273 9.5264M8.69252 9.61339C8.68718 9.61903 8.68157 9.62442 8.67571 9.62953M8.69252 9.61339C8.69205 9.61386 8.69158 9.61433 8.69111 9.6148L8.60273 9.5264M8.60273 9.5264L8.67571 9.62953M8.67571 9.62953C8.67507 9.63009 8.67442 9.63065 8.67377 9.6312L8.59258 9.53616L8.67703 9.62832L8.67571 9.62953ZM7.69069 10.3627L7.5543 10.4877H7.7393L7.8757 10.3627H7.69069ZM7.0625 9.92V10.0893L7.1875 9.97513V9.80585L7.0625 9.92ZM8.07973 8.99099C8.07909 8.99163 8.07844 8.99227 8.0778 8.99292L8.16602 9.08148L8.08172 8.98918L8.07973 8.99099Z" fill="white" stroke="white" stroke-width="0.25"/>
</svg>
