<svg xmlns="http://www.w3.org/2000/svg" xmlns:xlink="http://www.w3.org/1999/xlink" width="24" height="24" viewBox="0 0 24 24"><defs><clipPath id="a"><rect width="24" height="24" transform="translate(5068 918)" fill="#fff"/></clipPath></defs><g transform="translate(-5068 -918)" clip-path="url(#a)"><path d="M21.326,6.019a.75.75,0,0,0-.576-.269H5.626L5.168,3.232A1.5,1.5,0,0,0,3.692,2H2A.75.75,0,0,0,2,3.5H3.688l2.4,13.152a2.25,2.25,0,0,0,.5,1.056,2.625,2.625,0,1,0,4.162.791H15A2.624,2.624,0,1,0,17.375,17H8.3a.75.75,0,0,1-.738-.616l-.3-1.634H18.137A2.25,2.25,0,0,0,20.351,12.9l1.14-6.268a.75.75,0,0,0-.165-.615ZM17.375,18.5a1.125,1.125,0,1,1-.8.33A1.125,1.125,0,0,1,17.375,18.5Zm-9,0a1.125,1.125,0,1,1-.8.33A1.125,1.125,0,0,1,8.375,18.5Z" transform="translate(5068.75 918)" fill="#004a9c"/></g></svg>