<svg width="17" height="16" viewBox="0 0 17 16" fill="none" xmlns="http://www.w3.org/2000/svg">
<path d="M14.6669 8C14.6669 8.13261 14.6142 8.25979 14.5204 8.35355C14.4267 8.44732 14.2995 8.5 14.1669 8.5H9.16687V13.5C9.16687 13.6326 9.11419 13.7598 9.02042 13.8536C8.92666 13.9473 8.79948 14 8.66687 14C8.53426 14 8.40708 13.9473 8.31332 13.8536C8.21955 13.7598 8.16687 13.6326 8.16687 13.5V8.5H3.16687C3.03426 8.5 2.90709 8.44732 2.81332 8.35355C2.71955 8.25979 2.66687 8.13261 2.66687 8C2.66687 7.86739 2.71955 7.74021 2.81332 7.64645C2.90709 7.55268 3.03426 7.5 3.16687 7.5H8.16687V2.5C8.16687 2.36739 8.21955 2.24021 8.31332 2.14645C8.40708 2.05268 8.53426 2 8.66687 2C8.79948 2 8.92666 2.05268 9.02042 2.14645C9.11419 2.24021 9.16687 2.36739 9.16687 2.5V7.5H14.1669C14.2995 7.5 14.4267 7.55268 14.5204 7.64645C14.6142 7.74021 14.6669 7.86739 14.6669 8Z" fill="#333333"/>
</svg>
