<svg width="21" height="20" viewBox="0 0 21 20" fill="none" xmlns="http://www.w3.org/2000/svg">
<path d="M18 10C18.0002 11.9718 17.2239 13.8643 15.8391 15.268C14.4543 16.6716 12.5724 17.4735 10.6008 17.5H10.5C8.58456 17.5048 6.74085 16.7718 5.35156 15.4531C5.2919 15.3967 5.24394 15.3291 5.21042 15.2541C5.17689 15.1792 5.15846 15.0983 5.15618 15.0162C5.15389 14.9341 5.1678 14.8524 5.1971 14.7757C5.2264 14.699 5.27053 14.6288 5.32695 14.5691C5.38338 14.5095 5.45101 14.4615 5.52597 14.428C5.60093 14.3945 5.68176 14.376 5.76385 14.3738C5.84593 14.3715 5.92767 14.3854 6.00438 14.4147C6.08109 14.444 6.15128 14.4881 6.21094 14.5445C7.10453 15.3873 8.22663 15.948 9.43705 16.1567C10.6475 16.3654 11.8926 16.2128 13.0168 15.718C14.141 15.2232 15.0945 14.4081 15.7582 13.3746C16.4218 12.341 16.7663 11.1348 16.7484 9.90668C16.7305 8.67852 16.3512 7.48285 15.6577 6.46904C14.9642 5.45523 13.9874 4.66822 12.8493 4.20633C11.7112 3.74445 10.4622 3.62816 9.25832 3.87199C8.05447 4.11583 6.94916 4.70898 6.08047 5.57735C6.07409 5.58425 6.0673 5.59077 6.06016 5.59688L3.98359 7.5H6.125C6.29076 7.5 6.44973 7.56585 6.56694 7.68306C6.68415 7.80027 6.75 7.95924 6.75 8.125C6.75 8.29076 6.68415 8.44974 6.56694 8.56695C6.44973 8.68416 6.29076 8.75 6.125 8.75H2.375C2.20924 8.75 2.05027 8.68416 1.93306 8.56695C1.81585 8.44974 1.75 8.29076 1.75 8.125V4.375C1.75 4.20924 1.81585 4.05027 1.93306 3.93306C2.05027 3.81585 2.20924 3.75 2.375 3.75C2.54076 3.75 2.69973 3.81585 2.81694 3.93306C2.93415 4.05027 3 4.20924 3 4.375V6.70313L5.20703 4.6875C6.25702 3.6416 7.59333 2.93021 9.04729 2.64315C10.5012 2.35609 12.0077 2.50623 13.3764 3.0746C14.7451 3.64298 15.9147 4.60412 16.7376 5.83668C17.5605 7.06925 17.9998 8.51798 18 10Z" fill="#6F6F6F"/>
</svg>
