<svg xmlns="http://www.w3.org/2000/svg" xmlns:xlink="http://www.w3.org/1999/xlink" width="24" height="24" viewBox="0 0 24 24"><defs><clipPath id="a"><rect width="24" height="24" transform="translate(4993 918)" fill="#fff"/></clipPath></defs><g transform="translate(-4993 -918)" clip-path="url(#a)"><path d="M21.5,11.333V20A1.5,1.5,0,0,1,20,21.5H16.25a1.5,1.5,0,0,1-1.5-1.5V16.25A.75.75,0,0,0,14,15.5H11a.75.75,0,0,0-.75.75V20a1.5,1.5,0,0,1-1.5,1.5H5A1.5,1.5,0,0,1,3.5,20V11.333a1.5,1.5,0,0,1,.485-1.1l7.5-7.076.01-.01a1.5,1.5,0,0,1,2.018,0l.01.01,7.5,7.076a1.5,1.5,0,0,1,.476,1.1Z" transform="translate(4992.5 918.248)" fill="#004a9c"/></g></svg>