<svg width="21" height="20" viewBox="0 0 21 20" fill="none" xmlns="http://www.w3.org/2000/svg">
<path d="M17.975 5.16792L11.1 1.4062C10.9163 1.3047 10.7099 1.25146 10.5 1.25146C10.2901 1.25146 10.0837 1.3047 9.9 1.4062L3.025 5.16948C2.82866 5.27691 2.66477 5.43508 2.55043 5.62747C2.43609 5.81987 2.37551 6.03943 2.375 6.26323V13.7351C2.37551 13.9589 2.43609 14.1785 2.55043 14.3709C2.66477 14.5633 2.82866 14.7214 3.025 14.8289L9.9 18.5921C10.0837 18.6936 10.2901 18.7469 10.5 18.7469C10.7099 18.7469 10.9163 18.6936 11.1 18.5921L17.975 14.8289C18.1713 14.7214 18.3352 14.5633 18.4496 14.3709C18.5639 14.1785 18.6245 13.9589 18.625 13.7351V6.26402C18.6249 6.03981 18.5645 5.81976 18.4502 5.62692C18.3358 5.43407 18.1717 5.27554 17.975 5.16792ZM10.5 2.49995L16.7766 5.93745L14.4508 7.21089L8.17344 3.77339L10.5 2.49995ZM10.5 9.37495L4.22344 5.93745L6.87187 4.48745L13.1484 7.92495L10.5 9.37495ZM3.625 7.0312L9.875 10.4515V17.1539L3.625 13.7359V7.0312ZM17.375 13.7328L11.125 17.1539V10.4546L13.625 9.08667V11.875C13.625 12.0407 13.6908 12.1997 13.8081 12.3169C13.9253 12.4341 14.0842 12.5 14.25 12.5C14.4158 12.5 14.5747 12.4341 14.6919 12.3169C14.8092 12.1997 14.875 12.0407 14.875 11.875V8.4023L17.375 7.0312V13.732V13.7328Z" fill="#6F6F6F"/>
</svg>
