<svg width="20" height="20" viewBox="0 0 20 20" fill="none" xmlns="http://www.w3.org/2000/svg">
<path d="M17.9415 17.058L14.0298 13.1471C15.1636 11.7859 15.7289 10.04 15.6083 8.27263C15.4876 6.50524 14.6902 4.85241 13.3819 3.65797C12.0737 2.46353 10.3553 1.81944 8.58426 1.85969C6.81321 1.89994 5.12586 2.62143 3.87322 3.87407C2.62058 5.12671 1.89908 6.81407 1.85883 8.58511C1.81858 10.3562 2.46267 12.0745 3.65712 13.3828C4.85156 14.6911 6.50439 15.4885 8.27178 15.6091C10.0392 15.7298 11.785 15.1644 13.1462 14.0307L17.0572 17.9424C17.1152 18.0005 17.1842 18.0465 17.26 18.0779C17.3359 18.1094 17.4172 18.1255 17.4993 18.1255C17.5815 18.1255 17.6628 18.1094 17.7387 18.0779C17.8145 18.0465 17.8835 18.0005 17.9415 17.9424C17.9996 17.8843 18.0457 17.8154 18.0771 17.7395C18.1085 17.6636 18.1247 17.5823 18.1247 17.5002C18.1247 17.4181 18.1085 17.3368 18.0771 17.2609C18.0457 17.185 17.9996 17.1161 17.9415 17.058ZM3.12433 8.75019C3.12433 7.63766 3.45423 6.55013 4.07231 5.6251C4.69039 4.70007 5.5689 3.9791 6.59674 3.55336C7.62457 3.12761 8.75557 3.01622 9.84672 3.23326C10.9379 3.4503 11.9401 3.98603 12.7268 4.77271C13.5135 5.55938 14.0492 6.56166 14.2663 7.6528C14.4833 8.74395 14.3719 9.87495 13.9462 10.9028C13.5204 11.9306 12.7994 12.8091 11.8744 13.4272C10.9494 14.0453 9.86185 14.3752 8.74933 14.3752C7.25799 14.3735 5.82821 13.7804 4.77368 12.7258C3.71914 11.6713 3.12598 10.2415 3.12433 8.75019Z" fill="#BDBDBD"/>
</svg>
