<svg width="24" height="24" viewBox="0 0 24 24" fill="none" xmlns="http://www.w3.org/2000/svg">
<path d="M19.5 9.00011C19.5 8.7776 19.566 8.5601 19.6896 8.37509C19.8132 8.19008 19.9889 8.04589 20.1945 7.96074C20.4001 7.87559 20.6263 7.85331 20.8445 7.89672C21.0627 7.94013 21.2632 8.04728 21.4205 8.20461C21.5778 8.36195 21.685 8.5624 21.7284 8.78063C21.7718 8.99886 21.7495 9.22506 21.6644 9.43062C21.5792 9.63619 21.435 9.81189 21.25 9.93551C21.065 10.0591 20.8475 10.1251 20.625 10.1251C20.3266 10.1251 20.0405 10.0066 19.8295 9.7956C19.6185 9.58462 19.5 9.29847 19.5 9.00011ZM18.375 6.75011C18.5975 6.75011 18.815 6.68413 19 6.56051C19.185 6.43689 19.3292 6.26119 19.4144 6.05563C19.4995 5.85006 19.5218 5.62386 19.4784 5.40563C19.435 5.1874 19.3278 4.98695 19.1705 4.82961C19.0132 4.67228 18.8127 4.56513 18.5945 4.52172C18.3763 4.47831 18.1501 4.50059 17.9445 4.58574C17.7389 4.67089 17.5632 4.81508 17.4396 5.00009C17.316 5.1851 17.25 5.4026 17.25 5.62511C17.25 5.92348 17.3685 6.20962 17.5795 6.4206C17.7905 6.63158 18.0766 6.75011 18.375 6.75011ZM21.0619 12.0001C20.8637 11.9838 20.6672 12.0468 20.5155 12.1753C20.3638 12.3038 20.2693 12.4873 20.2528 12.6854C20.1186 14.2533 19.5394 15.7503 18.5832 17.0002C17.6271 18.2501 16.3339 19.2009 14.8557 19.7407C13.3775 20.2806 11.7759 20.387 10.2393 20.0475C8.7027 19.708 7.29503 18.9366 6.18194 17.8242C5.06884 16.7118 4.29661 15.3047 3.95613 13.7683C3.61564 12.2319 3.72105 10.6302 4.25996 9.15169C4.79887 7.67318 5.74886 6.37935 6.99815 5.42243C8.24744 4.46551 9.74405 3.88531 11.3119 3.75011C11.4104 3.74198 11.5063 3.71454 11.5942 3.66934C11.6821 3.62414 11.7602 3.56207 11.8241 3.48668C11.888 3.41129 11.9364 3.32406 11.9666 3.22995C11.9968 3.13585 12.0081 3.03672 12 2.93823C11.9919 2.83974 11.9644 2.74381 11.9192 2.65593C11.8741 2.56804 11.812 2.48992 11.7366 2.42602C11.6612 2.36213 11.574 2.3137 11.4799 2.28352C11.3858 2.25333 11.2866 2.24198 11.1881 2.25011C9.33567 2.40945 7.56723 3.09455 6.0909 4.22482C4.61456 5.35508 3.49175 6.88348 2.85455 8.6302C2.21735 10.3769 2.09227 12.2693 2.49404 14.0847C2.89581 15.9001 3.8077 17.563 5.12243 18.8777C6.43717 20.1924 8.10005 21.1043 9.91544 21.5061C11.7308 21.9079 13.6232 21.7828 15.3699 21.1456C17.1166 20.5084 18.645 19.3856 19.7753 17.9092C20.9056 16.4329 21.5907 14.6645 21.75 12.812C21.7585 12.7134 21.7474 12.6142 21.7173 12.5199C21.6873 12.4257 21.6389 12.3383 21.5749 12.2628C21.511 12.1874 21.4327 12.1253 21.3446 12.0802C21.2566 12.0351 21.1605 12.0079 21.0619 12.0001ZM12 5.25011C13.335 5.25011 14.6401 5.64599 15.7501 6.38769C16.8601 7.12939 17.7253 8.18359 18.2362 9.41699C18.7471 10.6504 18.8808 12.0076 18.6203 13.317C18.3599 14.6263 17.717 15.8291 16.773 16.7731C15.829 17.7171 14.6263 18.36 13.3169 18.6204C12.0075 18.8809 10.6503 18.7472 9.4169 18.2363C8.1835 17.7254 7.1293 16.8602 6.3876 15.7502C5.6459 14.6402 5.25002 13.3351 5.25002 12.0001C5.252 10.2105 5.9638 8.49477 7.22924 7.22933C8.49468 5.96389 10.2104 5.25209 12 5.25011ZM11.25 12.0001C11.25 12.199 11.329 12.3898 11.4697 12.5304C11.6103 12.6711 11.8011 12.7501 12 12.7501H16.5C16.6989 12.7501 16.8897 12.6711 17.0303 12.5304C17.171 12.3898 17.25 12.199 17.25 12.0001C17.25 11.8012 17.171 11.6104 17.0303 11.4698C16.8897 11.3291 16.6989 11.2501 16.5 11.2501H12.75V7.50011C12.75 7.30119 12.671 7.11043 12.5303 6.96978C12.3897 6.82912 12.1989 6.75011 12 6.75011C11.8011 6.75011 11.6103 6.82912 11.4697 6.96978C11.329 7.11043 11.25 7.30119 11.25 7.50011V12.0001ZM15 4.50011C15.2225 4.50011 15.44 4.43413 15.625 4.31051C15.81 4.18689 15.9542 4.01119 16.0394 3.80563C16.1245 3.60006 16.1468 3.37386 16.1034 3.15563C16.06 2.9374 15.9528 2.73695 15.7955 2.57961C15.6382 2.42228 15.4377 2.31513 15.2195 2.27172C15.0013 2.22831 14.7751 2.25059 14.5695 2.33574C14.3639 2.42089 14.1882 2.56508 14.0646 2.75009C13.941 2.9351 13.875 3.1526 13.875 3.37511C13.875 3.67348 13.9935 3.95962 14.2045 4.1706C14.4155 4.38158 14.7016 4.50011 15 4.50011Z" fill="#004A9C"/>
</svg>
