<svg width="24" height="24" viewBox="0 0 24 24" fill="none" xmlns="http://www.w3.org/2000/svg">
<path d="M22.2806 9.97045L14.7806 2.47045C14.6757 2.3655 14.5421 2.294 14.3966 2.26498C14.2512 2.23596 14.1004 2.25073 13.9633 2.30743C13.8262 2.36413 13.709 2.46021 13.6265 2.58351C13.5441 2.70681 13.5 2.8518 13.4999 3.00014V6.78295C11.0681 6.99108 8.38213 8.1817 6.17244 10.0558C3.51182 12.3133 1.85526 15.2223 1.50744 18.2467C1.48026 18.4818 1.52794 18.7195 1.64368 18.926C1.75943 19.1325 1.93735 19.2972 2.15212 19.3967C2.36689 19.4962 2.60757 19.5254 2.83991 19.4802C3.07225 19.435 3.28441 19.3176 3.44619 19.1448C4.47744 18.047 8.14681 14.5755 13.4999 14.2698V18.0001C13.5 18.1485 13.5441 18.2935 13.6265 18.4168C13.709 18.5401 13.8262 18.6362 13.9633 18.6928C14.1004 18.7495 14.2512 18.7643 14.3966 18.7353C14.5421 18.7063 14.6757 18.6348 14.7806 18.5298L22.2806 11.0298C22.4208 10.8892 22.4996 10.6987 22.4996 10.5001C22.4996 10.3015 22.4208 10.1111 22.2806 9.97045ZM14.9999 16.1898V13.5001C14.9999 13.3012 14.9209 13.1105 14.7803 12.9698C14.6396 12.8292 14.4488 12.7501 14.2499 12.7501C11.6174 12.7501 9.05338 13.4373 6.629 14.7939C5.39426 15.4879 4.24383 16.3221 3.20057 17.2801C3.74432 15.0451 5.11494 12.9198 7.14275 11.1995C9.31963 9.35358 11.9765 8.25014 14.2499 8.25014C14.4488 8.25014 14.6396 8.17112 14.7803 8.03047C14.9209 7.88982 14.9999 7.69905 14.9999 7.50014V4.81139L20.6896 10.5001L14.9999 16.1898Z" fill="#333333"/>
</svg>
