<svg width="16" height="16" viewBox="0 0 16 16" fill="none" xmlns="http://www.w3.org/2000/svg">
<path d="M13.0001 5.99975C13.0001 5.85141 13.0441 5.7064 13.1265 5.58307C13.2089 5.45973 13.326 5.3636 13.4631 5.30684C13.6001 5.25007 13.7509 5.23522 13.8964 5.26416C14.0419 5.2931 14.1755 5.36453 14.2804 5.46942C14.3853 5.5743 14.4567 5.70794 14.4857 5.85343C14.5146 5.99891 14.4998 6.14971 14.443 6.28676C14.3862 6.4238 14.2901 6.54094 14.1668 6.62335C14.0434 6.70576 13.8984 6.74975 13.7501 6.74975C13.5512 6.74975 13.3604 6.67073 13.2198 6.53008C13.0791 6.38942 13.0001 6.19866 13.0001 5.99975ZM12.2501 4.49975C12.3984 4.49975 12.5434 4.45576 12.6668 4.37335C12.7901 4.29094 12.8862 4.1738 12.943 4.03676C12.9998 3.89971 13.0146 3.74891 12.9857 3.60343C12.9567 3.45794 12.8853 3.3243 12.7804 3.21942C12.6755 3.11453 12.5419 3.0431 12.3964 3.01416C12.2509 2.98522 12.1001 3.00007 11.9631 3.05684C11.826 3.1136 11.7089 3.20973 11.6265 3.33307C11.5441 3.4564 11.5001 3.60141 11.5001 3.74975C11.5001 3.94866 11.5791 4.13942 11.7198 4.28008C11.8604 4.42073 12.0512 4.49975 12.2501 4.49975ZM14.0413 7.99975C13.9092 7.98885 13.7782 8.03086 13.6771 8.11653C13.5759 8.2022 13.513 8.32453 13.502 8.45662C13.4125 9.50191 13.0263 10.4999 12.3889 11.3332C11.7515 12.1664 10.8893 12.8003 9.90387 13.1602C8.91842 13.5201 7.85068 13.591 6.82628 13.3647C5.80188 13.1383 4.86344 12.6241 4.12137 11.8825C3.37931 11.1409 2.86449 10.2028 2.6375 9.17852C2.41051 8.15426 2.48078 7.08648 2.84005 6.1008C3.19933 5.11513 3.83265 4.25257 4.66551 3.61463C5.49837 2.97668 6.49611 2.58988 7.54134 2.49975C7.607 2.49433 7.67096 2.47603 7.72955 2.4459C7.78814 2.41577 7.84022 2.37439 7.88281 2.32413C7.92541 2.27387 7.9577 2.21571 7.97782 2.15298C7.99794 2.09024 8.00551 2.02416 8.00009 1.9585C7.99468 1.89283 7.97638 1.82888 7.94625 1.77029C7.91612 1.7117 7.87474 1.65962 7.82448 1.61702C7.77422 1.57443 7.71606 1.54214 7.65333 1.52202C7.59059 1.5019 7.5245 1.49433 7.45884 1.49975C6.22386 1.60597 5.0449 2.06271 4.06068 2.81622C3.07646 3.56973 2.32791 4.58866 1.90311 5.75314C1.47831 6.91762 1.39493 8.1792 1.66277 9.38946C1.93062 10.5997 2.53855 11.7083 3.41504 12.5848C4.29153 13.4613 5.40012 14.0692 6.61037 14.3371C7.82063 14.6049 9.08222 14.5215 10.2467 14.0967C11.4112 13.6719 12.4301 12.9234 13.1836 11.9392C13.9371 10.9549 14.3939 9.77598 14.5001 8.541C14.5057 8.47529 14.4983 8.40912 14.4783 8.34629C14.4583 8.28346 14.426 8.22521 14.3834 8.1749C14.3407 8.1246 14.2885 8.08322 14.2298 8.05316C14.1711 8.0231 14.1071 8.00494 14.0413 7.99975ZM8.00009 3.49975C8.89011 3.49975 9.76014 3.76367 10.5002 4.25813C11.2402 4.7526 11.817 5.4554 12.1576 6.27767C12.4981 7.09994 12.5873 8.00474 12.4136 8.87765C12.24 9.75057 11.8114 10.5524 11.1821 11.1817C10.5527 11.8111 9.75091 12.2396 8.878 12.4133C8.00509 12.5869 7.10029 12.4978 6.27802 12.1572C5.45575 11.8166 4.75295 11.2398 4.25848 10.4998C3.76401 9.75979 3.50009 8.88976 3.50009 7.99975C3.50142 6.80668 3.97595 5.66285 4.81957 4.81923C5.6632 3.9756 6.80703 3.50107 8.00009 3.49975ZM7.50009 7.99975C7.50009 8.13235 7.55277 8.25953 7.64654 8.3533C7.74031 8.44707 7.86749 8.49975 8.00009 8.49975H11.0001C11.1327 8.49975 11.2599 8.44707 11.3536 8.3533C11.4474 8.25953 11.5001 8.13235 11.5001 7.99975C11.5001 7.86714 11.4474 7.73996 11.3536 7.64619C11.2599 7.55242 11.1327 7.49975 11.0001 7.49975H8.50009V4.99975C8.50009 4.86714 8.44742 4.73996 8.35365 4.64619C8.25988 4.55242 8.1327 4.49975 8.00009 4.49975C7.86749 4.49975 7.74031 4.55242 7.64654 4.64619C7.55277 4.73996 7.50009 4.86714 7.50009 4.99975V7.99975ZM10.0001 2.99975C10.1484 2.99975 10.2934 2.95576 10.4168 2.87335C10.5401 2.79094 10.6362 2.6738 10.693 2.53676C10.7498 2.39971 10.7646 2.24891 10.7357 2.10343C10.7067 1.95794 10.6353 1.8243 10.5304 1.71942C10.4255 1.61453 10.2919 1.5431 10.1464 1.51416C10.0009 1.48522 9.85013 1.50007 9.71308 1.55684C9.57604 1.6136 9.4589 1.70973 9.37649 1.83307C9.29408 1.9564 9.25009 2.10141 9.25009 2.24975C9.25009 2.44866 9.32911 2.63942 9.46976 2.78008C9.61042 2.92073 9.80118 2.99975 10.0001 2.99975Z" fill="#BDBDBD"/>
</svg>
