<svg width="184" height="166" viewBox="0 0 184 166" fill="none" xmlns="http://www.w3.org/2000/svg">
<g clip-path="url(#clip0_6694_24929)">
<path d="M105.589 180.443C105.273 180.171 104.964 179.9 104.663 179.62L97.474 172.437L77.3556 152.324L70.6445 145.618L69.7036 144.678C70.7949 144.854 71.8986 144.943 73.004 144.942H73.8934C75.1779 144.895 76.4563 144.743 77.7157 144.487C79.8545 144.036 81.9321 143.333 83.9049 142.393C87.3126 140.74 90.4323 138.55 93.1445 135.907C93.7546 135.312 94.2177 134.798 94.4015 134.577L109.918 119.328L109.977 119.401L163.188 67.108L163.467 66.7628L189.319 41.3396C191.006 39.7011 193.207 38.6944 195.551 38.4896C197.894 38.2849 200.237 38.8946 202.183 40.2158L208.306 46.3347L241.537 79.5441C241.831 79.8379 242.111 80.1391 242.375 80.4623C244.209 82.7333 245.138 85.6016 244.983 88.5156C244.829 91.4296 243.601 94.1836 241.537 96.248L240.648 97.1515L200.97 137.398L159.366 179.643C158.064 180.948 156.666 182.153 155.183 183.249C155.13 183.299 155.073 183.346 155.014 183.389C154.816 183.528 154.617 183.683 154.404 183.822L154.331 183.881C147.068 189.05 138.231 191.533 129.337 190.904C120.443 190.276 112.044 186.575 105.582 180.436L105.589 180.443ZM73.0261 141.512C70.1484 141.499 67.3074 140.865 64.6979 139.653L57.9207 132.895L56.2668 131.25L55.9802 130.956L52.8341 127.805L37.7361 112.577L38.111 112.945C39.7585 114.458 41.5971 115.749 43.5798 116.786C47.9441 119.314 52.7792 120.924 57.7884 121.517C63.8451 122.242 69.9875 121.486 75.687 119.313C77.2845 118.698 78.839 117.977 80.3399 117.154C83.411 115.453 86.2291 113.332 88.7122 110.851L89.6016 109.955L98.1135 101.456L99.0029 100.552L101.517 98.033L102.406 97.1368L108.184 91.3705L112.491 87.0733L118.269 81.2923L119.173 80.3962L155.779 43.8078L170.906 27.4491L171.002 27.3536L171.81 26.553C174.024 24.3519 177.019 23.1162 180.142 23.1162C183.265 23.1162 186.26 24.3519 188.474 26.553L196.743 34.8168L197.015 35.0885C195.156 34.9996 193.298 35.2948 191.557 35.9559C189.817 36.6169 188.232 37.6294 186.901 38.9303L158.961 66.4396L158.682 66.7848L109.999 114.649L109.926 114.59L91.9905 132.219L91.8802 132.359C91.8288 132.418 91.4392 132.851 90.7924 133.49C88.3546 135.882 85.5476 137.866 82.4789 139.367C80.7536 140.186 78.9378 140.8 77.0689 141.196C76.0028 141.413 74.9215 141.548 73.8346 141.6L73.0261 141.512Z" fill="url(#paint0_linear_6694_24929)"/>
<path fill-rule="evenodd" clip-rule="evenodd" d="M131.877 67.7034L137.368 62.2161L78.225 3.12081C75.7942 1.00728 72.6512 -0.105314 69.4311 0.00785904C66.211 0.121032 63.154 1.45153 60.8777 3.73049L39.517 25.0254L4.27114 60.2842L3.6831 60.8572C3.35968 61.1877 3.06566 61.5183 2.78634 61.8562C1.75059 63.1403 0.971955 64.6117 0.492963 66.1901L0.419462 66.4398L0.279802 67.0275C0.169916 67.5438 0.0913627 68.0663 0.04458 68.5921C0.0117914 68.9511 -0.00292507 69.3115 0.000479874 69.6719C-2.73961e-05 72.79 1.16678 75.7954 3.27147 78.0973L4.00653 78.8319L37.084 111.887C37.4368 112.249 37.7897 112.602 38.1425 112.945C39.7845 114.453 41.6154 115.742 43.5892 116.779C47.9545 119.303 52.7894 120.911 57.7979 121.502C57.8535 121.509 57.9091 121.516 57.9648 121.523L48.9498 112.44C40.5056 103.937 35.7872 92.4307 35.8327 80.4514C35.8782 68.4721 40.6838 57.0015 49.1923 48.563C57.7009 40.1244 69.2154 35.4093 81.2028 35.4547C93.1902 35.5002 104.669 40.3026 113.113 48.8054C113.337 49.0274 113.515 49.2916 113.637 49.5829C113.759 49.8741 113.821 50.1866 113.821 50.5022C113.821 50.8178 113.759 51.1303 113.637 51.4215C113.515 51.7128 113.337 51.977 113.113 52.199C112.653 52.6432 112.036 52.8884 111.396 52.8815C110.756 52.8747 110.145 52.6163 109.695 52.1623C102.151 44.5644 91.8963 40.2724 81.1861 40.2304C70.4759 40.1883 60.1876 44.3998 52.5846 51.9383C44.9816 59.4767 40.6867 69.7247 40.6446 80.4277C40.6026 91.1307 44.8169 101.412 52.3604 109.01L64.6505 121.417C64.7325 121.495 64.8031 121.585 64.8605 121.683C68.6385 121.428 72.3242 120.601 75.8012 119.257L59.0788 102.436C54.0081 97.3251 50.8787 90.608 50.2293 83.4405C49.58 76.273 51.4513 69.1034 55.5212 63.166C55.7012 62.9056 55.9308 62.6831 56.1968 62.5113C56.4629 62.3395 56.7602 62.2218 57.0718 62.1648C57.3834 62.1079 57.7032 62.1128 58.0128 62.1794C58.3225 62.2459 58.6161 62.3727 58.8767 62.5526C59.1373 62.7326 59.3599 62.962 59.5318 63.2279C59.7037 63.4938 59.8215 63.7909 59.8785 64.1022C59.9355 64.4136 59.9306 64.7332 59.864 65.0426C59.7974 65.3521 59.6705 65.6455 59.4905 65.9059C56.0576 70.9172 54.4804 76.9678 55.0305 83.0159C55.5806 89.064 58.2235 94.7312 62.5042 99.0419L80.4467 117.082C83.4622 115.409 86.2536 113.313 88.729 110.837L89.6257 109.94L98.1377 101.442L99.0271 100.538L101.541 98.0259L102.43 97.1297L108.208 91.3561L108.278 91.2864L89.4366 72.2892C88.341 71.1847 87.0384 70.3067 85.6033 69.7052C84.1681 69.1038 82.6284 68.7907 81.0722 68.7839C79.516 68.7771 77.9736 69.0766 76.5332 69.6655C75.0928 70.2543 73.7826 71.1209 72.6773 72.2158C71.5721 73.3106 70.6935 74.6123 70.0916 76.0465C69.4897 77.4807 69.1765 79.0194 69.1696 80.5745C69.1628 82.1297 69.4626 83.671 70.0518 85.1105C70.6411 86.5499 71.5082 87.8592 72.6038 88.9637L84.769 101.202C84.9925 101.426 85.1695 101.692 85.2901 101.985C85.4107 102.277 85.4724 102.591 85.4717 102.907C85.471 103.224 85.408 103.537 85.2861 103.829C85.1643 104.121 84.9861 104.387 84.7617 104.61C84.5372 104.833 84.271 105.01 83.9781 105.131C83.6852 105.251 83.3715 105.313 83.0548 105.312C82.7381 105.311 82.4246 105.248 82.1323 105.127C81.8399 105.005 81.5745 104.827 81.351 104.603V104.639L69.1932 92.3574C67.6511 90.8043 66.4303 88.963 65.6004 86.9384C64.7704 84.9138 64.3477 82.7457 64.3562 80.5579C64.3647 78.37 64.8044 76.2053 65.6501 74.1873C66.4958 72.1692 67.7309 70.3374 69.2851 68.7964C70.8392 67.2554 72.6818 66.0354 74.7077 65.206C76.7337 64.3766 78.9032 63.9541 81.0925 63.9627C83.2819 63.9712 85.4481 64.4106 87.4675 65.2557C89.4869 66.1008 91.3199 67.3352 92.862 68.8882L111.699 87.8671L112.515 87.0516L118.293 81.2706L119.197 80.3744L128.466 71.1118L122.485 65.0979C122.247 64.877 122.056 64.6103 121.924 64.314C121.792 64.0177 121.721 63.6978 121.716 63.3734C121.711 63.0491 121.771 62.727 121.893 62.4265C122.016 62.126 122.197 61.8532 122.427 61.6246C122.658 61.396 122.932 61.2162 123.233 61.096C123.535 60.9757 123.858 60.9176 124.182 60.9251C124.507 60.9325 124.826 61.0053 125.122 61.1392C125.418 61.2731 125.683 61.4653 125.903 61.7042L131.877 67.7034ZM80.432 117.091L80.3366 117.141C78.967 117.896 77.5515 118.563 76.0985 119.14C77.5851 118.551 79.0326 117.866 80.432 117.091ZM64.7785 121.688H64.6873C63.8738 121.747 63.0604 121.774 62.2469 121.769C61.684 121.771 61.1213 121.76 60.5592 121.736C61.9384 121.8 63.3209 121.786 64.7 121.693C64.7262 121.692 64.7524 121.69 64.7785 121.688ZM78.7938 81.5403C78.9144 81.833 79.0914 82.099 79.3149 82.3233L98.2132 101.319L99.0217 100.511L101.543 97.9915L101.624 97.9107L82.7329 78.9223C82.5094 78.698 82.2439 78.5199 81.9516 78.3982C81.6593 78.2764 81.3458 78.2134 81.0291 78.2127C80.7124 78.2121 80.3986 78.2737 80.1058 78.3942C79.8129 78.5147 79.5467 78.6917 79.3222 78.915C79.0978 79.1383 78.9196 79.4036 78.7978 79.6957C78.6759 79.9879 78.6129 80.3011 78.6122 80.6176C78.6115 80.9341 78.6732 81.2477 78.7938 81.5403ZM87.1704 55.2362C91.8734 56.3742 96.1657 58.7997 99.5657 62.2405L118.376 81.1701L119.184 80.3767L121.706 77.8645L121.786 77.7837L102.984 58.8394C98.9553 54.7734 93.8748 51.9069 88.31 50.5604C82.7452 49.214 76.9153 49.4405 71.4719 51.2147C71.1569 51.2994 70.8623 51.4472 70.6061 51.6489C70.3499 51.8507 70.1374 52.1023 69.9813 52.3886C69.8252 52.6748 69.7289 52.9898 69.6982 53.3143C69.6675 53.6388 69.703 53.9662 69.8025 54.2767C69.9021 54.5871 70.0637 54.8741 70.2774 55.1203C70.4912 55.3665 70.7528 55.5668 71.0463 55.7091C71.3398 55.8514 71.6591 55.9326 71.985 55.948C72.3108 55.9633 72.6364 55.9124 72.942 55.7984C77.5403 54.2929 82.4675 54.0983 87.1704 55.2362Z" fill="url(#paint1_linear_6694_24929)"/>
</g>
<defs>
<linearGradient id="paint0_linear_6694_24929" x1="141.026" y1="23.1162" x2="141.026" y2="191" gradientUnits="userSpaceOnUse">
<stop stop-color="#0056B6"/>
<stop offset="1" stop-color="#004A9C"/>
</linearGradient>
<linearGradient id="paint1_linear_6694_24929" x1="68.6838" y1="0" x2="68.6838" y2="121.775" gradientUnits="userSpaceOnUse">
<stop stop-color="#0056B6"/>
<stop offset="1" stop-color="#004A9C"/>
</linearGradient>
<clipPath id="clip0_6694_24929">
<rect width="245" height="191" fill="white"/>
</clipPath>
</defs>
</svg>
