<svg width="161" height="160" viewBox="0 0 161 160" fill="none" xmlns="http://www.w3.org/2000/svg">
<rect width="160" height="160" transform="translate(0.5)" fill="white"/>
<ellipse cx="80.5001" cy="126.667" rx="69.3333" ry="8" fill="#EAEAEA"/>
<path d="M92.8641 126.074H30.6326C26.5067 126.074 23.1667 122.774 23.1667 118.698V32.7094C23.1667 28.6332 26.5067 25.3334 30.6326 25.3334H92.8641C96.9899 25.3334 100.33 28.6332 100.33 32.7094V118.747C100.33 122.823 96.9899 126.074 92.8641 126.074Z" fill="#F5F5F5"/>
<path d="M49.543 100.694H33.9926C32.2795 100.694 30.8738 99.3192 30.8738 97.6437C30.8738 95.9682 32.2795 94.5934 33.9926 94.5934H49.543C51.2562 94.5934 52.6618 95.9682 52.6618 97.6437C52.6618 99.3192 51.2562 100.694 49.543 100.694Z" fill="white"/>
<path d="M92.1975 112.024H34.0427C32.2441 112.024 30.8738 110.422 30.8738 108.537C30.8738 106.559 32.3298 105.051 34.0427 105.051H92.1975C93.9961 105.051 95.3665 106.653 95.3665 108.537C95.3665 110.422 93.9105 112.024 92.1975 112.024Z" fill="white"/>
<rect x="31.002" y="32.1118" width="61.4876" height="57.0956" rx="5.36434" fill="white"/>
<g clip-path="url(#clip0_5206_20744)">
<path d="M128.637 77.5879C128.637 77.5879 133.7 80.4103 134.224 82.2237C134.747 84.037 134.573 88.2008 134.573 88.2008H130.645C130.645 88.2008 130.208 83.087 128.637 83.5182C127.067 83.9493 126.979 78.6826 126.979 78.6826L128.637 77.5869V77.5879Z" fill="#EAEAEA"/>
<path d="M89.9632 105.169C89.4335 105.809 88.8873 106.568 88.3834 107.458C86.8932 110.087 86.4614 112.623 86.3398 114.327C87.762 114.673 89.1851 115.017 90.6072 115.363L91.9758 112.575L92.5395 110.584C92.5395 110.584 92.9424 109.39 93.2639 108.991C93.5865 108.593 94.0687 107.876 94.0687 107.876L95.1961 106.602V105.169H89.9621H89.9632Z" fill="#EAEAEA"/>
<path d="M84.8092 114.009C84.0384 114.265 83.1202 114.701 82.9574 115.442C82.8152 116.09 83.3469 116.53 83.1181 116.875C82.7894 117.374 81.5785 116.625 79.8977 116.875C78.3221 117.11 77.2576 118.084 76.8381 118.469C76.2672 118.991 75.518 119.677 75.2274 120.858C74.9172 122.121 75.3264 123.163 75.4686 123.486C75.989 124.667 76.9206 125.26 77.4008 125.556C78.0335 125.946 78.8518 126.291 82.7152 126.512C84.3784 126.607 85.9655 126.642 87.8688 126.512C90.5966 126.324 91.3396 125.976 91.7333 125.397C91.9239 125.116 91.9703 124.516 92.0558 123.326C92.1754 121.655 92.1558 120.394 92.1362 119.743C92.1043 118.657 92.0878 118.115 91.9754 117.433C91.9064 117.017 91.8435 116.772 91.8147 116.318C91.7498 115.299 91.9672 114.919 91.8951 114.645C91.7528 114.103 90.3915 113.625 84.8092 114.008V114.009Z" fill="#D6D6D6"/>
<path d="M109.338 105.917C108.921 107.415 110.906 108.079 111.834 110.695C112.993 113.965 111.203 116.618 112.478 117.385C113.057 117.734 113.92 117.485 115.376 117.066C116.46 116.754 117.002 116.599 117.389 116.189C117.767 115.792 118.164 115.011 117.067 110.455C116.159 106.686 115.584 105.963 115.134 105.517C114.667 105.056 113.465 103.864 111.833 104.084C110.84 104.218 109.624 104.883 109.337 105.916L109.338 105.917Z" fill="#EAEAEA"/>
<path d="M110.545 117.544C110.101 118.157 109.981 119.067 109.74 120.889C109.427 123.256 109.283 124.457 109.901 125.269C110.472 126.021 111.343 126.261 112.076 126.464C113.436 126.84 114.281 126.603 115.94 126.464C118.056 126.287 117.788 126.581 121.738 126.464C124.119 126.394 124.901 126.266 125.602 125.668C126.443 124.949 126.7 123.95 126.81 123.517C127.205 121.978 126.703 120.699 126.487 120.172C126.282 119.668 126.014 119.013 125.36 118.42C124.111 117.287 122.468 117.303 122.381 117.305C121.261 117.331 120.545 117.833 120.206 117.464C120.017 117.258 120.169 117.024 120.046 116.508C119.877 115.801 119.382 115.354 119.16 115.154C118.082 114.18 116.627 114.328 116.342 114.358C115.874 114.406 115.518 114.525 113.926 115.393C111.916 116.49 110.904 117.049 110.544 117.544H110.545Z" fill="#D6D6D6"/>
<path d="M116.941 55.1125C104.109 53.9037 89.6187 54.2492 89.6187 54.2492C89.6187 54.2492 76.089 54.6814 73.994 62.6237C71.8989 70.567 69.8915 92.0658 74.6927 101.563C78.8993 109.884 97.8474 108.926 106.293 108.154C107.486 108.045 108.47 107.94 109.173 107.865C114.847 107.26 122.267 106.138 127.242 96.8993C132.217 87.6605 129.773 56.3194 116.942 55.1105L116.941 55.1125Z" fill="#D6D6D6"/>
<path d="M116.941 55.1125C104.109 53.9037 89.6189 54.2492 89.6189 54.2492C89.6189 54.2492 91.074 57.9523 106.67 58.4894C122.266 59.0266 122.732 73.4169 122.964 77.4462C123.197 81.4754 124.42 104.674 106.292 108.155C107.485 108.046 108.469 107.941 109.172 107.866C114.846 107.261 122.266 106.139 127.241 96.9003C132.216 87.6615 129.772 56.3204 116.941 55.1115V55.1125Z" fill="#DBDBDB"/>
<path d="M122.964 77.4451C122.731 73.4159 122.265 59.0256 106.669 58.4884C91.0736 57.9512 89.6185 54.2482 89.6185 54.2482C89.6185 54.2482 76.0888 54.6803 73.9937 62.6226C71.8987 70.566 69.8912 92.0648 74.6924 101.562C78.899 109.883 97.8472 108.925 106.292 108.153C124.419 104.672 123.198 81.4734 122.965 77.4441L122.964 77.4451Z" fill="#D6D6D6"/>
<path d="M78.9952 70.4303C79.8939 66.8679 82.7206 63.7041 86.1532 62.8326C87.7887 62.4177 89.1654 62.6226 91.7397 63.0048C95.229 63.5236 95.5876 64.2749 98.0248 64.5592C99.1759 64.6938 99.8004 64.6082 106.405 63.1781C111.999 61.9672 113.08 61.6961 114.785 62.1425C115.242 62.2618 117.597 62.9172 119.325 64.9058C122.836 68.9503 121.94 76.4319 118.102 80.1014C116.223 81.8994 113.041 82.303 106.754 83.0369C100.778 83.7351 96.2987 84.2193 90.5185 83.0369C85.8966 82.091 81.9374 81.2817 79.8691 77.8569C77.9328 74.6512 78.8283 71.099 78.9963 70.4314L78.9952 70.4303Z" fill="#FAFAFA"/>
<path d="M89.328 68.6967C89.328 68.6967 87.3885 68.3899 86.729 69.5794C86.0695 70.7689 85.5264 74.1845 88.2418 74.3761C90.9572 74.5678 91.9661 72.6138 91.8115 71.5191C91.657 70.4244 90.9583 68.7741 89.329 68.6977L89.328 68.6967Z" fill="#C1C1C1"/>
<path d="M89.2889 69.7711C89.2889 69.7711 88.2801 69.6946 88.3192 70.8454C88.3584 71.9962 88.8623 72.7637 89.6187 72.6873C90.3751 72.6108 90.9182 71.617 90.7636 71.2307C90.609 70.8444 90.1814 69.7701 89.2889 69.7701V69.7711Z" fill="white"/>
<path d="M104.381 71.5251C104.381 71.5251 104.42 68.8505 106.942 68.505C109.463 68.1594 109.929 69.5793 110.123 70.3081C110.317 71.0369 110.356 74.5677 106.166 73.9531C104.445 73.5005 104.381 71.5241 104.381 71.5241V71.5251Z" fill="#C1C1C1"/>
<path d="M106.282 69.7699C106.282 69.7699 105.545 69.9249 105.506 70.884C105.466 71.8432 105.661 72.1887 106.282 72.3426C106.902 72.4965 107.678 72.0898 107.678 71.5251C107.678 70.9605 107.867 69.351 106.282 69.7699Z" fill="white"/>
<path d="M85.7275 66.0884C85.7821 66.2902 85.8903 66.492 86.0098 66.6643C86.285 67.0608 86.6591 67.3951 87.0981 67.6061C87.8339 67.9598 88.6944 68.0424 89.5013 68.0913C89.7012 68.1035 89.9032 68.1127 90.1031 68.1127C90.3731 68.1127 90.6307 67.8783 90.6183 67.6031C90.606 67.3278 90.3916 67.0934 90.1031 67.0934C89.9557 67.0934 89.8083 67.0873 89.661 67.0802C89.5043 67.073 89.3487 67.0628 89.1921 67.0496C89.1107 67.0424 89.0282 67.0353 88.9468 67.0261C88.9046 67.0221 88.8623 67.017 88.8201 67.0119C88.7984 67.0088 88.7768 67.0068 88.7562 67.0037C88.6459 66.9905 88.8654 67.02 88.7634 67.0037C88.3996 66.9497 88.0348 66.8845 87.6896 66.756C87.671 66.7489 87.6535 66.7418 87.636 66.7356C87.5752 66.7142 87.738 66.7835 87.6814 66.754C87.6453 66.7356 87.6072 66.7204 87.5711 66.702C87.4598 66.6449 87.3557 66.5777 87.2527 66.5073C87.2259 66.489 87.1764 66.4727 87.2661 66.5185C87.2475 66.5094 87.2238 66.4839 87.2094 66.4716C87.1733 66.4411 87.1393 66.4105 87.1053 66.3779C87.0404 66.3157 86.9837 66.2209 86.9126 66.1679C86.9177 66.172 86.9878 66.2698 86.9404 66.2036C86.9249 66.1822 86.9085 66.1597 86.894 66.1383C86.8734 66.1078 86.8528 66.0762 86.8332 66.0446C86.7992 65.9895 86.7693 65.9314 86.7405 65.8733C86.689 65.7683 86.7704 65.9538 86.7559 65.9121C86.7498 65.8947 86.7425 65.8774 86.7364 65.8601C86.7312 65.8458 86.7261 65.8305 86.7219 65.8162C86.6519 65.5584 86.352 65.3759 86.0882 65.4605C85.8244 65.5451 85.6533 65.8111 85.7285 66.0874L85.7275 66.0884Z" fill="#C1C1C1"/>
<path d="M93.099 66.4532L93.0804 66.3176C93.0887 66.3778 93.0835 66.4399 93.0763 66.5001L93.0949 66.3645C93.0825 66.4532 93.0578 66.5388 93.0227 66.6214L93.0743 66.5001C93.0372 66.5847 92.9898 66.6642 92.9331 66.7386L93.0135 66.6356C92.9444 66.7233 92.8651 66.7997 92.7775 66.868L92.8816 66.7885C92.7496 66.8894 92.6033 66.9689 92.4498 67.0332L92.5724 66.9822C92.358 67.0699 92.1344 67.129 91.9067 67.1708C91.7861 67.1932 91.6583 67.3033 91.5986 67.4052C91.5336 67.5143 91.5068 67.6753 91.547 67.7976C91.5872 67.9199 91.6645 68.0402 91.784 68.1024C91.9129 68.1697 92.0386 68.1799 92.1808 68.1534C92.7218 68.0545 93.2989 67.8455 93.6781 67.4317C93.9327 67.1545 94.0811 66.8252 94.112 66.4522C94.1192 66.3594 94.1068 66.2758 94.0924 66.1831C94.0749 66.0659 93.9543 65.9354 93.8554 65.8783C93.7451 65.8141 93.5823 65.7876 93.4586 65.8273C93.335 65.8671 93.2134 65.9435 93.1505 66.0618L93.099 66.1831C93.0743 66.2738 93.0743 66.3635 93.099 66.4542V66.4532Z" fill="#C1C1C1"/>
<path d="M103.883 66.4531C104.116 67.2512 104.896 67.8516 105.709 67.9698C106.606 68.1003 107.502 67.8444 108.307 67.4643C108.949 67.1615 109.54 66.7365 110.051 66.2472C110.324 65.9863 110.588 65.6978 110.799 65.3849C110.949 65.1627 110.849 64.811 110.614 64.6877C110.355 64.5521 110.069 64.6337 109.91 64.8702C109.899 64.8855 109.889 64.8997 109.878 64.915C109.866 64.9303 109.855 64.9466 109.843 64.9619C109.766 65.0648 109.92 64.8671 109.86 64.9405C109.744 65.0842 109.622 65.2239 109.493 65.3574C109.306 65.5521 109.105 65.7345 108.893 65.9037C108.866 65.9261 108.838 65.9476 108.81 65.97C108.743 66.023 108.833 65.9496 108.841 65.9465C108.825 65.9537 108.805 65.973 108.79 65.9842C108.721 66.0352 108.65 66.0852 108.579 66.1331C108.437 66.2289 108.292 66.3186 108.142 66.4022C107.977 66.4939 107.807 66.5785 107.634 66.6539C107.629 66.656 107.583 66.6723 107.582 66.6763C107.584 66.6621 107.672 66.6407 107.599 66.6682C107.551 66.6865 107.503 66.7059 107.455 66.7232C107.362 66.7569 107.268 66.7885 107.175 66.818C106.975 66.8792 106.772 66.9312 106.566 66.9648C106.544 66.9689 106.51 66.9689 106.49 66.976C106.49 66.976 106.594 66.9638 106.536 66.9699C106.494 66.974 106.453 66.9791 106.412 66.9821C106.323 66.9893 106.235 66.9923 106.146 66.9903C106.07 66.9893 105.994 66.9791 105.917 66.976C105.861 66.974 105.987 66.9862 105.982 66.9852C105.965 66.9811 105.945 66.9801 105.927 66.977C105.886 66.9699 105.846 66.9628 105.806 66.9536C105.743 66.9393 105.68 66.922 105.62 66.9016C105.593 66.8924 105.566 66.8822 105.538 66.8731C105.439 66.8374 105.645 66.924 105.553 66.8782C105.451 66.8272 105.356 66.7722 105.261 66.7079C105.196 66.6641 105.365 66.7936 105.293 66.7324C105.275 66.7171 105.258 66.7039 105.24 66.6886C105.203 66.656 105.167 66.6213 105.132 66.5856C105.096 66.5479 105.063 66.5071 105.029 66.4684C104.989 66.4236 105.118 66.5897 105.06 66.5071C105.049 66.4898 105.036 66.4735 105.025 66.4572C104.982 66.394 104.942 66.3267 104.907 66.2584C104.894 66.233 104.883 66.2065 104.87 66.1799C104.844 66.1249 104.931 66.3308 104.906 66.2635C104.903 66.2533 104.898 66.2442 104.895 66.235C104.889 66.2166 104.882 66.1993 104.877 66.181C104.802 65.9251 104.51 65.7396 104.243 65.8252C103.976 65.9109 103.803 66.1779 103.883 66.4521V66.4531Z" fill="#C1C1C1"/>
<path d="M96.8919 78.6886C96.9547 78.5887 97.0207 78.4919 97.0897 78.3971C97.1124 78.3665 97.1361 78.3359 97.1588 78.3053C97.168 78.2931 97.0722 78.4124 97.1361 78.3349C97.1526 78.3155 97.168 78.2951 97.1845 78.2758C97.2515 78.1953 97.3206 78.1168 97.3927 78.0403C97.5668 77.8548 97.7544 77.6856 97.9533 77.5266C98.0254 77.4685 97.8729 77.5847 97.9502 77.5297C97.9811 77.5072 98.011 77.4848 98.0419 77.4634C98.1007 77.4216 98.1604 77.3819 98.2212 77.3431C98.3531 77.2595 98.4892 77.1821 98.6293 77.1128C98.6942 77.0801 98.7612 77.0516 98.8272 77.021C98.8797 76.9966 98.7901 77.0363 98.789 77.0363C98.8097 77.0251 98.8375 77.017 98.8581 77.0088C98.8993 76.9925 98.9405 76.9772 98.9828 76.9629C99.1435 76.9069 99.3074 76.86 99.4743 76.8233C99.5496 76.807 99.6258 76.7927 99.7021 76.7795C99.7361 76.7744 99.7711 76.7713 99.8041 76.7642C99.8051 76.7642 99.6938 76.7774 99.7536 76.7713C99.7825 76.7682 99.8113 76.7642 99.8402 76.7621C99.9927 76.7468 100.146 76.7387 100.3 76.7377C100.453 76.7366 100.612 76.7428 100.769 76.757C100.805 76.7601 100.841 76.7642 100.877 76.7682C100.895 76.7703 100.93 76.7703 100.949 76.7764C100.949 76.7764 100.843 76.7611 100.903 76.7703C100.981 76.7825 101.058 76.7947 101.136 76.81C101.296 76.8416 101.455 76.8804 101.611 76.9293C101.68 76.9507 101.748 76.9741 101.816 76.9986C101.855 77.0129 101.894 77.0282 101.933 77.0435C101.947 77.0486 102.001 77.0751 101.938 77.0455C101.871 77.0139 101.946 77.0496 101.959 77.0557C102.121 77.1281 102.278 77.2127 102.428 77.3085C102.463 77.3309 102.497 77.3533 102.531 77.3768C102.548 77.389 102.651 77.4624 102.593 77.4196C102.534 77.3768 102.585 77.4135 102.596 77.4226C102.618 77.441 102.641 77.4593 102.664 77.4787C102.695 77.5052 102.726 77.5317 102.756 77.5592C102.819 77.6183 102.881 77.6805 102.94 77.7447C102.968 77.7753 102.994 77.8059 103.02 77.8375C103.029 77.8477 103.069 77.8946 103.023 77.8405C102.968 77.7733 103.054 77.8844 103.054 77.8833C103.166 78.0393 103.259 78.2075 103.337 78.3818C103.445 78.6274 103.826 78.7018 104.042 78.5642C104.298 78.4001 104.343 78.129 104.226 77.867C103.611 76.4747 102.062 75.8081 100.606 75.7265C99.192 75.648 97.8317 76.176 96.8259 77.1566C96.5137 77.4603 96.2344 77.8059 96.0035 78.1738C95.8613 78.4011 95.9469 78.7446 96.188 78.871C96.4292 78.9974 96.7414 78.9302 96.8929 78.6886H96.8919Z" fill="#C1C1C1"/>
<path opacity="0.4" d="M84.6845 80.1129C86.5353 80.1129 88.0358 78.6288 88.0358 76.7981C88.0358 74.9675 86.5353 73.4834 84.6845 73.4834C82.8337 73.4834 81.3333 74.9675 81.3333 76.7981C81.3333 78.6288 82.8337 80.1129 84.6845 80.1129Z" fill="#ECECEC"/>
<g opacity="0.5">
<path d="M87.751 65.3646L83.8577 66.7784L83.3342 69.0993L81.6472 72.6923L84.7305 76.4096L89.0093 77.3301L92.4636 76.2292L94.6235 73.0715L94.9894 70.4234L92.8222 67.4226L89.6193 65.5083L87.751 65.3646Z" fill="white"/>
</g>
<path d="M88.5062 78.6032C86.9624 78.6032 85.4187 78.1425 84.1347 77.2404C83.6328 76.8877 81.1266 74.9664 81.0246 71.721C80.9586 69.61 81.9644 68.0719 82.2952 67.5674C83.0248 66.4523 83.8956 65.6195 84.8828 65.0936C87.9218 63.4749 93.0312 64.4575 95.0634 68.1514C96.3 70.3989 95.7991 72.6944 95.6167 73.3437C94.8212 76.1712 92.5138 77.4993 91.8255 77.8387C90.7888 78.3504 89.6469 78.6022 88.5062 78.6022V78.6032ZM84.0255 68.6743C83.7555 69.0871 83.0382 70.1839 83.0846 71.6578C83.1578 73.9879 85.1065 75.422 85.328 75.578C86.948 76.7165 89.1379 76.8877 90.9052 76.0152C91.4009 75.7706 93.0641 74.8145 93.632 72.7973C93.7247 72.4681 94.1421 70.7404 93.2538 69.1259C92.0707 66.9762 88.4268 65.5217 85.8598 66.8885C85.1807 67.2504 84.5634 67.8507 84.0255 68.6743Z" fill="#D2D2D2"/>
<path d="M86.5865 77.3272L84.6074 84.7255L86.5999 85.2469L88.5789 77.8487L86.5865 77.3272Z" fill="#D2D2D2"/>
<path d="M136.988 88.1508C136.733 87 135.557 86.4098 135.067 86.1652C134.251 85.7565 134.084 85.9491 132.361 85.5608C130.345 85.1072 129.837 84.6771 129.132 85.043C128.651 85.2917 128.197 85.8482 128.259 86.3385C128.314 86.7798 128.765 86.9786 128.696 87.1152C128.57 87.3639 127.193 86.5016 125.728 86.8563C125.521 86.9062 124.399 87.2018 124.156 87.9785C123.952 88.6288 124.558 88.9988 124.33 89.5329C124.036 90.224 122.885 89.9233 122.409 90.7418C122.146 91.1964 122.255 91.7132 122.322 92.0373C122.523 92.9975 123.257 93.5999 123.456 93.764C124.016 94.2237 124.346 94.2054 124.679 94.714C124.903 95.0575 124.802 95.1421 125.028 95.5773C125.312 96.1277 125.703 96.4376 126.25 96.8728C126.689 97.2214 127.064 97.5191 127.647 97.7362C127.82 97.8004 128.088 97.886 129.043 97.9951C130.457 98.1561 131.312 98.1327 131.312 98.1673C131.312 98.204 130.369 98.2672 130.352 98.1673C130.334 98.0623 131.382 98.0399 132.273 97.304C132.354 97.2367 132.618 96.9136 133.145 96.2684C133.948 95.2858 134.148 94.9994 134.28 94.8006C134.519 94.4418 134.704 94.1646 134.891 93.765C135.315 92.8589 135.418 92.0394 135.415 92.0384C135.411 92.0384 135.219 92.8089 135.24 92.8151C135.262 92.8212 135.385 92.0322 135.852 91.175C136.285 90.379 136.557 90.3647 136.812 89.7072C136.895 89.4901 137.142 88.8531 136.986 88.1528L136.988 88.1508Z" fill="#D6D6D6"/>
<path d="M84.8584 94.3838L83.0395 90.165C82.9952 90.0661 82.9509 89.9672 82.9066 89.8684C82.8386 89.7257 82.7808 89.6135 82.7334 89.532C82.6623 89.4097 82.5521 89.2782 82.4016 89.1355V89.1141L84.9027 88.9948L84.9047 89.0366L84.8862 89.1049C84.9243 89.2945 84.9913 89.5269 85.0871 89.8011L86.8751 94.1453L87.9963 90.2078L88.052 90.0192L88.1086 89.7909C88.1169 89.745 88.122 89.7114 88.1241 89.691C88.1261 89.6706 88.1261 89.638 88.1241 89.5962C88.1097 89.2965 87.9324 89.0601 87.5934 88.8868V88.8654L89.5617 88.7716V88.7981L87.3801 96.1349L86.5103 95.8893C86.3609 95.8444 86.2259 95.7986 86.1043 95.7517C85.9837 95.7058 85.8745 95.6549 85.7786 95.5998C85.6045 95.4999 85.4437 95.3572 85.2963 95.1717C85.149 94.9862 85.0016 94.7222 84.8563 94.3818L84.8584 94.3838Z" fill="white"/>
<path d="M90.0132 94.6242L89.8721 91.7203C89.8628 91.5256 89.8226 91.3747 89.7525 91.2667C89.6897 91.1586 89.5866 91.0465 89.4454 90.9324L89.4434 90.8906L90.7346 90.8294C90.95 90.8192 91.1221 90.8029 91.2499 90.7815C91.3787 90.7601 91.5271 90.7102 91.6961 90.6327H91.7177L91.7466 91.2198C91.8919 91.0292 92.0774 90.8794 92.302 90.7713C92.5267 90.6633 92.7915 90.6021 93.0966 90.5878C93.4696 90.5705 93.8035 90.6225 94.0992 90.7458C94.395 90.8692 94.6279 91.0506 94.8 91.2911C94.9721 91.5317 95.0648 91.8028 95.0803 92.1045L95.1968 94.4927L95.2071 94.7088C95.2101 94.77 95.2205 94.8464 95.24 94.9392C95.2586 95.0319 95.2988 95.1216 95.3585 95.2073C95.4183 95.2929 95.5131 95.3836 95.644 95.4784L95.6461 95.5202L92.9451 95.6496L92.943 95.6078C93.1161 95.4713 93.2212 95.3336 93.2573 95.1971C93.2934 95.0595 93.3047 94.8342 93.2893 94.5223L93.1903 92.4878C93.1821 92.3216 93.1429 92.1779 93.0718 92.0577C93.0017 91.9374 92.91 91.8477 92.7998 91.7886C92.6885 91.7294 92.5741 91.7029 92.4556 91.708C92.2587 91.7172 92.098 91.7916 91.9753 91.9313C91.8527 92.0709 91.7971 92.2625 91.8094 92.5051L91.9156 94.6701C91.9279 94.9168 91.9599 95.1063 92.0135 95.2389C92.064 95.3795 92.1763 95.511 92.3515 95.6343L92.3535 95.6761L89.6845 95.8035L89.6824 95.7617C89.8473 95.6078 89.9483 95.4631 89.9844 95.3275C90.0215 95.192 90.0308 94.9575 90.0153 94.6242H90.0132Z" fill="white"/>
<path d="M95.9684 95.2542L95.5325 93.7303C95.8314 93.9546 96.2044 94.135 96.6537 94.2726C96.8908 94.3439 97.1092 94.3969 97.3092 94.4306C97.508 94.4642 97.7049 94.4764 97.8986 94.4673C98.6014 94.4336 98.9755 94.1798 99.0208 93.7038C99.0064 93.4123 98.8766 93.1901 98.6323 93.0362C98.3871 92.8833 98.0089 92.707 97.4957 92.5092C96.8289 92.2554 96.3333 91.9568 96.0086 91.6122C95.684 91.2677 95.5078 90.8039 95.48 90.2219C95.4996 89.8214 95.6263 89.4728 95.8582 89.1761C96.09 88.8795 96.4054 88.6471 96.8032 88.4789C97.0082 88.3964 97.2216 88.3301 97.4462 88.2812C97.6709 88.2323 97.9099 88.2017 98.1645 88.1895C98.7849 88.1599 99.397 88.2353 99.9988 88.4158L100.061 89.6746C99.4877 89.3647 98.9631 89.221 98.486 89.2434C97.9512 89.2689 97.6379 89.5186 97.5462 89.9926C97.5544 90.1659 97.641 90.3116 97.8048 90.4288C97.8873 90.488 97.9697 90.5389 98.0553 90.5817C98.1398 90.6246 98.2449 90.6694 98.3696 90.7153L99.0889 90.968C99.2465 91.0333 99.4032 91.1067 99.5577 91.1882C99.7134 91.2698 99.8628 91.3574 100.007 91.4512C100.289 91.6296 100.526 91.8538 100.719 92.127C100.912 92.3991 101.018 92.7161 101.036 93.077V93.3114C101.008 93.8241 100.849 94.243 100.56 94.5682C100.272 94.8933 99.9164 95.1318 99.4928 95.2847C99.0683 95.4366 98.6107 95.5243 98.1191 95.5477C97.9182 95.5569 97.7368 95.5569 97.574 95.5477C97.4122 95.5375 97.202 95.5151 96.9454 95.4784C96.5466 95.4172 96.2209 95.3428 95.9684 95.2552V95.2542Z" fill="white"/>
<path d="M101.429 94.2777L101.177 89.1211C101.168 88.9407 101.137 88.7838 101.085 88.6502C101.035 88.5106 100.926 88.3811 100.758 88.2639V88.2425L102.135 88.1763L102.215 88.1722L102.28 88.1691C102.351 88.1661 102.418 88.161 102.479 88.1538C102.54 88.1477 102.593 88.1375 102.64 88.1243C102.764 88.0968 102.884 88.0407 102.998 87.9571L103.042 87.9551L103.167 90.541C103.311 90.3881 103.502 90.2699 103.74 90.1853C103.978 90.1007 104.226 90.0528 104.48 90.0405C105.05 90.013 105.517 90.1272 105.881 90.383C106.244 90.6389 106.437 91.0028 106.46 91.4737L106.584 94.0076C106.606 94.4795 106.762 94.7874 107.049 94.9291L107.051 94.9708L104.329 95.1013L104.327 95.0595C104.472 94.9413 104.57 94.8179 104.621 94.6885C104.673 94.559 104.694 94.399 104.684 94.2084L104.57 91.8722C104.561 91.6745 104.495 91.5073 104.373 91.3707C104.252 91.2341 104.074 91.1709 103.84 91.1821C103.639 91.1913 103.486 91.2637 103.379 91.3993C103.271 91.5348 103.224 91.7071 103.233 91.915L103.342 94.1422C103.352 94.3572 103.381 94.5407 103.428 94.6905C103.479 94.8343 103.587 94.9668 103.755 95.087L103.757 95.1288L101.098 95.2562L101.096 95.2145C101.248 95.086 101.343 94.9474 101.384 94.7996C101.423 94.6518 101.438 94.4775 101.428 94.2757L101.429 94.2777Z" fill="white"/>
<path d="M106.903 92.3718C106.893 92.1537 106.916 91.9417 106.974 91.7358C107.032 91.5299 107.119 91.3219 107.235 91.1109C107.453 90.7287 107.77 90.4209 108.182 90.1875C108.595 89.954 109.083 89.8236 109.646 89.7971C110.3 89.7655 110.847 89.8715 111.288 90.1151C111.73 90.3577 112.058 90.6818 112.271 91.0865C112.485 91.4921 112.603 91.9172 112.624 92.3647C112.638 92.6348 112.608 92.8865 112.535 93.1189C112.462 93.3513 112.352 93.5725 112.208 93.7805C111.936 94.1688 111.585 94.4613 111.156 94.6591C110.727 94.8568 110.286 94.9659 109.834 94.9873C109.296 95.0128 108.807 94.9261 108.367 94.7264C107.928 94.5266 107.581 94.2269 107.325 93.8253C107.07 93.4237 106.929 92.9395 106.901 92.3708L106.903 92.3718ZM108.758 92.3667C108.781 92.8376 108.888 93.228 109.079 93.5389C109.271 93.8487 109.559 93.9945 109.942 93.9762C110.249 93.9303 110.467 93.8019 110.594 93.5909C110.722 93.3799 110.777 93.072 110.757 92.6664C110.695 91.4055 110.327 90.7909 109.653 90.8235C109.237 90.8429 108.979 91.0029 108.878 91.3036C108.779 91.6032 108.738 91.958 108.758 92.3667Z" fill="white"/>
<path d="M113.358 95.9466L113.119 91.0499C113.111 90.8868 113.099 90.737 113.081 90.6004C113.064 90.4638 113.044 90.3507 113.021 90.262C112.977 90.0897 112.868 89.944 112.693 89.8237L112.691 89.7819L114.09 89.7146C114.316 89.7034 114.483 89.6861 114.589 89.6596C114.696 89.6331 114.806 89.5882 114.922 89.524L114.965 89.522L114.998 90.1927C115.11 89.999 115.29 89.8349 115.535 89.7004C115.78 89.5648 116.068 89.4894 116.397 89.4741C116.857 89.4516 117.266 89.5373 117.626 89.7309C117.987 89.9246 118.269 90.2018 118.476 90.5637C118.683 90.9255 118.798 91.3394 118.82 91.8042C118.845 92.3108 118.776 92.7694 118.612 93.1802C118.449 93.591 118.214 93.9192 117.91 94.1628C117.508 94.4778 117.012 94.649 116.42 94.6775C116.335 94.6816 116.147 94.6775 115.858 94.6623L115.402 93.698L115.592 93.7092L115.77 93.7214C115.964 93.7123 116.127 93.6705 116.262 93.5961C116.397 93.5217 116.503 93.4146 116.579 93.276C116.731 93.012 116.796 92.642 116.773 92.166C116.751 91.7287 116.667 91.3536 116.521 91.0387C116.375 90.7237 116.14 90.5739 115.817 90.5902C115.287 90.6157 115.037 90.9704 115.071 91.6533L115.262 95.5664C115.275 95.8334 115.292 96.024 115.311 96.1382C115.314 96.1973 115.325 96.2513 115.343 96.3013C115.362 96.3512 115.389 96.4073 115.425 96.4715C115.483 96.5663 115.577 96.659 115.708 96.7508V96.7712L113.041 96.92L113.039 96.8782C113.173 96.7569 113.263 96.6264 113.308 96.4868C113.353 96.3471 113.371 96.1667 113.359 95.9445L113.358 95.9466Z" fill="white"/>
<path d="M71.7744 80.9658C71.355 81.2859 66.461 85.1347 67.1865 89.9875C67.2844 90.6429 67.6657 93.0903 69.6474 94.3093C70.6542 94.9291 71.9475 95.0942 73.5592 94.822C77.1382 94.2176 80.8048 91.6276 80.8048 91.6276C80.8048 91.6276 78.9715 88.4331 79.0591 87.6564C78.4027 87.9857 77.3382 88.4178 75.9604 88.5524C74.2208 88.7226 72.8348 88.3343 72.0866 88.0652C71.9887 87.1213 71.9094 86.1346 71.8537 85.1102C71.7754 83.6557 71.7548 82.2715 71.7764 80.9658H71.7744Z" fill="#EAEAEA"/>
<path d="M80.5131 84.8992C80.272 84.8574 79.1322 84.679 78.6417 85.3038C78.4253 85.579 78.4119 85.9073 78.4181 86.1081C78.4758 87.7777 79.1168 91.4033 81.0366 92.0943C82.9565 92.7854 83.8881 91.231 83.8881 91.231V90.4828C84.6929 90.9354 86.3057 91.6734 88.3111 91.4614C88.5306 91.4379 91.6015 91.0832 92.0354 89.5614C92.1178 89.2729 92.1085 88.9315 92.0931 88.4106C92.0694 87.5667 91.9158 87.3098 91.9766 86.5688C92.0158 86.0968 92.0848 86.1193 92.0931 85.7054C92.1085 84.9532 91.8901 84.3895 91.9189 84.3814C91.9457 84.3742 92.1178 84.89 92.0931 84.8992C92.0694 84.9084 91.9066 84.3824 91.5108 83.8055C91.2831 83.4732 91.0883 83.2846 90.9873 83.1725C90.0454 82.1298 90.7647 80.6569 89.9403 79.9495C89.3272 79.4236 88.2534 79.656 87.9617 79.7192C86.9147 79.9454 86.451 80.6477 85.8667 80.4102C85.5132 80.2665 85.5359 79.9485 85.1103 79.7773C84.7815 79.6447 84.4075 79.6896 83.8881 79.8924C83.0389 80.2237 81.1325 80.9688 80.5708 82.9432C80.4668 83.3101 80.3287 84.0002 80.5131 84.9002V84.8992Z" fill="#DBDBDB"/>
<path d="M78.418 86.1082C78.418 86.1082 79.3011 85.8147 79.5052 86.1082C79.7092 86.4018 80.1451 88.5881 80.815 89.4229C81.4848 90.2577 81.5147 90.589 82.2113 90.2292C82.9079 89.8694 82.5607 89.1355 83.2882 89.1936C84.0158 89.2517 87.5947 90.2007 88.6129 89.7114C89.6311 89.2221 89.9804 89.0499 90.2133 88.2294C90.4462 87.4088 91.0284 86.3437 90.4462 84.8759C89.864 83.4081 90.0969 82.2278 90.0969 82.2278L90.4606 81.8843L91.5118 83.8056L92.1033 86.9196L92.2208 88.9918L91.724 90.1222L89.3095 91.2893L86.1685 91.4952L84.5248 90.8061L83.889 90.747L83.6376 91.5461L82.7657 92.1312L81.0376 92.0945L79.7391 90.7755L78.9827 88.7726L78.419 86.1072L78.418 86.1082Z" fill="#D1D1D1"/>
<path d="M112.691 116.073C112.691 116.073 111.885 119.055 113.531 120.868C115.176 122.681 113.606 123.545 116.4 123.199C119.193 122.853 123.732 122.077 124.866 122.508C126.001 122.939 126.878 121.471 126.878 121.471C126.878 121.471 127.639 126.145 123.982 126.319C120.325 126.493 109.949 126.738 109.9 125.271C109.852 123.804 110.544 117.546 110.544 117.546L112.69 116.074L112.691 116.073Z" fill="#D1D1D1"/>
<path d="M136.68 88.9918C136.68 88.9918 133.363 86.8044 131.908 87.1499C130.453 87.4955 130.347 86.4323 129.411 88.2008C128.475 89.9693 127.637 88.7033 126.979 89.2221C126.322 89.741 126.787 91.1996 125.042 91.5634C123.296 91.9273 124.681 94.7141 124.681 94.7141C124.681 94.7141 121.154 91.9528 123.068 90.2139C124.983 88.475 123.72 87.4526 125.02 87.1142C126.321 86.7758 128.067 87.1142 128.067 87.1142L128.26 86.3396L129.133 85.0441H131.327L133.723 85.8106L135.707 86.521L136.68 87.6687V88.9928V88.9918Z" fill="#D1D1D1"/>
<path d="M91.8148 116.318C91.8148 116.318 89.6332 116.464 89.4426 117.931C89.2519 119.399 89.9846 118.19 89.6188 120.953C89.253 123.717 87.8772 124.235 83.6325 124.407C79.3878 124.579 77.335 124.116 77.401 125.557C77.401 125.557 83.8829 126.943 87.1703 126.553C90.4576 126.164 91.5263 126.142 91.7334 125.398C91.9406 124.653 91.8138 116.319 91.8138 116.319L91.8148 116.318Z" fill="#D1D1D1"/>
<path opacity="0.4" d="M113.256 79.2922C115.424 79.2922 117.182 77.5535 117.182 75.4088C117.182 73.264 115.424 71.5253 113.256 71.5253C111.087 71.5253 109.329 73.264 109.329 75.4088C109.329 77.5535 111.087 79.2922 113.256 79.2922Z" fill="#ECECEC"/>
<path opacity="0.3" d="M108.687 54.0729C108.687 54.0729 105.056 59.1377 104.018 60.2171C102.98 61.2966 101.829 62.8561 100.128 62.6756C98.4262 62.4952 96.4456 60.2773 96.4456 60.2773L97.8502 57.2785L100.444 55.4795L103.189 54.4225C103.934 54.2553 104.68 54.0892 105.426 53.922C106.513 53.9719 107.599 54.0229 108.686 54.0729H108.687Z" fill="#B2B2B2"/>
<path d="M100.214 52.9497L93.643 48L88.5996 53.7947L92.4795 57.3632L97.4446 59.7809L99.889 58.9747L100.548 57.2093L100.214 52.9497Z" fill="#CACACA"/>
<path d="M99.3276 53.3838C98.9061 52.9669 98.4475 52.5826 97.9786 52.2208C97.1058 51.545 96.1515 50.9008 95.0839 50.5705C94.5954 50.4197 94.0688 50.3463 93.5628 50.4513C93.0569 50.5563 92.6261 50.8987 92.2747 51.2851C91.9233 51.6714 91.6347 52.1351 91.5142 52.6489C91.3936 53.1626 91.4358 53.6875 91.6059 54.1788C91.8171 54.7894 92.1892 55.3296 92.6148 55.8148C93.1908 56.4702 93.8761 57.0267 94.5851 57.5343C94.7933 57.6831 95.0045 57.8269 95.2179 57.9675C95.4951 58.15 95.7527 57.7086 95.4775 57.5272C94.7366 57.04 94.0204 56.5079 93.3877 55.8861C92.9332 55.4387 92.5179 54.9443 92.2366 54.3704C92.1376 54.1686 92.0511 53.9291 91.9985 53.6763C91.9697 53.5356 91.9666 53.5153 91.9594 53.3624C91.9542 53.2492 91.9563 53.1371 91.9666 53.024C91.9676 53.0128 91.9758 52.9414 91.9728 52.9689C91.9697 52.9964 91.98 52.9261 91.982 52.9149C91.9923 52.8568 92.0047 52.7977 92.0191 52.7406C92.0469 52.6315 92.083 52.5245 92.1263 52.4205C92.1067 52.4685 92.1418 52.3859 92.1459 52.3767C92.1572 52.3523 92.1685 52.3278 92.1809 52.3043C92.2067 52.2524 92.2355 52.2004 92.2644 52.1504C92.3272 52.0424 92.3984 51.9384 92.4736 51.8385C92.4911 51.8151 92.4746 51.8365 92.4715 51.8406C92.4818 51.8273 92.4921 51.8141 92.5024 51.8008C92.5241 51.7743 92.5457 51.7488 92.5674 51.7223C92.6096 51.6734 92.6529 51.6245 92.6982 51.5776C92.7951 51.4757 92.8961 51.3788 93.0022 51.2861C93.0249 51.2667 93.0476 51.2473 93.0703 51.228C93.0785 51.2208 93.0878 51.2137 93.096 51.2066C93.0589 51.2361 93.0888 51.2117 93.096 51.2066C93.1434 51.1729 93.1919 51.1403 93.2424 51.1118C93.2856 51.0863 93.3299 51.0639 93.3753 51.0425C93.3877 51.0364 93.4011 51.0302 93.4144 51.0251C93.4062 51.0292 93.366 51.0435 93.4114 51.0262C93.4382 51.016 93.4639 51.0068 93.4907 50.9976C93.5917 50.964 93.6947 50.9405 93.7999 50.9242C93.838 50.9181 93.7669 50.9263 93.838 50.9202C93.8627 50.9181 93.8885 50.9161 93.9132 50.914C93.972 50.911 94.0307 50.9089 94.0884 50.91C94.141 50.91 94.1925 50.913 94.245 50.9171C94.2718 50.9191 94.2976 50.9222 94.3244 50.9242C94.3399 50.9253 94.3543 50.9273 94.3697 50.9293C94.3316 50.9253 94.3584 50.9273 94.3811 50.9314C94.4986 50.9497 94.614 50.9732 94.7294 51.0017C94.8531 51.0333 94.9747 51.07 95.0952 51.1118C95.1509 51.1311 95.2065 51.1515 95.2611 51.1729C95.3364 51.2015 95.3652 51.2137 95.4137 51.2351C95.6558 51.3391 95.8918 51.4583 96.1227 51.5878C96.5874 51.8477 97.0305 52.1474 97.4572 52.4664C97.4799 52.4837 97.5036 52.5011 97.5262 52.5184C97.5685 52.55 97.5293 52.5204 97.5613 52.5449C97.6118 52.5836 97.6623 52.6224 97.7117 52.6621C97.8003 52.7324 97.889 52.8028 97.9766 52.8752C98.1311 53.0015 98.2837 53.132 98.4341 53.2635C98.6052 53.4133 98.769 53.5693 98.9349 53.7232C98.9432 53.7303 98.9504 53.7375 98.9576 53.7456C99.1926 53.978 99.5563 53.6172 99.3224 53.3848L99.3276 53.3838Z" fill="white"/>
<path d="M94.5056 52.4287C94.5787 52.4491 94.6509 52.4726 94.723 52.497C94.8065 52.5256 94.8889 52.5551 94.9703 52.5867C95.0198 52.6061 95.0692 52.6255 95.1177 52.6448C95.196 52.6764 95.1785 52.6693 95.2671 52.707C95.9153 52.9873 96.5326 53.34 97.1045 53.7518C97.5219 54.0525 97.9114 54.3909 98.2711 54.7578C98.5029 54.9933 98.8667 54.6324 98.6359 54.397C97.6074 53.3502 96.3224 52.5215 94.9312 52.0302C94.8364 51.9966 94.7405 51.9639 94.6426 51.9374C94.3221 51.8508 94.1861 52.3421 94.5056 52.4287Z" fill="white"/>
<path d="M92.8001 53.2515C92.6548 53.4747 92.6208 53.7897 92.6465 54.0465C92.7218 54.7967 93.2339 55.4226 93.7884 55.9027C94.3933 56.4266 95.0889 56.8394 95.802 57.2002C96.0967 57.349 96.3574 56.9097 96.0617 56.7599C95.4506 56.45 94.8457 56.1065 94.3119 55.6754C94.1274 55.5265 93.9502 55.3665 93.7884 55.1942C93.6348 55.0312 93.5637 54.9445 93.4493 54.7672C93.4071 54.7009 93.3669 54.6336 93.3308 54.5633C93.3143 54.5307 93.2989 54.4981 93.2834 54.4655C93.2772 54.4532 93.2535 54.3961 93.2813 54.4634C93.2731 54.443 93.2649 54.4226 93.2566 54.4012C93.2144 54.2901 93.1855 54.177 93.1639 54.0608C93.1515 53.9966 93.167 54.122 93.1618 54.0394C93.1597 54.0149 93.1577 53.9915 93.1567 53.967C93.1546 53.9191 93.1546 53.8712 93.1577 53.8233C93.1587 53.8029 93.1618 53.7836 93.1628 53.7632C93.1659 53.7051 93.1484 53.8366 93.1628 53.7662C93.17 53.7336 93.1752 53.7 93.1834 53.6674C93.1917 53.6347 93.202 53.6052 93.2123 53.5746C93.2164 53.5624 93.2236 53.5501 93.2267 53.5369C93.2288 53.5287 93.1896 53.6103 93.2164 53.5624C93.2267 53.544 93.2339 53.5247 93.2453 53.5073C93.4246 53.2301 92.9794 52.9742 92.8001 53.2505V53.2515Z" fill="white"/>
<path d="M98.0534 54.9996C97.6917 54.6357 97.2908 54.3044 96.8765 54.0007C96.5612 53.7703 96.2283 53.5573 95.8687 53.4014C95.509 53.2454 95.1535 53.1445 94.7774 53.2158C94.4847 53.2709 94.2065 53.4605 94.1333 53.7581C94.0663 54.0323 94.1725 54.3177 94.2961 54.5603C94.6073 55.1698 95.1174 55.6927 95.6008 56.1728C95.946 56.5163 96.3056 56.8486 96.6807 57.1605C96.7869 57.2492 96.9404 57.2634 97.0455 57.1605C97.1373 57.0698 97.1527 56.8894 97.0455 56.7997C96.7642 56.5673 96.4942 56.3206 96.2304 56.0698C95.9872 55.8395 95.7512 55.602 95.5255 55.3553C95.2864 55.0934 95.1123 54.8895 94.9299 54.6174C94.8516 54.5012 94.7784 54.3799 94.7176 54.2535C94.7114 54.2402 94.7052 54.226 94.698 54.2127C94.6815 54.178 94.7207 54.2708 94.7001 54.2168C94.6898 54.1903 94.6795 54.1648 94.6702 54.1373C94.6516 54.0833 94.6413 54.0282 94.629 53.9722C94.6475 54.0527 94.631 53.9813 94.629 53.9558C94.629 53.9344 94.6321 53.911 94.63 53.8896C94.6259 53.8437 94.6176 53.9416 94.6269 53.913C94.63 53.9039 94.6279 53.8906 94.6331 53.8825C94.6372 53.8763 94.6403 53.86 94.6424 53.8529C94.6496 53.804 94.6125 53.8886 94.6372 53.8631C94.6486 53.8519 94.663 53.8244 94.6692 53.8101C94.6413 53.8692 94.6527 53.8325 94.6795 53.804C94.6856 53.7979 94.6939 53.7928 94.699 53.7866C94.73 53.752 94.6475 53.8121 94.6918 53.7938C94.7248 53.7795 94.7568 53.7561 94.7897 53.7398C94.73 53.7673 94.8196 53.7306 94.8382 53.7255C94.8701 53.7163 94.9021 53.7102 94.934 53.7051C94.865 53.7173 94.967 53.7041 94.9855 53.7031C95.0278 53.702 95.069 53.7041 95.1102 53.7061C95.1247 53.7061 95.1391 53.7092 95.1525 53.7102C95.0876 53.7041 95.1607 53.7112 95.171 53.7133C95.2081 53.7204 95.2452 53.7275 95.2813 53.7357C95.3658 53.7561 95.4493 53.7826 95.5307 53.8121C95.6203 53.8447 95.6255 53.8478 95.7244 53.8947C95.812 53.9365 95.8975 53.9813 95.982 54.0282C96.1469 54.121 96.3067 54.2239 96.4623 54.332C96.8807 54.6225 97.3063 54.9751 97.6886 55.3604C97.9215 55.5949 98.2853 55.234 98.0534 54.9996Z" fill="white"/>
<path d="M95.4011 54.7569C95.9338 55.2237 96.4676 55.6905 97.0004 56.1574C97.0746 56.2226 97.1499 56.2878 97.2241 56.3531C97.3281 56.4438 97.4858 56.455 97.5889 56.3531C97.6826 56.2603 97.694 56.084 97.5889 55.9922C97.0561 55.5254 96.5223 55.0586 95.9895 54.5917L95.7659 54.396C95.6618 54.3053 95.5041 54.2941 95.4011 54.396C95.3073 54.4888 95.2959 54.6651 95.4011 54.7569Z" fill="white"/>
<path d="M98.6092 61.9296C100.443 62.9652 102.014 62.0162 107.95 53.6407L102.363 49.1508C102.363 49.1508 96.5451 56.4825 95.0312 57.0941C95.0312 57.0941 93.2752 58.149 92.4807 57.3632L98.6102 61.9296H98.6092Z" fill="#D2D2D2"/>
<path d="M103.156 50.2056C102.98 50.4492 102.799 50.6898 102.618 50.9293C102.524 51.0526 102.43 51.175 102.335 51.2983C102.284 51.3656 102.231 51.4328 102.179 51.5001C102.165 51.5164 102.153 51.5337 102.14 51.5501C102.129 51.5633 102.099 51.601 102.126 51.5664C102.094 51.6071 102.062 51.6479 102.03 51.6887C101.773 52.0169 101.511 52.342 101.246 52.6652C100.617 53.4306 99.9703 54.1819 99.2953 54.9076C98.6069 55.6476 97.8897 56.3662 97.1168 57.0216C96.7623 57.3223 96.4572 57.5628 96.0728 57.8197C95.7524 58.0348 95.4174 58.2305 95.0619 58.3854C95.0485 58.3915 95.0949 58.3732 95.0475 58.3915C95.0289 58.3987 95.0104 58.4068 94.9908 58.4139C94.9506 58.4292 94.9104 58.4435 94.8702 58.4578C94.7394 58.5036 94.6518 58.6321 94.6899 58.7717C94.7249 58.8971 94.8754 58.996 95.0073 58.9501C95.8008 58.6739 96.5005 58.1754 97.1487 57.6566C97.936 57.0257 98.6605 56.3203 99.3551 55.5915C100.05 54.8627 100.726 54.0911 101.375 53.3104C101.9 52.6784 102.412 52.0352 102.911 51.3829C103.138 51.0873 103.391 50.7937 103.588 50.4778C103.592 50.4737 103.595 50.4686 103.598 50.4645C103.678 50.3524 103.617 50.1812 103.505 50.1159C103.376 50.0415 103.233 50.0945 103.153 50.2077L103.156 50.2056Z" fill="white"/>
</g>
<defs>
<clipPath id="clip0_5206_20744">
<rect width="69.9259" height="78.6667" fill="white" transform="translate(67.1133 48)"/>
</clipPath>
</defs>
</svg>
