<svg width="25" height="24" viewBox="0 0 25 24" fill="none" xmlns="http://www.w3.org/2000/svg">
<path d="M20.4167 6.74984H17.128C17.1646 6.71891 17.2021 6.68891 17.2377 6.65609C17.5224 6.40314 17.7519 6.09415 17.9117 5.74846C18.0716 5.40276 18.1584 5.02781 18.1667 4.64703C18.1791 4.23048 18.1061 3.8158 17.9524 3.42846C17.7986 3.04112 17.5673 2.68928 17.2727 2.39456C16.9781 2.09984 16.6263 1.86845 16.239 1.71459C15.8517 1.56073 15.4371 1.48765 15.0205 1.49984C14.6396 1.50805 14.2644 1.5948 13.9186 1.75466C13.5727 1.91453 13.2636 2.14406 13.0105 2.42891C12.6603 2.83474 12.3756 3.29276 12.1667 3.78641C11.9578 3.29276 11.6732 2.83474 11.323 2.42891C11.0699 2.14406 10.7608 1.91453 10.4149 1.75466C10.0691 1.5948 9.69393 1.50805 9.313 1.49984C8.89644 1.48765 8.48178 1.56073 8.09449 1.71459C7.70719 1.86845 7.35543 2.09984 7.06079 2.39456C6.76616 2.68928 6.53487 3.04112 6.38113 3.42846C6.22739 3.8158 6.15443 4.23048 6.16675 4.64703C6.17508 5.02781 6.26189 5.40276 6.42175 5.74846C6.58161 6.09415 6.81108 6.40314 7.09581 6.65609C7.13144 6.68703 7.16894 6.71703 7.2055 6.74984H3.91675C3.51892 6.74984 3.13739 6.90788 2.85609 7.18918C2.57478 7.47049 2.41675 7.85202 2.41675 8.24984V11.2498C2.41675 11.6477 2.57478 12.0292 2.85609 12.3105C3.13739 12.5918 3.51892 12.7498 3.91675 12.7498V18.7498C3.91675 19.1477 4.07478 19.5292 4.35609 19.8105C4.63739 20.0918 5.01892 20.2498 5.41675 20.2498H11.0417C11.1412 20.2498 11.2366 20.2103 11.3069 20.14C11.3772 20.0697 11.4167 19.9743 11.4167 19.8748V11.2498H3.91675V8.24984H11.4167V11.2498H12.9167V8.24984H20.4167V11.2498H12.9167V19.8748C12.9167 19.9743 12.9563 20.0697 13.0266 20.14C13.0969 20.2103 13.1923 20.2498 13.2917 20.2498H18.9167C19.3146 20.2498 19.6961 20.0918 19.9774 19.8105C20.2587 19.5292 20.4167 19.1477 20.4167 18.7498V12.7498C20.8146 12.7498 21.1961 12.5918 21.4774 12.3105C21.7587 12.0292 21.9167 11.6477 21.9167 11.2498V8.24984C21.9167 7.85202 21.7587 7.47049 21.4774 7.18918C21.1961 6.90788 20.8146 6.74984 20.4167 6.74984ZM8.08956 5.53109C7.95842 5.41234 7.85325 5.26776 7.78065 5.10643C7.70805 4.9451 7.66959 4.7705 7.66769 4.59359C7.66294 4.38632 7.69962 4.18017 7.77556 3.98725C7.85151 3.79433 7.96519 3.6185 8.10995 3.47007C8.25471 3.32164 8.42764 3.2036 8.6186 3.12285C8.80957 3.04211 9.01473 3.00029 9.22206 2.99984H9.268C9.4449 3.00175 9.6195 3.04021 9.78083 3.11281C9.94217 3.18541 10.0867 3.29058 10.2055 3.42172C10.9921 4.31047 11.2696 5.78422 11.3671 6.69547C10.4521 6.59891 8.97925 6.32141 8.08956 5.53109ZM16.2458 5.53109C15.3561 6.31859 13.8796 6.59609 12.9646 6.69359C13.0761 5.70828 13.3855 4.26547 14.1355 3.42266C14.2542 3.29152 14.3988 3.18635 14.5602 3.11375C14.7215 3.04115 14.8961 3.00269 15.073 3.00078H15.1189C15.3263 3.00208 15.5313 3.04475 15.7219 3.12629C15.9126 3.20783 16.085 3.3266 16.2292 3.47564C16.3733 3.62468 16.4863 3.801 16.5614 3.99425C16.6366 4.18751 16.6724 4.39382 16.6667 4.60109C16.6637 4.7768 16.6246 4.95 16.5519 5.10998C16.4791 5.26995 16.3743 5.41328 16.2439 5.53109H16.2458Z" fill="white"/>
</svg>
