<svg width="25" height="24" viewBox="0 0 25 24" fill="none" xmlns="http://www.w3.org/2000/svg">
<path d="M20 9.00011C20 8.7776 20.066 8.5601 20.1896 8.37509C20.3132 8.19008 20.4889 8.04589 20.6945 7.96074C20.9001 7.87559 21.1263 7.85331 21.3445 7.89672C21.5627 7.94013 21.7632 8.04728 21.9205 8.20461C22.0778 8.36195 22.185 8.5624 22.2284 8.78063C22.2718 8.99886 22.2495 9.22506 22.1644 9.43062C22.0792 9.63619 21.935 9.81189 21.75 9.93551C21.565 10.0591 21.3475 10.1251 21.125 10.1251C20.8266 10.1251 20.5405 10.0066 20.3295 9.7956C20.1185 9.58462 20 9.29847 20 9.00011ZM18.875 6.75011C19.0975 6.75011 19.315 6.68413 19.5 6.56051C19.685 6.43689 19.8292 6.26119 19.9144 6.05563C19.9995 5.85006 20.0218 5.62386 19.9784 5.40563C19.935 5.1874 19.8278 4.98695 19.6705 4.82961C19.5132 4.67228 19.3127 4.56513 19.0945 4.52172C18.8763 4.47831 18.6501 4.50059 18.4445 4.58574C18.2389 4.67089 18.0632 4.81508 17.9396 5.00009C17.816 5.1851 17.75 5.4026 17.75 5.62511C17.75 5.92348 17.8685 6.20962 18.0795 6.4206C18.2905 6.63158 18.5766 6.75011 18.875 6.75011ZM21.5619 12.0001C21.3637 11.9838 21.1672 12.0468 21.0155 12.1753C20.8638 12.3038 20.7693 12.4873 20.7528 12.6854C20.6186 14.2533 20.0394 15.7503 19.0832 17.0002C18.1271 18.2501 16.8339 19.2009 15.3557 19.7407C13.8775 20.2806 12.2759 20.387 10.7393 20.0475C9.2027 19.708 7.79503 18.9366 6.68194 17.8242C5.56884 16.7118 4.79661 15.3047 4.45613 13.7683C4.11564 12.2319 4.22105 10.6302 4.75996 9.15169C5.29887 7.67318 6.24886 6.37935 7.49815 5.42243C8.74744 4.46551 10.244 3.88531 11.8119 3.75011C11.9104 3.74198 12.0063 3.71454 12.0942 3.66934C12.1821 3.62414 12.2602 3.56207 12.3241 3.48668C12.388 3.41129 12.4364 3.32406 12.4666 3.22995C12.4968 3.13585 12.5081 3.03672 12.5 2.93823C12.4919 2.83974 12.4644 2.74381 12.4192 2.65593C12.3741 2.56804 12.312 2.48992 12.2366 2.42602C12.1612 2.36213 12.074 2.3137 11.9799 2.28352C11.8858 2.25333 11.7866 2.24198 11.6881 2.25011C9.83567 2.40945 8.06723 3.09455 6.5909 4.22482C5.11456 5.35508 3.99175 6.88348 3.35455 8.6302C2.71735 10.3769 2.59227 12.2693 2.99404 14.0847C3.39581 15.9001 4.3077 17.563 5.62243 18.8777C6.93717 20.1924 8.60005 21.1043 10.4154 21.5061C12.2308 21.9079 14.1232 21.7828 15.8699 21.1456C17.6166 20.5084 19.145 19.3856 20.2753 17.9092C21.4056 16.4329 22.0907 14.6645 22.25 12.812C22.2585 12.7134 22.2474 12.6142 22.2173 12.5199C22.1873 12.4257 22.1389 12.3383 22.0749 12.2628C22.011 12.1874 21.9327 12.1253 21.8446 12.0802C21.7566 12.0351 21.6605 12.0079 21.5619 12.0001ZM12.5 5.25011C13.835 5.25011 15.1401 5.64599 16.2501 6.38769C17.3601 7.12939 18.2253 8.18359 18.7362 9.41699C19.2471 10.6504 19.3808 12.0076 19.1203 13.317C18.8599 14.6263 18.217 15.8291 17.273 16.7731C16.329 17.7171 15.1263 18.36 13.8169 18.6204C12.5075 18.8809 11.1503 18.7472 9.9169 18.2363C8.6835 17.7254 7.6293 16.8602 6.8876 15.7502C6.1459 14.6402 5.75002 13.3351 5.75002 12.0001C5.752 10.2105 6.4638 8.49477 7.72924 7.22933C8.99468 5.96389 10.7104 5.25209 12.5 5.25011ZM11.75 12.0001C11.75 12.199 11.829 12.3898 11.9697 12.5304C12.1103 12.6711 12.3011 12.7501 12.5 12.7501H17C17.1989 12.7501 17.3897 12.6711 17.5303 12.5304C17.671 12.3898 17.75 12.199 17.75 12.0001C17.75 11.8012 17.671 11.6104 17.5303 11.4698C17.3897 11.3291 17.1989 11.2501 17 11.2501H13.25V7.50011C13.25 7.30119 13.171 7.11043 13.0303 6.96978C12.8897 6.82912 12.6989 6.75011 12.5 6.75011C12.3011 6.75011 12.1103 6.82912 11.9697 6.96978C11.829 7.11043 11.75 7.30119 11.75 7.50011V12.0001ZM15.5 4.50011C15.7225 4.50011 15.94 4.43413 16.125 4.31051C16.31 4.18689 16.4542 4.01119 16.5394 3.80563C16.6245 3.60006 16.6468 3.37386 16.6034 3.15563C16.56 2.9374 16.4528 2.73695 16.2955 2.57961C16.1382 2.42228 15.9377 2.31513 15.7195 2.27172C15.5013 2.22831 15.2751 2.25059 15.0695 2.33574C14.8639 2.42089 14.6882 2.56508 14.5646 2.75009C14.441 2.9351 14.375 3.1526 14.375 3.37511C14.375 3.67348 14.4935 3.95962 14.7045 4.1706C14.9155 4.38158 15.2016 4.50011 15.5 4.50011Z" fill="white"/>
</svg>
