<svg width="25" height="24" viewBox="0 0 25 24" fill="none" xmlns="http://www.w3.org/2000/svg">
<path d="M21.6589 5.51906C21.5885 5.43481 21.5004 5.36705 21.401 5.32056C21.3015 5.27407 21.193 5.24998 21.0833 5.25H5.9595L5.50106 2.73187C5.43827 2.38625 5.25617 2.07363 4.98651 1.84851C4.71684 1.62339 4.37672 1.50005 4.02544 1.5H2.33325C2.13434 1.5 1.94357 1.57902 1.80292 1.71967C1.66227 1.86032 1.58325 2.05109 1.58325 2.25C1.58325 2.44891 1.66227 2.63968 1.80292 2.78033C1.94357 2.92098 2.13434 3 2.33325 3H4.02075L6.417 16.1522C6.48759 16.5422 6.65997 16.9067 6.91669 17.2087C6.56236 17.5397 6.30661 17.9623 6.17781 18.4298C6.049 18.8972 6.05217 19.3912 6.18697 19.8569C6.32176 20.3226 6.58291 20.7419 6.94146 21.0683C7.30001 21.3947 7.74195 21.6154 8.21827 21.7059C8.6946 21.7965 9.18669 21.7533 9.63999 21.5813C10.0933 21.4092 10.4901 21.115 10.7864 20.7312C11.0826 20.3474 11.2668 19.889 11.3185 19.407C11.3702 18.9249 11.2874 18.4379 11.0792 18H15.3373C15.1695 18.3513 15.0827 18.7357 15.0833 19.125C15.0833 19.6442 15.2372 20.1517 15.5256 20.5834C15.8141 21.0151 16.2241 21.3515 16.7037 21.5502C17.1834 21.7489 17.7112 21.8008 18.2204 21.6996C18.7296 21.5983 19.1973 21.3483 19.5644 20.9812C19.9315 20.614 20.1815 20.1463 20.2828 19.6371C20.3841 19.1279 20.3321 18.6001 20.1334 18.1205C19.9348 17.6408 19.5983 17.2308 19.1666 16.9424C18.7349 16.654 18.2274 16.5 17.7083 16.5H8.63044C8.4548 16.5 8.28474 16.4383 8.14991 16.3257C8.01507 16.2132 7.92402 16.0569 7.89263 15.8841L7.59544 14.25H18.4704C18.9974 14.2499 19.5075 14.0649 19.912 13.7272C20.3165 13.3896 20.5897 12.9206 20.6839 12.4022L21.8239 6.13406C21.8432 6.02572 21.8384 5.91447 21.8099 5.80818C21.7814 5.7019 21.7298 5.60319 21.6589 5.51906ZM17.7083 18C17.9308 18 18.1483 18.066 18.3333 18.1896C18.5183 18.3132 18.6625 18.4889 18.7476 18.6945C18.8328 18.9 18.855 19.1262 18.8116 19.3445C18.7682 19.5627 18.6611 19.7632 18.5037 19.9205C18.3464 20.0778 18.146 20.185 17.9277 20.2284C17.7095 20.2718 17.4833 20.2495 17.2777 20.1644C17.0722 20.0792 16.8965 19.935 16.7728 19.75C16.6492 19.565 16.5833 19.3475 16.5833 19.125C16.5833 18.8266 16.7018 18.5405 16.9128 18.3295C17.1237 18.1185 17.4099 18 17.7083 18ZM8.70825 18C8.93076 18 9.14826 18.066 9.33327 18.1896C9.51827 18.3132 9.66247 18.4889 9.74762 18.6945C9.83277 18.9 9.85504 19.1262 9.81164 19.3445C9.76823 19.5627 9.66108 19.7632 9.50375 19.9205C9.34641 20.0778 9.14596 20.185 8.92773 20.2284C8.7095 20.2718 8.4833 20.2495 8.27773 20.1644C8.07217 20.0792 7.89646 19.935 7.77285 19.75C7.64923 19.565 7.58325 19.3475 7.58325 19.125C7.58325 18.8266 7.70178 18.5405 7.91276 18.3295C8.12373 18.1185 8.40988 18 8.70825 18Z" fill="white"/>
</svg>
