<svg xmlns="http://www.w3.org/2000/svg" width="16" height="16" viewBox="0 0 16 16"><defs><style>.a,.b{fill:none;}.b{stroke:#666666;stroke-linejoin:round;stroke-width:1.2px;}</style></defs><g transform="translate(-10 -10)"><rect class="a" width="16" height="16" transform="translate(10 10)"/><g transform="translate(13 13)"><path class="b" d="M7.916,14.414H5.443A.443.443,0,0,1,5,13.971V11.5a.443.443,0,0,1,.13-.313l6.641-6.641a.443.443,0,0,1,.626,0L14.87,7.017a.443.443,0,0,1,0,.626L8.229,14.285a.443.443,0,0,1-.313.13Z" transform="translate(-5 -4.414)"/><path class="b" d="M17,8l3.1,3.1" transform="translate(-11.687 -6.412)"/></g></g><style type="text/css" media="screen">path{vector-effect:non-scaling-stroke}</style></svg>