<svg width="46" height="48" viewBox="0 0 46 48" fill="none" xmlns="http://www.w3.org/2000/svg">
<path d="M35.7254 23.9806C35.7254 33.3241 30.7004 42.5386 24.5002 42.5386C18.2999 42.5386 13.2749 33.3263 13.2749 23.9806C13.2749 14.6349 18.2999 8.69897 24.5002 8.69897C30.7004 8.69897 35.7254 14.6371 35.7254 23.9806Z" fill="#FF97B2"/>
<path d="M27.1681 37.6743C20.9679 37.6743 15.9429 28.462 15.9429 19.1163C15.9429 16.5836 16.3133 14.3046 16.9748 12.323C14.7015 14.9848 13.2749 18.996 13.2749 23.9783C13.2749 33.3218 18.2999 42.5363 24.5002 42.5363C28.447 42.5363 31.9153 38.8006 33.9152 33.6783C32.0366 36.1345 29.6994 37.6743 27.1681 37.6743Z" fill="#FF759C"/>
<path d="M25.0293 5.98943C25.1638 5.35734 26.1009 5.45576 26.1009 6.10097C26.1009 6.68275 26.9013 6.85116 27.1372 6.31968C27.4018 5.72915 28.2992 6.01786 28.1625 6.64994C28.039 7.2186 28.7865 7.54886 29.1305 7.07863C29.5119 6.5559 30.33 7.02395 30.0632 7.61229C29.825 8.14377 30.4865 8.62057 30.9209 8.23125C31.4038 7.7982 32.1049 8.42372 31.7213 8.94645C31.3773 9.41669 31.9241 10.0182 32.4312 9.72726C32.9957 9.40357 33.5491 10.1603 33.0641 10.5912C32.6275 10.9805 33.0376 11.6826 33.5932 11.501C34.2128 11.2998 34.5965 12.155 34.032 12.4787C33.5249 12.7696 33.7762 13.5395 34.3606 13.4782C35.0088 13.4104 35.205 14.3247 34.5855 14.5237C34.0276 14.703 34.1136 15.5101 34.6957 15.5691C35.344 15.6369 35.344 16.5709 34.6957 16.6387C34.1136 16.6977 34.0276 17.5048 34.5855 17.6841C35.205 17.8831 35.0088 18.7974 34.3606 18.7296C33.7785 18.6683 33.5249 19.4404 34.032 19.7291C34.5965 20.0506 34.2128 20.9058 33.5932 20.7068C33.0354 20.5274 32.6275 21.2295 33.0641 21.6166C33.5491 22.0475 32.9935 22.8042 32.4312 22.4805C31.9241 22.1896 31.3773 22.7933 31.7213 23.2613C32.1049 23.7841 31.4038 24.4096 30.9209 23.9765C30.4865 23.5872 29.825 24.064 30.0632 24.5955C30.3277 25.186 29.5119 25.6541 29.1305 25.1292C28.7865 24.6589 28.039 24.9892 28.1625 25.5579C28.2992 26.1899 27.4018 26.4786 27.1372 25.8881C26.8991 25.3566 26.0987 25.525 26.1009 26.1068C26.1009 26.752 25.1638 26.8505 25.0293 26.2184C24.908 25.6497 24.09 25.6497 23.9687 26.2184C23.8342 26.8505 22.8972 26.752 22.8972 26.1068C22.8972 25.525 22.0968 25.3566 21.8608 25.8881C21.5962 26.4786 20.6988 26.1899 20.8355 25.5579C20.959 24.9892 20.2115 24.6589 19.8676 25.1292C19.4861 25.6519 18.6681 25.1839 18.9349 24.5955C19.173 24.064 18.5116 23.5872 18.0772 23.9765C17.5943 24.4096 16.8931 23.7841 17.2768 23.2613C17.6208 22.7911 17.0739 22.1896 16.5668 22.4805C16.0023 22.8042 15.4489 22.0475 15.934 21.6166C16.3706 21.2295 15.9605 20.5252 15.4048 20.7068C14.7852 20.908 14.4016 20.0528 14.966 19.7291C15.4732 19.4382 15.2218 18.6683 14.6375 18.7296C13.9892 18.7974 13.793 17.8831 14.4126 17.6841C14.9704 17.5048 14.8844 16.6977 14.3023 16.6387C13.6541 16.5709 13.6541 15.6369 14.3023 15.5691C14.8844 15.5101 14.9704 14.703 14.4126 14.5237C13.793 14.3247 13.9892 13.4104 14.6375 13.4782C15.2196 13.5395 15.4732 12.7674 14.966 12.4787C14.4016 12.1572 14.7852 11.302 15.4048 11.501C15.9605 11.6804 16.3706 10.9783 15.934 10.5912C15.4489 10.1603 16.0046 9.40357 16.5668 9.72726C17.0739 10.0182 17.6208 9.4145 17.2768 8.94645C16.8931 8.42372 17.5943 7.7982 18.0772 8.23125C18.5116 8.62057 19.173 8.14377 18.9349 7.61229C18.6703 7.02176 19.4861 6.55371 19.8676 7.07863C20.2115 7.54886 20.959 7.2186 20.8355 6.64994C20.6988 6.01786 21.5962 5.72915 21.8608 6.31968C22.099 6.85116 22.8994 6.68275 22.8972 6.10097C22.8972 5.45576 23.8342 5.35734 23.9687 5.98943C24.09 6.55808 24.908 6.55808 25.0293 5.98943Z" fill="#EFCBA0"/>
<path d="M14.8955 17.7099C15.8234 17.7099 16.5756 16.9638 16.5756 16.0433C16.5756 15.1229 15.8234 14.3767 14.8955 14.3767C13.9676 14.3767 13.2153 15.1229 13.2153 16.0433C13.2153 16.9638 13.9676 17.7099 14.8955 17.7099Z" fill="#FFBFB6"/>
<path d="M34.1047 17.7097C35.0326 17.7097 35.7849 16.9635 35.7849 16.0431C35.7849 15.1226 35.0326 14.3765 34.1047 14.3765C33.1768 14.3765 32.4246 15.1226 32.4246 16.0431C32.4246 16.9635 33.1768 17.7097 34.1047 17.7097Z" fill="#FFD9D4"/>
<path d="M24.5001 23.3901C29.639 23.3901 33.8049 20.0089 33.8049 15.8379C33.8049 11.6669 29.639 8.28564 24.5001 8.28564C19.3612 8.28564 15.1953 11.6669 15.1953 15.8379C15.1953 20.0089 19.3612 23.3901 24.5001 23.3901Z" fill="#FFCCC2"/>
<path d="M24.5001 8.28564C21.8277 8.28564 19.4222 9.19987 17.7244 10.6653C19.3781 9.44265 21.5764 8.69902 23.9886 8.69902C29.1282 8.69902 33.2933 12.0803 33.2933 16.2512C33.2933 18.2547 32.332 20.0722 30.7643 21.4239C32.6341 20.0416 33.8071 18.0513 33.8071 15.8379C33.8071 11.667 29.6398 8.28564 24.5023 8.28564H24.5001Z" fill="#FFD9D4"/>
<path d="M26.4515 22.6273C21.3118 22.6273 17.1467 19.246 17.1467 15.0751C17.1467 12.3915 18.8731 10.0381 21.4705 8.69739C17.8192 9.71879 15.1953 12.5293 15.1953 15.8384C15.1953 20.0093 19.3626 23.3907 24.5001 23.3907C26.3324 23.3907 28.0412 22.9576 29.481 22.2162C28.5307 22.4808 27.512 22.6273 26.4493 22.6273H26.4515Z" fill="#FFBFB6"/>
<path d="M14.3113 15.2451C14.3113 15.2451 14.7853 15.0679 15.1646 15.641C15.5438 16.214 15.3366 16.9511 14.8625 16.9883C14.4965 17.0189 14.3818 16.6318 14.4899 16.4218C14.5979 16.2118 14.8934 16.2884 14.8934 16.2884C14.8934 16.2884 15.008 15.5229 14.3091 15.2451H14.3113Z" fill="#DD9892"/>
<path d="M34.687 15.2451C34.687 15.2451 34.2129 15.0679 33.8337 15.641C33.4566 16.214 33.6617 16.9511 34.1358 16.9883C34.5018 17.0189 34.6164 16.6318 34.5084 16.4218C34.4003 16.2118 34.1049 16.2884 34.1049 16.2884C34.1049 16.2884 33.9902 15.5229 34.687 15.2451Z" fill="#F7C1BA"/>
<path d="M18.8181 14.1872C18.8181 14.1872 19.376 12.2735 20.9723 12.4266C22.3526 12.5578 22.5863 13.8941 22.5863 13.8941C22.5863 13.8941 20.8753 11.7967 18.8159 14.1872H18.8181Z" fill="#966D7D"/>
<path d="M30.2199 14.1871C30.2199 14.1871 29.662 12.2733 28.0657 12.4264C26.6854 12.5577 26.4517 13.894 26.4517 13.894C26.4517 13.894 28.1627 11.7965 30.2221 14.1871H30.2199Z" fill="#966D7D"/>
<path d="M24.5001 8.28564C21.863 8.28564 19.4861 9.17581 17.7927 10.6062C20.5401 11.1902 22.4628 10.2541 22.4628 10.2541L21.3669 11.223C24.3083 11.2995 24.9433 10.44 24.9433 10.44L24.6545 11.4701C27.2695 11.2995 28.5506 9.03584 28.5506 9.03584C27.3268 8.55466 25.9532 8.28564 24.5001 8.28564Z" fill="#726A6D"/>
<path d="M21.8321 16.3987C21.4682 16.3987 21.1772 16.7071 21.2081 17.0658C21.4506 19.8544 22.8287 21.9934 24.5 21.9934C26.1713 21.9934 27.5494 19.8544 27.792 17.0658C27.8228 16.7071 27.5318 16.3987 27.168 16.3987H21.8321Z" fill="#726A6D"/>
<path d="M24.5 19.4884C23.5783 19.4884 22.6853 19.5453 21.832 19.6503C22.4384 21.0697 23.4063 21.9905 24.5 21.9905C25.5936 21.9905 26.5616 21.0675 27.168 19.6503C26.3146 19.5431 25.4216 19.4884 24.5 19.4884Z" fill="#D18F80"/>
<path d="M23.693 21.1663C23.2167 20.5933 23.2057 20.005 23.3512 19.5194C22.8331 19.5457 22.3259 19.5894 21.832 19.6506C22.4384 21.0701 23.4063 21.9909 24.5 21.9909C24.8528 21.9909 25.1901 21.8947 25.5076 21.7175C24.8572 21.8072 24.1582 21.7262 23.6908 21.1641L23.693 21.1663Z" fill="#C68175"/>
<path d="M22.1849 14.62C22.1849 14.9656 21.5477 15.2456 20.7628 15.2456C19.9778 15.2456 19.3406 14.9656 19.3406 14.62C19.3406 14.2745 19.9778 13.9945 20.7628 13.9945C21.5477 13.9945 22.1849 14.2745 22.1849 14.62Z" fill="#FFBFB6"/>
<path d="M20.2623 14.6545C20.1609 14.8207 20.0418 14.9389 19.9955 14.9192C19.9492 14.8995 19.9955 14.7508 20.097 14.5845C20.1984 14.4183 20.3175 14.3002 20.3638 14.3199C20.4101 14.3396 20.3638 14.4883 20.2623 14.6545Z" fill="#FFD2CF"/>
<path d="M20.8466 14.6545C20.7451 14.8207 20.6261 14.9389 20.5798 14.9192C20.5335 14.8995 20.5798 14.7508 20.6812 14.5845C20.7826 14.4183 20.9017 14.3002 20.948 14.3199C20.9943 14.3396 20.948 14.4883 20.8466 14.6545Z" fill="#FFD2CF"/>
<path d="M21.431 14.6545C21.3296 14.8207 21.2105 14.9389 21.1642 14.9192C21.1179 14.8995 21.1642 14.7508 21.2657 14.5845C21.3671 14.4183 21.4862 14.3002 21.5325 14.3199C21.5788 14.3396 21.5325 14.4883 21.431 14.6545Z" fill="#FFD2CF"/>
<path d="M29.6595 14.6199C29.6595 14.9655 29.0223 15.2454 28.2374 15.2454C27.4524 15.2454 26.8152 14.9655 26.8152 14.6199C26.8152 14.2743 27.4524 13.9944 28.2374 13.9944C29.0223 13.9944 29.6595 14.2743 29.6595 14.6199Z" fill="#FFBFB6"/>
<path d="M27.7347 14.6544C27.6333 14.8206 27.5143 14.9387 27.468 14.919C27.4216 14.8994 27.4679 14.7506 27.5694 14.5844C27.6708 14.4182 27.7899 14.3001 27.8362 14.3198C27.8825 14.3395 27.8362 14.4882 27.7347 14.6544Z" fill="#FFD2CF"/>
<path d="M28.3192 14.6544C28.2178 14.8206 28.0987 14.9387 28.0524 14.919C28.0061 14.8994 28.0524 14.7506 28.1539 14.5844C28.2553 14.4182 28.3743 14.3001 28.4206 14.3198C28.4669 14.3395 28.4206 14.4882 28.3192 14.6544Z" fill="#FFD2CF"/>
<path d="M28.9034 14.6544C28.802 14.8206 28.683 14.9387 28.6367 14.919C28.5903 14.8994 28.6366 14.7506 28.7381 14.5844C28.8395 14.4182 28.9586 14.3001 29.0049 14.3198C29.0512 14.3395 29.0049 14.4882 28.9034 14.6544Z" fill="#FFD2CF"/>
<path opacity="0.1" d="M17.4289 29.8215C18.3181 29.4542 18.7387 28.4413 18.3684 27.5593C17.9981 26.6773 16.977 26.26 16.0878 26.6274C15.1986 26.9947 14.778 28.0075 15.1483 28.8896C15.5186 29.7716 16.5397 30.1888 17.4289 29.8215Z" fill="white"/>
<path opacity="0.1" d="M27.7921 31.0197C27.7921 31.9755 27.0116 32.7497 26.0481 32.7497C25.0845 32.7497 24.304 31.9755 24.304 31.0197C24.304 30.0639 25.0845 29.2897 26.0481 29.2897C27.0116 29.2897 27.7921 30.0639 27.7921 31.0197Z" fill="white"/>
<path opacity="0.1" d="M32.4245 28.3795C33.3878 28.3795 34.1686 27.6049 34.1686 26.6495C34.1686 25.694 33.3878 24.9194 32.4245 24.9194C31.4613 24.9194 30.6804 25.694 30.6804 26.6495C30.6804 27.6049 31.4613 28.3795 32.4245 28.3795Z" fill="white"/>
<path opacity="0.1" d="M27.9553 39.4659C28.9185 39.4659 29.6994 38.6914 29.6994 37.7359C29.6994 36.7804 28.9185 36.0059 27.9553 36.0059C26.992 36.0059 26.2112 36.7804 26.2112 37.7359C26.2112 38.6914 26.992 39.4659 27.9553 39.4659Z" fill="white"/>
<path opacity="0.1" d="M20.1784 37.5325C21.1417 37.5325 21.9225 36.7579 21.9225 35.8024C21.9225 34.8469 21.1417 34.0724 20.1784 34.0724C19.2152 34.0724 18.4343 34.8469 18.4343 35.8024C18.4343 36.7579 19.2152 37.5325 20.1784 37.5325Z" fill="white"/>
</svg>
