<svg width="49" height="48" viewBox="0 0 49 48" fill="none" xmlns="http://www.w3.org/2000/svg">
<path d="M34.7939 37.878H14.6321L17.5117 28.6329L19.2646 29.171L17.1192 36.0583H34.7939V37.878Z" fill="#C9B9C0"/>
<path d="M19.291 7.54297C17.9835 7.54297 16.7223 7.742 15.5338 8.10725C15.5338 8.10725 12.7865 11.0468 10.134 11.4077C10.134 11.4077 9.78558 14.4237 7.21022 16.2063C7.21022 16.2063 7.68869 18.3562 6.5752 20.0272C6.5752 20.071 6.573 20.1147 6.573 20.1584H21.2424V7.54297H19.291Z" fill="#FEA3BC"/>
<path d="M7.83423 21.0791C8.359 26.816 15.4589 31.3587 24.1419 31.3587C32.8249 31.3587 39.9247 26.816 40.4495 21.0791H7.83423Z" fill="#FF97B2"/>
<path d="M11.0203 21.0788H7.83423C8.359 26.8157 15.4589 31.3585 24.1419 31.3585C24.6799 31.3585 25.2112 31.341 25.7338 31.306C17.7895 30.7898 11.512 26.4592 11.0181 21.0767L11.0203 21.0788Z" fill="#FF759C"/>
<path d="M37.2635 21.079H40.4496C39.9249 26.8159 32.825 31.3586 24.142 31.3586C23.604 31.3586 23.0726 31.3411 22.55 31.3061C30.4944 30.7899 36.7718 26.4594 37.2657 21.0768L37.2635 21.079Z" fill="#FEA3BC"/>
<path d="M41.4417 22.2159H6.84205C6.40547 22.2159 6.03063 21.9535 5.86968 21.5773C5.81676 21.4526 5.78589 21.3148 5.78589 21.1705C5.78589 20.9911 5.83219 20.8227 5.91157 20.6762C6.09017 20.3481 6.43855 20.125 6.83984 20.125H41.4395C41.6953 20.125 41.929 20.2147 42.1098 20.3634C42.3436 20.5559 42.4935 20.8446 42.4935 21.1705C42.4935 21.4592 42.3744 21.7216 42.1848 21.9097C41.993 22.1 41.7306 22.2159 41.4395 22.2159H41.4417Z" fill="#FF97B2"/>
<path d="M42.2355 21.1702H7.63582C7.19925 21.1702 6.82441 20.9078 6.66345 20.5316C6.61494 20.4157 6.58628 20.2888 6.58187 20.1576C6.29302 20.2298 6.04827 20.4201 5.91157 20.6759C5.83219 20.8225 5.78589 20.9931 5.78589 21.1702C5.78589 21.3146 5.81455 21.4524 5.86968 21.5771C6.03063 21.9532 6.40547 22.2157 6.84205 22.2157H41.4417C41.7328 22.2157 41.9974 22.0976 42.187 21.9095C42.3788 21.7192 42.4957 21.459 42.4957 21.1702C42.4957 21.1593 42.4957 21.1484 42.4957 21.1374C42.4141 21.1571 42.3259 21.1702 42.2377 21.1702H42.2355Z" fill="#FF759C"/>
<path d="M19.2911 7.54297C17.9836 7.54297 16.7224 7.742 15.5339 8.10725L21.2425 20.1584V7.54297H19.2911Z" fill="#FF759C"/>
<path d="M10.1339 11.4067C10.1339 11.4067 9.78556 14.4228 7.21021 16.2053C12.9055 17.8413 21.2423 20.1575 21.2423 20.1575L10.1339 11.4067Z" fill="#FF759C"/>
<path d="M15.8757 40.4572C17.818 40.4572 19.3926 38.8954 19.3926 36.9687C19.3926 35.0421 17.818 33.4802 15.8757 33.4802C13.9334 33.4802 12.3589 35.0421 12.3589 36.9687C12.3589 38.8954 13.9334 40.4572 15.8757 40.4572Z" fill="#726A6D"/>
<path d="M18.1744 37.4692C18.4528 36.2091 17.6486 34.9637 16.3782 34.6875C15.1078 34.4114 13.8523 35.2091 13.5739 36.4692C13.2955 37.7294 14.0997 38.9748 15.3701 39.251C16.6405 39.5271 17.8961 38.7294 18.1744 37.4692Z" fill="#FF97B2"/>
<path d="M17.4964 36.9686C17.4964 37.8566 16.7709 38.5762 15.8757 38.5762C14.9805 38.5762 14.2551 37.8566 14.2551 36.9686C14.2551 36.0807 14.9805 35.3611 15.8757 35.3611C16.7709 35.3611 17.4964 36.0807 17.4964 36.9686Z" fill="white"/>
<path d="M16.8282 36.9684C16.8282 37.4911 16.4026 37.9133 15.8756 37.9133C15.3486 37.9133 14.9231 37.4911 14.9231 36.9684C14.9231 36.4457 15.3486 36.0236 15.8756 36.0236C16.4026 36.0236 16.8282 36.4457 16.8282 36.9684Z" fill="#FF97B2"/>
<path d="M34.794 40.4572C36.7363 40.4572 38.3108 38.8954 38.3108 36.9687C38.3108 35.0421 36.7363 33.4802 34.794 33.4802C32.8516 33.4802 31.2771 35.0421 31.2771 36.9687C31.2771 38.8954 32.8516 40.4572 34.794 40.4572Z" fill="#726A6D"/>
<path d="M35.6915 39.1248C36.8944 38.6342 37.4686 37.2693 36.974 36.0762C36.4795 34.883 35.1035 34.3134 33.9006 34.804C32.6978 35.2946 32.1236 36.6595 32.6181 37.8527C33.1127 39.0458 34.4887 39.6154 35.6915 39.1248Z" fill="#FF97B2"/>
<path d="M36.3499 37.3923C36.5897 36.5369 36.085 35.6507 35.2227 35.4128C34.3604 35.175 33.4669 35.6756 33.2272 36.5309C32.9874 37.3863 33.492 38.2725 34.3543 38.5104C35.2167 38.7483 36.1101 38.2477 36.3499 37.3923Z" fill="white"/>
<path d="M35.7464 36.9684C35.7464 37.4911 35.3208 37.9133 34.7938 37.9133C34.2669 37.9133 33.8413 37.4911 33.8413 36.9684C33.8413 36.4457 34.2669 36.0236 34.7938 36.0236C35.3208 36.0236 35.7464 36.4457 35.7464 36.9684Z" fill="#FF97B2"/>
</svg>
