<svg width="49" height="48" viewBox="0 0 49 48" fill="none" xmlns="http://www.w3.org/2000/svg">
<path d="M32.3112 20.7496V19.0095H16.6866V20.7496C15.4537 21.0412 14.5371 22.1391 14.5371 23.4528V40.1841C14.5371 41.7207 15.7922 42.9657 17.3413 42.9657H31.6564C33.2056 42.9657 34.4607 41.7207 34.4607 40.1841V23.4528C34.4607 22.1391 33.544 21.0437 32.3112 20.7496Z" fill="#F9C5D5"/>
<path d="M31.9776 26.2645C24.8028 22.8433 24.6842 30.399 20.1999 26.9262C18.6285 25.7106 17.0819 25.37 15.7329 25.4362V40.1848C15.7329 41.0647 16.4543 41.7803 17.3413 41.7803H31.6564C32.5434 41.7803 33.2648 41.0647 33.2648 40.1848V26.7988C32.8498 26.6542 32.4199 26.4753 31.9776 26.2645Z" fill="white"/>
<g style="mix-blend-mode:multiply" opacity="0.3">
<path d="M20.4692 40.1841V23.4528C20.4692 22.1391 21.3858 21.0437 22.6187 20.7496V19.0095H16.6866V20.7496C15.4537 21.0412 14.5371 22.1391 14.5371 23.4528V40.1841C14.5371 41.7207 15.7922 42.9657 17.3413 42.9657H23.2734C21.7243 42.9657 20.4692 41.7207 20.4692 40.1841Z" fill="#FEAECB"/>
</g>
<path d="M28.2963 12.9116C28.2272 12.8675 28.1605 12.8234 28.0962 12.7768C27.1598 12.0955 26.8732 10.8235 27.4143 9.80157C27.696 9.2673 27.8343 8.64726 27.7726 7.99046C27.6317 6.46854 26.4038 5.22355 24.872 5.05445C22.888 4.83878 21.2104 6.37296 21.2104 8.29435C21.2104 8.82127 21.3364 9.31877 21.5613 9.75746C22.0925 10.8039 21.8528 12.0832 20.8991 12.7768C20.8349 12.8234 20.7707 12.8675 20.7015 12.9116C19.0461 13.963 17.9022 15.6295 17.6057 17.2372H31.3946C31.0981 15.6295 29.9517 13.963 28.2988 12.9116H28.2963Z" fill="#F9C5D5"/>
<path d="M23.9702 11.9028C24.8621 10.05 23.3327 10.8514 21.9763 7.98649C21.7317 7.47183 21.6798 6.97433 21.754 6.50378C21.413 7.01844 21.2129 7.63359 21.2129 8.29529C21.2129 8.8222 21.3389 9.31971 21.5637 9.75839C22.0949 10.8049 21.8553 12.0842 20.9016 12.7777C20.8373 12.8243 20.7731 12.8684 20.7039 12.9125C19.0486 13.9639 17.9046 15.6304 17.6082 17.2381H24.6249C22.9448 15.7284 23.1524 13.6036 23.9702 11.9028Z" fill="#FEAECB"/>
<path d="M32.7732 16.3264H16.2271C15.2937 16.3264 14.5371 17.0769 14.5371 18.0027C14.5371 18.9285 15.2937 19.6791 16.2271 19.6791H32.7732C33.7065 19.6791 34.4631 18.9285 34.4631 18.0027C34.4631 17.0769 33.7065 16.3264 32.7732 16.3264Z" fill="#FF97B2"/>
<path d="M34.3322 18.0025H17.7861C16.8546 18.0025 16.0986 17.255 16.0961 16.3335C15.224 16.3997 14.5371 17.1226 14.5371 18.0025C14.5371 18.9289 15.2931 19.6788 16.2271 19.6788H32.7707C33.7046 19.6788 34.4607 18.9289 34.4607 18.0025C34.4607 18.0025 34.4607 17.9976 34.4607 17.9951C34.4162 17.9976 34.3742 18.0025 34.3297 18.0025H34.3322Z" fill="#FF759C"/>
<path opacity="0.6" d="M26.9499 6.8267C27.2464 7.41979 27.1821 8.04963 26.8041 8.23589C26.4286 8.42215 25.8825 8.0913 25.5861 7.49821C25.2896 6.90513 25.3538 6.27528 25.7318 6.08902C26.1074 5.90277 26.6534 6.23362 26.9499 6.8267Z" fill="white"/>
<path d="M33.2673 24.0092H29.5439V24.5875H33.2673V24.0092Z" fill="#FEAECB"/>
<path d="M33.2673 25.7518H29.5439V26.3302H33.2673V25.7518Z" fill="#FEAECB"/>
<path d="M33.2673 27.4972H29.5439V28.0756H33.2673V27.4972Z" fill="#FEAECB"/>
<path d="M33.2673 29.239H29.5439V29.8174H33.2673V29.239Z" fill="#FEAECB"/>
<path d="M33.2674 30.9817H25.8208V31.5601H33.2674V30.9817Z" fill="#FEAECB"/>
<path d="M33.2673 32.7271H29.5439V33.3054H33.2673V32.7271Z" fill="#FEAECB"/>
<path d="M33.2673 34.4688H29.5439V35.0471H33.2673V34.4688Z" fill="#FEAECB"/>
<path d="M33.2673 36.2141H29.5439V36.7925H33.2673V36.2141Z" fill="#FEAECB"/>
<path d="M33.2673 37.9559H29.5439V38.5343H33.2673V37.9559Z" fill="#FEAECB"/>
<path d="M33.2674 39.7021H25.8208V40.2805H33.2674V39.7021Z" fill="#FEAECB"/>
</svg>
